<?xml version="1.0" encoding="UTF-8" standalone="yes"?> 
<!DOCTYPE svg PUBLIC "-//W3C//DTD SVG 1.1//EN" "http://www.w3.org/Graphics/SVG/1.1/DTD/svg11.dtd"> 

<svg xmlns="http://www.w3.org/2000/svg" 
     xmlns:xlink="http://www.w3.org/1999/xlink" 
     width="500" height="500" 
     viewBox="-37.64 -54.767447 95.5864 109.545632">

<g transform="translate(-37.64,-54.767447)">
	<rect width="100%" height="100%" style="fill:white;fill-opacity:1" />
</g>

<polyline points="
11.5, -47.631397
11, -48.497423
10, -48.497423
10.5, -47.631397
10, -46.765372
9.5, -47.631397
9, -48.497423
9.5, -49.363448
9, -50.229473
8, -50.229473
7, -50.229473
7.5, -49.363448
8.5, -49.363448
8, -48.497423
7, -48.497423
6.5, -47.631397
7, -46.765372
7.5, -45.899346
8, -46.765372
7.5, -47.631397
8.5, -47.631397
9, -46.765372
8.5, -45.899346
9, -45.033321
9.5, -45.899346
10.5, -45.899346
10, -45.033321
9.5, -44.167296
8.5, -44.167296
8, -45.033321
7, -45.033321
7.5, -44.167296
7, -43.30127
6.5, -44.167296
6, -45.033321
6.5, -45.899346
6, -46.765372
5, -46.765372
5.5, -45.899346
5, -45.033321
4.5, -45.899346
4, -46.765372
4.5, -47.631397
5.5, -47.631397
6, -48.497423
6.5, -49.363448
5.5, -49.363448
5, -48.497423
4.5, -49.363448
5, -50.229473
4.5, -51.095499
3.5, -51.095499
4, -50.229473
3.5, -49.363448
3, -50.229473
2.5, -51.095499
3, -51.961524
2.5, -52.82755
1.5, -52.82755
0.5, -52.82755
1, -51.961524
2, -51.961524
1.5, -51.095499
0.5, -51.095499
-0, -51.961524
-1, -51.961524
-2, -51.961524
-1.5, -51.095499
-0.5, -51.095499
-1, -50.229473
-2, -50.229473
-2.5, -49.363448
-2, -48.497423
-1.5, -47.631397
-1, -48.497423
-1.5, -49.363448
-0.5, -49.363448
-0, -48.497423
1, -48.497423
1.5, -49.363448
0.5, -49.363448
-0, -50.229473
1, -50.229473
2, -50.229473
2.5, -49.363448
2, -48.497423
2.5, -47.631397
3, -48.497423
4, -48.497423
3.5, -47.631397
3, -46.765372
2, -46.765372
1.5, -47.631397
0.5, -47.631397
-0.5, -47.631397
-0, -46.765372
1, -46.765372
0.5, -45.899346
-0.5, -45.899346
-1, -45.033321
-0.5, -44.167296
-0, -45.033321
1, -45.033321
0.5, -44.167296
-0, -43.30127
-1, -43.30127
-1.5, -42.435245
-1, -41.569219
-0.5, -40.703194
-0, -41.569219
-0.5, -42.435245
0.5, -42.435245
1, -41.569219
0.5, -40.703194
1, -39.837169
1.5, -38.971143
2, -39.837169
1.5, -40.703194
2.5, -40.703194
3, -39.837169
4, -39.837169
4.5, -40.703194
5, -41.569219
4, -41.569219
3.5, -40.703194
3, -41.569219
3.5, -42.435245
3, -43.30127
2, -43.30127
2.5, -42.435245
2, -41.569219
1.5, -42.435245
1, -43.30127
1.5, -44.167296
2.5, -44.167296
3, -45.033321
2, -45.033321
1.5, -45.899346
2.5, -45.899346
3.5, -45.899346
4, -45.033321
3.5, -44.167296
4, -43.30127
4.5, -42.435245
5, -43.30127
4.5, -44.167296
5.5, -44.167296
6, -43.30127
5.5, -42.435245
6, -41.569219
6.5, -42.435245
7.5, -42.435245
7, -41.569219
6.5, -40.703194
5.5, -40.703194
5, -39.837169
5.5, -38.971143
6, -38.105118
6.5, -38.971143
6, -39.837169
7, -39.837169
7.5, -38.971143
8.5, -38.971143
9, -39.837169
9.5, -40.703194
8.5, -40.703194
8, -39.837169
7.5, -40.703194
8, -41.569219
9, -41.569219
9.5, -42.435245
8.5, -42.435245
8, -43.30127
9, -43.30127
10, -43.30127
10.5, -42.435245
10, -41.569219
10.5, -40.703194
11, -41.569219
12, -41.569219
11.5, -40.703194
11, -39.837169
10, -39.837169
9.5, -38.971143
10, -38.105118
10.5, -38.971143
11.5, -38.971143
11, -38.105118
10.5, -37.239092
9.5, -37.239092
9, -38.105118
8, -38.105118
7, -38.105118
7.5, -37.239092
8.5, -37.239092
8, -36.373067
7, -36.373067
6.5, -37.239092
5.5, -37.239092
6, -36.373067
5.5, -35.507042
5, -36.373067
4.5, -37.239092
5, -38.105118
4.5, -38.971143
3.5, -38.971143
2.5, -38.971143
3, -38.105118
4, -38.105118
3.5, -37.239092
2.5, -37.239092
2, -36.373067
2.5, -35.507042
3, -34.641016
3.5, -35.507042
3, -36.373067
4, -36.373067
4.5, -35.507042
4, -34.641016
4.5, -33.774991
5, -34.641016
6, -34.641016
5.5, -33.774991
5, -32.908965
4, -32.908965
3.5, -33.774991
2.5, -33.774991
3, -32.908965
2.5, -32.04294
2, -32.908965
1.5, -33.774991
2, -34.641016
1.5, -35.507042
0.5, -35.507042
1, -34.641016
0.5, -33.774991
-0, -34.641016
-0.5, -35.507042
-0, -36.373067
1, -36.373067
1.5, -37.239092
2, -38.105118
1, -38.105118
0.5, -37.239092
-0, -38.105118
0.5, -38.971143
-0, -39.837169
-1, -39.837169
-0.5, -38.971143
-1, -38.105118
-1.5, -38.971143
-2, -39.837169
-1.5, -40.703194
-2, -41.569219
-3, -41.569219
-4, -41.569219
-3.5, -40.703194
-2.5, -40.703194
-3, -39.837169
-4, -39.837169
-4.5, -38.971143
-4, -38.105118
-3.5, -37.239092
-3, -38.105118
-3.5, -38.971143
-2.5, -38.971143
-2, -38.105118
-2.5, -37.239092
-2, -36.373067
-1.5, -37.239092
-0.5, -37.239092
-1, -36.373067
-1.5, -35.507042
-2.5, -35.507042
-3, -36.373067
-4, -36.373067
-3.5, -35.507042
-4, -34.641016
-4.5, -35.507042
-5, -36.373067
-4.5, -37.239092
-5, -38.105118
-6, -38.105118
-5.5, -37.239092
-6, -36.373067
-6.5, -37.239092
-7, -38.105118
-6.5, -38.971143
-5.5, -38.971143
-5, -39.837169
-4.5, -40.703194
-5.5, -40.703194
-6, -39.837169
-6.5, -40.703194
-6, -41.569219
-5, -41.569219
-4.5, -42.435245
-5.5, -42.435245
-6, -43.30127
-5, -43.30127
-4, -43.30127
-3.5, -42.435245
-2.5, -42.435245
-2, -43.30127
-1.5, -44.167296
-2.5, -44.167296
-3, -43.30127
-3.5, -44.167296
-3, -45.033321
-2, -45.033321
-1.5, -45.899346
-1, -46.765372
-2, -46.765372
-2.5, -45.899346
-3, -46.765372
-2.5, -47.631397
-3, -48.497423
-4, -48.497423
-5, -48.497423
-4.5, -47.631397
-3.5, -47.631397
-4, -46.765372
-5, -46.765372
-5.5, -45.899346
-5, -45.033321
-4.5, -45.899346
-3.5, -45.899346
-4, -45.033321
-4.5, -44.167296
-5.5, -44.167296
-6, -45.033321
-7, -45.033321
-6.5, -44.167296
-7, -43.30127
-7.5, -44.167296
-8, -45.033321
-7.5, -45.899346
-6.5, -45.899346
-6, -46.765372
-5.5, -47.631397
-6.5, -47.631397
-7, -46.765372
-7.5, -47.631397
-7, -48.497423
-7.5, -49.363448
-8.5, -49.363448
-8, -48.497423
-8.5, -47.631397
-9, -48.497423
-9.5, -49.363448
-9, -50.229473
-9.5, -51.095499
-10.5, -51.095499
-11.5, -51.095499
-11, -50.229473
-10, -50.229473
-10.5, -49.363448
-11.5, -49.363448
-12, -48.497423
-11.5, -47.631397
-11, -46.765372
-10.5, -47.631397
-11, -48.497423
-10, -48.497423
-9.5, -47.631397
-10, -46.765372
-9.5, -45.899346
-9, -46.765372
-8, -46.765372
-8.5, -45.899346
-9, -45.033321
-10, -45.033321
-10.5, -45.899346
-11.5, -45.899346
-11, -45.033321
-11.5, -44.167296
-12, -45.033321
-12.5, -45.899346
-12, -46.765372
-12.5, -47.631397
-13.5, -47.631397
-13, -46.765372
-13.5, -45.899346
-14, -46.765372
-14.5, -47.631397
-14, -48.497423
-13, -48.497423
-12.5, -49.363448
-12, -50.229473
-13, -50.229473
-13.5, -49.363448
-14, -50.229473
-13.5, -51.095499
-14, -51.961524
-15, -51.961524
-14.5, -51.095499
-15, -50.229473
-15.5, -51.095499
-16, -51.961524
-15.5, -52.82755
-16, -53.693575
-17, -53.693575
-18, -53.693575
-17.5, -52.82755
-16.5, -52.82755
-17, -51.961524
-18, -51.961524
-18.5, -52.82755
-19.5, -52.82755
-20.5, -52.82755
-20, -51.961524
-19, -51.961524
-19.5, -51.095499
-20.5, -51.095499
-21, -50.229473
-20.5, -49.363448
-20, -48.497423
-19.5, -49.363448
-20, -50.229473
-19, -50.229473
-18.5, -49.363448
-17.5, -49.363448
-17, -50.229473
-18, -50.229473
-18.5, -51.095499
-17.5, -51.095499
-16.5, -51.095499
-16, -50.229473
-16.5, -49.363448
-16, -48.497423
-15.5, -49.363448
-14.5, -49.363448
-15, -48.497423
-15.5, -47.631397
-16.5, -47.631397
-17, -48.497423
-18, -48.497423
-19, -48.497423
-18.5, -47.631397
-17.5, -47.631397
-18, -46.765372
-19, -46.765372
-19.5, -47.631397
-20.5, -47.631397
-20, -46.765372
-20.5, -45.899346
-21, -46.765372
-21.5, -47.631397
-21, -48.497423
-21.5, -49.363448
-22.5, -49.363448
-23.5, -49.363448
-23, -48.497423
-22, -48.497423
-22.5, -47.631397
-23.5, -47.631397
-24, -48.497423
-25, -48.497423
-26, -48.497423
-25.5, -47.631397
-24.5, -47.631397
-25, -46.765372
-26, -46.765372
-26.5, -45.899346
-26, -45.033321
-25.5, -44.167296
-25, -45.033321
-25.5, -45.899346
-24.5, -45.899346
-24, -45.033321
-23, -45.033321
-22.5, -45.899346
-23.5, -45.899346
-24, -46.765372
-23, -46.765372
-22, -46.765372
-21.5, -45.899346
-22, -45.033321
-21.5, -44.167296
-21, -45.033321
-20, -45.033321
-20.5, -44.167296
-21, -43.30127
-22, -43.30127
-22.5, -44.167296
-23.5, -44.167296
-24.5, -44.167296
-24, -43.30127
-23, -43.30127
-23.5, -42.435245
-24.5, -42.435245
-25, -41.569219
-24.5, -40.703194
-24, -41.569219
-23, -41.569219
-23.5, -40.703194
-24, -39.837169
-25, -39.837169
-25.5, -38.971143
-25, -38.105118
-24.5, -37.239092
-24, -38.105118
-24.5, -38.971143
-23.5, -38.971143
-23, -38.105118
-23.5, -37.239092
-23, -36.373067
-22.5, -35.507042
-22, -36.373067
-22.5, -37.239092
-21.5, -37.239092
-21, -36.373067
-20, -36.373067
-19.5, -37.239092
-19, -38.105118
-20, -38.105118
-20.5, -37.239092
-21, -38.105118
-20.5, -38.971143
-21, -39.837169
-22, -39.837169
-21.5, -38.971143
-22, -38.105118
-22.5, -38.971143
-23, -39.837169
-22.5, -40.703194
-21.5, -40.703194
-21, -41.569219
-22, -41.569219
-22.5, -42.435245
-21.5, -42.435245
-20.5, -42.435245
-20, -41.569219
-20.5, -40.703194
-20, -39.837169
-19.5, -38.971143
-19, -39.837169
-19.5, -40.703194
-18.5, -40.703194
-18, -39.837169
-17, -39.837169
-16.5, -40.703194
-17.5, -40.703194
-18, -41.569219
-17, -41.569219
-16, -41.569219
-15.5, -40.703194
-14.5, -40.703194
-14, -41.569219
-13.5, -42.435245
-14.5, -42.435245
-15, -41.569219
-15.5, -42.435245
-15, -43.30127
-15.5, -44.167296
-16.5, -44.167296
-17.5, -44.167296
-17, -43.30127
-16, -43.30127
-16.5, -42.435245
-17.5, -42.435245
-18, -43.30127
-19, -43.30127
-18.5, -42.435245
-19, -41.569219
-19.5, -42.435245
-20, -43.30127
-19.5, -44.167296
-18.5, -44.167296
-18, -45.033321
-19, -45.033321
-19.5, -45.899346
-18.5, -45.899346
-17.5, -45.899346
-17, -45.033321
-16, -45.033321
-15.5, -45.899346
-16.5, -45.899346
-17, -46.765372
-16, -46.765372
-15, -46.765372
-14.5, -45.899346
-15, -45.033321
-14.5, -44.167296
-14, -43.30127
-13.5, -44.167296
-14, -45.033321
-13, -45.033321
-12.5, -44.167296
-13, -43.30127
-12.5, -42.435245
-12, -43.30127
-11, -43.30127
-11.5, -42.435245
-12, -41.569219
-13, -41.569219
-13.5, -40.703194
-13, -39.837169
-12.5, -38.971143
-12, -39.837169
-12.5, -40.703194
-11.5, -40.703194
-11, -39.837169
-10, -39.837169
-9.5, -40.703194
-9, -41.569219
-10, -41.569219
-10.5, -40.703194
-11, -41.569219
-10.5, -42.435245
-9.5, -42.435245
-9, -43.30127
-10, -43.30127
-10.5, -44.167296
-9.5, -44.167296
-8.5, -44.167296
-8, -43.30127
-8.5, -42.435245
-8, -41.569219
-7.5, -42.435245
-6.5, -42.435245
-7, -41.569219
-7.5, -40.703194
-8.5, -40.703194
-9, -39.837169
-8.5, -38.971143
-8, -39.837169
-7, -39.837169
-7.5, -38.971143
-8, -38.105118
-9, -38.105118
-9.5, -38.971143
-10.5, -38.971143
-11.5, -38.971143
-11, -38.105118
-10, -38.105118
-10.5, -37.239092
-11.5, -37.239092
-12, -38.105118
-13, -38.105118
-12.5, -37.239092
-13, -36.373067
-13.5, -37.239092
-14, -38.105118
-13.5, -38.971143
-14, -39.837169
-15, -39.837169
-16, -39.837169
-15.5, -38.971143
-14.5, -38.971143
-15, -38.105118
-16, -38.105118
-16.5, -38.971143
-17.5, -38.971143
-18.5, -38.971143
-18, -38.105118
-17, -38.105118
-17.5, -37.239092
-18.5, -37.239092
-19, -36.373067
-18.5, -35.507042
-18, -34.641016
-17.5, -35.507042
-18, -36.373067
-17, -36.373067
-16.5, -35.507042
-15.5, -35.507042
-15, -36.373067
-16, -36.373067
-16.5, -37.239092
-15.5, -37.239092
-14.5, -37.239092
-14, -36.373067
-14.5, -35.507042
-14, -34.641016
-13.5, -35.507042
-12.5, -35.507042
-13, -34.641016
-13.5, -33.774991
-14.5, -33.774991
-15, -34.641016
-16, -34.641016
-17, -34.641016
-16.5, -33.774991
-15.5, -33.774991
-16, -32.908965
-17, -32.908965
-17.5, -33.774991
-18.5, -33.774991
-18, -32.908965
-18.5, -32.04294
-19, -32.908965
-19.5, -33.774991
-19, -34.641016
-19.5, -35.507042
-20.5, -35.507042
-21.5, -35.507042
-21, -34.641016
-20, -34.641016
-20.5, -33.774991
-21.5, -33.774991
-22, -32.908965
-21.5, -32.04294
-21, -31.176915
-20.5, -32.04294
-21, -32.908965
-20, -32.908965
-19.5, -32.04294
-20, -31.176915
-19.5, -30.310889
-19, -31.176915
-18, -31.176915
-18.5, -30.310889
-19, -29.444864
-20, -29.444864
-20.5, -30.310889
-21.5, -30.310889
-21, -29.444864
-21.5, -28.578838
-22, -29.444864
-22.5, -30.310889
-22, -31.176915
-22.5, -32.04294
-23.5, -32.04294
-23, -31.176915
-23.5, -30.310889
-24, -31.176915
-24.5, -32.04294
-24, -32.908965
-23, -32.908965
-22.5, -33.774991
-22, -34.641016
-23, -34.641016
-23.5, -33.774991
-24, -34.641016
-23.5, -35.507042
-24, -36.373067
-25, -36.373067
-24.5, -35.507042
-25, -34.641016
-25.5, -35.507042
-26, -36.373067
-25.5, -37.239092
-26, -38.105118
-27, -38.105118
-28, -38.105118
-27.5, -37.239092
-26.5, -37.239092
-27, -36.373067
-28, -36.373067
-28.5, -37.239092
-29.5, -37.239092
-30.5, -37.239092
-30, -36.373067
-29, -36.373067
-29.5, -35.507042
-30.5, -35.507042
-31, -34.641016
-30.5, -33.774991
-30, -32.908965
-29.5, -33.774991
-30, -34.641016
-29, -34.641016
-28.5, -33.774991
-27.5, -33.774991
-27, -34.641016
-28, -34.641016
-28.5, -35.507042
-27.5, -35.507042
-26.5, -35.507042
-26, -34.641016
-26.5, -33.774991
-26, -32.908965
-25.5, -33.774991
-24.5, -33.774991
-25, -32.908965
-25.5, -32.04294
-26.5, -32.04294
-27, -32.908965
-28, -32.908965
-29, -32.908965
-28.5, -32.04294
-27.5, -32.04294
-28, -31.176915
-29, -31.176915
-29.5, -32.04294
-30.5, -32.04294
-30, -31.176915
-30.5, -30.310889
-31, -31.176915
-31.5, -32.04294
-31, -32.908965
-31.5, -33.774991
-32.5, -33.774991
-33.5, -33.774991
-33, -32.908965
-32, -32.908965
-32.5, -32.04294
-33.5, -32.04294
-34, -32.908965
-35, -32.908965
-36, -32.908965
-35.5, -32.04294
-34.5, -32.04294
-35, -31.176915
-36, -31.176915
-36.5, -30.310889
-36, -29.444864
-35.5, -28.578838
-35, -29.444864
-35.5, -30.310889
-34.5, -30.310889
-34, -29.444864
-33, -29.444864
-32.5, -30.310889
-33.5, -30.310889
-34, -31.176915
-33, -31.176915
-32, -31.176915
-31.5, -30.310889
-32, -29.444864
-31.5, -28.578838
-31, -29.444864
-30, -29.444864
-30.5, -28.578838
-31, -27.712813
-32, -27.712813
-32.5, -28.578838
-33.5, -28.578838
-34.5, -28.578838
-34, -27.712813
-33, -27.712813
-33.5, -26.846788
-34.5, -26.846788
-35, -25.980762
-34.5, -25.114737
-34, -25.980762
-33, -25.980762
-33.5, -25.114737
-34, -24.248711
-35, -24.248711
-35.5, -23.382686
-35, -22.51666
-34.5, -21.650635
-34, -22.51666
-34.5, -23.382686
-33.5, -23.382686
-33, -22.51666
-33.5, -21.650635
-33, -20.78461
-32.5, -19.918584
-32, -20.78461
-32.5, -21.650635
-31.5, -21.650635
-31, -20.78461
-30, -20.78461
-29.5, -21.650635
-29, -22.51666
-30, -22.51666
-30.5, -21.650635
-31, -22.51666
-30.5, -23.382686
-31, -24.248711
-32, -24.248711
-31.5, -23.382686
-32, -22.51666
-32.5, -23.382686
-33, -24.248711
-32.5, -25.114737
-31.5, -25.114737
-31, -25.980762
-32, -25.980762
-32.5, -26.846788
-31.5, -26.846788
-30.5, -26.846788
-30, -25.980762
-30.5, -25.114737
-30, -24.248711
-29.5, -23.382686
-29, -24.248711
-29.5, -25.114737
-28.5, -25.114737
-28, -24.248711
-27, -24.248711
-26.5, -25.114737
-27.5, -25.114737
-28, -25.980762
-27, -25.980762
-26, -25.980762
-25.5, -25.114737
-24.5, -25.114737
-24, -25.980762
-23.5, -26.846788
-24.5, -26.846788
-25, -25.980762
-25.5, -26.846788
-25, -27.712813
-25.5, -28.578838
-26.5, -28.578838
-27.5, -28.578838
-27, -27.712813
-26, -27.712813
-26.5, -26.846788
-27.5, -26.846788
-28, -27.712813
-29, -27.712813
-28.5, -26.846788
-29, -25.980762
-29.5, -26.846788
-30, -27.712813
-29.5, -28.578838
-28.5, -28.578838
-28, -29.444864
-29, -29.444864
-29.5, -30.310889
-28.5, -30.310889
-27.5, -30.310889
-27, -29.444864
-26, -29.444864
-25.5, -30.310889
-26.5, -30.310889
-27, -31.176915
-26, -31.176915
-25, -31.176915
-24.5, -30.310889
-25, -29.444864
-24.5, -28.578838
-24, -27.712813
-23.5, -28.578838
-24, -29.444864
-23, -29.444864
-22.5, -28.578838
-23, -27.712813
-22.5, -26.846788
-22, -27.712813
-21, -27.712813
-21.5, -26.846788
-22, -25.980762
-23, -25.980762
-23.5, -25.114737
-23, -24.248711
-22.5, -23.382686
-22, -24.248711
-22.5, -25.114737
-21.5, -25.114737
-21, -24.248711
-20, -24.248711
-19.5, -25.114737
-19, -25.980762
-20, -25.980762
-20.5, -25.114737
-21, -25.980762
-20.5, -26.846788
-19.5, -26.846788
-19, -27.712813
-20, -27.712813
-20.5, -28.578838
-19.5, -28.578838
-18.5, -28.578838
-18, -27.712813
-18.5, -26.846788
-18, -25.980762
-17.5, -26.846788
-16.5, -26.846788
-17, -25.980762
-17.5, -25.114737
-18.5, -25.114737
-19, -24.248711
-18.5, -23.382686
-18, -24.248711
-17, -24.248711
-17.5, -23.382686
-18, -22.51666
-19, -22.51666
-19.5, -23.382686
-20.5, -23.382686
-21.5, -23.382686
-21, -22.51666
-20, -22.51666
-20.5, -21.650635
-21.5, -21.650635
-22, -22.51666
-23, -22.51666
-22.5, -21.650635
-23, -20.78461
-23.5, -21.650635
-24, -22.51666
-23.5, -23.382686
-24, -24.248711
-25, -24.248711
-26, -24.248711
-25.5, -23.382686
-24.5, -23.382686
-25, -22.51666
-26, -22.51666
-26.5, -23.382686
-27.5, -23.382686
-28.5, -23.382686
-28, -22.51666
-27, -22.51666
-27.5, -21.650635
-28.5, -21.650635
-29, -20.78461
-28.5, -19.918584
-28, -19.052559
-27.5, -19.918584
-28, -20.78461
-27, -20.78461
-26.5, -19.918584
-25.5, -19.918584
-25, -20.78461
-26, -20.78461
-26.5, -21.650635
-25.5, -21.650635
-24.5, -21.650635
-24, -20.78461
-24.5, -19.918584
-24, -19.052559
-23.5, -19.918584
-22.5, -19.918584
-23, -19.052559
-23.5, -18.186533
-24.5, -18.186533
-25, -19.052559
-26, -19.052559
-27, -19.052559
-26.5, -18.186533
-25.5, -18.186533
-26, -17.320508
-27, -17.320508
-27.5, -16.454483
-27, -15.588457
-26.5, -16.454483
-25.5, -16.454483
-26, -15.588457
-26.5, -14.722432
-27.5, -14.722432
-28, -13.856406
-27.5, -12.990381
-27, -12.124356
-26.5, -12.990381
-27, -13.856406
-26, -13.856406
-25.5, -12.990381
-24.5, -12.990381
-24, -13.856406
-23.5, -14.722432
-24.5, -14.722432
-25, -13.856406
-25.5, -14.722432
-25, -15.588457
-24, -15.588457
-23.5, -16.454483
-24.5, -16.454483
-25, -17.320508
-24, -17.320508
-23, -17.320508
-22.5, -16.454483
-23, -15.588457
-22.5, -14.722432
-22, -15.588457
-21, -15.588457
-21.5, -14.722432
-22, -13.856406
-23, -13.856406
-23.5, -12.990381
-23, -12.124356
-22.5, -12.990381
-21.5, -12.990381
-22, -12.124356
-22.5, -11.25833
-23.5, -11.25833
-24, -12.124356
-25, -12.124356
-26, -12.124356
-25.5, -11.25833
-24.5, -11.25833
-25, -10.392305
-26, -10.392305
-26.5, -9.526279
-26, -8.660254
-25.5, -9.526279
-24.5, -9.526279
-25, -8.660254
-25.5, -7.794229
-26.5, -7.794229
-27, -6.928203
-26.5, -6.062178
-26, -5.196152
-25.5, -6.062178
-26, -6.928203
-25, -6.928203
-24.5, -6.062178
-25, -5.196152
-24.5, -4.330127
-24, -3.464102
-23.5, -4.330127
-24, -5.196152
-23, -5.196152
-22.5, -4.330127
-21.5, -4.330127
-21, -5.196152
-20.5, -6.062178
-21.5, -6.062178
-22, -5.196152
-22.5, -6.062178
-22, -6.928203
-22.5, -7.794229
-23.5, -7.794229
-23, -6.928203
-23.5, -6.062178
-24, -6.928203
-24.5, -7.794229
-24, -8.660254
-23, -8.660254
-22.5, -9.526279
-23.5, -9.526279
-24, -10.392305
-23, -10.392305
-22, -10.392305
-21.5, -9.526279
-22, -8.660254
-21.5, -7.794229
-21, -6.928203
-20.5, -7.794229
-21, -8.660254
-20, -8.660254
-19.5, -7.794229
-20, -6.928203
-19.5, -6.062178
-19, -6.928203
-18, -6.928203
-18.5, -6.062178
-19, -5.196152
-20, -5.196152
-20.5, -4.330127
-20, -3.464102
-19.5, -2.598076
-19, -3.464102
-19.5, -4.330127
-18.5, -4.330127
-18, -3.464102
-18.5, -2.598076
-18, -1.732051
-17.5, -0.866025
-17, -1.732051
-17.5, -2.598076
-16.5, -2.598076
-16, -1.732051
-15, -1.732051
-14.5, -2.598076
-14, -3.464102
-15, -3.464102
-15.5, -2.598076
-16, -3.464102
-15.5, -4.330127
-16, -5.196152
-17, -5.196152
-16.5, -4.330127
-17, -3.464102
-17.5, -4.330127
-18, -5.196152
-17.5, -6.062178
-16.5, -6.062178
-16, -6.928203
-17, -6.928203
-17.5, -7.794229
-16.5, -7.794229
-15.5, -7.794229
-15, -6.928203
-15.5, -6.062178
-15, -5.196152
-14.5, -4.330127
-14, -5.196152
-14.5, -6.062178
-13.5, -6.062178
-13, -5.196152
-12, -5.196152
-11.5, -6.062178
-12.5, -6.062178
-13, -6.928203
-12, -6.928203
-11, -6.928203
-10.5, -6.062178
-9.5, -6.062178
-9, -6.928203
-8.5, -7.794229
-9.5, -7.794229
-10, -6.928203
-10.5, -7.794229
-10, -8.660254
-9, -8.660254
-8.5, -9.526279
-8, -10.392305
-9, -10.392305
-9.5, -9.526279
-10, -10.392305
-9.5, -11.25833
-10, -12.124356
-11, -12.124356
-12, -12.124356
-11.5, -11.25833
-10.5, -11.25833
-11, -10.392305
-12, -10.392305
-12.5, -9.526279
-12, -8.660254
-11.5, -9.526279
-10.5, -9.526279
-11, -8.660254
-11.5, -7.794229
-12.5, -7.794229
-13, -8.660254
-14, -8.660254
-13.5, -7.794229
-14, -6.928203
-14.5, -7.794229
-15, -8.660254
-14.5, -9.526279
-13.5, -9.526279
-13, -10.392305
-12.5, -11.25833
-13.5, -11.25833
-14, -10.392305
-14.5, -11.25833
-14, -12.124356
-14.5, -12.990381
-15.5, -12.990381
-15, -12.124356
-15.5, -11.25833
-16, -12.124356
-16.5, -12.990381
-16, -13.856406
-16.5, -14.722432
-17.5, -14.722432
-18.5, -14.722432
-18, -13.856406
-17, -13.856406
-17.5, -12.990381
-18.5, -12.990381
-19, -12.124356
-18.5, -11.25833
-18, -10.392305
-17.5, -11.25833
-18, -12.124356
-17, -12.124356
-16.5, -11.25833
-17, -10.392305
-16.5, -9.526279
-16, -10.392305
-15, -10.392305
-15.5, -9.526279
-16, -8.660254
-17, -8.660254
-17.5, -9.526279
-18.5, -9.526279
-18, -8.660254
-18.5, -7.794229
-19, -8.660254
-19.5, -9.526279
-19, -10.392305
-19.5, -11.25833
-20.5, -11.25833
-20, -10.392305
-20.5, -9.526279
-21, -10.392305
-21.5, -11.25833
-21, -12.124356
-20, -12.124356
-19.5, -12.990381
-19, -13.856406
-20, -13.856406
-20.5, -12.990381
-21, -13.856406
-20.5, -14.722432
-19.5, -14.722432
-19, -15.588457
-20, -15.588457
-20.5, -16.454483
-19.5, -16.454483
-18.5, -16.454483
-18, -15.588457
-17, -15.588457
-16.5, -16.454483
-16, -17.320508
-17, -17.320508
-17.5, -16.454483
-18, -17.320508
-17.5, -18.186533
-18, -19.052559
-19, -19.052559
-20, -19.052559
-19.5, -18.186533
-18.5, -18.186533
-19, -17.320508
-20, -17.320508
-20.5, -18.186533
-21.5, -18.186533
-21, -17.320508
-21.5, -16.454483
-22, -17.320508
-22.5, -18.186533
-22, -19.052559
-21, -19.052559
-20.5, -19.918584
-21.5, -19.918584
-22, -20.78461
-21, -20.78461
-20, -20.78461
-19.5, -19.918584
-18.5, -19.918584
-18, -20.78461
-19, -20.78461
-19.5, -21.650635
-18.5, -21.650635
-17.5, -21.650635
-17, -20.78461
-17.5, -19.918584
-17, -19.052559
-16.5, -18.186533
-16, -19.052559
-16.5, -19.918584
-15.5, -19.918584
-15, -19.052559
-15.5, -18.186533
-15, -17.320508
-14.5, -18.186533
-13.5, -18.186533
-14, -17.320508
-14.5, -16.454483
-15.5, -16.454483
-16, -15.588457
-15.5, -14.722432
-15, -13.856406
-14.5, -14.722432
-15, -15.588457
-14, -15.588457
-13.5, -14.722432
-14, -13.856406
-13.5, -12.990381
-13, -12.124356
-12.5, -12.990381
-13, -13.856406
-12, -13.856406
-11.5, -12.990381
-10.5, -12.990381
-10, -13.856406
-9.5, -14.722432
-10.5, -14.722432
-11, -13.856406
-11.5, -14.722432
-11, -15.588457
-11.5, -16.454483
-12.5, -16.454483
-12, -15.588457
-12.5, -14.722432
-13, -15.588457
-13.5, -16.454483
-13, -17.320508
-12, -17.320508
-11.5, -18.186533
-12.5, -18.186533
-13, -19.052559
-12, -19.052559
-11, -19.052559
-10.5, -18.186533
-11, -17.320508
-10.5, -16.454483
-10, -15.588457
-9.5, -16.454483
-10, -17.320508
-9, -17.320508
-8.5, -16.454483
-7.5, -16.454483
-7, -17.320508
-8, -17.320508
-8.5, -18.186533
-7.5, -18.186533
-6.5, -18.186533
-6, -17.320508
-5, -17.320508
-4.5, -18.186533
-4, -19.052559
-5, -19.052559
-5.5, -18.186533
-6, -19.052559
-5.5, -19.918584
-6, -20.78461
-7, -20.78461
-8, -20.78461
-7.5, -19.918584
-6.5, -19.918584
-7, -19.052559
-8, -19.052559
-8.5, -19.918584
-9.5, -19.918584
-9, -19.052559
-9.5, -18.186533
-10, -19.052559
-10.5, -19.918584
-10, -20.78461
-9, -20.78461
-8.5, -21.650635
-9.5, -21.650635
-10, -22.51666
-9, -22.51666
-8, -22.51666
-7.5, -21.650635
-6.5, -21.650635
-6, -22.51666
-7, -22.51666
-7.5, -23.382686
-6.5, -23.382686
-5.5, -23.382686
-5, -22.51666
-5.5, -21.650635
-5, -20.78461
-4.5, -19.918584
-4, -20.78461
-4.5, -21.650635
-3.5, -21.650635
-3, -20.78461
-2, -20.78461
-1.5, -21.650635
-2.5, -21.650635
-3, -22.51666
-2, -22.51666
-1, -22.51666
-0.5, -21.650635
0.5, -21.650635
1, -22.51666
1.5, -23.382686
0.5, -23.382686
-0, -22.51666
-0.5, -23.382686
-0, -24.248711
1, -24.248711
1.5, -25.114737
2, -25.980762
1, -25.980762
0.5, -25.114737
-0, -25.980762
0.5, -26.846788
-0, -27.712813
-1, -27.712813
-2, -27.712813
-1.5, -26.846788
-0.5, -26.846788
-1, -25.980762
-2, -25.980762
-2.5, -25.114737
-2, -24.248711
-1.5, -25.114737
-0.5, -25.114737
-1, -24.248711
-1.5, -23.382686
-2.5, -23.382686
-3, -24.248711
-4, -24.248711
-3.5, -23.382686
-4, -22.51666
-4.5, -23.382686
-5, -24.248711
-4.5, -25.114737
-3.5, -25.114737
-3, -25.980762
-2.5, -26.846788
-3.5, -26.846788
-4, -25.980762
-4.5, -26.846788
-4, -27.712813
-4.5, -28.578838
-5.5, -28.578838
-5, -27.712813
-5.5, -26.846788
-6, -27.712813
-6.5, -28.578838
-6, -29.444864
-6.5, -30.310889
-7.5, -30.310889
-8.5, -30.310889
-8, -29.444864
-7, -29.444864
-7.5, -28.578838
-8.5, -28.578838
-9, -29.444864
-10, -29.444864
-11, -29.444864
-10.5, -28.578838
-9.5, -28.578838
-10, -27.712813
-11, -27.712813
-11.5, -26.846788
-11, -25.980762
-10.5, -25.114737
-10, -25.980762
-10.5, -26.846788
-9.5, -26.846788
-9, -25.980762
-8, -25.980762
-7.5, -26.846788
-8.5, -26.846788
-9, -27.712813
-8, -27.712813
-7, -27.712813
-6.5, -26.846788
-7, -25.980762
-6.5, -25.114737
-6, -25.980762
-5, -25.980762
-5.5, -25.114737
-6, -24.248711
-7, -24.248711
-7.5, -25.114737
-8.5, -25.114737
-9.5, -25.114737
-9, -24.248711
-8, -24.248711
-8.5, -23.382686
-9.5, -23.382686
-10, -24.248711
-11, -24.248711
-10.5, -23.382686
-11, -22.51666
-11.5, -23.382686
-12, -24.248711
-11.5, -25.114737
-12, -25.980762
-13, -25.980762
-14, -25.980762
-13.5, -25.114737
-12.5, -25.114737
-13, -24.248711
-14, -24.248711
-14.5, -23.382686
-14, -22.51666
-13.5, -21.650635
-13, -22.51666
-13.5, -23.382686
-12.5, -23.382686
-12, -22.51666
-12.5, -21.650635
-12, -20.78461
-11.5, -21.650635
-10.5, -21.650635
-11, -20.78461
-11.5, -19.918584
-12.5, -19.918584
-13, -20.78461
-14, -20.78461
-13.5, -19.918584
-14, -19.052559
-14.5, -19.918584
-15, -20.78461
-14.5, -21.650635
-15, -22.51666
-16, -22.51666
-15.5, -21.650635
-16, -20.78461
-16.5, -21.650635
-17, -22.51666
-16.5, -23.382686
-15.5, -23.382686
-15, -24.248711
-14.5, -25.114737
-15.5, -25.114737
-16, -24.248711
-16.5, -25.114737
-16, -25.980762
-15, -25.980762
-14.5, -26.846788
-15.5, -26.846788
-16, -27.712813
-15, -27.712813
-14, -27.712813
-13.5, -26.846788
-12.5, -26.846788
-12, -27.712813
-11.5, -28.578838
-12.5, -28.578838
-13, -27.712813
-13.5, -28.578838
-13, -29.444864
-13.5, -30.310889
-14.5, -30.310889
-15.5, -30.310889
-15, -29.444864
-14, -29.444864
-14.5, -28.578838
-15.5, -28.578838
-16, -29.444864
-17, -29.444864
-16.5, -28.578838
-17, -27.712813
-17.5, -28.578838
-18, -29.444864
-17.5, -30.310889
-16.5, -30.310889
-16, -31.176915
-17, -31.176915
-17.5, -32.04294
-16.5, -32.04294
-15.5, -32.04294
-15, -31.176915
-14, -31.176915
-13.5, -32.04294
-14.5, -32.04294
-15, -32.908965
-14, -32.908965
-13, -32.908965
-12.5, -32.04294
-13, -31.176915
-12.5, -30.310889
-12, -29.444864
-11.5, -30.310889
-12, -31.176915
-11, -31.176915
-10.5, -30.310889
-9.5, -30.310889
-9, -31.176915
-10, -31.176915
-10.5, -32.04294
-9.5, -32.04294
-8.5, -32.04294
-8, -31.176915
-7, -31.176915
-6.5, -32.04294
-6, -32.908965
-7, -32.908965
-7.5, -32.04294
-8, -32.908965
-7.5, -33.774991
-8, -34.641016
-9, -34.641016
-10, -34.641016
-9.5, -33.774991
-8.5, -33.774991
-9, -32.908965
-10, -32.908965
-10.5, -33.774991
-11.5, -33.774991
-11, -32.908965
-11.5, -32.04294
-12, -32.908965
-12.5, -33.774991
-12, -34.641016
-11, -34.641016
-10.5, -35.507042
-11.5, -35.507042
-12, -36.373067
-11, -36.373067
-10, -36.373067
-9.5, -35.507042
-8.5, -35.507042
-8, -36.373067
-9, -36.373067
-9.5, -37.239092
-8.5, -37.239092
-7.5, -37.239092
-7, -36.373067
-7.5, -35.507042
-7, -34.641016
-6.5, -33.774991
-6, -34.641016
-6.5, -35.507042
-5.5, -35.507042
-5, -34.641016
-5.5, -33.774991
-5, -32.908965
-4.5, -33.774991
-3.5, -33.774991
-4, -32.908965
-4.5, -32.04294
-5.5, -32.04294
-6, -31.176915
-5.5, -30.310889
-5, -29.444864
-4.5, -30.310889
-5, -31.176915
-4, -31.176915
-3.5, -30.310889
-4, -29.444864
-3.5, -28.578838
-3, -27.712813
-2.5, -28.578838
-3, -29.444864
-2, -29.444864
-1.5, -28.578838
-0.5, -28.578838
-0, -29.444864
0.5, -30.310889
-0.5, -30.310889
-1, -29.444864
-1.5, -30.310889
-1, -31.176915
-1.5, -32.04294
-2.5, -32.04294
-2, -31.176915
-2.5, -30.310889
-3, -31.176915
-3.5, -32.04294
-3, -32.908965
-2, -32.908965
-1.5, -33.774991
-2.5, -33.774991
-3, -34.641016
-2, -34.641016
-1, -34.641016
-0.5, -33.774991
-1, -32.908965
-0.5, -32.04294
-0, -31.176915
0.5, -32.04294
-0, -32.908965
1, -32.908965
1.5, -32.04294
1, -31.176915
1.5, -30.310889
2, -31.176915
3, -31.176915
2.5, -30.310889
2, -29.444864
1, -29.444864
0.5, -28.578838
1, -27.712813
1.5, -26.846788
2, -27.712813
1.5, -28.578838
2.5, -28.578838
3, -27.712813
4, -27.712813
4.5, -28.578838
5, -29.444864
4, -29.444864
3.5, -28.578838
3, -29.444864
3.5, -30.310889
4.5, -30.310889
5, -31.176915
4, -31.176915
3.5, -32.04294
4.5, -32.04294
5.5, -32.04294
6, -31.176915
5.5, -30.310889
6, -29.444864
6.5, -30.310889
7.5, -30.310889
7, -29.444864
6.5, -28.578838
5.5, -28.578838
5, -27.712813
5.5, -26.846788
6, -27.712813
7, -27.712813
6.5, -26.846788
6, -25.980762
5, -25.980762
4.5, -26.846788
3.5, -26.846788
2.5, -26.846788
3, -25.980762
4, -25.980762
3.5, -25.114737
2.5, -25.114737
2, -24.248711
2.5, -23.382686
3, -24.248711
4, -24.248711
3.5, -23.382686
3, -22.51666
2, -22.51666
1.5, -21.650635
2, -20.78461
2.5, -19.918584
3, -20.78461
2.5, -21.650635
3.5, -21.650635
4, -20.78461
3.5, -19.918584
4, -19.052559
4.5, -18.186533
5, -19.052559
4.5, -19.918584
5.5, -19.918584
6, -19.052559
7, -19.052559
7.5, -19.918584
8, -20.78461
7, -20.78461
6.5, -19.918584
6, -20.78461
6.5, -21.650635
6, -22.51666
5, -22.51666
5.5, -21.650635
5, -20.78461
4.5, -21.650635
4, -22.51666
4.5, -23.382686
5.5, -23.382686
6, -24.248711
5, -24.248711
4.5, -25.114737
5.5, -25.114737
6.5, -25.114737
7, -24.248711
6.5, -23.382686
7, -22.51666
7.5, -21.650635
8, -22.51666
7.5, -23.382686
8.5, -23.382686
9, -22.51666
10, -22.51666
10.5, -23.382686
9.5, -23.382686
9, -24.248711
10, -24.248711
11, -24.248711
11.5, -23.382686
12.5, -23.382686
13, -24.248711
13.5, -25.114737
12.5, -25.114737
12, -24.248711
11.5, -25.114737
12, -25.980762
13, -25.980762
13.5, -26.846788
14, -27.712813
13, -27.712813
12.5, -26.846788
12, -27.712813
12.5, -28.578838
12, -29.444864
11, -29.444864
10, -29.444864
10.5, -28.578838
11.5, -28.578838
11, -27.712813
10, -27.712813
9.5, -26.846788
10, -25.980762
10.5, -26.846788
11.5, -26.846788
11, -25.980762
10.5, -25.114737
9.5, -25.114737
9, -25.980762
8, -25.980762
8.5, -25.114737
8, -24.248711
7.5, -25.114737
7, -25.980762
7.5, -26.846788
8.5, -26.846788
9, -27.712813
9.5, -28.578838
8.5, -28.578838
8, -27.712813
7.5, -28.578838
8, -29.444864
9, -29.444864
9.5, -30.310889
8.5, -30.310889
8, -31.176915
9, -31.176915
10, -31.176915
10.5, -30.310889
11.5, -30.310889
12, -31.176915
12.5, -32.04294
11.5, -32.04294
11, -31.176915
10.5, -32.04294
11, -32.908965
10.5, -33.774991
9.5, -33.774991
8.5, -33.774991
9, -32.908965
10, -32.908965
9.5, -32.04294
8.5, -32.04294
8, -32.908965
7, -32.908965
7.5, -32.04294
7, -31.176915
6.5, -32.04294
6, -32.908965
6.5, -33.774991
7.5, -33.774991
8, -34.641016
7, -34.641016
6.5, -35.507042
7.5, -35.507042
8.5, -35.507042
9, -34.641016
10, -34.641016
10.5, -35.507042
9.5, -35.507042
9, -36.373067
10, -36.373067
11, -36.373067
11.5, -35.507042
11, -34.641016
11.5, -33.774991
12, -32.908965
12.5, -33.774991
12, -34.641016
13, -34.641016
13.5, -33.774991
13, -32.908965
13.5, -32.04294
14, -32.908965
15, -32.908965
14.5, -32.04294
14, -31.176915
13, -31.176915
12.5, -30.310889
13, -29.444864
13.5, -28.578838
14, -29.444864
13.5, -30.310889
14.5, -30.310889
15, -29.444864
16, -29.444864
16.5, -30.310889
17, -31.176915
16, -31.176915
15.5, -30.310889
15, -31.176915
15.5, -32.04294
16.5, -32.04294
17, -32.908965
16, -32.908965
15.5, -33.774991
16.5, -33.774991
17.5, -33.774991
18, -32.908965
17.5, -32.04294
18, -31.176915
18.5, -32.04294
19.5, -32.04294
19, -31.176915
18.5, -30.310889
17.5, -30.310889
17, -29.444864
17.5, -28.578838
18, -29.444864
19, -29.444864
18.5, -28.578838
18, -27.712813
17, -27.712813
16.5, -28.578838
15.5, -28.578838
14.5, -28.578838
15, -27.712813
16, -27.712813
15.5, -26.846788
14.5, -26.846788
14, -25.980762
14.5, -25.114737
15, -25.980762
16, -25.980762
15.5, -25.114737
15, -24.248711
14, -24.248711
13.5, -23.382686
14, -22.51666
14.5, -21.650635
15, -22.51666
14.5, -23.382686
15.5, -23.382686
16, -22.51666
17, -22.51666
17.5, -23.382686
18, -24.248711
17, -24.248711
16.5, -23.382686
16, -24.248711
16.5, -25.114737
17.5, -25.114737
18, -25.980762
17, -25.980762
16.5, -26.846788
17.5, -26.846788
18.5, -26.846788
19, -25.980762
18.5, -25.114737
19, -24.248711
19.5, -25.114737
20.5, -25.114737
20, -24.248711
19.5, -23.382686
18.5, -23.382686
18, -22.51666
18.5, -21.650635
19, -22.51666
20, -22.51666
19.5, -21.650635
19, -20.78461
18, -20.78461
17.5, -21.650635
16.5, -21.650635
15.5, -21.650635
16, -20.78461
17, -20.78461
16.5, -19.918584
15.5, -19.918584
15, -20.78461
14, -20.78461
14.5, -19.918584
14, -19.052559
13.5, -19.918584
13, -20.78461
13.5, -21.650635
13, -22.51666
12, -22.51666
11, -22.51666
11.5, -21.650635
12.5, -21.650635
12, -20.78461
11, -20.78461
10.5, -21.650635
9.5, -21.650635
8.5, -21.650635
9, -20.78461
10, -20.78461
9.5, -19.918584
8.5, -19.918584
8, -19.052559
8.5, -18.186533
9, -17.320508
9.5, -18.186533
9, -19.052559
10, -19.052559
10.5, -18.186533
11.5, -18.186533
12, -19.052559
11, -19.052559
10.5, -19.918584
11.5, -19.918584
12.5, -19.918584
13, -19.052559
12.5, -18.186533
13, -17.320508
13.5, -18.186533
14.5, -18.186533
14, -17.320508
13.5, -16.454483
12.5, -16.454483
12, -17.320508
11, -17.320508
10, -17.320508
10.5, -16.454483
11.5, -16.454483
11, -15.588457
10, -15.588457
9.5, -16.454483
8.5, -16.454483
9, -15.588457
8.5, -14.722432
8, -15.588457
7.5, -16.454483
8, -17.320508
7.5, -18.186533
6.5, -18.186533
5.5, -18.186533
6, -17.320508
7, -17.320508
6.5, -16.454483
5.5, -16.454483
5, -15.588457
5.5, -14.722432
6, -13.856406
6.5, -14.722432
6, -15.588457
7, -15.588457
7.5, -14.722432
7, -13.856406
7.5, -12.990381
8, -13.856406
9, -13.856406
8.5, -12.990381
8, -12.124356
7, -12.124356
6.5, -12.990381
5.5, -12.990381
6, -12.124356
5.5, -11.25833
5, -12.124356
4.5, -12.990381
5, -13.856406
4.5, -14.722432
3.5, -14.722432
4, -13.856406
3.5, -12.990381
3, -13.856406
2.5, -14.722432
3, -15.588457
4, -15.588457
4.5, -16.454483
5, -17.320508
4, -17.320508
3.5, -16.454483
3, -17.320508
3.5, -18.186533
3, -19.052559
2, -19.052559
2.5, -18.186533
2, -17.320508
1.5, -18.186533
1, -19.052559
1.5, -19.918584
1, -20.78461
-0, -20.78461
-1, -20.78461
-0.5, -19.918584
0.5, -19.918584
-0, -19.052559
-1, -19.052559
-1.5, -19.918584
-2.5, -19.918584
-3.5, -19.918584
-3, -19.052559
-2, -19.052559
-2.5, -18.186533
-3.5, -18.186533
-4, -17.320508
-3.5, -16.454483
-3, -15.588457
-2.5, -16.454483
-3, -17.320508
-2, -17.320508
-1.5, -16.454483
-0.5, -16.454483
-0, -17.320508
-1, -17.320508
-1.5, -18.186533
-0.5, -18.186533
0.5, -18.186533
1, -17.320508
0.5, -16.454483
1, -15.588457
1.5, -16.454483
2.5, -16.454483
2, -15.588457
1.5, -14.722432
0.5, -14.722432
-0, -15.588457
-1, -15.588457
-2, -15.588457
-1.5, -14.722432
-0.5, -14.722432
-1, -13.856406
-2, -13.856406
-2.5, -14.722432
-3.5, -14.722432
-3, -13.856406
-3.5, -12.990381
-4, -13.856406
-4.5, -14.722432
-4, -15.588457
-4.5, -16.454483
-5.5, -16.454483
-6.5, -16.454483
-6, -15.588457
-5, -15.588457
-5.5, -14.722432
-6.5, -14.722432
-7, -15.588457
-8, -15.588457
-9, -15.588457
-8.5, -14.722432
-7.5, -14.722432
-8, -13.856406
-9, -13.856406
-9.5, -12.990381
-9, -12.124356
-8.5, -11.25833
-8, -12.124356
-8.5, -12.990381
-7.5, -12.990381
-7, -12.124356
-6, -12.124356
-5.5, -12.990381
-6.5, -12.990381
-7, -13.856406
-6, -13.856406
-5, -13.856406
-4.5, -12.990381
-5, -12.124356
-4.5, -11.25833
-4, -12.124356
-3, -12.124356
-3.5, -11.25833
-4, -10.392305
-5, -10.392305
-5.5, -11.25833
-6.5, -11.25833
-7.5, -11.25833
-7, -10.392305
-6, -10.392305
-6.5, -9.526279
-7.5, -9.526279
-8, -8.660254
-7.5, -7.794229
-7, -8.660254
-6, -8.660254
-6.5, -7.794229
-7, -6.928203
-8, -6.928203
-8.5, -6.062178
-8, -5.196152
-7.5, -4.330127
-7, -5.196152
-7.5, -6.062178
-6.5, -6.062178
-6, -5.196152
-6.5, -4.330127
-6, -3.464102
-5.5, -2.598076
-5, -3.464102
-5.5, -4.330127
-4.5, -4.330127
-4, -3.464102
-3, -3.464102
-2.5, -4.330127
-2, -5.196152
-3, -5.196152
-3.5, -4.330127
-4, -5.196152
-3.5, -6.062178
-4, -6.928203
-5, -6.928203
-4.5, -6.062178
-5, -5.196152
-5.5, -6.062178
-6, -6.928203
-5.5, -7.794229
-4.5, -7.794229
-4, -8.660254
-5, -8.660254
-5.5, -9.526279
-4.5, -9.526279
-3.5, -9.526279
-3, -8.660254
-3.5, -7.794229
-3, -6.928203
-2.5, -6.062178
-2, -6.928203
-2.5, -7.794229
-1.5, -7.794229
-1, -6.928203
-0, -6.928203
0.5, -7.794229
-0.5, -7.794229
-1, -8.660254
-0, -8.660254
1, -8.660254
1.5, -7.794229
2.5, -7.794229
3, -8.660254
3.5, -9.526279
2.5, -9.526279
2, -8.660254
1.5, -9.526279
2, -10.392305
1.5, -11.25833
0.5, -11.25833
-0.5, -11.25833
-0, -10.392305
1, -10.392305
0.5, -9.526279
-0.5, -9.526279
-1, -10.392305
-2, -10.392305
-1.5, -9.526279
-2, -8.660254
-2.5, -9.526279
-3, -10.392305
-2.5, -11.25833
-1.5, -11.25833
-1, -12.124356
-2, -12.124356
-2.5, -12.990381
-1.5, -12.990381
-0.5, -12.990381
-0, -12.124356
1, -12.124356
1.5, -12.990381
0.5, -12.990381
-0, -13.856406
1, -13.856406
2, -13.856406
2.5, -12.990381
2, -12.124356
2.5, -11.25833
3, -10.392305
3.5, -11.25833
3, -12.124356
4, -12.124356
4.5, -11.25833
4, -10.392305
4.5, -9.526279
5, -10.392305
6, -10.392305
5.5, -9.526279
5, -8.660254
4, -8.660254
3.5, -7.794229
4, -6.928203
4.5, -6.062178
5, -6.928203
4.5, -7.794229
5.5, -7.794229
6, -6.928203
7, -6.928203
7.5, -7.794229
8, -8.660254
7, -8.660254
6.5, -7.794229
6, -8.660254
6.5, -9.526279
7.5, -9.526279
8, -10.392305
7, -10.392305
6.5, -11.25833
7.5, -11.25833
8.5, -11.25833
9, -10.392305
8.5, -9.526279
9, -8.660254
9.5, -9.526279
10.5, -9.526279
10, -8.660254
9.5, -7.794229
8.5, -7.794229
8, -6.928203
8.5, -6.062178
9, -6.928203
10, -6.928203
9.5, -6.062178
9, -5.196152
8, -5.196152
7.5, -6.062178
6.5, -6.062178
5.5, -6.062178
6, -5.196152
7, -5.196152
6.5, -4.330127
5.5, -4.330127
5, -5.196152
4, -5.196152
4.5, -4.330127
4, -3.464102
3.5, -4.330127
3, -5.196152
3.5, -6.062178
3, -6.928203
2, -6.928203
1, -6.928203
1.5, -6.062178
2.5, -6.062178
2, -5.196152
1, -5.196152
0.5, -6.062178
-0.5, -6.062178
-1.5, -6.062178
-1, -5.196152
-0, -5.196152
-0.5, -4.330127
-1.5, -4.330127
-2, -3.464102
-1.5, -2.598076
-1, -1.732051
-0.5, -2.598076
-1, -3.464102
-0, -3.464102
0.5, -2.598076
1.5, -2.598076
2, -3.464102
1, -3.464102
0.5, -4.330127
1.5, -4.330127
2.5, -4.330127
3, -3.464102
2.5, -2.598076
3, -1.732051
3.5, -2.598076
4.5, -2.598076
4, -1.732051
3.5, -0.866025
2.5, -0.866025
2, -1.732051
1, -1.732051
-0, -1.732051
0.5, -0.866025
1.5, -0.866025
1, 0
0, 0
" style="fill:none;stroke:black;stroke-width:0.228" />

</svg>
