<?xml version="1.0" encoding="UTF-8" standalone="yes"?> 
<!DOCTYPE svg PUBLIC "-//W3C//DTD SVG 1.1//EN" "http://www.w3.org/Graphics/SVG/1.1/DTD/svg11.dtd"> 

<svg xmlns="http://www.w3.org/2000/svg" 
     xmlns:xlink="http://www.w3.org/1999/xlink" 
     width="500" height="500" 
     viewBox="-0.32 -14.133535 16.4832 28.26984">

<g transform="translate(-0.32,-14.133535)">
	<rect width="100%" height="100%" style="fill:white;fill-opacity:1" />
</g>

<polyline points="
-0, -0
0.5, -0.866025
1, -1.732051
1.5, -2.598076
2, -3.464102
2.5, -4.330127
3, -5.196152
3.5, -6.062178
4, -6.928203
4.5, -7.794229
5, -8.660254
5.5, -9.526279
6, -10.392305
6.5, -11.25833
7, -12.124356
7.5, -12.990381
8, -13.856406
8.5, -12.990381
9, -12.124356
9.5, -11.25833
10, -10.392305
10.5, -9.526279
11, -8.660254
11.5, -7.794229
12, -6.928203
12.5, -6.062178
13, -5.196152
13.5, -4.330127
14, -3.464102
14.5, -2.598076
15, -1.732051
15.5, -0.866025
16, -0
15, -0
15.5, -0.866025
14.5, -0.866025
15, -0
14, -0
14.5, -0.866025
15, -1.732051
14, -1.732051
14.5, -2.598076
13.5, -2.598076
14, -1.732051
13, -1.732051
13.5, -0.866025
14, -0
13, -0
13.5, -0.866025
12.5, -0.866025
13, -0
12, -0
12.5, -0.866025
13, -1.732051
13.5, -2.598076
14, -3.464102
13, -3.464102
13.5, -4.330127
12.5, -4.330127
13, -3.464102
12, -3.464102
12.5, -4.330127
13, -5.196152
12, -5.196152
12.5, -6.062178
11.5, -6.062178
12, -5.196152
11, -5.196152
11.5, -4.330127
12, -3.464102
11, -3.464102
11.5, -4.330127
10.5, -4.330127
11, -3.464102
10, -3.464102
10.5, -2.598076
11, -1.732051
11.5, -0.866025
12, -0
11, -0
11.5, -0.866025
10.5, -0.866025
11, -0
10, -0
10.5, -0.866025
11, -1.732051
10, -1.732051
10.5, -2.598076
9.5, -2.598076
10, -1.732051
9, -1.732051
9.5, -0.866025
10, -0
9, -0
9.5, -0.866025
8.5, -0.866025
9, -0
8, -0
8.5, -0.866025
9, -1.732051
9.5, -2.598076
10, -3.464102
10.5, -4.330127
11, -5.196152
11.5, -6.062178
12, -6.928203
11, -6.928203
11.5, -7.794229
10.5, -7.794229
11, -6.928203
10, -6.928203
10.5, -7.794229
11, -8.660254
10, -8.660254
10.5, -9.526279
9.5, -9.526279
10, -8.660254
9, -8.660254
9.5, -7.794229
10, -6.928203
9, -6.928203
9.5, -7.794229
8.5, -7.794229
9, -6.928203
8, -6.928203
8.5, -7.794229
9, -8.660254
9.5, -9.526279
10, -10.392305
9, -10.392305
9.5, -11.25833
8.5, -11.25833
9, -10.392305
8, -10.392305
8.5, -11.25833
9, -12.124356
8, -12.124356
8.5, -12.990381
7.5, -12.990381
8, -12.124356
7, -12.124356
7.5, -11.25833
8, -10.392305
7, -10.392305
7.5, -11.25833
6.5, -11.25833
7, -10.392305
6, -10.392305
6.5, -9.526279
7, -8.660254
7.5, -7.794229
8, -6.928203
7, -6.928203
7.5, -7.794229
6.5, -7.794229
7, -6.928203
6, -6.928203
6.5, -7.794229
7, -8.660254
6, -8.660254
6.5, -9.526279
5.5, -9.526279
6, -8.660254
5, -8.660254
5.5, -7.794229
6, -6.928203
5, -6.928203
5.5, -7.794229
4.5, -7.794229
5, -6.928203
4, -6.928203
4.5, -6.062178
5, -5.196152
5.5, -4.330127
6, -3.464102
6.5, -2.598076
7, -1.732051
7.5, -0.866025
8, -0
7, -0
7.5, -0.866025
6.5, -0.866025
7, -0
6, -0
6.5, -0.866025
7, -1.732051
6, -1.732051
6.5, -2.598076
5.5, -2.598076
6, -1.732051
5, -1.732051
5.5, -0.866025
6, -0
5, -0
5.5, -0.866025
4.5, -0.866025
5, -0
4, -0
4.5, -0.866025
5, -1.732051
5.5, -2.598076
6, -3.464102
5, -3.464102
5.5, -4.330127
4.5, -4.330127
5, -3.464102
4, -3.464102
4.5, -4.330127
5, -5.196152
4, -5.196152
4.5, -6.062178
3.5, -6.062178
4, -5.196152
3, -5.196152
3.5, -4.330127
4, -3.464102
3, -3.464102
3.5, -4.330127
2.5, -4.330127
3, -3.464102
2, -3.464102
2.5, -2.598076
3, -1.732051
3.5, -0.866025
4, 0
3, 0
3.5, -0.866025
2.5, -0.866025
3, 0
2, 0
2.5, -0.866025
3, -1.732051
2, -1.732051
2.5, -2.598076
1.5, -2.598076
2, -1.732051
1, -1.732051
1.5, -0.866025
2, 0
1, 0
1.5, -0.866025
0.5, -0.866025
1, 0
0, 0
" style="fill:none;stroke:black;stroke-width:0.064" />

</svg>
