<svg xmlns="http://www.w3.org/2000/svg"
     xmlns:xlink="http://www.w3.org/1999/xlink"
     width="500" height="400" viewBox="0 -168 239 168">
<rect x="0" y="-168" width="100%" height="100%" fill="white"/>
<polyline points="
239, 0
238, 0
238, -1
238, -2
238, -3
239, -3
239, -4
238, -4
237, -4
236, -4
236, -3
235, -3
235, -4
234, -4
233, -4
232, -4
232, -3
233, -3
233, -2
233, -1
233, 0
232, 0
232, -1
231, -1
230, -1
229, -1
229, 0
228, 0
228, -1
228, -2
228, -3
229, -3
229, -4
228, -4
228, -5
228, -6
228, -7
229, -7
229, -6
230, -6
231, -6
232, -6
232, -7
231, -7
231, -8
231, -9
231, -10
232, -10
232, -11
231, -11
230, -11
229, -11
229, -10
228, -10
228, -11
228, -12
228, -13
229, -13
229, -14
228, -14
228, -15
228, -16
228, -17
229, -17
229, -16
230, -16
231, -16
232, -16
232, -17
233, -17
233, -16
233, -15
233, -14
232, -14
232, -13
233, -13
234, -13
235, -13
235, -14
236, -14
236, -13
237, -13
238, -13
239, -13
239, -14
238, -14
238, -15
238, -16
238, -17
239, -17
239, -18
238, -18
237, -18
236, -18
236, -17
235, -17
235, -18
235, -19
235, -20
236, -20
236, -21
235, -21
235, -22
235, -23
235, -24
236, -24
236, -23
237, -23
238, -23
239, -23
239, -24
238, -24
238, -25
238, -26
238, -27
239, -27
239, -28
238, -28
237, -28
236, -28
236, -27
235, -27
235, -28
234, -28
233, -28
232, -28
232, -27
233, -27
233, -26
233, -25
233, -24
232, -24
232, -25
231, -25
230, -25
229, -25
229, -24
228, -24
228, -25
228, -26
228, -27
229, -27
229, -28
228, -28
227, -28
226, -28
226, -27
225, -27
225, -28
224, -28
223, -28
222, -28
222, -27
223, -27
223, -26
223, -25
223, -24
222, -24
222, -23
223, -23
224, -23
225, -23
225, -24
226, -24
226, -23
226, -22
226, -21
225, -21
225, -20
226, -20
226, -19
226, -18
226, -17
225, -17
225, -18
224, -18
223, -18
222, -18
222, -17
221, -17
221, -18
221, -19
221, -20
222, -20
222, -21
221, -21
220, -21
219, -21
219, -20
218, -20
218, -21
217, -21
216, -21
215, -21
215, -20
216, -20
216, -19
216, -18
216, -17
215, -17
215, -18
214, -18
213, -18
212, -18
212, -17
211, -17
211, -18
211, -19
211, -20
212, -20
212, -21
211, -21
211, -22
211, -23
211, -24
212, -24
212, -23
213, -23
214, -23
215, -23
215, -24
214, -24
214, -25
214, -26
214, -27
215, -27
215, -28
214, -28
213, -28
212, -28
212, -27
211, -27
211, -28
210, -28
209, -28
208, -28
208, -27
209, -27
209, -26
209, -25
209, -24
208, -24
208, -25
207, -25
206, -25
205, -25
205, -24
204, -24
204, -25
204, -26
204, -27
205, -27
205, -28
204, -28
203, -28
202, -28
202, -27
201, -27
201, -28
200, -28
199, -28
198, -28
198, -27
199, -27
199, -26
199, -25
199, -24
198, -24
198, -23
199, -23
200, -23
201, -23
201, -24
202, -24
202, -23
202, -22
202, -21
201, -21
201, -20
202, -20
202, -19
202, -18
202, -17
201, -17
201, -18
200, -18
199, -18
198, -18
198, -17
199, -17
199, -16
199, -15
199, -14
198, -14
198, -13
199, -13
200, -13
201, -13
201, -14
202, -14
202, -13
203, -13
204, -13
205, -13
205, -14
204, -14
204, -15
204, -16
204, -17
205, -17
205, -16
206, -16
207, -16
208, -16
208, -17
209, -17
209, -16
209, -15
209, -14
208, -14
208, -13
209, -13
209, -12
209, -11
209, -10
208, -10
208, -11
207, -11
206, -11
205, -11
205, -10
206, -10
206, -9
206, -8
206, -7
205, -7
205, -6
206, -6
207, -6
208, -6
208, -7
209, -7
209, -6
209, -5
209, -4
208, -4
208, -3
209, -3
209, -2
209, -1
209, 0
208, 0
208, -1
207, -1
206, -1
205, -1
205, 0
204, 0
204, -1
204, -2
204, -3
205, -3
205, -4
204, -4
203, -4
202, -4
202, -3
201, -3
201, -4
200, -4
199, -4
198, -4
198, -3
199, -3
199, -2
199, -1
199, 0
198, 0
198, -1
197, -1
196, -1
195, -1
195, 0
194, 0
194, -1
194, -2
194, -3
195, -3
195, -4
194, -4
194, -5
194, -6
194, -7
195, -7
195, -6
196, -6
197, -6
198, -6
198, -7
197, -7
197, -8
197, -9
197, -10
198, -10
198, -11
197, -11
196, -11
195, -11
195, -10
194, -10
194, -11
193, -11
192, -11
191, -11
191, -10
192, -10
192, -9
192, -8
192, -7
191, -7
191, -8
190, -8
189, -8
188, -8
188, -7
187, -7
187, -8
187, -9
187, -10
188, -10
188, -11
187, -11
186, -11
185, -11
185, -10
184, -10
184, -11
183, -11
182, -11
181, -11
181, -10
182, -10
182, -9
182, -8
182, -7
181, -7
181, -6
182, -6
183, -6
184, -6
184, -7
185, -7
185, -6
185, -5
185, -4
184, -4
184, -3
185, -3
185, -2
185, -1
185, 0
184, 0
184, -1
183, -1
182, -1
181, -1
181, 0
180, 0
180, -1
180, -2
180, -3
181, -3
181, -4
180, -4
179, -4
178, -4
178, -3
177, -3
177, -4
176, -4
175, -4
174, -4
174, -3
175, -3
175, -2
175, -1
175, 0
174, 0
174, -1
173, -1
172, -1
171, -1
171, 0
170, 0
170, -1
170, -2
170, -3
171, -3
171, -4
170, -4
170, -5
170, -6
170, -7
171, -7
171, -6
172, -6
173, -6
174, -6
174, -7
173, -7
173, -8
173, -9
173, -10
174, -10
174, -11
173, -11
172, -11
171, -11
171, -10
170, -10
170, -11
170, -12
170, -13
171, -13
171, -14
170, -14
170, -15
170, -16
170, -17
171, -17
171, -16
172, -16
173, -16
174, -16
174, -17
175, -17
175, -16
175, -15
175, -14
174, -14
174, -13
175, -13
176, -13
177, -13
177, -14
178, -14
178, -13
179, -13
180, -13
181, -13
181, -14
180, -14
180, -15
180, -16
180, -17
181, -17
181, -18
180, -18
179, -18
178, -18
178, -17
177, -17
177, -18
177, -19
177, -20
178, -20
178, -21
177, -21
177, -22
177, -23
177, -24
178, -24
178, -23
179, -23
180, -23
181, -23
181, -24
180, -24
180, -25
180, -26
180, -27
181, -27
181, -28
180, -28
179, -28
178, -28
178, -27
177, -27
177, -28
176, -28
175, -28
174, -28
174, -27
175, -27
175, -26
175, -25
175, -24
174, -24
174, -25
173, -25
172, -25
171, -25
171, -24
170, -24
170, -25
170, -26
170, -27
171, -27
171, -28
170, -28
170, -29
170, -30
170, -31
171, -31
171, -30
172, -30
173, -30
174, -30
174, -31
173, -31
173, -32
173, -33
173, -34
174, -34
174, -35
173, -35
172, -35
171, -35
171, -34
170, -34
170, -35
170, -36
170, -37
171, -37
171, -38
170, -38
170, -39
170, -40
170, -41
171, -41
171, -40
172, -40
173, -40
174, -40
174, -41
175, -41
175, -40
175, -39
175, -38
174, -38
174, -37
175, -37
176, -37
177, -37
177, -38
178, -38
178, -37
179, -37
180, -37
181, -37
181, -38
180, -38
180, -39
180, -40
180, -41
181, -41
181, -40
182, -40
183, -40
184, -40
184, -41
185, -41
185, -40
185, -39
185, -38
184, -38
184, -37
185, -37
185, -36
185, -35
185, -34
184, -34
184, -35
183, -35
182, -35
181, -35
181, -34
182, -34
182, -33
182, -32
182, -31
181, -31
181, -30
182, -30
183, -30
184, -30
184, -31
185, -31
185, -30
186, -30
187, -30
188, -30
188, -31
187, -31
187, -32
187, -33
187, -34
188, -34
188, -33
189, -33
190, -33
191, -33
191, -34
192, -34
192, -33
192, -32
192, -31
191, -31
191, -30
192, -30
193, -30
194, -30
194, -31
195, -31
195, -30
196, -30
197, -30
198, -30
198, -31
197, -31
197, -32
197, -33
197, -34
198, -34
198, -35
197, -35
196, -35
195, -35
195, -34
194, -34
194, -35
194, -36
194, -37
195, -37
195, -38
194, -38
194, -39
194, -40
194, -41
195, -41
195, -40
196, -40
197, -40
198, -40
198, -41
197, -41
197, -42
197, -43
197, -44
198, -44
198, -45
197, -45
196, -45
195, -45
195, -44
194, -44
194, -45
193, -45
192, -45
191, -45
191, -44
192, -44
192, -43
192, -42
192, -41
191, -41
191, -42
190, -42
189, -42
188, -42
188, -41
187, -41
187, -42
187, -43
187, -44
188, -44
188, -45
187, -45
187, -46
187, -47
187, -48
188, -48
188, -47
189, -47
190, -47
191, -47
191, -48
190, -48
190, -49
190, -50
190, -51
191, -51
191, -52
190, -52
189, -52
188, -52
188, -51
187, -51
187, -52
187, -53
187, -54
188, -54
188, -55
187, -55
187, -56
187, -57
187, -58
188, -58
188, -57
189, -57
190, -57
191, -57
191, -58
192, -58
192, -57
192, -56
192, -55
191, -55
191, -54
192, -54
193, -54
194, -54
194, -55
195, -55
195, -54
196, -54
197, -54
198, -54
198, -55
197, -55
197, -56
197, -57
197, -58
198, -58
198, -59
197, -59
196, -59
195, -59
195, -58
194, -58
194, -59
194, -60
194, -61
195, -61
195, -62
194, -62
194, -63
194, -64
194, -65
195, -65
195, -64
196, -64
197, -64
198, -64
198, -65
197, -65
197, -66
197, -67
197, -68
198, -68
198, -69
197, -69
196, -69
195, -69
195, -68
194, -68
194, -69
193, -69
192, -69
191, -69
191, -68
192, -68
192, -67
192, -66
192, -65
191, -65
191, -66
190, -66
189, -66
188, -66
188, -65
187, -65
187, -66
187, -67
187, -68
188, -68
188, -69
187, -69
186, -69
185, -69
185, -68
184, -68
184, -69
183, -69
182, -69
181, -69
181, -68
182, -68
182, -67
182, -66
182, -65
181, -65
181, -64
182, -64
183, -64
184, -64
184, -65
185, -65
185, -64
185, -63
185, -62
184, -62
184, -61
185, -61
185, -60
185, -59
185, -58
184, -58
184, -59
183, -59
182, -59
181, -59
181, -58
180, -58
180, -59
180, -60
180, -61
181, -61
181, -62
180, -62
179, -62
178, -62
178, -61
177, -61
177, -62
176, -62
175, -62
174, -62
174, -61
175, -61
175, -60
175, -59
175, -58
174, -58
174, -59
173, -59
172, -59
171, -59
171, -58
170, -58
170, -59
170, -60
170, -61
171, -61
171, -62
170, -62
170, -63
170, -64
170, -65
171, -65
171, -64
172, -64
173, -64
174, -64
174, -65
173, -65
173, -66
173, -67
173, -68
174, -68
174, -69
173, -69
172, -69
171, -69
171, -68
170, -68
170, -69
170, -70
170, -71
171, -71
171, -72
170, -72
170, -73
170, -74
170, -75
171, -75
171, -74
172, -74
173, -74
174, -74
174, -75
175, -75
175, -74
175, -73
175, -72
174, -72
174, -71
175, -71
176, -71
177, -71
177, -72
178, -72
178, -71
179, -71
180, -71
181, -71
181, -72
180, -72
180, -73
180, -74
180, -75
181, -75
181, -76
180, -76
179, -76
178, -76
178, -75
177, -75
177, -76
177, -77
177, -78
178, -78
178, -79
177, -79
177, -80
177, -81
177, -82
178, -82
178, -81
179, -81
180, -81
181, -81
181, -82
180, -82
180, -83
180, -84
180, -85
181, -85
181, -86
180, -86
179, -86
178, -86
178, -85
177, -85
177, -86
176, -86
175, -86
174, -86
174, -85
175, -85
175, -84
175, -83
175, -82
174, -82
174, -83
173, -83
172, -83
171, -83
171, -82
170, -82
170, -83
170, -84
170, -85
171, -85
171, -86
170, -86
170, -87
170, -88
170, -89
171, -89
171, -88
172, -88
173, -88
174, -88
174, -89
173, -89
173, -90
173, -91
173, -92
174, -92
174, -93
173, -93
172, -93
171, -93
171, -92
170, -92
170, -93
170, -94
170, -95
171, -95
171, -96
170, -96
170, -97
170, -98
170, -99
171, -99
171, -98
172, -98
173, -98
174, -98
174, -99
175, -99
175, -98
175, -97
175, -96
174, -96
174, -95
175, -95
176, -95
177, -95
177, -96
178, -96
178, -95
179, -95
180, -95
181, -95
181, -96
180, -96
180, -97
180, -98
180, -99
181, -99
181, -98
182, -98
183, -98
184, -98
184, -99
185, -99
185, -98
185, -97
185, -96
184, -96
184, -95
185, -95
185, -94
185, -93
185, -92
184, -92
184, -93
183, -93
182, -93
181, -93
181, -92
182, -92
182, -91
182, -90
182, -89
181, -89
181, -88
182, -88
183, -88
184, -88
184, -89
185, -89
185, -88
186, -88
187, -88
188, -88
188, -89
187, -89
187, -90
187, -91
187, -92
188, -92
188, -91
189, -91
190, -91
191, -91
191, -92
192, -92
192, -91
192, -90
192, -89
191, -89
191, -88
192, -88
193, -88
194, -88
194, -89
195, -89
195, -88
196, -88
197, -88
198, -88
198, -89
197, -89
197, -90
197, -91
197, -92
198, -92
198, -93
197, -93
196, -93
195, -93
195, -92
194, -92
194, -93
194, -94
194, -95
195, -95
195, -96
194, -96
194, -97
194, -98
194, -99
195, -99
195, -98
196, -98
197, -98
198, -98
198, -99
199, -99
199, -98
199, -97
199, -96
198, -96
198, -95
199, -95
200, -95
201, -95
201, -96
202, -96
202, -95
203, -95
204, -95
205, -95
205, -96
204, -96
204, -97
204, -98
204, -99
205, -99
205, -98
206, -98
207, -98
208, -98
208, -99
209, -99
209, -98
209, -97
209, -96
208, -96
208, -95
209, -95
209, -94
209, -93
209, -92
208, -92
208, -93
207, -93
206, -93
205, -93
205, -92
206, -92
206, -91
206, -90
206, -89
205, -89
205, -88
206, -88
207, -88
208, -88
208, -89
209, -89
209, -88
209, -87
209, -86
208, -86
208, -85
209, -85
209, -84
209, -83
209, -82
208, -82
208, -83
207, -83
206, -83
205, -83
205, -82
204, -82
204, -83
204, -84
204, -85
205, -85
205, -86
204, -86
203, -86
202, -86
202, -85
201, -85
201, -86
200, -86
199, -86
198, -86
198, -85
199, -85
199, -84
199, -83
199, -82
198, -82
198, -81
199, -81
200, -81
201, -81
201, -82
202, -82
202, -81
202, -80
202, -79
201, -79
201, -78
202, -78
202, -77
202, -76
202, -75
201, -75
201, -76
200, -76
199, -76
198, -76
198, -75
199, -75
199, -74
199, -73
199, -72
198, -72
198, -71
199, -71
200, -71
201, -71
201, -72
202, -72
202, -71
203, -71
204, -71
205, -71
205, -72
204, -72
204, -73
204, -74
204, -75
205, -75
205, -74
206, -74
207, -74
208, -74
208, -75
209, -75
209, -74
209, -73
209, -72
208, -72
208, -71
209, -71
210, -71
211, -71
211, -72
212, -72
212, -71
213, -71
214, -71
215, -71
215, -72
214, -72
214, -73
214, -74
214, -75
215, -75
215, -76
214, -76
213, -76
212, -76
212, -75
211, -75
211, -76
211, -77
211, -78
212, -78
212, -79
211, -79
211, -80
211, -81
211, -82
212, -82
212, -81
213, -81
214, -81
215, -81
215, -82
216, -82
216, -81
216, -80
216, -79
215, -79
215, -78
216, -78
217, -78
218, -78
218, -79
219, -79
219, -78
220, -78
221, -78
222, -78
222, -79
221, -79
221, -80
221, -81
221, -82
222, -82
222, -81
223, -81
224, -81
225, -81
225, -82
226, -82
226, -81
226, -80
226, -79
225, -79
225, -78
226, -78
226, -77
226, -76
226, -75
225, -75
225, -76
224, -76
223, -76
222, -76
222, -75
223, -75
223, -74
223, -73
223, -72
222, -72
222, -71
223, -71
224, -71
225, -71
225, -72
226, -72
226, -71
227, -71
228, -71
229, -71
229, -72
228, -72
228, -73
228, -74
228, -75
229, -75
229, -74
230, -74
231, -74
232, -74
232, -75
233, -75
233, -74
233, -73
233, -72
232, -72
232, -71
233, -71
234, -71
235, -71
235, -72
236, -72
236, -71
237, -71
238, -71
239, -71
239, -72
238, -72
238, -73
238, -74
238, -75
239, -75
239, -76
238, -76
237, -76
236, -76
236, -75
235, -75
235, -76
235, -77
235, -78
236, -78
236, -79
235, -79
235, -80
235, -81
235, -82
236, -82
236, -81
237, -81
238, -81
239, -81
239, -82
238, -82
238, -83
238, -84
238, -85
239, -85
239, -86
238, -86
237, -86
236, -86
236, -85
235, -85
235, -86
234, -86
233, -86
232, -86
232, -85
233, -85
233, -84
233, -83
233, -82
232, -82
232, -83
231, -83
230, -83
229, -83
229, -82
228, -82
228, -83
228, -84
228, -85
229, -85
229, -86
228, -86
228, -87
228, -88
228, -89
229, -89
229, -88
230, -88
231, -88
232, -88
232, -89
231, -89
231, -90
231, -91
231, -92
232, -92
232, -93
231, -93
230, -93
229, -93
229, -92
228, -92
228, -93
228, -94
228, -95
229, -95
229, -96
228, -96
228, -97
228, -98
228, -99
229, -99
229, -98
230, -98
231, -98
232, -98
232, -99
233, -99
233, -98
233, -97
233, -96
232, -96
232, -95
233, -95
234, -95
235, -95
235, -96
236, -96
236, -95
237, -95
238, -95
239, -95
239, -96
238, -96
238, -97
238, -98
238, -99
239, -99
239, -100
238, -100
237, -100
236, -100
236, -99
235, -99
235, -100
235, -101
235, -102
236, -102
236, -103
235, -103
235, -104
235, -105
235, -106
236, -106
236, -105
237, -105
238, -105
239, -105
239, -106
238, -106
238, -107
238, -108
238, -109
239, -109
239, -110
238, -110
237, -110
236, -110
236, -109
235, -109
235, -110
234, -110
233, -110
232, -110
232, -109
233, -109
233, -108
233, -107
233, -106
232, -106
232, -107
231, -107
230, -107
229, -107
229, -106
228, -106
228, -107
228, -108
228, -109
229, -109
229, -110
228, -110
227, -110
226, -110
226, -109
225, -109
225, -110
224, -110
223, -110
222, -110
222, -109
223, -109
223, -108
223, -107
223, -106
222, -106
222, -105
223, -105
224, -105
225, -105
225, -106
226, -106
226, -105
226, -104
226, -103
225, -103
225, -102
226, -102
226, -101
226, -100
226, -99
225, -99
225, -100
224, -100
223, -100
222, -100
222, -99
221, -99
221, -100
221, -101
221, -102
222, -102
222, -103
221, -103
220, -103
219, -103
219, -102
218, -102
218, -103
217, -103
216, -103
215, -103
215, -102
216, -102
216, -101
216, -100
216, -99
215, -99
215, -100
214, -100
213, -100
212, -100
212, -99
211, -99
211, -100
211, -101
211, -102
212, -102
212, -103
211, -103
211, -104
211, -105
211, -106
212, -106
212, -105
213, -105
214, -105
215, -105
215, -106
214, -106
214, -107
214, -108
214, -109
215, -109
215, -110
214, -110
213, -110
212, -110
212, -109
211, -109
211, -110
211, -111
211, -112
212, -112
212, -113
211, -113
211, -114
211, -115
211, -116
212, -116
212, -115
213, -115
214, -115
215, -115
215, -116
216, -116
216, -115
216, -114
216, -113
215, -113
215, -112
216, -112
217, -112
218, -112
218, -113
219, -113
219, -112
220, -112
221, -112
222, -112
222, -113
221, -113
221, -114
221, -115
221, -116
222, -116
222, -117
221, -117
220, -117
219, -117
219, -116
218, -116
218, -117
218, -118
218, -119
219, -119
219, -120
218, -120
218, -121
218, -122
218, -123
219, -123
219, -122
220, -122
221, -122
222, -122
222, -123
221, -123
221, -124
221, -125
221, -126
222, -126
222, -127
221, -127
220, -127
219, -127
219, -126
218, -126
218, -127
217, -127
216, -127
215, -127
215, -126
216, -126
216, -125
216, -124
216, -123
215, -123
215, -124
214, -124
213, -124
212, -124
212, -123
211, -123
211, -124
211, -125
211, -126
212, -126
212, -127
211, -127
211, -128
211, -129
211, -130
212, -130
212, -129
213, -129
214, -129
215, -129
215, -130
214, -130
214, -131
214, -132
214, -133
215, -133
215, -134
214, -134
213, -134
212, -134
212, -133
211, -133
211, -134
211, -135
211, -136
212, -136
212, -137
211, -137
211, -138
211, -139
211, -140
212, -140
212, -139
213, -139
214, -139
215, -139
215, -140
216, -140
216, -139
216, -138
216, -137
215, -137
215, -136
216, -136
217, -136
218, -136
218, -137
219, -137
219, -136
220, -136
221, -136
222, -136
222, -137
221, -137
221, -138
221, -139
221, -140
222, -140
222, -139
223, -139
224, -139
225, -139
225, -140
226, -140
226, -139
226, -138
226, -137
225, -137
225, -136
226, -136
226, -135
226, -134
226, -133
225, -133
225, -134
224, -134
223, -134
222, -134
222, -133
223, -133
223, -132
223, -131
223, -130
222, -130
222, -129
223, -129
224, -129
225, -129
225, -130
226, -130
226, -129
227, -129
228, -129
229, -129
229, -130
228, -130
228, -131
228, -132
228, -133
229, -133
229, -132
230, -132
231, -132
232, -132
232, -133
233, -133
233, -132
233, -131
233, -130
232, -130
232, -129
233, -129
234, -129
235, -129
235, -130
236, -130
236, -129
237, -129
238, -129
239, -129
239, -130
238, -130
238, -131
238, -132
238, -133
239, -133
239, -134
238, -134
237, -134
236, -134
236, -133
235, -133
235, -134
235, -135
235, -136
236, -136
236, -137
235, -137
235, -138
235, -139
235, -140
236, -140
236, -139
237, -139
238, -139
239, -139
239, -140
238, -140
238, -141
238, -142
238, -143
239, -143
239, -144
238, -144
237, -144
236, -144
236, -143
235, -143
235, -144
234, -144
233, -144
232, -144
232, -143
233, -143
233, -142
233, -141
233, -140
232, -140
232, -141
231, -141
230, -141
229, -141
229, -140
228, -140
228, -141
228, -142
228, -143
229, -143
229, -144
228, -144
228, -145
228, -146
228, -147
229, -147
229, -146
230, -146
231, -146
232, -146
232, -147
231, -147
231, -148
231, -149
231, -150
232, -150
232, -151
231, -151
230, -151
229, -151
229, -150
228, -150
228, -151
228, -152
228, -153
229, -153
229, -154
228, -154
228, -155
228, -156
228, -157
229, -157
229, -156
230, -156
231, -156
232, -156
232, -157
233, -157
233, -156
233, -155
233, -154
232, -154
232, -153
233, -153
234, -153
235, -153
235, -154
236, -154
236, -153
237, -153
238, -153
239, -153
239, -154
238, -154
238, -155
238, -156
238, -157
239, -157
239, -158
238, -158
237, -158
236, -158
236, -157
235, -157
235, -158
235, -159
235, -160
236, -160
236, -161
235, -161
235, -162
235, -163
235, -164
236, -164
236, -163
237, -163
238, -163
239, -163
239, -164
238, -164
238, -165
238, -166
238, -167
239, -167
239, -168
238, -168
237, -168
236, -168
236, -167
235, -167
235, -168
234, -168
233, -168
232, -168
232, -167
233, -167
233, -166
233, -165
233, -164
232, -164
232, -165
231, -165
230, -165
229, -165
229, -164
228, -164
228, -165
228, -166
228, -167
229, -167
229, -168
228, -168
227, -168
226, -168
226, -167
225, -167
225, -168
224, -168
223, -168
222, -168
222, -167
223, -167
223, -166
223, -165
223, -164
222, -164
222, -163
223, -163
224, -163
225, -163
225, -164
226, -164
226, -163
226, -162
226, -161
225, -161
225, -160
226, -160
226, -159
226, -158
226, -157
225, -157
225, -158
224, -158
223, -158
222, -158
222, -157
221, -157
221, -158
221, -159
221, -160
222, -160
222, -161
221, -161
220, -161
219, -161
219, -160
218, -160
218, -161
217, -161
216, -161
215, -161
215, -160
216, -160
216, -159
216, -158
216, -157
215, -157
215, -158
214, -158
213, -158
212, -158
212, -157
211, -157
211, -158
211, -159
211, -160
212, -160
212, -161
211, -161
211, -162
211, -163
211, -164
212, -164
212, -163
213, -163
214, -163
215, -163
215, -164
214, -164
214, -165
214, -166
214, -167
215, -167
215, -168
214, -168
213, -168
212, -168
212, -167
211, -167
211, -168
210, -168
209, -168
208, -168
208, -167
209, -167
209, -166
209, -165
209, -164
208, -164
208, -165
207, -165
206, -165
205, -165
205, -164
204, -164
204, -165
204, -166
204, -167
205, -167
205, -168
204, -168
203, -168
202, -168
202, -167
201, -167
201, -168
200, -168
199, -168
198, -168
198, -167
199, -167
199, -166
199, -165
199, -164
198, -164
198, -163
199, -163
200, -163
201, -163
201, -164
202, -164
202, -163
202, -162
202, -161
201, -161
201, -160
202, -160
202, -159
202, -158
202, -157
201, -157
201, -158
200, -158
199, -158
198, -158
198, -157
199, -157
199, -156
199, -155
199, -154
198, -154
198, -153
199, -153
200, -153
201, -153
201, -154
202, -154
202, -153
203, -153
204, -153
205, -153
205, -154
204, -154
204, -155
204, -156
204, -157
205, -157
205, -156
206, -156
207, -156
208, -156
208, -157
209, -157
209, -156
209, -155
209, -154
208, -154
208, -153
209, -153
209, -152
209, -151
209, -150
208, -150
208, -151
207, -151
206, -151
205, -151
205, -150
206, -150
206, -149
206, -148
206, -147
205, -147
205, -146
206, -146
207, -146
208, -146
208, -147
209, -147
209, -146
209, -145
209, -144
208, -144
208, -143
209, -143
209, -142
209, -141
209, -140
208, -140
208, -141
207, -141
206, -141
205, -141
205, -140
204, -140
204, -141
204, -142
204, -143
205, -143
205, -144
204, -144
203, -144
202, -144
202, -143
201, -143
201, -144
200, -144
199, -144
198, -144
198, -143
199, -143
199, -142
199, -141
199, -140
198, -140
198, -141
197, -141
196, -141
195, -141
195, -140
194, -140
194, -141
194, -142
194, -143
195, -143
195, -144
194, -144
194, -145
194, -146
194, -147
195, -147
195, -146
196, -146
197, -146
198, -146
198, -147
197, -147
197, -148
197, -149
197, -150
198, -150
198, -151
197, -151
196, -151
195, -151
195, -150
194, -150
194, -151
193, -151
192, -151
191, -151
191, -150
192, -150
192, -149
192, -148
192, -147
191, -147
191, -148
190, -148
189, -148
188, -148
188, -147
187, -147
187, -148
187, -149
187, -150
188, -150
188, -151
187, -151
186, -151
185, -151
185, -150
184, -150
184, -151
183, -151
182, -151
181, -151
181, -150
182, -150
182, -149
182, -148
182, -147
181, -147
181, -146
182, -146
183, -146
184, -146
184, -147
185, -147
185, -146
185, -145
185, -144
184, -144
184, -143
185, -143
185, -142
185, -141
185, -140
184, -140
184, -141
183, -141
182, -141
181, -141
181, -140
180, -140
180, -141
180, -142
180, -143
181, -143
181, -144
180, -144
179, -144
178, -144
178, -143
177, -143
177, -144
176, -144
175, -144
174, -144
174, -143
175, -143
175, -142
175, -141
175, -140
174, -140
174, -141
173, -141
172, -141
171, -141
171, -140
170, -140
170, -141
170, -142
170, -143
171, -143
171, -144
170, -144
170, -145
170, -146
170, -147
171, -147
171, -146
172, -146
173, -146
174, -146
174, -147
173, -147
173, -148
173, -149
173, -150
174, -150
174, -151
173, -151
172, -151
171, -151
171, -150
170, -150
170, -151
170, -152
170, -153
171, -153
171, -154
170, -154
170, -155
170, -156
170, -157
171, -157
171, -156
172, -156
173, -156
174, -156
174, -157
175, -157
175, -156
175, -155
175, -154
174, -154
174, -153
175, -153
176, -153
177, -153
177, -154
178, -154
178, -153
179, -153
180, -153
181, -153
181, -154
180, -154
180, -155
180, -156
180, -157
181, -157
181, -158
180, -158
179, -158
178, -158
178, -157
177, -157
177, -158
177, -159
177, -160
178, -160
178, -161
177, -161
177, -162
177, -163
177, -164
178, -164
178, -163
179, -163
180, -163
181, -163
181, -164
180, -164
180, -165
180, -166
180, -167
181, -167
181, -168
180, -168
179, -168
178, -168
178, -167
177, -167
177, -168
176, -168
175, -168
174, -168
174, -167
175, -167
175, -166
175, -165
175, -164
174, -164
174, -165
173, -165
172, -165
171, -165
171, -164
170, -164
170, -165
170, -166
170, -167
171, -167
171, -168
170, -168
169, -168
168, -168
168, -167
167, -167
167, -168
166, -168
165, -168
164, -168
164, -167
165, -167
165, -166
165, -165
165, -164
164, -164
164, -163
165, -163
166, -163
167, -163
167, -164
168, -164
168, -163
168, -162
168, -161
167, -161
167, -160
168, -160
168, -159
168, -158
168, -157
167, -157
167, -158
166, -158
165, -158
164, -158
164, -157
163, -157
163, -158
163, -159
163, -160
164, -160
164, -161
163, -161
162, -161
161, -161
161, -160
160, -160
160, -161
159, -161
158, -161
157, -161
157, -160
158, -160
158, -159
158, -158
158, -157
157, -157
157, -158
156, -158
155, -158
154, -158
154, -157
153, -157
153, -158
153, -159
153, -160
154, -160
154, -161
153, -161
153, -162
153, -163
153, -164
154, -164
154, -163
155, -163
156, -163
157, -163
157, -164
156, -164
156, -165
156, -166
156, -167
157, -167
157, -168
156, -168
155, -168
154, -168
154, -167
153, -167
153, -168
152, -168
151, -168
150, -168
150, -167
151, -167
151, -166
151, -165
151, -164
150, -164
150, -165
149, -165
148, -165
147, -165
147, -164
146, -164
146, -165
146, -166
146, -167
147, -167
147, -168
146, -168
145, -168
144, -168
144, -167
143, -167
143, -168
142, -168
141, -168
140, -168
140, -167
141, -167
141, -166
141, -165
141, -164
140, -164
140, -163
141, -163
142, -163
143, -163
143, -164
144, -164
144, -163
144, -162
144, -161
143, -161
143, -160
144, -160
144, -159
144, -158
144, -157
143, -157
143, -158
142, -158
141, -158
140, -158
140, -157
141, -157
141, -156
141, -155
141, -154
140, -154
140, -153
141, -153
142, -153
143, -153
143, -154
144, -154
144, -153
145, -153
146, -153
147, -153
147, -154
146, -154
146, -155
146, -156
146, -157
147, -157
147, -156
148, -156
149, -156
150, -156
150, -157
151, -157
151, -156
151, -155
151, -154
150, -154
150, -153
151, -153
151, -152
151, -151
151, -150
150, -150
150, -151
149, -151
148, -151
147, -151
147, -150
148, -150
148, -149
148, -148
148, -147
147, -147
147, -146
148, -146
149, -146
150, -146
150, -147
151, -147
151, -146
151, -145
151, -144
150, -144
150, -143
151, -143
151, -142
151, -141
151, -140
150, -140
150, -141
149, -141
148, -141
147, -141
147, -140
146, -140
146, -141
146, -142
146, -143
147, -143
147, -144
146, -144
145, -144
144, -144
144, -143
143, -143
143, -144
142, -144
141, -144
140, -144
140, -143
141, -143
141, -142
141, -141
141, -140
140, -140
140, -139
141, -139
142, -139
143, -139
143, -140
144, -140
144, -139
144, -138
144, -137
143, -137
143, -136
144, -136
144, -135
144, -134
144, -133
143, -133
143, -134
142, -134
141, -134
140, -134
140, -133
141, -133
141, -132
141, -131
141, -130
140, -130
140, -129
141, -129
142, -129
143, -129
143, -130
144, -130
144, -129
145, -129
146, -129
147, -129
147, -130
146, -130
146, -131
146, -132
146, -133
147, -133
147, -132
148, -132
149, -132
150, -132
150, -133
151, -133
151, -132
151, -131
151, -130
150, -130
150, -129
151, -129
152, -129
153, -129
153, -130
154, -130
154, -129
155, -129
156, -129
157, -129
157, -130
156, -130
156, -131
156, -132
156, -133
157, -133
157, -134
156, -134
155, -134
154, -134
154, -133
153, -133
153, -134
153, -135
153, -136
154, -136
154, -137
153, -137
153, -138
153, -139
153, -140
154, -140
154, -139
155, -139
156, -139
157, -139
157, -140
158, -140
158, -139
158, -138
158, -137
157, -137
157, -136
158, -136
159, -136
160, -136
160, -137
161, -137
161, -136
162, -136
163, -136
164, -136
164, -137
163, -137
163, -138
163, -139
163, -140
164, -140
164, -139
165, -139
166, -139
167, -139
167, -140
168, -140
168, -139
168, -138
168, -137
167, -137
167, -136
168, -136
168, -135
168, -134
168, -133
167, -133
167, -134
166, -134
165, -134
164, -134
164, -133
165, -133
165, -132
165, -131
165, -130
164, -130
164, -129
165, -129
166, -129
167, -129
167, -130
168, -130
168, -129
168, -128
168, -127
167, -127
167, -126
168, -126
168, -125
168, -124
168, -123
167, -123
167, -124
166, -124
165, -124
164, -124
164, -123
163, -123
163, -124
163, -125
163, -126
164, -126
164, -127
163, -127
162, -127
161, -127
161, -126
160, -126
160, -127
159, -127
158, -127
157, -127
157, -126
158, -126
158, -125
158, -124
158, -123
157, -123
157, -122
158, -122
159, -122
160, -122
160, -123
161, -123
161, -122
161, -121
161, -120
160, -120
160, -119
161, -119
161, -118
161, -117
161, -116
160, -116
160, -117
159, -117
158, -117
157, -117
157, -116
158, -116
158, -115
158, -114
158, -113
157, -113
157, -112
158, -112
159, -112
160, -112
160, -113
161, -113
161, -112
162, -112
163, -112
164, -112
164, -113
163, -113
163, -114
163, -115
163, -116
164, -116
164, -115
165, -115
166, -115
167, -115
167, -116
168, -116
168, -115
168, -114
168, -113
167, -113
167, -112
168, -112
168, -111
168, -110
168, -109
167, -109
167, -110
166, -110
165, -110
164, -110
164, -109
165, -109
165, -108
165, -107
165, -106
164, -106
164, -105
165, -105
166, -105
167, -105
167, -106
168, -106
168, -105
168, -104
168, -103
167, -103
167, -102
168, -102
168, -101
168, -100
168, -99
167, -99
167, -100
166, -100
165, -100
164, -100
164, -99
163, -99
163, -100
163, -101
163, -102
164, -102
164, -103
163, -103
162, -103
161, -103
161, -102
160, -102
160, -103
159, -103
158, -103
157, -103
157, -102
158, -102
158, -101
158, -100
158, -99
157, -99
157, -100
156, -100
155, -100
154, -100
154, -99
153, -99
153, -100
153, -101
153, -102
154, -102
154, -103
153, -103
153, -104
153, -105
153, -106
154, -106
154, -105
155, -105
156, -105
157, -105
157, -106
156, -106
156, -107
156, -108
156, -109
157, -109
157, -110
156, -110
155, -110
154, -110
154, -109
153, -109
153, -110
152, -110
151, -110
150, -110
150, -109
151, -109
151, -108
151, -107
151, -106
150, -106
150, -107
149, -107
148, -107
147, -107
147, -106
146, -106
146, -107
146, -108
146, -109
147, -109
147, -110
146, -110
145, -110
144, -110
144, -109
143, -109
143, -110
142, -110
141, -110
140, -110
140, -109
141, -109
141, -108
141, -107
141, -106
140, -106
140, -105
141, -105
142, -105
143, -105
143, -106
144, -106
144, -105
144, -104
144, -103
143, -103
143, -102
144, -102
144, -101
144, -100
144, -99
143, -99
143, -100
142, -100
141, -100
140, -100
140, -99
139, -99
139, -100
139, -101
139, -102
140, -102
140, -103
139, -103
138, -103
137, -103
137, -102
136, -102
136, -103
135, -103
134, -103
133, -103
133, -102
134, -102
134, -101
134, -100
134, -99
133, -99
133, -100
132, -100
131, -100
130, -100
130, -99
129, -99
129, -100
129, -101
129, -102
130, -102
130, -103
129, -103
129, -104
129, -105
129, -106
130, -106
130, -105
131, -105
132, -105
133, -105
133, -106
132, -106
132, -107
132, -108
132, -109
133, -109
133, -110
132, -110
131, -110
130, -110
130, -109
129, -109
129, -110
129, -111
129, -112
130, -112
130, -113
129, -113
129, -114
129, -115
129, -116
130, -116
130, -115
131, -115
132, -115
133, -115
133, -116
134, -116
134, -115
134, -114
134, -113
133, -113
133, -112
134, -112
135, -112
136, -112
136, -113
137, -113
137, -112
138, -112
139, -112
140, -112
140, -113
139, -113
139, -114
139, -115
139, -116
140, -116
140, -117
139, -117
138, -117
137, -117
137, -116
136, -116
136, -117
136, -118
136, -119
137, -119
137, -120
136, -120
136, -121
136, -122
136, -123
137, -123
137, -122
138, -122
139, -122
140, -122
140, -123
139, -123
139, -124
139, -125
139, -126
140, -126
140, -127
139, -127
138, -127
137, -127
137, -126
136, -126
136, -127
135, -127
134, -127
133, -127
133, -126
134, -126
134, -125
134, -124
134, -123
133, -123
133, -124
132, -124
131, -124
130, -124
130, -123
129, -123
129, -124
129, -125
129, -126
130, -126
130, -127
129, -127
128, -127
127, -127
127, -126
126, -126
126, -127
125, -127
124, -127
123, -127
123, -126
124, -126
124, -125
124, -124
124, -123
123, -123
123, -122
124, -122
125, -122
126, -122
126, -123
127, -123
127, -122
127, -121
127, -120
126, -120
126, -119
127, -119
127, -118
127, -117
127, -116
126, -116
126, -117
125, -117
124, -117
123, -117
123, -116
122, -116
122, -117
122, -118
122, -119
123, -119
123, -120
122, -120
121, -120
120, -120
120, -119
119, -119
119, -120
118, -120
117, -120
116, -120
116, -119
117, -119
117, -118
117, -117
117, -116
116, -116
116, -117
115, -117
114, -117
113, -117
113, -116
112, -116
112, -117
112, -118
112, -119
113, -119
113, -120
112, -120
112, -121
112, -122
112, -123
113, -123
113, -122
114, -122
115, -122
116, -122
116, -123
115, -123
115, -124
115, -125
115, -126
116, -126
116, -127
115, -127
114, -127
113, -127
113, -126
112, -126
112, -127
111, -127
110, -127
109, -127
109, -126
110, -126
110, -125
110, -124
110, -123
109, -123
109, -124
108, -124
107, -124
106, -124
106, -123
105, -123
105, -124
105, -125
105, -126
106, -126
106, -127
105, -127
104, -127
103, -127
103, -126
102, -126
102, -127
101, -127
100, -127
99, -127
99, -126
100, -126
100, -125
100, -124
100, -123
99, -123
99, -122
100, -122
101, -122
102, -122
102, -123
103, -123
103, -122
103, -121
103, -120
102, -120
102, -119
103, -119
103, -118
103, -117
103, -116
102, -116
102, -117
101, -117
100, -117
99, -117
99, -116
100, -116
100, -115
100, -114
100, -113
99, -113
99, -112
100, -112
101, -112
102, -112
102, -113
103, -113
103, -112
104, -112
105, -112
106, -112
106, -113
105, -113
105, -114
105, -115
105, -116
106, -116
106, -115
107, -115
108, -115
109, -115
109, -116
110, -116
110, -115
110, -114
110, -113
109, -113
109, -112
110, -112
110, -111
110, -110
110, -109
109, -109
109, -110
108, -110
107, -110
106, -110
106, -109
107, -109
107, -108
107, -107
107, -106
106, -106
106, -105
107, -105
108, -105
109, -105
109, -106
110, -106
110, -105
110, -104
110, -103
109, -103
109, -102
110, -102
110, -101
110, -100
110, -99
109, -99
109, -100
108, -100
107, -100
106, -100
106, -99
105, -99
105, -100
105, -101
105, -102
106, -102
106, -103
105, -103
104, -103
103, -103
103, -102
102, -102
102, -103
101, -103
100, -103
99, -103
99, -102
100, -102
100, -101
100, -100
100, -99
99, -99
99, -100
98, -100
97, -100
96, -100
96, -99
95, -99
95, -100
95, -101
95, -102
96, -102
96, -103
95, -103
95, -104
95, -105
95, -106
96, -106
96, -105
97, -105
98, -105
99, -105
99, -106
98, -106
98, -107
98, -108
98, -109
99, -109
99, -110
98, -110
97, -110
96, -110
96, -109
95, -109
95, -110
94, -110
93, -110
92, -110
92, -109
93, -109
93, -108
93, -107
93, -106
92, -106
92, -107
91, -107
90, -107
89, -107
89, -106
88, -106
88, -107
88, -108
88, -109
89, -109
89, -110
88, -110
87, -110
86, -110
86, -109
85, -109
85, -110
84, -110
83, -110
82, -110
82, -109
83, -109
83, -108
83, -107
83, -106
82, -106
82, -105
83, -105
84, -105
85, -105
85, -106
86, -106
86, -105
86, -104
86, -103
85, -103
85, -102
86, -102
86, -101
86, -100
86, -99
85, -99
85, -100
84, -100
83, -100
82, -100
82, -99
81, -99
81, -100
81, -101
81, -102
82, -102
82, -103
81, -103
80, -103
79, -103
79, -102
78, -102
78, -103
77, -103
76, -103
75, -103
75, -102
76, -102
76, -101
76, -100
76, -99
75, -99
75, -100
74, -100
73, -100
72, -100
72, -99
71, -99
71, -100
71, -101
71, -102
72, -102
72, -103
71, -103
71, -104
71, -105
71, -106
72, -106
72, -105
73, -105
74, -105
75, -105
75, -106
74, -106
74, -107
74, -108
74, -109
75, -109
75, -110
74, -110
73, -110
72, -110
72, -109
71, -109
71, -110
71, -111
71, -112
72, -112
72, -113
71, -113
71, -114
71, -115
71, -116
72, -116
72, -115
73, -115
74, -115
75, -115
75, -116
76, -116
76, -115
76, -114
76, -113
75, -113
75, -112
76, -112
77, -112
78, -112
78, -113
79, -113
79, -112
80, -112
81, -112
82, -112
82, -113
81, -113
81, -114
81, -115
81, -116
82, -116
82, -117
81, -117
80, -117
79, -117
79, -116
78, -116
78, -117
78, -118
78, -119
79, -119
79, -120
78, -120
78, -121
78, -122
78, -123
79, -123
79, -122
80, -122
81, -122
82, -122
82, -123
81, -123
81, -124
81, -125
81, -126
82, -126
82, -127
81, -127
80, -127
79, -127
79, -126
78, -126
78, -127
77, -127
76, -127
75, -127
75, -126
76, -126
76, -125
76, -124
76, -123
75, -123
75, -124
74, -124
73, -124
72, -124
72, -123
71, -123
71, -124
71, -125
71, -126
72, -126
72, -127
71, -127
71, -128
71, -129
71, -130
72, -130
72, -129
73, -129
74, -129
75, -129
75, -130
74, -130
74, -131
74, -132
74, -133
75, -133
75, -134
74, -134
73, -134
72, -134
72, -133
71, -133
71, -134
71, -135
71, -136
72, -136
72, -137
71, -137
71, -138
71, -139
71, -140
72, -140
72, -139
73, -139
74, -139
75, -139
75, -140
76, -140
76, -139
76, -138
76, -137
75, -137
75, -136
76, -136
77, -136
78, -136
78, -137
79, -137
79, -136
80, -136
81, -136
82, -136
82, -137
81, -137
81, -138
81, -139
81, -140
82, -140
82, -139
83, -139
84, -139
85, -139
85, -140
86, -140
86, -139
86, -138
86, -137
85, -137
85, -136
86, -136
86, -135
86, -134
86, -133
85, -133
85, -134
84, -134
83, -134
82, -134
82, -133
83, -133
83, -132
83, -131
83, -130
82, -130
82, -129
83, -129
84, -129
85, -129
85, -130
86, -130
86, -129
87, -129
88, -129
89, -129
89, -130
88, -130
88, -131
88, -132
88, -133
89, -133
89, -132
90, -132
91, -132
92, -132
92, -133
93, -133
93, -132
93, -131
93, -130
92, -130
92, -129
93, -129
94, -129
95, -129
95, -130
96, -130
96, -129
97, -129
98, -129
99, -129
99, -130
98, -130
98, -131
98, -132
98, -133
99, -133
99, -134
98, -134
97, -134
96, -134
96, -133
95, -133
95, -134
95, -135
95, -136
96, -136
96, -137
95, -137
95, -138
95, -139
95, -140
96, -140
96, -139
97, -139
98, -139
99, -139
99, -140
98, -140
98, -141
98, -142
98, -143
99, -143
99, -144
98, -144
97, -144
96, -144
96, -143
95, -143
95, -144
94, -144
93, -144
92, -144
92, -143
93, -143
93, -142
93, -141
93, -140
92, -140
92, -141
91, -141
90, -141
89, -141
89, -140
88, -140
88, -141
88, -142
88, -143
89, -143
89, -144
88, -144
88, -145
88, -146
88, -147
89, -147
89, -146
90, -146
91, -146
92, -146
92, -147
91, -147
91, -148
91, -149
91, -150
92, -150
92, -151
91, -151
90, -151
89, -151
89, -150
88, -150
88, -151
88, -152
88, -153
89, -153
89, -154
88, -154
88, -155
88, -156
88, -157
89, -157
89, -156
90, -156
91, -156
92, -156
92, -157
93, -157
93, -156
93, -155
93, -154
92, -154
92, -153
93, -153
94, -153
95, -153
95, -154
96, -154
96, -153
97, -153
98, -153
99, -153
99, -154
98, -154
98, -155
98, -156
98, -157
99, -157
99, -158
98, -158
97, -158
96, -158
96, -157
95, -157
95, -158
95, -159
95, -160
96, -160
96, -161
95, -161
95, -162
95, -163
95, -164
96, -164
96, -163
97, -163
98, -163
99, -163
99, -164
98, -164
98, -165
98, -166
98, -167
99, -167
99, -168
98, -168
97, -168
96, -168
96, -167
95, -167
95, -168
94, -168
93, -168
92, -168
92, -167
93, -167
93, -166
93, -165
93, -164
92, -164
92, -165
91, -165
90, -165
89, -165
89, -164
88, -164
88, -165
88, -166
88, -167
89, -167
89, -168
88, -168
87, -168
86, -168
86, -167
85, -167
85, -168
84, -168
83, -168
82, -168
82, -167
83, -167
83, -166
83, -165
83, -164
82, -164
82, -163
83, -163
84, -163
85, -163
85, -164
86, -164
86, -163
86, -162
86, -161
85, -161
85, -160
86, -160
86, -159
86, -158
86, -157
85, -157
85, -158
84, -158
83, -158
82, -158
82, -157
81, -157
81, -158
81, -159
81, -160
82, -160
82, -161
81, -161
80, -161
79, -161
79, -160
78, -160
78, -161
77, -161
76, -161
75, -161
75, -160
76, -160
76, -159
76, -158
76, -157
75, -157
75, -158
74, -158
73, -158
72, -158
72, -157
71, -157
71, -158
71, -159
71, -160
72, -160
72, -161
71, -161
71, -162
71, -163
71, -164
72, -164
72, -163
73, -163
74, -163
75, -163
75, -164
74, -164
74, -165
74, -166
74, -167
75, -167
75, -168
74, -168
73, -168
72, -168
72, -167
71, -167
71, -168
70, -168
69, -168
68, -168
68, -167
69, -167
69, -166
69, -165
69, -164
68, -164
68, -165
67, -165
66, -165
65, -165
65, -164
64, -164
64, -165
64, -166
64, -167
65, -167
65, -168
64, -168
63, -168
62, -168
62, -167
61, -167
61, -168
60, -168
59, -168
58, -168
58, -167
59, -167
59, -166
59, -165
59, -164
58, -164
58, -163
59, -163
60, -163
61, -163
61, -164
62, -164
62, -163
62, -162
62, -161
61, -161
61, -160
62, -160
62, -159
62, -158
62, -157
61, -157
61, -158
60, -158
59, -158
58, -158
58, -157
59, -157
59, -156
59, -155
59, -154
58, -154
58, -153
59, -153
60, -153
61, -153
61, -154
62, -154
62, -153
63, -153
64, -153
65, -153
65, -154
64, -154
64, -155
64, -156
64, -157
65, -157
65, -156
66, -156
67, -156
68, -156
68, -157
69, -157
69, -156
69, -155
69, -154
68, -154
68, -153
69, -153
69, -152
69, -151
69, -150
68, -150
68, -151
67, -151
66, -151
65, -151
65, -150
66, -150
66, -149
66, -148
66, -147
65, -147
65, -146
66, -146
67, -146
68, -146
68, -147
69, -147
69, -146
69, -145
69, -144
68, -144
68, -143
69, -143
69, -142
69, -141
69, -140
68, -140
68, -141
67, -141
66, -141
65, -141
65, -140
64, -140
64, -141
64, -142
64, -143
65, -143
65, -144
64, -144
63, -144
62, -144
62, -143
61, -143
61, -144
60, -144
59, -144
58, -144
58, -143
59, -143
59, -142
59, -141
59, -140
58, -140
58, -141
57, -141
56, -141
55, -141
55, -140
54, -140
54, -141
54, -142
54, -143
55, -143
55, -144
54, -144
54, -145
54, -146
54, -147
55, -147
55, -146
56, -146
57, -146
58, -146
58, -147
57, -147
57, -148
57, -149
57, -150
58, -150
58, -151
57, -151
56, -151
55, -151
55, -150
54, -150
54, -151
53, -151
52, -151
51, -151
51, -150
52, -150
52, -149
52, -148
52, -147
51, -147
51, -148
50, -148
49, -148
48, -148
48, -147
47, -147
47, -148
47, -149
47, -150
48, -150
48, -151
47, -151
46, -151
45, -151
45, -150
44, -150
44, -151
43, -151
42, -151
41, -151
41, -150
42, -150
42, -149
42, -148
42, -147
41, -147
41, -146
42, -146
43, -146
44, -146
44, -147
45, -147
45, -146
45, -145
45, -144
44, -144
44, -143
45, -143
45, -142
45, -141
45, -140
44, -140
44, -141
43, -141
42, -141
41, -141
41, -140
40, -140
40, -141
40, -142
40, -143
41, -143
41, -144
40, -144
39, -144
38, -144
38, -143
37, -143
37, -144
36, -144
35, -144
34, -144
34, -143
35, -143
35, -142
35, -141
35, -140
34, -140
34, -141
33, -141
32, -141
31, -141
31, -140
30, -140
30, -141
30, -142
30, -143
31, -143
31, -144
30, -144
30, -145
30, -146
30, -147
31, -147
31, -146
32, -146
33, -146
34, -146
34, -147
33, -147
33, -148
33, -149
33, -150
34, -150
34, -151
33, -151
32, -151
31, -151
31, -150
30, -150
30, -151
30, -152
30, -153
31, -153
31, -154
30, -154
30, -155
30, -156
30, -157
31, -157
31, -156
32, -156
33, -156
34, -156
34, -157
35, -157
35, -156
35, -155
35, -154
34, -154
34, -153
35, -153
36, -153
37, -153
37, -154
38, -154
38, -153
39, -153
40, -153
41, -153
41, -154
40, -154
40, -155
40, -156
40, -157
41, -157
41, -158
40, -158
39, -158
38, -158
38, -157
37, -157
37, -158
37, -159
37, -160
38, -160
38, -161
37, -161
37, -162
37, -163
37, -164
38, -164
38, -163
39, -163
40, -163
41, -163
41, -164
40, -164
40, -165
40, -166
40, -167
41, -167
41, -168
40, -168
39, -168
38, -168
38, -167
37, -167
37, -168
36, -168
35, -168
34, -168
34, -167
35, -167
35, -166
35, -165
35, -164
34, -164
34, -165
33, -165
32, -165
31, -165
31, -164
30, -164
30, -165
30, -166
30, -167
31, -167
31, -168
30, -168
29, -168
28, -168
28, -167
27, -167
27, -168
26, -168
25, -168
24, -168
24, -167
25, -167
25, -166
25, -165
25, -164
24, -164
24, -163
25, -163
26, -163
27, -163
27, -164
28, -164
28, -163
28, -162
28, -161
27, -161
27, -160
28, -160
28, -159
28, -158
28, -157
27, -157
27, -158
26, -158
25, -158
24, -158
24, -157
23, -157
23, -158
23, -159
23, -160
24, -160
24, -161
23, -161
22, -161
21, -161
21, -160
20, -160
20, -161
19, -161
18, -161
17, -161
17, -160
18, -160
18, -159
18, -158
18, -157
17, -157
17, -158
16, -158
15, -158
14, -158
14, -157
13, -157
13, -158
13, -159
13, -160
14, -160
14, -161
13, -161
13, -162
13, -163
13, -164
14, -164
14, -163
15, -163
16, -163
17, -163
17, -164
16, -164
16, -165
16, -166
16, -167
17, -167
17, -168
16, -168
15, -168
14, -168
14, -167
13, -167
13, -168
12, -168
11, -168
10, -168
10, -167
11, -167
11, -166
11, -165
11, -164
10, -164
10, -165
9, -165
8, -165
7, -165
7, -164
6, -164
6, -165
6, -166
6, -167
7, -167
7, -168
6, -168
5, -168
4, -168
4, -167
3, -167
3, -168
2, -168
1, -168
0, -168
0, -167
1, -167
1, -166
1, -165
1, -164
0, -164
0, -163
1, -163
2, -163
3, -163
3, -164
4, -164
4, -163
4, -162
4, -161
3, -161
3, -160
4, -160
4, -159
4, -158
4, -157
3, -157
3, -158
2, -158
1, -158
0, -158
0, -157
1, -157
1, -156
1, -155
1, -154
0, -154
0, -153
1, -153
2, -153
3, -153
3, -154
4, -154
4, -153
5, -153
6, -153
7, -153
7, -154
6, -154
6, -155
6, -156
6, -157
7, -157
7, -156
8, -156
9, -156
10, -156
10, -157
11, -157
11, -156
11, -155
11, -154
10, -154
10, -153
11, -153
11, -152
11, -151
11, -150
10, -150
10, -151
9, -151
8, -151
7, -151
7, -150
8, -150
8, -149
8, -148
8, -147
7, -147
7, -146
8, -146
9, -146
10, -146
10, -147
11, -147
11, -146
11, -145
11, -144
10, -144
10, -143
11, -143
11, -142
11, -141
11, -140
10, -140
10, -141
9, -141
8, -141
7, -141
7, -140
6, -140
6, -141
6, -142
6, -143
7, -143
7, -144
6, -144
5, -144
4, -144
4, -143
3, -143
3, -144
2, -144
1, -144
0, -144
0, -143
1, -143
1, -142
1, -141
1, -140
0, -140
0, -139
1, -139
2, -139
3, -139
3, -140
4, -140
4, -139
4, -138
4, -137
3, -137
3, -136
4, -136
4, -135
4, -134
4, -133
3, -133
3, -134
2, -134
1, -134
0, -134
0, -133
1, -133
1, -132
1, -131
1, -130
0, -130
0, -129
1, -129
2, -129
3, -129
3, -130
4, -130
4, -129
5, -129
6, -129
7, -129
7, -130
6, -130
6, -131
6, -132
6, -133
7, -133
7, -132
8, -132
9, -132
10, -132
10, -133
11, -133
11, -132
11, -131
11, -130
10, -130
10, -129
11, -129
12, -129
13, -129
13, -130
14, -130
14, -129
15, -129
16, -129
17, -129
17, -130
16, -130
16, -131
16, -132
16, -133
17, -133
17, -134
16, -134
15, -134
14, -134
14, -133
13, -133
13, -134
13, -135
13, -136
14, -136
14, -137
13, -137
13, -138
13, -139
13, -140
14, -140
14, -139
15, -139
16, -139
17, -139
17, -140
18, -140
18, -139
18, -138
18, -137
17, -137
17, -136
18, -136
19, -136
20, -136
20, -137
21, -137
21, -136
22, -136
23, -136
24, -136
24, -137
23, -137
23, -138
23, -139
23, -140
24, -140
24, -139
25, -139
26, -139
27, -139
27, -140
28, -140
28, -139
28, -138
28, -137
27, -137
27, -136
28, -136
28, -135
28, -134
28, -133
27, -133
27, -134
26, -134
25, -134
24, -134
24, -133
25, -133
25, -132
25, -131
25, -130
24, -130
24, -129
25, -129
26, -129
27, -129
27, -130
28, -130
28, -129
28, -128
28, -127
27, -127
27, -126
28, -126
28, -125
28, -124
28, -123
27, -123
27, -124
26, -124
25, -124
24, -124
24, -123
23, -123
23, -124
23, -125
23, -126
24, -126
24, -127
23, -127
22, -127
21, -127
21, -126
20, -126
20, -127
19, -127
18, -127
17, -127
17, -126
18, -126
18, -125
18, -124
18, -123
17, -123
17, -122
18, -122
19, -122
20, -122
20, -123
21, -123
21, -122
21, -121
21, -120
20, -120
20, -119
21, -119
21, -118
21, -117
21, -116
20, -116
20, -117
19, -117
18, -117
17, -117
17, -116
18, -116
18, -115
18, -114
18, -113
17, -113
17, -112
18, -112
19, -112
20, -112
20, -113
21, -113
21, -112
22, -112
23, -112
24, -112
24, -113
23, -113
23, -114
23, -115
23, -116
24, -116
24, -115
25, -115
26, -115
27, -115
27, -116
28, -116
28, -115
28, -114
28, -113
27, -113
27, -112
28, -112
28, -111
28, -110
28, -109
27, -109
27, -110
26, -110
25, -110
24, -110
24, -109
25, -109
25, -108
25, -107
25, -106
24, -106
24, -105
25, -105
26, -105
27, -105
27, -106
28, -106
28, -105
28, -104
28, -103
27, -103
27, -102
28, -102
28, -101
28, -100
28, -99
27, -99
27, -100
26, -100
25, -100
24, -100
24, -99
23, -99
23, -100
23, -101
23, -102
24, -102
24, -103
23, -103
22, -103
21, -103
21, -102
20, -102
20, -103
19, -103
18, -103
17, -103
17, -102
18, -102
18, -101
18, -100
18, -99
17, -99
17, -100
16, -100
15, -100
14, -100
14, -99
13, -99
13, -100
13, -101
13, -102
14, -102
14, -103
13, -103
13, -104
13, -105
13, -106
14, -106
14, -105
15, -105
16, -105
17, -105
17, -106
16, -106
16, -107
16, -108
16, -109
17, -109
17, -110
16, -110
15, -110
14, -110
14, -109
13, -109
13, -110
12, -110
11, -110
10, -110
10, -109
11, -109
11, -108
11, -107
11, -106
10, -106
10, -107
9, -107
8, -107
7, -107
7, -106
6, -106
6, -107
6, -108
6, -109
7, -109
7, -110
6, -110
5, -110
4, -110
4, -109
3, -109
3, -110
2, -110
1, -110
0, -110
0, -109
1, -109
1, -108
1, -107
1, -106
0, -106
0, -105
1, -105
2, -105
3, -105
3, -106
4, -106
4, -105
4, -104
4, -103
3, -103
3, -102
4, -102
4, -101
4, -100
4, -99
3, -99
3, -100
2, -100
1, -100
0, -100
0, -99
1, -99
1, -98
1, -97
1, -96
0, -96
0, -95
1, -95
2, -95
3, -95
3, -96
4, -96
4, -95
5, -95
6, -95
7, -95
7, -96
6, -96
6, -97
6, -98
6, -99
7, -99
7, -98
8, -98
9, -98
10, -98
10, -99
11, -99
11, -98
11, -97
11, -96
10, -96
10, -95
11, -95
11, -94
11, -93
11, -92
10, -92
10, -93
9, -93
8, -93
7, -93
7, -92
8, -92
8, -91
8, -90
8, -89
7, -89
7, -88
8, -88
9, -88
10, -88
10, -89
11, -89
11, -88
11, -87
11, -86
10, -86
10, -85
11, -85
11, -84
11, -83
11, -82
10, -82
10, -83
9, -83
8, -83
7, -83
7, -82
6, -82
6, -83
6, -84
6, -85
7, -85
7, -86
6, -86
5, -86
4, -86
4, -85
3, -85
3, -86
2, -86
1, -86
0, -86
0, -85
1, -85
1, -84
1, -83
1, -82
0, -82
0, -81
1, -81
2, -81
3, -81
3, -82
4, -82
4, -81
4, -80
4, -79
3, -79
3, -78
4, -78
4, -77
4, -76
4, -75
3, -75
3, -76
2, -76
1, -76
0, -76
0, -75
1, -75
1, -74
1, -73
1, -72
0, -72
0, -71
1, -71
2, -71
3, -71
3, -72
4, -72
4, -71
5, -71
6, -71
7, -71
7, -72
6, -72
6, -73
6, -74
6, -75
7, -75
7, -74
8, -74
9, -74
10, -74
10, -75
11, -75
11, -74
11, -73
11, -72
10, -72
10, -71
11, -71
12, -71
13, -71
13, -72
14, -72
14, -71
15, -71
16, -71
17, -71
17, -72
16, -72
16, -73
16, -74
16, -75
17, -75
17, -76
16, -76
15, -76
14, -76
14, -75
13, -75
13, -76
13, -77
13, -78
14, -78
14, -79
13, -79
13, -80
13, -81
13, -82
14, -82
14, -81
15, -81
16, -81
17, -81
17, -82
18, -82
18, -81
18, -80
18, -79
17, -79
17, -78
18, -78
19, -78
20, -78
20, -79
21, -79
21, -78
22, -78
23, -78
24, -78
24, -79
23, -79
23, -80
23, -81
23, -82
24, -82
24, -81
25, -81
26, -81
27, -81
27, -82
28, -82
28, -81
28, -80
28, -79
27, -79
27, -78
28, -78
28, -77
28, -76
28, -75
27, -75
27, -76
26, -76
25, -76
24, -76
24, -75
25, -75
25, -74
25, -73
25, -72
24, -72
24, -71
25, -71
26, -71
27, -71
27, -72
28, -72
28, -71
29, -71
30, -71
31, -71
31, -72
30, -72
30, -73
30, -74
30, -75
31, -75
31, -74
32, -74
33, -74
34, -74
34, -75
35, -75
35, -74
35, -73
35, -72
34, -72
34, -71
35, -71
36, -71
37, -71
37, -72
38, -72
38, -71
39, -71
40, -71
41, -71
41, -72
40, -72
40, -73
40, -74
40, -75
41, -75
41, -76
40, -76
39, -76
38, -76
38, -75
37, -75
37, -76
37, -77
37, -78
38, -78
38, -79
37, -79
37, -80
37, -81
37, -82
38, -82
38, -81
39, -81
40, -81
41, -81
41, -82
40, -82
40, -83
40, -84
40, -85
41, -85
41, -86
40, -86
39, -86
38, -86
38, -85
37, -85
37, -86
36, -86
35, -86
34, -86
34, -85
35, -85
35, -84
35, -83
35, -82
34, -82
34, -83
33, -83
32, -83
31, -83
31, -82
30, -82
30, -83
30, -84
30, -85
31, -85
31, -86
30, -86
30, -87
30, -88
30, -89
31, -89
31, -88
32, -88
33, -88
34, -88
34, -89
33, -89
33, -90
33, -91
33, -92
34, -92
34, -93
33, -93
32, -93
31, -93
31, -92
30, -92
30, -93
30, -94
30, -95
31, -95
31, -96
30, -96
30, -97
30, -98
30, -99
31, -99
31, -98
32, -98
33, -98
34, -98
34, -99
35, -99
35, -98
35, -97
35, -96
34, -96
34, -95
35, -95
36, -95
37, -95
37, -96
38, -96
38, -95
39, -95
40, -95
41, -95
41, -96
40, -96
40, -97
40, -98
40, -99
41, -99
41, -98
42, -98
43, -98
44, -98
44, -99
45, -99
45, -98
45, -97
45, -96
44, -96
44, -95
45, -95
45, -94
45, -93
45, -92
44, -92
44, -93
43, -93
42, -93
41, -93
41, -92
42, -92
42, -91
42, -90
42, -89
41, -89
41, -88
42, -88
43, -88
44, -88
44, -89
45, -89
45, -88
46, -88
47, -88
48, -88
48, -89
47, -89
47, -90
47, -91
47, -92
48, -92
48, -91
49, -91
50, -91
51, -91
51, -92
52, -92
52, -91
52, -90
52, -89
51, -89
51, -88
52, -88
53, -88
54, -88
54, -89
55, -89
55, -88
56, -88
57, -88
58, -88
58, -89
57, -89
57, -90
57, -91
57, -92
58, -92
58, -93
57, -93
56, -93
55, -93
55, -92
54, -92
54, -93
54, -94
54, -95
55, -95
55, -96
54, -96
54, -97
54, -98
54, -99
55, -99
55, -98
56, -98
57, -98
58, -98
58, -99
59, -99
59, -98
59, -97
59, -96
58, -96
58, -95
59, -95
60, -95
61, -95
61, -96
62, -96
62, -95
63, -95
64, -95
65, -95
65, -96
64, -96
64, -97
64, -98
64, -99
65, -99
65, -98
66, -98
67, -98
68, -98
68, -99
69, -99
69, -98
69, -97
69, -96
68, -96
68, -95
69, -95
69, -94
69, -93
69, -92
68, -92
68, -93
67, -93
66, -93
65, -93
65, -92
66, -92
66, -91
66, -90
66, -89
65, -89
65, -88
66, -88
67, -88
68, -88
68, -89
69, -89
69, -88
69, -87
69, -86
68, -86
68, -85
69, -85
69, -84
69, -83
69, -82
68, -82
68, -83
67, -83
66, -83
65, -83
65, -82
64, -82
64, -83
64, -84
64, -85
65, -85
65, -86
64, -86
63, -86
62, -86
62, -85
61, -85
61, -86
60, -86
59, -86
58, -86
58, -85
59, -85
59, -84
59, -83
59, -82
58, -82
58, -81
59, -81
60, -81
61, -81
61, -82
62, -82
62, -81
62, -80
62, -79
61, -79
61, -78
62, -78
62, -77
62, -76
62, -75
61, -75
61, -76
60, -76
59, -76
58, -76
58, -75
59, -75
59, -74
59, -73
59, -72
58, -72
58, -71
59, -71
60, -71
61, -71
61, -72
62, -72
62, -71
63, -71
64, -71
65, -71
65, -72
64, -72
64, -73
64, -74
64, -75
65, -75
65, -74
66, -74
67, -74
68, -74
68, -75
69, -75
69, -74
69, -73
69, -72
68, -72
68, -71
69, -71
69, -70
69, -69
69, -68
68, -68
68, -69
67, -69
66, -69
65, -69
65, -68
66, -68
66, -67
66, -66
66, -65
65, -65
65, -64
66, -64
67, -64
68, -64
68, -65
69, -65
69, -64
69, -63
69, -62
68, -62
68, -61
69, -61
69, -60
69, -59
69, -58
68, -58
68, -59
67, -59
66, -59
65, -59
65, -58
64, -58
64, -59
64, -60
64, -61
65, -61
65, -62
64, -62
63, -62
62, -62
62, -61
61, -61
61, -62
60, -62
59, -62
58, -62
58, -61
59, -61
59, -60
59, -59
59, -58
58, -58
58, -59
57, -59
56, -59
55, -59
55, -58
54, -58
54, -59
54, -60
54, -61
55, -61
55, -62
54, -62
54, -63
54, -64
54, -65
55, -65
55, -64
56, -64
57, -64
58, -64
58, -65
57, -65
57, -66
57, -67
57, -68
58, -68
58, -69
57, -69
56, -69
55, -69
55, -68
54, -68
54, -69
53, -69
52, -69
51, -69
51, -68
52, -68
52, -67
52, -66
52, -65
51, -65
51, -66
50, -66
49, -66
48, -66
48, -65
47, -65
47, -66
47, -67
47, -68
48, -68
48, -69
47, -69
46, -69
45, -69
45, -68
44, -68
44, -69
43, -69
42, -69
41, -69
41, -68
42, -68
42, -67
42, -66
42, -65
41, -65
41, -64
42, -64
43, -64
44, -64
44, -65
45, -65
45, -64
45, -63
45, -62
44, -62
44, -61
45, -61
45, -60
45, -59
45, -58
44, -58
44, -59
43, -59
42, -59
41, -59
41, -58
42, -58
42, -57
42, -56
42, -55
41, -55
41, -54
42, -54
43, -54
44, -54
44, -55
45, -55
45, -54
46, -54
47, -54
48, -54
48, -55
47, -55
47, -56
47, -57
47, -58
48, -58
48, -57
49, -57
50, -57
51, -57
51, -58
52, -58
52, -57
52, -56
52, -55
51, -55
51, -54
52, -54
52, -53
52, -52
52, -51
51, -51
51, -52
50, -52
49, -52
48, -52
48, -51
49, -51
49, -50
49, -49
49, -48
48, -48
48, -47
49, -47
50, -47
51, -47
51, -48
52, -48
52, -47
52, -46
52, -45
51, -45
51, -44
52, -44
52, -43
52, -42
52, -41
51, -41
51, -42
50, -42
49, -42
48, -42
48, -41
47, -41
47, -42
47, -43
47, -44
48, -44
48, -45
47, -45
46, -45
45, -45
45, -44
44, -44
44, -45
43, -45
42, -45
41, -45
41, -44
42, -44
42, -43
42, -42
42, -41
41, -41
41, -40
42, -40
43, -40
44, -40
44, -41
45, -41
45, -40
45, -39
45, -38
44, -38
44, -37
45, -37
45, -36
45, -35
45, -34
44, -34
44, -35
43, -35
42, -35
41, -35
41, -34
42, -34
42, -33
42, -32
42, -31
41, -31
41, -30
42, -30
43, -30
44, -30
44, -31
45, -31
45, -30
46, -30
47, -30
48, -30
48, -31
47, -31
47, -32
47, -33
47, -34
48, -34
48, -33
49, -33
50, -33
51, -33
51, -34
52, -34
52, -33
52, -32
52, -31
51, -31
51, -30
52, -30
53, -30
54, -30
54, -31
55, -31
55, -30
56, -30
57, -30
58, -30
58, -31
57, -31
57, -32
57, -33
57, -34
58, -34
58, -35
57, -35
56, -35
55, -35
55, -34
54, -34
54, -35
54, -36
54, -37
55, -37
55, -38
54, -38
54, -39
54, -40
54, -41
55, -41
55, -40
56, -40
57, -40
58, -40
58, -41
59, -41
59, -40
59, -39
59, -38
58, -38
58, -37
59, -37
60, -37
61, -37
61, -38
62, -38
62, -37
63, -37
64, -37
65, -37
65, -38
64, -38
64, -39
64, -40
64, -41
65, -41
65, -40
66, -40
67, -40
68, -40
68, -41
69, -41
69, -40
69, -39
69, -38
68, -38
68, -37
69, -37
69, -36
69, -35
69, -34
68, -34
68, -35
67, -35
66, -35
65, -35
65, -34
66, -34
66, -33
66, -32
66, -31
65, -31
65, -30
66, -30
67, -30
68, -30
68, -31
69, -31
69, -30
69, -29
69, -28
68, -28
68, -27
69, -27
69, -26
69, -25
69, -24
68, -24
68, -25
67, -25
66, -25
65, -25
65, -24
64, -24
64, -25
64, -26
64, -27
65, -27
65, -28
64, -28
63, -28
62, -28
62, -27
61, -27
61, -28
60, -28
59, -28
58, -28
58, -27
59, -27
59, -26
59, -25
59, -24
58, -24
58, -23
59, -23
60, -23
61, -23
61, -24
62, -24
62, -23
62, -22
62, -21
61, -21
61, -20
62, -20
62, -19
62, -18
62, -17
61, -17
61, -18
60, -18
59, -18
58, -18
58, -17
59, -17
59, -16
59, -15
59, -14
58, -14
58, -13
59, -13
60, -13
61, -13
61, -14
62, -14
62, -13
63, -13
64, -13
65, -13
65, -14
64, -14
64, -15
64, -16
64, -17
65, -17
65, -16
66, -16
67, -16
68, -16
68, -17
69, -17
69, -16
69, -15
69, -14
68, -14
68, -13
69, -13
69, -12
69, -11
69, -10
68, -10
68, -11
67, -11
66, -11
65, -11
65, -10
66, -10
66, -9
66, -8
66, -7
65, -7
65, -6
66, -6
67, -6
68, -6
68, -7
69, -7
69, -6
69, -5
69, -4
68, -4
68, -3
69, -3
69, -2
69, -1
69, 0
68, 0
68, -1
67, -1
66, -1
65, -1
65, 0
64, 0
64, -1
64, -2
64, -3
65, -3
65, -4
64, -4
63, -4
62, -4
62, -3
61, -3
61, -4
60, -4
59, -4
58, -4
58, -3
59, -3
59, -2
59, -1
59, 0
58, 0
58, -1
57, -1
56, -1
55, -1
55, 0
54, 0
54, -1
54, -2
54, -3
55, -3
55, -4
54, -4
54, -5
54, -6
54, -7
55, -7
55, -6
56, -6
57, -6
58, -6
58, -7
57, -7
57, -8
57, -9
57, -10
58, -10
58, -11
57, -11
56, -11
55, -11
55, -10
54, -10
54, -11
53, -11
52, -11
51, -11
51, -10
52, -10
52, -9
52, -8
52, -7
51, -7
51, -8
50, -8
49, -8
48, -8
48, -7
47, -7
47, -8
47, -9
47, -10
48, -10
48, -11
47, -11
46, -11
45, -11
45, -10
44, -10
44, -11
43, -11
42, -11
41, -11
41, -10
42, -10
42, -9
42, -8
42, -7
41, -7
41, -6
42, -6
43, -6
44, -6
44, -7
45, -7
45, -6
45, -5
45, -4
44, -4
44, -3
45, -3
45, -2
45, -1
45, 0
44, 0
44, -1
43, -1
42, -1
41, -1
41, 0
40, 0
40, -1
40, -2
40, -3
41, -3
41, -4
40, -4
39, -4
38, -4
38, -3
37, -3
37, -4
36, -4
35, -4
34, -4
34, -3
35, -3
35, -2
35, -1
35, 0
34, 0
34, -1
33, -1
32, -1
31, -1
31, 0
30, 0
30, -1
30, -2
30, -3
31, -3
31, -4
30, -4
30, -5
30, -6
30, -7
31, -7
31, -6
32, -6
33, -6
34, -6
34, -7
33, -7
33, -8
33, -9
33, -10
34, -10
34, -11
33, -11
32, -11
31, -11
31, -10
30, -10
30, -11
30, -12
30, -13
31, -13
31, -14
30, -14
30, -15
30, -16
30, -17
31, -17
31, -16
32, -16
33, -16
34, -16
34, -17
35, -17
35, -16
35, -15
35, -14
34, -14
34, -13
35, -13
36, -13
37, -13
37, -14
38, -14
38, -13
39, -13
40, -13
41, -13
41, -14
40, -14
40, -15
40, -16
40, -17
41, -17
41, -18
40, -18
39, -18
38, -18
38, -17
37, -17
37, -18
37, -19
37, -20
38, -20
38, -21
37, -21
37, -22
37, -23
37, -24
38, -24
38, -23
39, -23
40, -23
41, -23
41, -24
40, -24
40, -25
40, -26
40, -27
41, -27
41, -28
40, -28
39, -28
38, -28
38, -27
37, -27
37, -28
36, -28
35, -28
34, -28
34, -27
35, -27
35, -26
35, -25
35, -24
34, -24
34, -25
33, -25
32, -25
31, -25
31, -24
30, -24
30, -25
30, -26
30, -27
31, -27
31, -28
30, -28
29, -28
28, -28
28, -27
27, -27
27, -28
26, -28
25, -28
24, -28
24, -27
25, -27
25, -26
25, -25
25, -24
24, -24
24, -23
25, -23
26, -23
27, -23
27, -24
28, -24
28, -23
28, -22
28, -21
27, -21
27, -20
28, -20
28, -19
28, -18
28, -17
27, -17
27, -18
26, -18
25, -18
24, -18
24, -17
23, -17
23, -18
23, -19
23, -20
24, -20
24, -21
23, -21
22, -21
21, -21
21, -20
20, -20
20, -21
19, -21
18, -21
17, -21
17, -20
18, -20
18, -19
18, -18
18, -17
17, -17
17, -18
16, -18
15, -18
14, -18
14, -17
13, -17
13, -18
13, -19
13, -20
14, -20
14, -21
13, -21
13, -22
13, -23
13, -24
14, -24
14, -23
15, -23
16, -23
17, -23
17, -24
16, -24
16, -25
16, -26
16, -27
17, -27
17, -28
16, -28
15, -28
14, -28
14, -27
13, -27
13, -28
12, -28
11, -28
10, -28
10, -27
11, -27
11, -26
11, -25
11, -24
10, -24
10, -25
9, -25
8, -25
7, -25
7, -24
6, -24
6, -25
6, -26
6, -27
7, -27
7, -28
6, -28
5, -28
4, -28
4, -27
3, -27
3, -28
2, -28
1, -28
0, -28
0, -27
1, -27
1, -26
1, -25
1, -24
0, -24
0, -23
1, -23
2, -23
3, -23
3, -24
4, -24
4, -23
4, -22
4, -21
3, -21
3, -20
4, -20
4, -19
4, -18
4, -17
3, -17
3, -18
2, -18
1, -18
0, -18
0, -17
1, -17
1, -16
1, -15
1, -14
0, -14
0, -13
1, -13
2, -13
3, -13
3, -14
4, -14
4, -13
5, -13
6, -13
7, -13
7, -14
6, -14
6, -15
6, -16
6, -17
7, -17
7, -16
8, -16
9, -16
10, -16
10, -17
11, -17
11, -16
11, -15
11, -14
10, -14
10, -13
11, -13
11, -12
11, -11
11, -10
10, -10
10, -11
9, -11
8, -11
7, -11
7, -10
8, -10
8, -9
8, -8
8, -7
7, -7
7, -6
8, -6
9, -6
10, -6
10, -7
11, -7
11, -6
11, -5
11, -4
10, -4
10, -3
11, -3
11, -2
11, -1
11, 0
10, 0
10, -1
9, -1
8, -1
7, -1
7, 0
6, 0
6, -1
6, -2
6, -3
7, -3
7, -4
6, -4
5, -4
4, -4
4, -3
3, -3
3, -4
2, -4
1, -4
0, -4
0, -3
1, -3
1, -2
1, -1
1, 0
0, 0
" fill="none" stroke="black" stroke-width="0.15459624833740307"/>
</svg>