<svg xmlns="http://www.w3.org/2000/svg"
     xmlns:xlink="http://www.w3.org/1999/xlink"
     width="500" height="500" viewBox="-83 -84.00446 95 100.45895">
<rect x="-83" y="-84.00446" width="100%" height="100%" fill="white"/>
<polyline points="
0, 0
-0.5, -0.86603
-1.5, -0.86603
-2, -1.73205
-3, -1.73205
-3.5, -0.86603
-4.5, -0.86603
-5, -1.73205
-6, -1.73205
-6.5, -2.59808
-7.5, -2.59808
-8, -1.73205
-9, -1.73205
-9.5, -0.86603
-9, 0
-9.5, 0.86603
-10.5, 0.86603
-11, 1.73205
-12, 1.73205
-12.5, 0.86603
-13.5, 0.86603
-14, 0
-15, 0
-15.5, 0.86603
-16.5, 0.86603
-17, 0
-18, 0
-18.5, -0.86603
-19.5, -0.86603
-20, 0
-21, 0
-21.5, 0.86603
-21, 1.73205
-21.5, 2.59808
-22.5, 2.59808
-23, 3.4641
-24, 3.4641
-24.5, 4.33013
-24, 5.19615
-24.5, 6.06218
-24, 6.9282
-23, 6.9282
-22.5, 7.79423
-23, 8.66025
-22.5, 9.52628
-23, 10.3923
-24, 10.3923
-24.5, 11.25833
-25.5, 11.25833
-26, 12.12436
-25.5, 12.99038
-26, 13.85641
-27, 13.85641
-27.5, 14.72243
-28.5, 14.72243
-29, 13.85641
-30, 13.85641
-30.5, 12.99038
-31.5, 12.99038
-32, 13.85641
-33, 13.85641
-33.5, 12.99038
-34.5, 12.99038
-35, 12.12436
-36, 12.12436
-36.5, 12.99038
-37.5, 12.99038
-38, 13.85641
-37.5, 14.72243
-38, 15.58846
-39, 15.58846
-39.5, 16.45448
-40.5, 16.45448
-41, 15.58846
-42, 15.58846
-42.5, 14.72243
-43.5, 14.72243
-44, 15.58846
-45, 15.58846
-45.5, 14.72243
-46.5, 14.72243
-47, 13.85641
-46.5, 12.99038
-47, 12.12436
-46.5, 11.25833
-47, 10.3923
-48, 10.3923
-48.5, 9.52628
-48, 8.66025
-48.5, 7.79423
-48, 6.9282
-48.5, 6.06218
-49.5, 6.06218
-50, 5.19615
-51, 5.19615
-51.5, 6.06218
-52.5, 6.06218
-53, 5.19615
-54, 5.19615
-54.5, 4.33013
-54, 3.4641
-54.5, 2.59808
-54, 1.73205
-54.5, 0.86603
-55.5, 0.86603
-56, 0
-55.5, -0.86603
-56, -1.73205
-55.5, -2.59808
-56, -3.4641
-57, -3.4641
-57.5, -4.33013
-58.5, -4.33013
-59, -3.4641
-60, -3.4641
-60.5, -4.33013
-61.5, -4.33013
-62, -5.19615
-63, -5.19615
-63.5, -4.33013
-64.5, -4.33013
-65, -3.4641
-64.5, -2.59808
-65, -1.73205
-66, -1.73205
-66.5, -0.86603
-67.5, -0.86603
-68, -1.73205
-69, -1.73205
-69.5, -2.59808
-70.5, -2.59808
-71, -1.73205
-72, -1.73205
-72.5, -2.59808
-73.5, -2.59808
-74, -3.4641
-73.5, -4.33013
-74, -5.19615
-73.5, -6.06218
-74, -6.9282
-75, -6.9282
-75.5, -7.79423
-75, -8.66025
-75.5, -9.52628
-75, -10.3923
-75.5, -11.25833
-76.5, -11.25833
-77, -12.12436
-78, -12.12436
-78.5, -11.25833
-79.5, -11.25833
-80, -12.12436
-81, -12.12436
-81.5, -12.99038
-81, -13.85641
-81.5, -14.72243
-81, -15.58846
-81.5, -16.45448
-82.5, -16.45448
-83, -17.32051
-82.5, -18.18653
-83, -19.05256
-82.5, -19.91858
-81.5, -19.91858
-81, -20.78461
-80, -20.78461
-79.5, -21.65064
-80, -22.51666
-79.5, -23.38269
-78.5, -23.38269
-78, -24.24871
-77, -24.24871
-76.5, -25.11474
-77, -25.98076
-76.5, -26.84679
-77, -27.71281
-78, -27.71281
-78.5, -28.57884
-78, -29.44486
-78.5, -30.31089
-78, -31.17691
-77, -31.17691
-76.5, -32.04294
-75.5, -32.04294
-75, -32.90897
-75.5, -33.77499
-75, -34.64102
-74, -34.64102
-73.5, -35.50704
-72.5, -35.50704
-72, -36.37307
-72.5, -37.23909
-72, -38.10512
-72.5, -38.97114
-73.5, -38.97114
-74, -39.83717
-73.5, -40.70319
-74, -41.56922
-73.5, -42.43524
-74, -43.30127
-75, -43.30127
-75.5, -44.1673
-76.5, -44.1673
-77, -43.30127
-78, -43.30127
-78.5, -44.1673
-79.5, -44.1673
-80, -45.03332
-79.5, -45.89935
-80, -46.76537
-79.5, -47.6314
-80, -48.49742
-81, -48.49742
-81.5, -49.36345
-81, -50.22947
-81.5, -51.0955
-81, -51.96152
-80, -51.96152
-79.5, -52.82755
-78.5, -52.82755
-78, -53.69358
-78.5, -54.5596
-78, -55.42563
-77, -55.42563
-76.5, -56.29165
-75.5, -56.29165
-75, -57.15768
-75.5, -58.0237
-75, -58.88973
-75.5, -59.75575
-76.5, -59.75575
-77, -60.62178
-76.5, -61.4878
-77, -62.35383
-76.5, -63.21985
-75.5, -63.21985
-75, -64.08588
-74, -64.08588
-73.5, -64.95191
-74, -65.81793
-73.5, -66.68396
-72.5, -66.68396
-72, -67.54998
-71, -67.54998
-70.5, -66.68396
-69.5, -66.68396
-69, -65.81793
-68, -65.81793
-67.5, -66.68396
-66.5, -66.68396
-66, -65.81793
-65, -65.81793
-64.5, -64.95191
-63.5, -64.95191
-63, -65.81793
-62, -65.81793
-61.5, -66.68396
-62, -67.54998
-61.5, -68.41601
-60.5, -68.41601
-60, -69.28203
-59, -69.28203
-58.5, -68.41601
-57.5, -68.41601
-57, -67.54998
-56, -67.54998
-55.5, -68.41601
-54.5, -68.41601
-54, -67.54998
-53, -67.54998
-52.5, -66.68396
-51.5, -66.68396
-51, -67.54998
-50, -67.54998
-49.5, -68.41601
-50, -69.28203
-49.5, -70.14806
-48.5, -70.14806
-48, -71.01408
-47, -71.01408
-46.5, -71.88011
-47, -72.74613
-46.5, -73.61216
-47, -74.47818
-48, -74.47818
-48.5, -75.34421
-48, -76.21024
-48.5, -77.07626
-48, -77.94229
-47, -77.94229
-46.5, -78.80831
-45.5, -78.80831
-45, -79.67434
-45.5, -80.54036
-45, -81.40639
-44, -81.40639
-43.5, -82.27241
-42.5, -82.27241
-42, -81.40639
-41, -81.40639
-40.5, -80.54036
-39.5, -80.54036
-39, -81.40639
-38, -81.40639
-37.5, -80.54036
-36.5, -80.54036
-36, -79.67434
-35, -79.67434
-34.5, -80.54036
-33.5, -80.54036
-33, -81.40639
-33.5, -82.27241
-33, -83.13844
-32, -83.13844
-31.5, -84.00446
-30.5, -84.00446
-30, -83.13844
-29, -83.13844
-28.5, -82.27241
-27.5, -82.27241
-27, -83.13844
-26, -83.13844
-25.5, -82.27241
-24.5, -82.27241
-24, -81.40639
-24.5, -80.54036
-24, -79.67434
-24.5, -78.80831
-24, -77.94229
-23, -77.94229
-22.5, -77.07626
-23, -76.21024
-22.5, -75.34421
-23, -74.47818
-22.5, -73.61216
-21.5, -73.61216
-21, -72.74613
-20, -72.74613
-19.5, -73.61216
-18.5, -73.61216
-18, -72.74613
-17, -72.74613
-16.5, -71.88011
-17, -71.01408
-16.5, -70.14806
-17, -69.28203
-16.5, -68.41601
-15.5, -68.41601
-15, -67.54998
-15.5, -66.68396
-15, -65.81793
-15.5, -64.95191
-15, -64.08588
-14, -64.08588
-13.5, -63.21985
-12.5, -63.21985
-12, -64.08588
-11, -64.08588
-10.5, -63.21985
-9.5, -63.21985
-9, -62.35383
-8, -62.35383
-7.5, -63.21985
-6.5, -63.21985
-6, -64.08588
-6.5, -64.95191
-6, -65.81793
-5, -65.81793
-4.5, -66.68396
-3.5, -66.68396
-3, -65.81793
-2, -65.81793
-1.5, -64.95191
-0.5, -64.95191
-0, -65.81793
1, -65.81793
1.5, -64.95191
2.5, -64.95191
3, -64.08588
2.5, -63.21985
3, -62.35383
2.5, -61.4878
3, -60.62178
4, -60.62178
4.5, -59.75575
4, -58.88973
4.5, -58.0237
4, -57.15768
4.5, -56.29165
5.5, -56.29165
6, -55.42563
7, -55.42563
7.5, -56.29165
8.5, -56.29165
9, -55.42563
10, -55.42563
10.5, -54.5596
10, -53.69358
10.5, -52.82755
10, -51.96152
10.5, -51.0955
11.5, -51.0955
12, -50.22947
11.5, -49.36345
12, -48.49742
11.5, -47.6314
10.5, -47.6314
10, -46.76537
9, -46.76537
8.5, -45.89935
9, -45.03332
8.5, -44.1673
7.5, -44.1673
7, -43.30127
6, -43.30127
5.5, -42.43524
6, -41.56922
5.5, -40.70319
6, -39.83717
7, -39.83717
7.5, -38.97114
7, -38.10512
7.5, -37.23909
7, -36.37307
6, -36.37307
5.5, -35.50704
4.5, -35.50704
4, -34.64102
4.5, -33.77499
4, -32.90897
3, -32.90897
2.5, -32.04294
1.5, -32.04294
1, -31.17691
1.5, -30.31089
1, -29.44486
1.5, -28.57884
2.5, -28.57884
3, -27.71281
2.5, -26.84679
3, -25.98076
2.5, -25.11474
3, -24.24871
4, -24.24871
4.5, -23.38269
5.5, -23.38269
6, -24.24871
7, -24.24871
7.5, -23.38269
8.5, -23.38269
9, -22.51666
8.5, -21.65064
9, -20.78461
8.5, -19.91858
9, -19.05256
10, -19.05256
10.5, -18.18653
10, -17.32051
10.5, -16.45448
10, -15.58846
9, -15.58846
8.5, -14.72243
7.5, -14.72243
7, -13.85641
7.5, -12.99038
7, -12.12436
6, -12.12436
5.5, -11.25833
4.5, -11.25833
4, -10.3923
4.5, -9.52628
4, -8.66025
4.5, -7.79423
5.5, -7.79423
6, -6.9282
5.5, -6.06218
6, -5.19615
5.5, -4.33013
4.5, -4.33013
4, -3.4641
3, -3.4641
2.5, -2.59808
3, -1.73205
2.5, -0.86603
1.5, -0.86603
1, 0
0, 0
" fill="none" stroke="black" stroke-width="0.10022921073169981"/>
</svg>