<svg xmlns="http://www.w3.org/2000/svg"
     xmlns:xlink="http://www.w3.org/1999/xlink"
     width="500" height="500" viewBox="-695 -368.0608 707 672.03571">
<rect x="-695" y="-368.0608" width="100%" height="100%" fill="white"/>
<polyline points="
0, 0
-0.5, -0.86603
-1.5, -0.86603
-2, -1.73205
-3, -1.73205
-3.5, -0.86603
-4.5, -0.86603
-5, -1.73205
-6, -1.73205
-6.5, -2.59808
-7.5, -2.59808
-8, -1.73205
-9, -1.73205
-9.5, -0.86603
-9, 0
-9.5, 0.86603
-10.5, 0.86603
-11, 1.73205
-12, 1.73205
-12.5, 0.86603
-13.5, 0.86603
-14, 0
-15, 0
-15.5, 0.86603
-16.5, 0.86603
-17, 0
-18, 0
-18.5, -0.86603
-19.5, -0.86603
-20, 0
-21, 0
-21.5, 0.86603
-21, 1.73205
-21.5, 2.59808
-22.5, 2.59808
-23, 3.4641
-24, 3.4641
-24.5, 4.33013
-24, 5.19615
-24.5, 6.06218
-24, 6.9282
-23, 6.9282
-22.5, 7.79423
-23, 8.66025
-22.5, 9.52628
-23, 10.3923
-24, 10.3923
-24.5, 11.25833
-25.5, 11.25833
-26, 12.12436
-25.5, 12.99038
-26, 13.85641
-27, 13.85641
-27.5, 14.72243
-28.5, 14.72243
-29, 13.85641
-30, 13.85641
-30.5, 12.99038
-31.5, 12.99038
-32, 13.85641
-33, 13.85641
-33.5, 12.99038
-34.5, 12.99038
-35, 12.12436
-36, 12.12436
-36.5, 12.99038
-37.5, 12.99038
-38, 13.85641
-37.5, 14.72243
-38, 15.58846
-39, 15.58846
-39.5, 16.45448
-40.5, 16.45448
-41, 15.58846
-42, 15.58846
-42.5, 14.72243
-43.5, 14.72243
-44, 15.58846
-45, 15.58846
-45.5, 14.72243
-46.5, 14.72243
-47, 13.85641
-48, 13.85641
-48.5, 14.72243
-49.5, 14.72243
-50, 15.58846
-49.5, 16.45448
-50, 17.32051
-51, 17.32051
-51.5, 18.18653
-52.5, 18.18653
-53, 19.05256
-52.5, 19.91858
-53, 20.78461
-52.5, 21.65064
-51.5, 21.65064
-51, 22.51666
-51.5, 23.38269
-51, 24.24871
-51.5, 25.11474
-52.5, 25.11474
-53, 25.98076
-54, 25.98076
-54.5, 26.84679
-54, 27.71281
-54.5, 28.57884
-55.5, 28.57884
-56, 29.44486
-57, 29.44486
-57.5, 30.31089
-57, 31.17691
-57.5, 32.04294
-57, 32.90897
-56, 32.90897
-55.5, 33.77499
-56, 34.64102
-55.5, 35.50704
-56, 36.37307
-55.5, 37.23909
-54.5, 37.23909
-54, 38.10512
-53, 38.10512
-52.5, 37.23909
-51.5, 37.23909
-51, 38.10512
-50, 38.10512
-49.5, 38.97114
-50, 39.83717
-49.5, 40.70319
-50, 41.56922
-49.5, 42.43524
-48.5, 42.43524
-48, 43.30127
-48.5, 44.1673
-48, 45.03332
-48.5, 45.89935
-49.5, 45.89935
-50, 46.76537
-51, 46.76537
-51.5, 47.6314
-51, 48.49742
-51.5, 49.36345
-52.5, 49.36345
-53, 50.22947
-54, 50.22947
-54.5, 51.0955
-54, 51.96152
-54.5, 52.82755
-54, 53.69358
-53, 53.69358
-52.5, 54.5596
-53, 55.42563
-52.5, 56.29165
-53, 57.15768
-54, 57.15768
-54.5, 58.0237
-55.5, 58.0237
-56, 58.88973
-55.5, 59.75575
-56, 60.62178
-57, 60.62178
-57.5, 61.4878
-58.5, 61.4878
-59, 60.62178
-60, 60.62178
-60.5, 59.75575
-61.5, 59.75575
-62, 60.62178
-63, 60.62178
-63.5, 59.75575
-64.5, 59.75575
-65, 58.88973
-66, 58.88973
-66.5, 59.75575
-67.5, 59.75575
-68, 60.62178
-67.5, 61.4878
-68, 62.35383
-69, 62.35383
-69.5, 63.21985
-70.5, 63.21985
-71, 62.35383
-72, 62.35383
-72.5, 61.4878
-73.5, 61.4878
-74, 62.35383
-75, 62.35383
-75.5, 61.4878
-76.5, 61.4878
-77, 60.62178
-78, 60.62178
-78.5, 61.4878
-79.5, 61.4878
-80, 62.35383
-79.5, 63.21985
-80, 64.08588
-81, 64.08588
-81.5, 64.95191
-82.5, 64.95191
-83, 65.81793
-82.5, 66.68396
-83, 67.54998
-82.5, 68.41601
-81.5, 68.41601
-81, 69.28203
-81.5, 70.14806
-81, 71.01408
-81.5, 71.88011
-82.5, 71.88011
-83, 72.74613
-84, 72.74613
-84.5, 73.61216
-84, 74.47818
-84.5, 75.34421
-85.5, 75.34421
-86, 76.21024
-87, 76.21024
-87.5, 75.34421
-88.5, 75.34421
-89, 74.47818
-90, 74.47818
-90.5, 75.34421
-91.5, 75.34421
-92, 74.47818
-93, 74.47818
-93.5, 73.61216
-94.5, 73.61216
-95, 74.47818
-96, 74.47818
-96.5, 75.34421
-96, 76.21024
-96.5, 77.07626
-97.5, 77.07626
-98, 77.94229
-99, 77.94229
-99.5, 77.07626
-100.5, 77.07626
-101, 76.21024
-102, 76.21024
-102.5, 77.07626
-103.5, 77.07626
-104, 76.21024
-105, 76.21024
-105.5, 75.34421
-106.5, 75.34421
-107, 76.21024
-108, 76.21024
-108.5, 77.07626
-108, 77.94229
-108.5, 78.80831
-109.5, 78.80831
-110, 79.67434
-111, 79.67434
-111.5, 80.54036
-111, 81.40639
-111.5, 82.27241
-111, 83.13844
-110, 83.13844
-109.5, 84.00446
-110, 84.87049
-109.5, 85.73651
-110, 86.60254
-111, 86.60254
-111.5, 87.46857
-112.5, 87.46857
-113, 88.33459
-112.5, 89.20062
-113, 90.06664
-114, 90.06664
-114.5, 90.93267
-115.5, 90.93267
-116, 91.79869
-115.5, 92.66472
-116, 93.53074
-115.5, 94.39677
-114.5, 94.39677
-114, 95.26279
-114.5, 96.12882
-114, 96.99485
-114.5, 97.86087
-114, 98.7269
-113, 98.7269
-112.5, 99.59292
-111.5, 99.59292
-111, 98.7269
-110, 98.7269
-109.5, 99.59292
-108.5, 99.59292
-108, 100.45895
-108.5, 101.32497
-108, 102.191
-108.5, 103.05702
-108, 103.92305
-107, 103.92305
-106.5, 104.78907
-107, 105.6551
-106.5, 106.52112
-107, 107.38715
-108, 107.38715
-108.5, 108.25318
-109.5, 108.25318
-110, 109.1192
-109.5, 109.98523
-110, 110.85125
-111, 110.85125
-111.5, 111.71728
-112.5, 111.71728
-113, 112.5833
-112.5, 113.44933
-113, 114.31535
-112.5, 115.18138
-111.5, 115.18138
-111, 116.0474
-111.5, 116.91343
-111, 117.77945
-111.5, 118.64548
-112.5, 118.64548
-113, 119.51151
-114, 119.51151
-114.5, 120.37753
-114, 121.24356
-114.5, 122.10958
-115.5, 122.10958
-116, 122.97561
-117, 122.97561
-117.5, 123.84163
-117, 124.70766
-117.5, 125.57368
-117, 126.43971
-116, 126.43971
-115.5, 127.30573
-116, 128.17176
-115.5, 129.03779
-116, 129.90381
-115.5, 130.76984
-114.5, 130.76984
-114, 131.63586
-113, 131.63586
-112.5, 130.76984
-111.5, 130.76984
-111, 131.63586
-110, 131.63586
-109.5, 132.50189
-110, 133.36791
-109.5, 134.23394
-110, 135.09996
-109.5, 135.96599
-108.5, 135.96599
-108, 136.83201
-108.5, 137.69804
-108, 138.56406
-108.5, 139.43009
-108, 140.29612
-107, 140.29612
-106.5, 141.16214
-105.5, 141.16214
-105, 140.29612
-104, 140.29612
-103.5, 141.16214
-102.5, 141.16214
-102, 142.02817
-101, 142.02817
-100.5, 141.16214
-99.5, 141.16214
-99, 140.29612
-99.5, 139.43009
-99, 138.56406
-98, 138.56406
-97.5, 137.69804
-96.5, 137.69804
-96, 138.56406
-95, 138.56406
-94.5, 139.43009
-93.5, 139.43009
-93, 138.56406
-92, 138.56406
-91.5, 139.43009
-90.5, 139.43009
-90, 140.29612
-90.5, 141.16214
-90, 142.02817
-90.5, 142.89419
-90, 143.76022
-89, 143.76022
-88.5, 144.62624
-89, 145.49227
-88.5, 146.35829
-89, 147.22432
-88.5, 148.09034
-87.5, 148.09034
-87, 148.95637
-86, 148.95637
-85.5, 148.09034
-84.5, 148.09034
-84, 148.95637
-83, 148.95637
-82.5, 149.82239
-83, 150.68842
-82.5, 151.55445
-83, 152.42047
-82.5, 153.2865
-81.5, 153.2865
-81, 154.15252
-81.5, 155.01855
-81, 155.88457
-81.5, 156.7506
-82.5, 156.7506
-83, 157.61662
-84, 157.61662
-84.5, 158.48265
-84, 159.34867
-84.5, 160.2147
-85.5, 160.2147
-86, 161.08073
-87, 161.08073
-87.5, 161.94675
-87, 162.81278
-87.5, 163.6788
-87, 164.54483
-86, 164.54483
-85.5, 165.41085
-86, 166.27688
-85.5, 167.1429
-86, 168.00893
-87, 168.00893
-87.5, 168.87495
-88.5, 168.87495
-89, 169.74098
-88.5, 170.607
-89, 171.47303
-90, 171.47303
-90.5, 172.33906
-91.5, 172.33906
-92, 173.20508
-91.5, 174.07111
-92, 174.93713
-91.5, 175.80316
-90.5, 175.80316
-90, 176.66918
-90.5, 177.53521
-90, 178.40123
-90.5, 179.26726
-90, 180.13328
-89, 180.13328
-88.5, 180.99931
-87.5, 180.99931
-87, 180.13328
-86, 180.13328
-85.5, 180.99931
-84.5, 180.99931
-84, 181.86533
-84.5, 182.73136
-84, 183.59739
-84.5, 184.46341
-84, 185.32944
-83, 185.32944
-82.5, 186.19546
-83, 187.06149
-82.5, 187.92751
-83, 188.79354
-84, 188.79354
-84.5, 189.65956
-85.5, 189.65956
-86, 190.52559
-85.5, 191.39161
-86, 192.25764
-87, 192.25764
-87.5, 193.12367
-88.5, 193.12367
-89, 193.98969
-88.5, 194.85572
-89, 195.72174
-88.5, 196.58777
-87.5, 196.58777
-87, 197.45379
-87.5, 198.31982
-87, 199.18584
-87.5, 200.05187
-88.5, 200.05187
-89, 200.91789
-90, 200.91789
-90.5, 201.78392
-90, 202.64994
-90.5, 203.51597
-91.5, 203.51597
-92, 204.382
-93, 204.382
-93.5, 203.51597
-94.5, 203.51597
-95, 202.64994
-96, 202.64994
-96.5, 203.51597
-97.5, 203.51597
-98, 202.64994
-99, 202.64994
-99.5, 201.78392
-100.5, 201.78392
-101, 202.64994
-102, 202.64994
-102.5, 203.51597
-102, 204.382
-102.5, 205.24802
-103.5, 205.24802
-104, 206.11405
-105, 206.11405
-105.5, 205.24802
-106.5, 205.24802
-107, 204.382
-108, 204.382
-108.5, 205.24802
-109.5, 205.24802
-110, 204.382
-111, 204.382
-111.5, 203.51597
-112.5, 203.51597
-113, 204.382
-114, 204.382
-114.5, 205.24802
-114, 206.11405
-114.5, 206.98007
-115.5, 206.98007
-116, 207.8461
-117, 207.8461
-117.5, 208.71212
-117, 209.57815
-117.5, 210.44417
-117, 211.3102
-116, 211.3102
-115.5, 212.17622
-116, 213.04225
-115.5, 213.90827
-116, 214.7743
-117, 214.7743
-117.5, 215.64033
-118.5, 215.64033
-119, 216.50635
-118.5, 217.37238
-119, 218.2384
-120, 218.2384
-120.5, 219.10443
-121.5, 219.10443
-122, 218.2384
-123, 218.2384
-123.5, 217.37238
-124.5, 217.37238
-125, 218.2384
-126, 218.2384
-126.5, 217.37238
-127.5, 217.37238
-128, 216.50635
-129, 216.50635
-129.5, 217.37238
-130.5, 217.37238
-131, 218.2384
-130.5, 219.10443
-131, 219.97045
-132, 219.97045
-132.5, 220.83648
-133.5, 220.83648
-134, 219.97045
-135, 219.97045
-135.5, 219.10443
-136.5, 219.10443
-137, 219.97045
-138, 219.97045
-138.5, 219.10443
-139.5, 219.10443
-140, 218.2384
-141, 218.2384
-141.5, 219.10443
-142.5, 219.10443
-143, 219.97045
-142.5, 220.83648
-143, 221.7025
-144, 221.7025
-144.5, 222.56853
-145.5, 222.56853
-146, 223.43455
-145.5, 224.30058
-146, 225.1666
-145.5, 226.03263
-144.5, 226.03263
-144, 226.89866
-144.5, 227.76468
-144, 228.63071
-144.5, 229.49673
-145.5, 229.49673
-146, 230.36276
-147, 230.36276
-147.5, 231.22878
-147, 232.09481
-147.5, 232.96083
-148.5, 232.96083
-149, 233.82686
-150, 233.82686
-150.5, 234.69288
-150, 235.55891
-150.5, 236.42494
-150, 237.29096
-149, 237.29096
-148.5, 238.15699
-149, 239.02301
-148.5, 239.88904
-149, 240.75506
-148.5, 241.62109
-147.5, 241.62109
-147, 242.48711
-146, 242.48711
-145.5, 241.62109
-144.5, 241.62109
-144, 242.48711
-143, 242.48711
-142.5, 243.35314
-143, 244.21916
-142.5, 245.08519
-143, 245.95121
-142.5, 246.81724
-141.5, 246.81724
-141, 247.68327
-141.5, 248.54929
-141, 249.41532
-141.5, 250.28134
-142.5, 250.28134
-143, 251.14737
-144, 251.14737
-144.5, 252.01339
-144, 252.87942
-144.5, 253.74544
-145.5, 253.74544
-146, 254.61147
-147, 254.61147
-147.5, 255.47749
-147, 256.34352
-147.5, 257.20954
-147, 258.07557
-146, 258.07557
-145.5, 258.9416
-146, 259.80762
-145.5, 260.67365
-146, 261.53967
-147, 261.53967
-147.5, 262.4057
-148.5, 262.4057
-149, 263.27172
-148.5, 264.13775
-149, 265.00377
-150, 265.00377
-150.5, 265.8698
-151.5, 265.8698
-152, 265.00377
-153, 265.00377
-153.5, 264.13775
-154.5, 264.13775
-155, 265.00377
-156, 265.00377
-156.5, 264.13775
-157.5, 264.13775
-158, 263.27172
-159, 263.27172
-159.5, 264.13775
-160.5, 264.13775
-161, 265.00377
-160.5, 265.8698
-161, 266.73582
-162, 266.73582
-162.5, 267.60185
-163.5, 267.60185
-164, 266.73582
-165, 266.73582
-165.5, 265.8698
-166.5, 265.8698
-167, 266.73582
-168, 266.73582
-168.5, 265.8698
-169.5, 265.8698
-170, 265.00377
-171, 265.00377
-171.5, 265.8698
-172.5, 265.8698
-173, 266.73582
-172.5, 267.60185
-173, 268.46788
-174, 268.46788
-174.5, 269.3339
-175.5, 269.3339
-176, 270.19993
-175.5, 271.06595
-176, 271.93198
-175.5, 272.798
-174.5, 272.798
-174, 273.66403
-174.5, 274.53005
-174, 275.39608
-174.5, 276.2621
-175.5, 276.2621
-176, 277.12813
-177, 277.12813
-177.5, 277.99415
-177, 278.86018
-177.5, 279.72621
-178.5, 279.72621
-179, 280.59223
-180, 280.59223
-180.5, 279.72621
-181.5, 279.72621
-182, 278.86018
-183, 278.86018
-183.5, 279.72621
-184.5, 279.72621
-185, 278.86018
-186, 278.86018
-186.5, 277.99415
-187.5, 277.99415
-188, 278.86018
-189, 278.86018
-189.5, 279.72621
-189, 280.59223
-189.5, 281.45826
-190.5, 281.45826
-191, 282.32428
-192, 282.32428
-192.5, 281.45826
-193.5, 281.45826
-194, 280.59223
-195, 280.59223
-195.5, 281.45826
-196.5, 281.45826
-197, 280.59223
-198, 280.59223
-198.5, 279.72621
-198, 278.86018
-198.5, 277.99415
-198, 277.12813
-198.5, 276.2621
-199.5, 276.2621
-200, 275.39608
-199.5, 274.53005
-200, 273.66403
-199.5, 272.798
-200, 271.93198
-201, 271.93198
-201.5, 271.06595
-202.5, 271.06595
-203, 271.93198
-204, 271.93198
-204.5, 271.06595
-205.5, 271.06595
-206, 270.19993
-205.5, 269.3339
-206, 268.46788
-205.5, 267.60185
-206, 266.73582
-207, 266.73582
-207.5, 265.8698
-207, 265.00377
-207.5, 264.13775
-207, 263.27172
-207.5, 262.4057
-208.5, 262.4057
-209, 261.53967
-210, 261.53967
-210.5, 262.4057
-211.5, 262.4057
-212, 261.53967
-213, 261.53967
-213.5, 260.67365
-214.5, 260.67365
-215, 261.53967
-216, 261.53967
-216.5, 262.4057
-216, 263.27172
-216.5, 264.13775
-217.5, 264.13775
-218, 265.00377
-219, 265.00377
-219.5, 264.13775
-220.5, 264.13775
-221, 263.27172
-222, 263.27172
-222.5, 264.13775
-223.5, 264.13775
-224, 263.27172
-225, 263.27172
-225.5, 262.4057
-225, 261.53967
-225.5, 260.67365
-225, 259.80762
-225.5, 258.9416
-226.5, 258.9416
-227, 258.07557
-226.5, 257.20954
-227, 256.34352
-226.5, 255.47749
-227, 254.61147
-228, 254.61147
-228.5, 253.74544
-229.5, 253.74544
-230, 254.61147
-231, 254.61147
-231.5, 253.74544
-232.5, 253.74544
-233, 252.87942
-232.5, 252.01339
-233, 251.14737
-232.5, 250.28134
-233, 249.41532
-234, 249.41532
-234.5, 248.54929
-234, 247.68327
-234.5, 246.81724
-234, 245.95121
-234.5, 245.08519
-235.5, 245.08519
-236, 244.21916
-237, 244.21916
-237.5, 245.08519
-238.5, 245.08519
-239, 244.21916
-240, 244.21916
-240.5, 243.35314
-241.5, 243.35314
-242, 244.21916
-243, 244.21916
-243.5, 245.08519
-243, 245.95121
-243.5, 246.81724
-244.5, 246.81724
-245, 247.68327
-246, 247.68327
-246.5, 246.81724
-247.5, 246.81724
-248, 245.95121
-249, 245.95121
-249.5, 246.81724
-250.5, 246.81724
-251, 245.95121
-252, 245.95121
-252.5, 245.08519
-253.5, 245.08519
-254, 245.95121
-255, 245.95121
-255.5, 246.81724
-255, 247.68327
-255.5, 248.54929
-256.5, 248.54929
-257, 249.41532
-258, 249.41532
-258.5, 250.28134
-258, 251.14737
-258.5, 252.01339
-258, 252.87942
-257, 252.87942
-256.5, 253.74544
-257, 254.61147
-256.5, 255.47749
-257, 256.34352
-258, 256.34352
-258.5, 257.20954
-259.5, 257.20954
-260, 258.07557
-259.5, 258.9416
-260, 259.80762
-261, 259.80762
-261.5, 260.67365
-262.5, 260.67365
-263, 259.80762
-264, 259.80762
-264.5, 258.9416
-265.5, 258.9416
-266, 259.80762
-267, 259.80762
-267.5, 258.9416
-268.5, 258.9416
-269, 258.07557
-270, 258.07557
-270.5, 258.9416
-271.5, 258.9416
-272, 259.80762
-271.5, 260.67365
-272, 261.53967
-273, 261.53967
-273.5, 262.4057
-274.5, 262.4057
-275, 261.53967
-276, 261.53967
-276.5, 260.67365
-277.5, 260.67365
-278, 261.53967
-279, 261.53967
-279.5, 260.67365
-280.5, 260.67365
-281, 259.80762
-280.5, 258.9416
-281, 258.07557
-280.5, 257.20954
-281, 256.34352
-282, 256.34352
-282.5, 255.47749
-282, 254.61147
-282.5, 253.74544
-282, 252.87942
-282.5, 252.01339
-283.5, 252.01339
-284, 251.14737
-285, 251.14737
-285.5, 252.01339
-286.5, 252.01339
-287, 251.14737
-288, 251.14737
-288.5, 250.28134
-288, 249.41532
-288.5, 248.54929
-288, 247.68327
-288.5, 246.81724
-289.5, 246.81724
-290, 245.95121
-289.5, 245.08519
-290, 244.21916
-289.5, 243.35314
-290, 242.48711
-291, 242.48711
-291.5, 241.62109
-292.5, 241.62109
-293, 242.48711
-294, 242.48711
-294.5, 241.62109
-295.5, 241.62109
-296, 240.75506
-297, 240.75506
-297.5, 241.62109
-298.5, 241.62109
-299, 242.48711
-298.5, 243.35314
-299, 244.21916
-300, 244.21916
-300.5, 245.08519
-301.5, 245.08519
-302, 244.21916
-303, 244.21916
-303.5, 243.35314
-304.5, 243.35314
-305, 244.21916
-306, 244.21916
-306.5, 243.35314
-307.5, 243.35314
-308, 242.48711
-307.5, 241.62109
-308, 240.75506
-307.5, 239.88904
-308, 239.02301
-309, 239.02301
-309.5, 238.15699
-309, 237.29096
-309.5, 236.42494
-309, 235.55891
-309.5, 234.69288
-310.5, 234.69288
-311, 233.82686
-312, 233.82686
-312.5, 234.69288
-313.5, 234.69288
-314, 233.82686
-315, 233.82686
-315.5, 232.96083
-315, 232.09481
-315.5, 231.22878
-315, 230.36276
-315.5, 229.49673
-316.5, 229.49673
-317, 228.63071
-316.5, 227.76468
-317, 226.89866
-316.5, 226.03263
-317, 225.1666
-318, 225.1666
-318.5, 224.30058
-319.5, 224.30058
-320, 225.1666
-321, 225.1666
-321.5, 224.30058
-322.5, 224.30058
-323, 223.43455
-324, 223.43455
-324.5, 224.30058
-325.5, 224.30058
-326, 225.1666
-325.5, 226.03263
-326, 226.89866
-327, 226.89866
-327.5, 227.76468
-328.5, 227.76468
-329, 226.89866
-330, 226.89866
-330.5, 226.03263
-331.5, 226.03263
-332, 226.89866
-333, 226.89866
-333.5, 226.03263
-334.5, 226.03263
-335, 225.1666
-336, 225.1666
-336.5, 226.03263
-337.5, 226.03263
-338, 226.89866
-337.5, 227.76468
-338, 228.63071
-339, 228.63071
-339.5, 229.49673
-340.5, 229.49673
-341, 230.36276
-340.5, 231.22878
-341, 232.09481
-340.5, 232.96083
-339.5, 232.96083
-339, 233.82686
-339.5, 234.69288
-339, 235.55891
-339.5, 236.42494
-340.5, 236.42494
-341, 237.29096
-342, 237.29096
-342.5, 238.15699
-342, 239.02301
-342.5, 239.88904
-343.5, 239.88904
-344, 240.75506
-345, 240.75506
-345.5, 239.88904
-346.5, 239.88904
-347, 239.02301
-348, 239.02301
-348.5, 239.88904
-349.5, 239.88904
-350, 239.02301
-351, 239.02301
-351.5, 238.15699
-352.5, 238.15699
-353, 239.02301
-354, 239.02301
-354.5, 239.88904
-354, 240.75506
-354.5, 241.62109
-355.5, 241.62109
-356, 242.48711
-357, 242.48711
-357.5, 241.62109
-358.5, 241.62109
-359, 240.75506
-360, 240.75506
-360.5, 241.62109
-361.5, 241.62109
-362, 240.75506
-363, 240.75506
-363.5, 239.88904
-364.5, 239.88904
-365, 240.75506
-366, 240.75506
-366.5, 241.62109
-366, 242.48711
-366.5, 243.35314
-367.5, 243.35314
-368, 244.21916
-369, 244.21916
-369.5, 245.08519
-369, 245.95121
-369.5, 246.81724
-369, 247.68327
-368, 247.68327
-367.5, 248.54929
-368, 249.41532
-367.5, 250.28134
-368, 251.14737
-369, 251.14737
-369.5, 252.01339
-370.5, 252.01339
-371, 252.87942
-370.5, 253.74544
-371, 254.61147
-372, 254.61147
-372.5, 255.47749
-373.5, 255.47749
-374, 256.34352
-373.5, 257.20954
-374, 258.07557
-373.5, 258.9416
-372.5, 258.9416
-372, 259.80762
-372.5, 260.67365
-372, 261.53967
-372.5, 262.4057
-372, 263.27172
-371, 263.27172
-370.5, 264.13775
-369.5, 264.13775
-369, 263.27172
-368, 263.27172
-367.5, 264.13775
-366.5, 264.13775
-366, 265.00377
-366.5, 265.8698
-366, 266.73582
-366.5, 267.60185
-366, 268.46788
-365, 268.46788
-364.5, 269.3339
-365, 270.19993
-364.5, 271.06595
-365, 271.93198
-366, 271.93198
-366.5, 272.798
-367.5, 272.798
-368, 273.66403
-367.5, 274.53005
-368, 275.39608
-369, 275.39608
-369.5, 276.2621
-370.5, 276.2621
-371, 277.12813
-370.5, 277.99415
-371, 278.86018
-370.5, 279.72621
-369.5, 279.72621
-369, 280.59223
-369.5, 281.45826
-369, 282.32428
-369.5, 283.19031
-370.5, 283.19031
-371, 284.05633
-372, 284.05633
-372.5, 284.92236
-372, 285.78838
-372.5, 286.65441
-373.5, 286.65441
-374, 287.52043
-375, 287.52043
-375.5, 286.65441
-376.5, 286.65441
-377, 285.78838
-378, 285.78838
-378.5, 286.65441
-379.5, 286.65441
-380, 285.78838
-381, 285.78838
-381.5, 284.92236
-382.5, 284.92236
-383, 285.78838
-384, 285.78838
-384.5, 286.65441
-384, 287.52043
-384.5, 288.38646
-385.5, 288.38646
-386, 289.25248
-387, 289.25248
-387.5, 288.38646
-388.5, 288.38646
-389, 287.52043
-390, 287.52043
-390.5, 288.38646
-391.5, 288.38646
-392, 287.52043
-393, 287.52043
-393.5, 286.65441
-394.5, 286.65441
-395, 287.52043
-396, 287.52043
-396.5, 288.38646
-396, 289.25248
-396.5, 290.11851
-397.5, 290.11851
-398, 290.98454
-399, 290.98454
-399.5, 291.85056
-399, 292.71659
-399.5, 293.58261
-399, 294.44864
-398, 294.44864
-397.5, 295.31466
-398, 296.18069
-397.5, 297.04671
-398, 297.91274
-399, 297.91274
-399.5, 298.77876
-400.5, 298.77876
-401, 299.64479
-400.5, 300.51082
-401, 301.37684
-402, 301.37684
-402.5, 302.24287
-403.5, 302.24287
-404, 301.37684
-405, 301.37684
-405.5, 300.51082
-406.5, 300.51082
-407, 301.37684
-408, 301.37684
-408.5, 300.51082
-409.5, 300.51082
-410, 299.64479
-411, 299.64479
-411.5, 300.51082
-412.5, 300.51082
-413, 301.37684
-412.5, 302.24287
-413, 303.10889
-414, 303.10889
-414.5, 303.97492
-415.5, 303.97492
-416, 303.10889
-417, 303.10889
-417.5, 302.24287
-418.5, 302.24287
-419, 303.10889
-420, 303.10889
-420.5, 302.24287
-421.5, 302.24287
-422, 301.37684
-421.5, 300.51082
-422, 299.64479
-421.5, 298.77876
-422, 297.91274
-423, 297.91274
-423.5, 297.04671
-423, 296.18069
-423.5, 295.31466
-423, 294.44864
-423.5, 293.58261
-424.5, 293.58261
-425, 292.71659
-426, 292.71659
-426.5, 293.58261
-427.5, 293.58261
-428, 292.71659
-429, 292.71659
-429.5, 291.85056
-429, 290.98454
-429.5, 290.11851
-429, 289.25248
-429.5, 288.38646
-430.5, 288.38646
-431, 287.52043
-430.5, 286.65441
-431, 285.78838
-430.5, 284.92236
-431, 284.05633
-432, 284.05633
-432.5, 283.19031
-433.5, 283.19031
-434, 284.05633
-435, 284.05633
-435.5, 283.19031
-436.5, 283.19031
-437, 282.32428
-438, 282.32428
-438.5, 283.19031
-439.5, 283.19031
-440, 284.05633
-439.5, 284.92236
-440, 285.78838
-441, 285.78838
-441.5, 286.65441
-442.5, 286.65441
-443, 285.78838
-444, 285.78838
-444.5, 284.92236
-445.5, 284.92236
-446, 285.78838
-447, 285.78838
-447.5, 284.92236
-448.5, 284.92236
-449, 284.05633
-448.5, 283.19031
-449, 282.32428
-448.5, 281.45826
-449, 280.59223
-450, 280.59223
-450.5, 279.72621
-450, 278.86018
-450.5, 277.99415
-450, 277.12813
-450.5, 276.2621
-451.5, 276.2621
-452, 275.39608
-453, 275.39608
-453.5, 276.2621
-454.5, 276.2621
-455, 275.39608
-456, 275.39608
-456.5, 274.53005
-456, 273.66403
-456.5, 272.798
-456, 271.93198
-456.5, 271.06595
-457.5, 271.06595
-458, 270.19993
-457.5, 269.3339
-458, 268.46788
-457.5, 267.60185
-458, 266.73582
-459, 266.73582
-459.5, 265.8698
-460.5, 265.8698
-461, 266.73582
-462, 266.73582
-462.5, 265.8698
-463.5, 265.8698
-464, 265.00377
-465, 265.00377
-465.5, 265.8698
-466.5, 265.8698
-467, 266.73582
-466.5, 267.60185
-467, 268.46788
-468, 268.46788
-468.5, 269.3339
-469.5, 269.3339
-470, 268.46788
-471, 268.46788
-471.5, 267.60185
-472.5, 267.60185
-473, 268.46788
-474, 268.46788
-474.5, 267.60185
-475.5, 267.60185
-476, 266.73582
-477, 266.73582
-477.5, 267.60185
-478.5, 267.60185
-479, 268.46788
-478.5, 269.3339
-479, 270.19993
-480, 270.19993
-480.5, 271.06595
-481.5, 271.06595
-482, 271.93198
-481.5, 272.798
-482, 273.66403
-481.5, 274.53005
-480.5, 274.53005
-480, 275.39608
-480.5, 276.2621
-480, 277.12813
-480.5, 277.99415
-481.5, 277.99415
-482, 278.86018
-483, 278.86018
-483.5, 279.72621
-483, 280.59223
-483.5, 281.45826
-484.5, 281.45826
-485, 282.32428
-486, 282.32428
-486.5, 281.45826
-487.5, 281.45826
-488, 280.59223
-489, 280.59223
-489.5, 281.45826
-490.5, 281.45826
-491, 280.59223
-492, 280.59223
-492.5, 279.72621
-493.5, 279.72621
-494, 280.59223
-495, 280.59223
-495.5, 281.45826
-495, 282.32428
-495.5, 283.19031
-496.5, 283.19031
-497, 284.05633
-498, 284.05633
-498.5, 283.19031
-499.5, 283.19031
-500, 282.32428
-501, 282.32428
-501.5, 283.19031
-502.5, 283.19031
-503, 282.32428
-504, 282.32428
-504.5, 281.45826
-504, 280.59223
-504.5, 279.72621
-504, 278.86018
-504.5, 277.99415
-505.5, 277.99415
-506, 277.12813
-505.5, 276.2621
-506, 275.39608
-505.5, 274.53005
-506, 273.66403
-507, 273.66403
-507.5, 272.798
-508.5, 272.798
-509, 273.66403
-510, 273.66403
-510.5, 272.798
-511.5, 272.798
-512, 271.93198
-511.5, 271.06595
-512, 270.19993
-511.5, 269.3339
-512, 268.46788
-513, 268.46788
-513.5, 267.60185
-513, 266.73582
-513.5, 265.8698
-513, 265.00377
-513.5, 264.13775
-514.5, 264.13775
-515, 263.27172
-516, 263.27172
-516.5, 264.13775
-517.5, 264.13775
-518, 263.27172
-519, 263.27172
-519.5, 262.4057
-520.5, 262.4057
-521, 263.27172
-522, 263.27172
-522.5, 264.13775
-522, 265.00377
-522.5, 265.8698
-523.5, 265.8698
-524, 266.73582
-525, 266.73582
-525.5, 265.8698
-526.5, 265.8698
-527, 265.00377
-528, 265.00377
-528.5, 265.8698
-529.5, 265.8698
-530, 265.00377
-531, 265.00377
-531.5, 264.13775
-531, 263.27172
-531.5, 262.4057
-531, 261.53967
-531.5, 260.67365
-532.5, 260.67365
-533, 259.80762
-532.5, 258.9416
-533, 258.07557
-532.5, 257.20954
-533, 256.34352
-534, 256.34352
-534.5, 255.47749
-535.5, 255.47749
-536, 256.34352
-537, 256.34352
-537.5, 255.47749
-538.5, 255.47749
-539, 254.61147
-538.5, 253.74544
-539, 252.87942
-538.5, 252.01339
-539, 251.14737
-540, 251.14737
-540.5, 250.28134
-540, 249.41532
-540.5, 248.54929
-540, 247.68327
-539, 247.68327
-538.5, 246.81724
-537.5, 246.81724
-537, 245.95121
-537.5, 245.08519
-537, 244.21916
-536, 244.21916
-535.5, 243.35314
-534.5, 243.35314
-534, 242.48711
-534.5, 241.62109
-534, 240.75506
-534.5, 239.88904
-535.5, 239.88904
-536, 239.02301
-535.5, 238.15699
-536, 237.29096
-535.5, 236.42494
-534.5, 236.42494
-534, 235.55891
-533, 235.55891
-532.5, 234.69288
-533, 233.82686
-532.5, 232.96083
-531.5, 232.96083
-531, 232.09481
-530, 232.09481
-529.5, 231.22878
-530, 230.36276
-529.5, 229.49673
-530, 228.63071
-531, 228.63071
-531.5, 227.76468
-531, 226.89866
-531.5, 226.03263
-531, 225.1666
-531.5, 224.30058
-532.5, 224.30058
-533, 223.43455
-534, 223.43455
-534.5, 224.30058
-535.5, 224.30058
-536, 223.43455
-537, 223.43455
-537.5, 222.56853
-537, 221.7025
-537.5, 220.83648
-537, 219.97045
-537.5, 219.10443
-538.5, 219.10443
-539, 218.2384
-538.5, 217.37238
-539, 216.50635
-538.5, 215.64033
-537.5, 215.64033
-537, 214.7743
-536, 214.7743
-535.5, 213.90827
-536, 213.04225
-535.5, 212.17622
-534.5, 212.17622
-534, 211.3102
-533, 211.3102
-532.5, 210.44417
-533, 209.57815
-532.5, 208.71212
-533, 207.8461
-534, 207.8461
-534.5, 206.98007
-534, 206.11405
-534.5, 205.24802
-534, 204.382
-533, 204.382
-532.5, 203.51597
-531.5, 203.51597
-531, 202.64994
-531.5, 201.78392
-531, 200.91789
-530, 200.91789
-529.5, 200.05187
-528.5, 200.05187
-528, 199.18584
-528.5, 198.31982
-528, 197.45379
-528.5, 196.58777
-529.5, 196.58777
-530, 195.72174
-529.5, 194.85572
-530, 193.98969
-529.5, 193.12367
-530, 192.25764
-531, 192.25764
-531.5, 191.39161
-532.5, 191.39161
-533, 192.25764
-534, 192.25764
-534.5, 191.39161
-535.5, 191.39161
-536, 190.52559
-535.5, 189.65956
-536, 188.79354
-535.5, 187.92751
-536, 187.06149
-537, 187.06149
-537.5, 186.19546
-537, 185.32944
-537.5, 184.46341
-537, 183.59739
-537.5, 182.73136
-538.5, 182.73136
-539, 181.86533
-540, 181.86533
-540.5, 182.73136
-541.5, 182.73136
-542, 181.86533
-543, 181.86533
-543.5, 180.99931
-544.5, 180.99931
-545, 181.86533
-546, 181.86533
-546.5, 182.73136
-546, 183.59739
-546.5, 184.46341
-547.5, 184.46341
-548, 185.32944
-549, 185.32944
-549.5, 184.46341
-550.5, 184.46341
-551, 183.59739
-552, 183.59739
-552.5, 184.46341
-553.5, 184.46341
-554, 183.59739
-555, 183.59739
-555.5, 182.73136
-555, 181.86533
-555.5, 180.99931
-555, 180.13328
-555.5, 179.26726
-556.5, 179.26726
-557, 178.40123
-556.5, 177.53521
-557, 176.66918
-556.5, 175.80316
-557, 174.93713
-558, 174.93713
-558.5, 174.07111
-559.5, 174.07111
-560, 174.93713
-561, 174.93713
-561.5, 174.07111
-562.5, 174.07111
-563, 173.20508
-562.5, 172.33906
-563, 171.47303
-562.5, 170.607
-563, 169.74098
-564, 169.74098
-564.5, 168.87495
-564, 168.00893
-564.5, 167.1429
-564, 166.27688
-563, 166.27688
-562.5, 165.41085
-561.5, 165.41085
-561, 164.54483
-561.5, 163.6788
-561, 162.81278
-560, 162.81278
-559.5, 161.94675
-558.5, 161.94675
-558, 161.08073
-558.5, 160.2147
-558, 159.34867
-558.5, 158.48265
-559.5, 158.48265
-560, 157.61662
-559.5, 156.7506
-560, 155.88457
-559.5, 155.01855
-558.5, 155.01855
-558, 154.15252
-557, 154.15252
-556.5, 153.2865
-557, 152.42047
-556.5, 151.55445
-555.5, 151.55445
-555, 150.68842
-554, 150.68842
-553.5, 149.82239
-554, 148.95637
-553.5, 148.09034
-554, 147.22432
-555, 147.22432
-555.5, 146.35829
-555, 145.49227
-555.5, 144.62624
-555, 143.76022
-555.5, 142.89419
-556.5, 142.89419
-557, 142.02817
-558, 142.02817
-558.5, 142.89419
-559.5, 142.89419
-560, 142.02817
-561, 142.02817
-561.5, 141.16214
-561, 140.29612
-561.5, 139.43009
-561, 138.56406
-561.5, 137.69804
-562.5, 137.69804
-563, 136.83201
-562.5, 135.96599
-563, 135.09996
-562.5, 134.23394
-561.5, 134.23394
-561, 133.36791
-560, 133.36791
-559.5, 132.50189
-560, 131.63586
-559.5, 130.76984
-558.5, 130.76984
-558, 129.90381
-557, 129.90381
-556.5, 129.03779
-557, 128.17176
-556.5, 127.30573
-557, 126.43971
-558, 126.43971
-558.5, 125.57368
-558, 124.70766
-558.5, 123.84163
-558, 122.97561
-557, 122.97561
-556.5, 122.10958
-555.5, 122.10958
-555, 121.24356
-555.5, 120.37753
-555, 119.51151
-554, 119.51151
-553.5, 118.64548
-552.5, 118.64548
-552, 117.77945
-552.5, 116.91343
-552, 116.0474
-552.5, 115.18138
-553.5, 115.18138
-554, 114.31535
-553.5, 113.44933
-554, 112.5833
-553.5, 111.71728
-554, 110.85125
-555, 110.85125
-555.5, 109.98523
-556.5, 109.98523
-557, 110.85125
-558, 110.85125
-558.5, 109.98523
-559.5, 109.98523
-560, 109.1192
-559.5, 108.25318
-560, 107.38715
-559.5, 106.52112
-560, 105.6551
-561, 105.6551
-561.5, 104.78907
-561, 103.92305
-561.5, 103.05702
-561, 102.191
-561.5, 101.32497
-562.5, 101.32497
-563, 100.45895
-564, 100.45895
-564.5, 101.32497
-565.5, 101.32497
-566, 100.45895
-567, 100.45895
-567.5, 99.59292
-568.5, 99.59292
-569, 100.45895
-570, 100.45895
-570.5, 101.32497
-570, 102.191
-570.5, 103.05702
-571.5, 103.05702
-572, 103.92305
-573, 103.92305
-573.5, 103.05702
-574.5, 103.05702
-575, 102.191
-576, 102.191
-576.5, 103.05702
-577.5, 103.05702
-578, 102.191
-579, 102.191
-579.5, 101.32497
-579, 100.45895
-579.5, 99.59292
-579, 98.7269
-579.5, 97.86087
-580.5, 97.86087
-581, 96.99485
-580.5, 96.12882
-581, 95.26279
-580.5, 94.39677
-581, 93.53074
-582, 93.53074
-582.5, 92.66472
-583.5, 92.66472
-584, 93.53074
-585, 93.53074
-585.5, 92.66472
-586.5, 92.66472
-587, 91.79869
-586.5, 90.93267
-587, 90.06664
-586.5, 89.20062
-587, 88.33459
-588, 88.33459
-588.5, 87.46857
-588, 86.60254
-588.5, 85.73651
-588, 84.87049
-588.5, 84.00446
-589.5, 84.00446
-590, 83.13844
-591, 83.13844
-591.5, 84.00446
-592.5, 84.00446
-593, 83.13844
-594, 83.13844
-594.5, 82.27241
-595.5, 82.27241
-596, 83.13844
-597, 83.13844
-597.5, 84.00446
-597, 84.87049
-597.5, 85.73651
-598.5, 85.73651
-599, 86.60254
-600, 86.60254
-600.5, 85.73651
-601.5, 85.73651
-602, 84.87049
-603, 84.87049
-603.5, 85.73651
-604.5, 85.73651
-605, 84.87049
-606, 84.87049
-606.5, 84.00446
-607.5, 84.00446
-608, 84.87049
-609, 84.87049
-609.5, 85.73651
-609, 86.60254
-609.5, 87.46857
-610.5, 87.46857
-611, 88.33459
-612, 88.33459
-612.5, 89.20062
-612, 90.06664
-612.5, 90.93267
-612, 91.79869
-611, 91.79869
-610.5, 92.66472
-611, 93.53074
-610.5, 94.39677
-611, 95.26279
-612, 95.26279
-612.5, 96.12882
-613.5, 96.12882
-614, 96.99485
-613.5, 97.86087
-614, 98.7269
-615, 98.7269
-615.5, 99.59292
-616.5, 99.59292
-617, 98.7269
-618, 98.7269
-618.5, 97.86087
-619.5, 97.86087
-620, 98.7269
-621, 98.7269
-621.5, 97.86087
-622.5, 97.86087
-623, 96.99485
-624, 96.99485
-624.5, 97.86087
-625.5, 97.86087
-626, 98.7269
-625.5, 99.59292
-626, 100.45895
-627, 100.45895
-627.5, 101.32497
-628.5, 101.32497
-629, 100.45895
-630, 100.45895
-630.5, 99.59292
-631.5, 99.59292
-632, 100.45895
-633, 100.45895
-633.5, 99.59292
-634.5, 99.59292
-635, 98.7269
-634.5, 97.86087
-635, 96.99485
-634.5, 96.12882
-635, 95.26279
-636, 95.26279
-636.5, 94.39677
-636, 93.53074
-636.5, 92.66472
-636, 91.79869
-636.5, 90.93267
-637.5, 90.93267
-638, 90.06664
-639, 90.06664
-639.5, 90.93267
-640.5, 90.93267
-641, 90.06664
-642, 90.06664
-642.5, 89.20062
-642, 88.33459
-642.5, 87.46857
-642, 86.60254
-642.5, 85.73651
-643.5, 85.73651
-644, 84.87049
-643.5, 84.00446
-644, 83.13844
-643.5, 82.27241
-644, 81.40639
-645, 81.40639
-645.5, 80.54036
-646.5, 80.54036
-647, 81.40639
-648, 81.40639
-648.5, 80.54036
-649.5, 80.54036
-650, 79.67434
-651, 79.67434
-651.5, 80.54036
-652.5, 80.54036
-653, 81.40639
-652.5, 82.27241
-653, 83.13844
-654, 83.13844
-654.5, 84.00446
-655.5, 84.00446
-656, 83.13844
-657, 83.13844
-657.5, 82.27241
-658.5, 82.27241
-659, 83.13844
-660, 83.13844
-660.5, 82.27241
-661.5, 82.27241
-662, 81.40639
-661.5, 80.54036
-662, 79.67434
-661.5, 78.80831
-662, 77.94229
-663, 77.94229
-663.5, 77.07626
-663, 76.21024
-663.5, 75.34421
-663, 74.47818
-663.5, 73.61216
-664.5, 73.61216
-665, 72.74613
-666, 72.74613
-666.5, 73.61216
-667.5, 73.61216
-668, 72.74613
-669, 72.74613
-669.5, 71.88011
-669, 71.01408
-669.5, 70.14806
-669, 69.28203
-669.5, 68.41601
-670.5, 68.41601
-671, 67.54998
-670.5, 66.68396
-671, 65.81793
-670.5, 64.95191
-669.5, 64.95191
-669, 64.08588
-668, 64.08588
-667.5, 63.21985
-668, 62.35383
-667.5, 61.4878
-666.5, 61.4878
-666, 60.62178
-665, 60.62178
-664.5, 59.75575
-665, 58.88973
-664.5, 58.0237
-665, 57.15768
-666, 57.15768
-666.5, 56.29165
-666, 55.42563
-666.5, 54.5596
-666, 53.69358
-665, 53.69358
-664.5, 52.82755
-663.5, 52.82755
-663, 51.96152
-663.5, 51.0955
-663, 50.22947
-662, 50.22947
-661.5, 49.36345
-660.5, 49.36345
-660, 48.49742
-660.5, 47.6314
-660, 46.76537
-660.5, 45.89935
-661.5, 45.89935
-662, 45.03332
-661.5, 44.1673
-662, 43.30127
-661.5, 42.43524
-662, 41.56922
-663, 41.56922
-663.5, 40.70319
-664.5, 40.70319
-665, 41.56922
-666, 41.56922
-666.5, 40.70319
-667.5, 40.70319
-668, 39.83717
-667.5, 38.97114
-668, 38.10512
-667.5, 37.23909
-668, 36.37307
-669, 36.37307
-669.5, 35.50704
-669, 34.64102
-669.5, 33.77499
-669, 32.90897
-668, 32.90897
-667.5, 32.04294
-666.5, 32.04294
-666, 31.17691
-666.5, 30.31089
-666, 29.44486
-665, 29.44486
-664.5, 28.57884
-663.5, 28.57884
-663, 27.71281
-663.5, 26.84679
-663, 25.98076
-663.5, 25.11474
-664.5, 25.11474
-665, 24.24871
-664.5, 23.38269
-665, 22.51666
-664.5, 21.65064
-663.5, 21.65064
-663, 20.78461
-662, 20.78461
-661.5, 19.91858
-662, 19.05256
-661.5, 18.18653
-660.5, 18.18653
-660, 17.32051
-659, 17.32051
-658.5, 16.45448
-659, 15.58846
-658.5, 14.72243
-659, 13.85641
-660, 13.85641
-660.5, 12.99038
-660, 12.12436
-660.5, 11.25833
-660, 10.3923
-660.5, 9.52628
-661.5, 9.52628
-662, 8.66025
-663, 8.66025
-663.5, 9.52628
-664.5, 9.52628
-665, 8.66025
-666, 8.66025
-666.5, 7.79423
-666, 6.9282
-666.5, 6.06218
-666, 5.19615
-666.5, 4.33013
-667.5, 4.33013
-668, 3.4641
-667.5, 2.59808
-668, 1.73205
-667.5, 0.86603
-668, 0
-669, 0
-669.5, -0.86603
-670.5, -0.86603
-671, 0
-672, 0
-672.5, -0.86603
-673.5, -0.86603
-674, -1.73205
-675, -1.73205
-675.5, -0.86603
-676.5, -0.86603
-677, 0
-676.5, 0.86603
-677, 1.73205
-678, 1.73205
-678.5, 2.59808
-679.5, 2.59808
-680, 1.73205
-681, 1.73205
-681.5, 0.86603
-682.5, 0.86603
-683, 1.73205
-684, 1.73205
-684.5, 0.86603
-685.5, 0.86603
-686, 0
-685.5, -0.86603
-686, -1.73205
-685.5, -2.59808
-686, -3.4641
-687, -3.4641
-687.5, -4.33013
-687, -5.19615
-687.5, -6.06218
-687, -6.9282
-687.5, -7.79423
-688.5, -7.79423
-689, -8.66025
-690, -8.66025
-690.5, -7.79423
-691.5, -7.79423
-692, -8.66025
-693, -8.66025
-693.5, -9.52628
-693, -10.3923
-693.5, -11.25833
-693, -12.12436
-693.5, -12.99038
-694.5, -12.99038
-695, -13.85641
-694.5, -14.72243
-695, -15.58846
-694.5, -16.45448
-693.5, -16.45448
-693, -17.32051
-692, -17.32051
-691.5, -18.18653
-692, -19.05256
-691.5, -19.91858
-690.5, -19.91858
-690, -20.78461
-689, -20.78461
-688.5, -21.65064
-689, -22.51666
-688.5, -23.38269
-689, -24.24871
-690, -24.24871
-690.5, -25.11474
-690, -25.98076
-690.5, -26.84679
-690, -27.71281
-689, -27.71281
-688.5, -28.57884
-687.5, -28.57884
-687, -29.44486
-687.5, -30.31089
-687, -31.17691
-686, -31.17691
-685.5, -32.04294
-684.5, -32.04294
-684, -32.90897
-684.5, -33.77499
-684, -34.64102
-684.5, -35.50704
-685.5, -35.50704
-686, -36.37307
-685.5, -37.23909
-686, -38.10512
-685.5, -38.97114
-686, -39.83717
-687, -39.83717
-687.5, -40.70319
-688.5, -40.70319
-689, -39.83717
-690, -39.83717
-690.5, -40.70319
-691.5, -40.70319
-692, -41.56922
-691.5, -42.43524
-692, -43.30127
-691.5, -44.1673
-692, -45.03332
-693, -45.03332
-693.5, -45.89935
-693, -46.76537
-693.5, -47.6314
-693, -48.49742
-692, -48.49742
-691.5, -49.36345
-690.5, -49.36345
-690, -50.22947
-690.5, -51.0955
-690, -51.96152
-689, -51.96152
-688.5, -52.82755
-687.5, -52.82755
-687, -53.69358
-687.5, -54.5596
-687, -55.42563
-687.5, -56.29165
-688.5, -56.29165
-689, -57.15768
-688.5, -58.0237
-689, -58.88973
-688.5, -59.75575
-687.5, -59.75575
-687, -60.62178
-686, -60.62178
-685.5, -61.4878
-686, -62.35383
-685.5, -63.21985
-684.5, -63.21985
-684, -64.08588
-683, -64.08588
-682.5, -63.21985
-681.5, -63.21985
-681, -62.35383
-680, -62.35383
-679.5, -63.21985
-678.5, -63.21985
-678, -62.35383
-677, -62.35383
-676.5, -61.4878
-675.5, -61.4878
-675, -62.35383
-674, -62.35383
-673.5, -63.21985
-674, -64.08588
-673.5, -64.95191
-672.5, -64.95191
-672, -65.81793
-671, -65.81793
-670.5, -64.95191
-669.5, -64.95191
-669, -64.08588
-668, -64.08588
-667.5, -64.95191
-666.5, -64.95191
-666, -64.08588
-665, -64.08588
-664.5, -63.21985
-663.5, -63.21985
-663, -64.08588
-662, -64.08588
-661.5, -64.95191
-662, -65.81793
-661.5, -66.68396
-660.5, -66.68396
-660, -67.54998
-659, -67.54998
-658.5, -68.41601
-659, -69.28203
-658.5, -70.14806
-659, -71.01408
-660, -71.01408
-660.5, -71.88011
-660, -72.74613
-660.5, -73.61216
-660, -74.47818
-659, -74.47818
-658.5, -75.34421
-657.5, -75.34421
-657, -76.21024
-657.5, -77.07626
-657, -77.94229
-656, -77.94229
-655.5, -78.80831
-654.5, -78.80831
-654, -77.94229
-653, -77.94229
-652.5, -77.07626
-651.5, -77.07626
-651, -77.94229
-650, -77.94229
-649.5, -77.07626
-648.5, -77.07626
-648, -76.21024
-647, -76.21024
-646.5, -77.07626
-645.5, -77.07626
-645, -77.94229
-645.5, -78.80831
-645, -79.67434
-644, -79.67434
-643.5, -80.54036
-642.5, -80.54036
-642, -79.67434
-641, -79.67434
-640.5, -78.80831
-639.5, -78.80831
-639, -79.67434
-638, -79.67434
-637.5, -78.80831
-636.5, -78.80831
-636, -77.94229
-635, -77.94229
-634.5, -78.80831
-633.5, -78.80831
-633, -79.67434
-633.5, -80.54036
-633, -81.40639
-632, -81.40639
-631.5, -82.27241
-630.5, -82.27241
-630, -83.13844
-630.5, -84.00446
-630, -84.87049
-630.5, -85.73651
-631.5, -85.73651
-632, -86.60254
-631.5, -87.46857
-632, -88.33459
-631.5, -89.20062
-630.5, -89.20062
-630, -90.06664
-629, -90.06664
-628.5, -90.93267
-629, -91.79869
-628.5, -92.66472
-627.5, -92.66472
-627, -93.53074
-626, -93.53074
-625.5, -94.39677
-626, -95.26279
-625.5, -96.12882
-626, -96.99485
-627, -96.99485
-627.5, -97.86087
-627, -98.7269
-627.5, -99.59292
-627, -100.45895
-627.5, -101.32497
-628.5, -101.32497
-629, -102.191
-630, -102.191
-630.5, -101.32497
-631.5, -101.32497
-632, -102.191
-633, -102.191
-633.5, -103.05702
-633, -103.92305
-633.5, -104.78907
-633, -105.6551
-633.5, -106.52112
-634.5, -106.52112
-635, -107.38715
-634.5, -108.25318
-635, -109.1192
-634.5, -109.98523
-633.5, -109.98523
-633, -110.85125
-632, -110.85125
-631.5, -111.71728
-632, -112.5833
-631.5, -113.44933
-630.5, -113.44933
-630, -114.31535
-629, -114.31535
-628.5, -115.18138
-629, -116.0474
-628.5, -116.91343
-629, -117.77945
-630, -117.77945
-630.5, -118.64548
-630, -119.51151
-630.5, -120.37753
-630, -121.24356
-629, -121.24356
-628.5, -122.10958
-627.5, -122.10958
-627, -122.97561
-627.5, -123.84163
-627, -124.70766
-626, -124.70766
-625.5, -125.57368
-624.5, -125.57368
-624, -124.70766
-623, -124.70766
-622.5, -123.84163
-621.5, -123.84163
-621, -124.70766
-620, -124.70766
-619.5, -123.84163
-618.5, -123.84163
-618, -122.97561
-617, -122.97561
-616.5, -123.84163
-615.5, -123.84163
-615, -124.70766
-615.5, -125.57368
-615, -126.43971
-614, -126.43971
-613.5, -127.30573
-612.5, -127.30573
-612, -126.43971
-611, -126.43971
-610.5, -125.57368
-609.5, -125.57368
-609, -126.43971
-608, -126.43971
-607.5, -125.57368
-606.5, -125.57368
-606, -124.70766
-605, -124.70766
-604.5, -125.57368
-603.5, -125.57368
-603, -126.43971
-603.5, -127.30573
-603, -128.17176
-602, -128.17176
-601.5, -129.03779
-600.5, -129.03779
-600, -129.90381
-600.5, -130.76984
-600, -131.63586
-600.5, -132.50189
-601.5, -132.50189
-602, -133.36791
-601.5, -134.23394
-602, -135.09996
-601.5, -135.96599
-600.5, -135.96599
-600, -136.83201
-599, -136.83201
-598.5, -137.69804
-599, -138.56406
-598.5, -139.43009
-597.5, -139.43009
-597, -140.29612
-596, -140.29612
-595.5, -139.43009
-594.5, -139.43009
-594, -138.56406
-593, -138.56406
-592.5, -139.43009
-591.5, -139.43009
-591, -138.56406
-590, -138.56406
-589.5, -137.69804
-588.5, -137.69804
-588, -138.56406
-587, -138.56406
-586.5, -139.43009
-587, -140.29612
-586.5, -141.16214
-585.5, -141.16214
-585, -142.02817
-584, -142.02817
-583.5, -141.16214
-582.5, -141.16214
-582, -140.29612
-581, -140.29612
-580.5, -141.16214
-579.5, -141.16214
-579, -140.29612
-578, -140.29612
-577.5, -139.43009
-576.5, -139.43009
-576, -140.29612
-575, -140.29612
-574.5, -141.16214
-575, -142.02817
-574.5, -142.89419
-573.5, -142.89419
-573, -143.76022
-572, -143.76022
-571.5, -144.62624
-572, -145.49227
-571.5, -146.35829
-572, -147.22432
-573, -147.22432
-573.5, -148.09034
-573, -148.95637
-573.5, -149.82239
-573, -150.68842
-572, -150.68842
-571.5, -151.55445
-570.5, -151.55445
-570, -152.42047
-570.5, -153.2865
-570, -154.15252
-569, -154.15252
-568.5, -155.01855
-567.5, -155.01855
-567, -155.88457
-567.5, -156.7506
-567, -157.61662
-567.5, -158.48265
-568.5, -158.48265
-569, -159.34867
-568.5, -160.2147
-569, -161.08073
-568.5, -161.94675
-569, -162.81278
-570, -162.81278
-570.5, -163.6788
-571.5, -163.6788
-572, -162.81278
-573, -162.81278
-573.5, -163.6788
-574.5, -163.6788
-575, -164.54483
-574.5, -165.41085
-575, -166.27688
-574.5, -167.1429
-575, -168.00893
-576, -168.00893
-576.5, -168.87495
-576, -169.74098
-576.5, -170.607
-576, -171.47303
-575, -171.47303
-574.5, -172.33906
-573.5, -172.33906
-573, -173.20508
-573.5, -174.07111
-573, -174.93713
-572, -174.93713
-571.5, -175.80316
-570.5, -175.80316
-570, -176.66918
-570.5, -177.53521
-570, -178.40123
-570.5, -179.26726
-571.5, -179.26726
-572, -180.13328
-571.5, -180.99931
-572, -181.86533
-571.5, -182.73136
-570.5, -182.73136
-570, -183.59739
-569, -183.59739
-568.5, -184.46341
-569, -185.32944
-568.5, -186.19546
-567.5, -186.19546
-567, -187.06149
-566, -187.06149
-565.5, -187.92751
-566, -188.79354
-565.5, -189.65956
-566, -190.52559
-567, -190.52559
-567.5, -191.39161
-567, -192.25764
-567.5, -193.12367
-567, -193.98969
-567.5, -194.85572
-568.5, -194.85572
-569, -195.72174
-570, -195.72174
-570.5, -194.85572
-571.5, -194.85572
-572, -195.72174
-573, -195.72174
-573.5, -196.58777
-573, -197.45379
-573.5, -198.31982
-573, -199.18584
-573.5, -200.05187
-574.5, -200.05187
-575, -200.91789
-574.5, -201.78392
-575, -202.64994
-574.5, -203.51597
-575, -204.382
-576, -204.382
-576.5, -205.24802
-577.5, -205.24802
-578, -204.382
-579, -204.382
-579.5, -205.24802
-580.5, -205.24802
-581, -206.11405
-582, -206.11405
-582.5, -205.24802
-583.5, -205.24802
-584, -204.382
-583.5, -203.51597
-584, -202.64994
-585, -202.64994
-585.5, -201.78392
-586.5, -201.78392
-587, -202.64994
-588, -202.64994
-588.5, -203.51597
-589.5, -203.51597
-590, -202.64994
-591, -202.64994
-591.5, -203.51597
-592.5, -203.51597
-593, -204.382
-592.5, -205.24802
-593, -206.11405
-592.5, -206.98007
-593, -207.8461
-594, -207.8461
-594.5, -208.71212
-594, -209.57815
-594.5, -210.44417
-594, -211.3102
-594.5, -212.17622
-595.5, -212.17622
-596, -213.04225
-597, -213.04225
-597.5, -212.17622
-598.5, -212.17622
-599, -213.04225
-600, -213.04225
-600.5, -213.90827
-600, -214.7743
-600.5, -215.64033
-600, -216.50635
-600.5, -217.37238
-601.5, -217.37238
-602, -218.2384
-601.5, -219.10443
-602, -219.97045
-601.5, -220.83648
-600.5, -220.83648
-600, -221.7025
-599, -221.7025
-598.5, -222.56853
-599, -223.43455
-598.5, -224.30058
-597.5, -224.30058
-597, -225.1666
-596, -225.1666
-595.5, -226.03263
-596, -226.89866
-595.5, -227.76468
-596, -228.63071
-597, -228.63071
-597.5, -229.49673
-597, -230.36276
-597.5, -231.22878
-597, -232.09481
-596, -232.09481
-595.5, -232.96083
-594.5, -232.96083
-594, -233.82686
-594.5, -234.69288
-594, -235.55891
-593, -235.55891
-592.5, -236.42494
-591.5, -236.42494
-591, -237.29096
-591.5, -238.15699
-591, -239.02301
-591.5, -239.88904
-592.5, -239.88904
-593, -240.75506
-592.5, -241.62109
-593, -242.48711
-592.5, -243.35314
-593, -244.21916
-594, -244.21916
-594.5, -245.08519
-595.5, -245.08519
-596, -244.21916
-597, -244.21916
-597.5, -245.08519
-598.5, -245.08519
-599, -245.95121
-598.5, -246.81724
-599, -247.68327
-598.5, -248.54929
-599, -249.41532
-600, -249.41532
-600.5, -250.28134
-600, -251.14737
-600.5, -252.01339
-600, -252.87942
-599, -252.87942
-598.5, -253.74544
-597.5, -253.74544
-597, -254.61147
-597.5, -255.47749
-597, -256.34352
-596, -256.34352
-595.5, -257.20954
-594.5, -257.20954
-594, -258.07557
-594.5, -258.9416
-594, -259.80762
-594.5, -260.67365
-595.5, -260.67365
-596, -261.53967
-595.5, -262.4057
-596, -263.27172
-595.5, -264.13775
-594.5, -264.13775
-594, -265.00377
-593, -265.00377
-592.5, -265.8698
-593, -266.73582
-592.5, -267.60185
-591.5, -267.60185
-591, -268.46788
-590, -268.46788
-589.5, -267.60185
-588.5, -267.60185
-588, -266.73582
-587, -266.73582
-586.5, -267.60185
-585.5, -267.60185
-585, -266.73582
-584, -266.73582
-583.5, -265.8698
-582.5, -265.8698
-582, -266.73582
-581, -266.73582
-580.5, -267.60185
-581, -268.46788
-580.5, -269.3339
-579.5, -269.3339
-579, -270.19993
-578, -270.19993
-577.5, -269.3339
-576.5, -269.3339
-576, -268.46788
-575, -268.46788
-574.5, -269.3339
-573.5, -269.3339
-573, -268.46788
-572, -268.46788
-571.5, -267.60185
-570.5, -267.60185
-570, -268.46788
-569, -268.46788
-568.5, -269.3339
-569, -270.19993
-568.5, -271.06595
-567.5, -271.06595
-567, -271.93198
-566, -271.93198
-565.5, -272.798
-566, -273.66403
-565.5, -274.53005
-566, -275.39608
-567, -275.39608
-567.5, -276.2621
-567, -277.12813
-567.5, -277.99415
-567, -278.86018
-566, -278.86018
-565.5, -279.72621
-564.5, -279.72621
-564, -280.59223
-564.5, -281.45826
-564, -282.32428
-563, -282.32428
-562.5, -283.19031
-561.5, -283.19031
-561, -282.32428
-560, -282.32428
-559.5, -281.45826
-558.5, -281.45826
-558, -282.32428
-557, -282.32428
-556.5, -281.45826
-555.5, -281.45826
-555, -280.59223
-554, -280.59223
-553.5, -281.45826
-552.5, -281.45826
-552, -282.32428
-552.5, -283.19031
-552, -284.05633
-551, -284.05633
-550.5, -284.92236
-549.5, -284.92236
-549, -284.05633
-548, -284.05633
-547.5, -283.19031
-546.5, -283.19031
-546, -284.05633
-545, -284.05633
-544.5, -283.19031
-543.5, -283.19031
-543, -282.32428
-542, -282.32428
-541.5, -283.19031
-540.5, -283.19031
-540, -284.05633
-540.5, -284.92236
-540, -285.78838
-539, -285.78838
-538.5, -286.65441
-537.5, -286.65441
-537, -287.52043
-537.5, -288.38646
-537, -289.25248
-537.5, -290.11851
-538.5, -290.11851
-539, -290.98454
-538.5, -291.85056
-539, -292.71659
-538.5, -293.58261
-537.5, -293.58261
-537, -294.44864
-536, -294.44864
-535.5, -295.31466
-536, -296.18069
-535.5, -297.04671
-534.5, -297.04671
-534, -297.91274
-533, -297.91274
-532.5, -298.77876
-533, -299.64479
-532.5, -300.51082
-533, -301.37684
-534, -301.37684
-534.5, -302.24287
-534, -303.10889
-534.5, -303.97492
-534, -304.84094
-534.5, -305.70697
-535.5, -305.70697
-536, -306.57299
-537, -306.57299
-537.5, -305.70697
-538.5, -305.70697
-539, -306.57299
-540, -306.57299
-540.5, -307.43902
-540, -308.30504
-540.5, -309.17107
-540, -310.03709
-540.5, -310.90312
-541.5, -310.90312
-542, -311.76915
-541.5, -312.63517
-542, -313.5012
-541.5, -314.36722
-540.5, -314.36722
-540, -315.23325
-539, -315.23325
-538.5, -316.09927
-539, -316.9653
-538.5, -317.83132
-537.5, -317.83132
-537, -318.69735
-536, -318.69735
-535.5, -319.56337
-536, -320.4294
-535.5, -321.29542
-536, -322.16145
-537, -322.16145
-537.5, -323.02748
-537, -323.8935
-537.5, -324.75953
-537, -325.62555
-536, -325.62555
-535.5, -326.49158
-534.5, -326.49158
-534, -327.3576
-534.5, -328.22363
-534, -329.08965
-533, -329.08965
-532.5, -329.95568
-531.5, -329.95568
-531, -329.08965
-530, -329.08965
-529.5, -328.22363
-528.5, -328.22363
-528, -329.08965
-527, -329.08965
-526.5, -328.22363
-525.5, -328.22363
-525, -327.3576
-524, -327.3576
-523.5, -328.22363
-522.5, -328.22363
-522, -329.08965
-522.5, -329.95568
-522, -330.8217
-521, -330.8217
-520.5, -331.68773
-519.5, -331.68773
-519, -330.8217
-518, -330.8217
-517.5, -329.95568
-516.5, -329.95568
-516, -330.8217
-515, -330.8217
-514.5, -329.95568
-513.5, -329.95568
-513, -329.08965
-512, -329.08965
-511.5, -329.95568
-510.5, -329.95568
-510, -330.8217
-510.5, -331.68773
-510, -332.55376
-509, -332.55376
-508.5, -333.41978
-507.5, -333.41978
-507, -334.28581
-507.5, -335.15183
-507, -336.01786
-507.5, -336.88388
-508.5, -336.88388
-509, -337.74991
-508.5, -338.61593
-509, -339.48196
-508.5, -340.34798
-507.5, -340.34798
-507, -341.21401
-506, -341.21401
-505.5, -342.08003
-506, -342.94606
-505.5, -343.81209
-504.5, -343.81209
-504, -344.67811
-503, -344.67811
-502.5, -343.81209
-501.5, -343.81209
-501, -342.94606
-500, -342.94606
-499.5, -343.81209
-498.5, -343.81209
-498, -342.94606
-497, -342.94606
-496.5, -342.08003
-495.5, -342.08003
-495, -342.94606
-494, -342.94606
-493.5, -343.81209
-494, -344.67811
-493.5, -345.54414
-492.5, -345.54414
-492, -346.41016
-491, -346.41016
-490.5, -345.54414
-489.5, -345.54414
-489, -344.67811
-488, -344.67811
-487.5, -345.54414
-486.5, -345.54414
-486, -344.67811
-485, -344.67811
-484.5, -343.81209
-485, -342.94606
-484.5, -342.08003
-485, -341.21401
-484.5, -340.34798
-483.5, -340.34798
-483, -339.48196
-483.5, -338.61593
-483, -337.74991
-483.5, -336.88388
-483, -336.01786
-482, -336.01786
-481.5, -335.15183
-480.5, -335.15183
-480, -336.01786
-479, -336.01786
-478.5, -335.15183
-477.5, -335.15183
-477, -334.28581
-477.5, -333.41978
-477, -332.55376
-477.5, -331.68773
-477, -330.8217
-476, -330.8217
-475.5, -329.95568
-476, -329.08965
-475.5, -328.22363
-476, -327.3576
-475.5, -326.49158
-474.5, -326.49158
-474, -325.62555
-473, -325.62555
-472.5, -326.49158
-471.5, -326.49158
-471, -325.62555
-470, -325.62555
-469.5, -324.75953
-468.5, -324.75953
-468, -325.62555
-467, -325.62555
-466.5, -326.49158
-467, -327.3576
-466.5, -328.22363
-465.5, -328.22363
-465, -329.08965
-464, -329.08965
-463.5, -328.22363
-462.5, -328.22363
-462, -327.3576
-461, -327.3576
-460.5, -328.22363
-459.5, -328.22363
-459, -327.3576
-458, -327.3576
-457.5, -326.49158
-458, -325.62555
-457.5, -324.75953
-458, -323.8935
-457.5, -323.02748
-456.5, -323.02748
-456, -322.16145
-456.5, -321.29542
-456, -320.4294
-456.5, -319.56337
-456, -318.69735
-455, -318.69735
-454.5, -317.83132
-453.5, -317.83132
-453, -318.69735
-452, -318.69735
-451.5, -317.83132
-450.5, -317.83132
-450, -316.9653
-450.5, -316.09927
-450, -315.23325
-450.5, -314.36722
-450, -313.5012
-449, -313.5012
-448.5, -312.63517
-449, -311.76915
-448.5, -310.90312
-449, -310.03709
-448.5, -309.17107
-447.5, -309.17107
-447, -308.30504
-446, -308.30504
-445.5, -309.17107
-444.5, -309.17107
-444, -308.30504
-443, -308.30504
-442.5, -307.43902
-441.5, -307.43902
-441, -308.30504
-440, -308.30504
-439.5, -309.17107
-440, -310.03709
-439.5, -310.90312
-438.5, -310.90312
-438, -311.76915
-437, -311.76915
-436.5, -310.90312
-435.5, -310.90312
-435, -310.03709
-434, -310.03709
-433.5, -310.90312
-432.5, -310.90312
-432, -310.03709
-431, -310.03709
-430.5, -309.17107
-429.5, -309.17107
-429, -310.03709
-428, -310.03709
-427.5, -310.90312
-428, -311.76915
-427.5, -312.63517
-426.5, -312.63517
-426, -313.5012
-425, -313.5012
-424.5, -314.36722
-425, -315.23325
-424.5, -316.09927
-425, -316.9653
-426, -316.9653
-426.5, -317.83132
-426, -318.69735
-426.5, -319.56337
-426, -320.4294
-425, -320.4294
-424.5, -321.29542
-423.5, -321.29542
-423, -322.16145
-423.5, -323.02748
-423, -323.8935
-422, -323.8935
-421.5, -324.75953
-420.5, -324.75953
-420, -323.8935
-419, -323.8935
-418.5, -323.02748
-417.5, -323.02748
-417, -323.8935
-416, -323.8935
-415.5, -323.02748
-414.5, -323.02748
-414, -322.16145
-413, -322.16145
-412.5, -323.02748
-411.5, -323.02748
-411, -323.8935
-411.5, -324.75953
-411, -325.62555
-410, -325.62555
-409.5, -326.49158
-408.5, -326.49158
-408, -325.62555
-407, -325.62555
-406.5, -324.75953
-405.5, -324.75953
-405, -325.62555
-404, -325.62555
-403.5, -324.75953
-402.5, -324.75953
-402, -323.8935
-402.5, -323.02748
-402, -322.16145
-402.5, -321.29542
-402, -320.4294
-401, -320.4294
-400.5, -319.56337
-401, -318.69735
-400.5, -317.83132
-401, -316.9653
-400.5, -316.09927
-399.5, -316.09927
-399, -315.23325
-398, -315.23325
-397.5, -316.09927
-396.5, -316.09927
-396, -315.23325
-395, -315.23325
-394.5, -314.36722
-395, -313.5012
-394.5, -312.63517
-395, -311.76915
-394.5, -310.90312
-393.5, -310.90312
-393, -310.03709
-393.5, -309.17107
-393, -308.30504
-393.5, -307.43902
-393, -306.57299
-392, -306.57299
-391.5, -305.70697
-390.5, -305.70697
-390, -306.57299
-389, -306.57299
-388.5, -305.70697
-387.5, -305.70697
-387, -304.84094
-386, -304.84094
-385.5, -305.70697
-384.5, -305.70697
-384, -306.57299
-384.5, -307.43902
-384, -308.30504
-383, -308.30504
-382.5, -309.17107
-381.5, -309.17107
-381, -308.30504
-380, -308.30504
-379.5, -307.43902
-378.5, -307.43902
-378, -308.30504
-377, -308.30504
-376.5, -307.43902
-375.5, -307.43902
-375, -306.57299
-375.5, -305.70697
-375, -304.84094
-375.5, -303.97492
-375, -303.10889
-374, -303.10889
-373.5, -302.24287
-374, -301.37684
-373.5, -300.51082
-374, -299.64479
-373.5, -298.77876
-372.5, -298.77876
-372, -297.91274
-371, -297.91274
-370.5, -298.77876
-369.5, -298.77876
-369, -297.91274
-368, -297.91274
-367.5, -297.04671
-368, -296.18069
-367.5, -295.31466
-368, -294.44864
-367.5, -293.58261
-366.5, -293.58261
-366, -292.71659
-366.5, -291.85056
-366, -290.98454
-366.5, -290.11851
-366, -289.25248
-365, -289.25248
-364.5, -288.38646
-363.5, -288.38646
-363, -289.25248
-362, -289.25248
-361.5, -288.38646
-360.5, -288.38646
-360, -287.52043
-359, -287.52043
-358.5, -288.38646
-357.5, -288.38646
-357, -289.25248
-357.5, -290.11851
-357, -290.98454
-356, -290.98454
-355.5, -291.85056
-354.5, -291.85056
-354, -290.98454
-353, -290.98454
-352.5, -290.11851
-351.5, -290.11851
-351, -290.98454
-350, -290.98454
-349.5, -290.11851
-348.5, -290.11851
-348, -289.25248
-347, -289.25248
-346.5, -290.11851
-345.5, -290.11851
-345, -290.98454
-345.5, -291.85056
-345, -292.71659
-344, -292.71659
-343.5, -293.58261
-342.5, -293.58261
-342, -294.44864
-342.5, -295.31466
-342, -296.18069
-342.5, -297.04671
-343.5, -297.04671
-344, -297.91274
-343.5, -298.77876
-344, -299.64479
-343.5, -300.51082
-342.5, -300.51082
-342, -301.37684
-341, -301.37684
-340.5, -302.24287
-341, -303.10889
-340.5, -303.97492
-339.5, -303.97492
-339, -304.84094
-338, -304.84094
-337.5, -303.97492
-336.5, -303.97492
-336, -303.10889
-335, -303.10889
-334.5, -303.97492
-333.5, -303.97492
-333, -303.10889
-332, -303.10889
-331.5, -302.24287
-330.5, -302.24287
-330, -303.10889
-329, -303.10889
-328.5, -303.97492
-329, -304.84094
-328.5, -305.70697
-327.5, -305.70697
-327, -306.57299
-326, -306.57299
-325.5, -305.70697
-324.5, -305.70697
-324, -304.84094
-323, -304.84094
-322.5, -305.70697
-321.5, -305.70697
-321, -304.84094
-320, -304.84094
-319.5, -303.97492
-318.5, -303.97492
-318, -304.84094
-317, -304.84094
-316.5, -305.70697
-317, -306.57299
-316.5, -307.43902
-315.5, -307.43902
-315, -308.30504
-314, -308.30504
-313.5, -309.17107
-314, -310.03709
-313.5, -310.90312
-314, -311.76915
-315, -311.76915
-315.5, -312.63517
-315, -313.5012
-315.5, -314.36722
-315, -315.23325
-314, -315.23325
-313.5, -316.09927
-312.5, -316.09927
-312, -316.9653
-312.5, -317.83132
-312, -318.69735
-311, -318.69735
-310.5, -319.56337
-309.5, -319.56337
-309, -320.4294
-309.5, -321.29542
-309, -322.16145
-309.5, -323.02748
-310.5, -323.02748
-311, -323.8935
-310.5, -324.75953
-311, -325.62555
-310.5, -326.49158
-311, -327.3576
-312, -327.3576
-312.5, -328.22363
-313.5, -328.22363
-314, -327.3576
-315, -327.3576
-315.5, -328.22363
-316.5, -328.22363
-317, -329.08965
-316.5, -329.95568
-317, -330.8217
-316.5, -331.68773
-317, -332.55376
-318, -332.55376
-318.5, -333.41978
-318, -334.28581
-318.5, -335.15183
-318, -336.01786
-317, -336.01786
-316.5, -336.88388
-315.5, -336.88388
-315, -337.74991
-315.5, -338.61593
-315, -339.48196
-314, -339.48196
-313.5, -340.34798
-312.5, -340.34798
-312, -341.21401
-312.5, -342.08003
-312, -342.94606
-312.5, -343.81209
-313.5, -343.81209
-314, -344.67811
-313.5, -345.54414
-314, -346.41016
-313.5, -347.27619
-312.5, -347.27619
-312, -348.14221
-311, -348.14221
-310.5, -349.00824
-311, -349.87426
-310.5, -350.74029
-309.5, -350.74029
-309, -351.60631
-308, -351.60631
-307.5, -350.74029
-306.5, -350.74029
-306, -349.87426
-305, -349.87426
-304.5, -350.74029
-303.5, -350.74029
-303, -349.87426
-302, -349.87426
-301.5, -349.00824
-300.5, -349.00824
-300, -349.87426
-299, -349.87426
-298.5, -350.74029
-299, -351.60631
-298.5, -352.47234
-297.5, -352.47234
-297, -353.33836
-296, -353.33836
-295.5, -352.47234
-294.5, -352.47234
-294, -351.60631
-293, -351.60631
-292.5, -352.47234
-291.5, -352.47234
-291, -351.60631
-290, -351.60631
-289.5, -350.74029
-288.5, -350.74029
-288, -351.60631
-287, -351.60631
-286.5, -352.47234
-287, -353.33836
-286.5, -354.20439
-285.5, -354.20439
-285, -355.07042
-284, -355.07042
-283.5, -355.93644
-284, -356.80247
-283.5, -357.66849
-284, -358.53452
-285, -358.53452
-285.5, -359.40054
-285, -360.26657
-285.5, -361.13259
-285, -361.99862
-284, -361.99862
-283.5, -362.86464
-282.5, -362.86464
-282, -363.73067
-282.5, -364.59669
-282, -365.46272
-281, -365.46272
-280.5, -366.32875
-279.5, -366.32875
-279, -365.46272
-278, -365.46272
-277.5, -364.59669
-276.5, -364.59669
-276, -365.46272
-275, -365.46272
-274.5, -364.59669
-273.5, -364.59669
-273, -363.73067
-272, -363.73067
-271.5, -364.59669
-270.5, -364.59669
-270, -365.46272
-270.5, -366.32875
-270, -367.19477
-269, -367.19477
-268.5, -368.0608
-267.5, -368.0608
-267, -367.19477
-266, -367.19477
-265.5, -366.32875
-264.5, -366.32875
-264, -367.19477
-263, -367.19477
-262.5, -366.32875
-261.5, -366.32875
-261, -365.46272
-261.5, -364.59669
-261, -363.73067
-261.5, -362.86464
-261, -361.99862
-260, -361.99862
-259.5, -361.13259
-260, -360.26657
-259.5, -359.40054
-260, -358.53452
-259.5, -357.66849
-258.5, -357.66849
-258, -356.80247
-257, -356.80247
-256.5, -357.66849
-255.5, -357.66849
-255, -356.80247
-254, -356.80247
-253.5, -355.93644
-254, -355.07042
-253.5, -354.20439
-254, -353.33836
-253.5, -352.47234
-252.5, -352.47234
-252, -351.60631
-252.5, -350.74029
-252, -349.87426
-252.5, -349.00824
-252, -348.14221
-251, -348.14221
-250.5, -347.27619
-249.5, -347.27619
-249, -348.14221
-248, -348.14221
-247.5, -347.27619
-246.5, -347.27619
-246, -346.41016
-245, -346.41016
-244.5, -347.27619
-243.5, -347.27619
-243, -348.14221
-243.5, -349.00824
-243, -349.87426
-242, -349.87426
-241.5, -350.74029
-240.5, -350.74029
-240, -349.87426
-239, -349.87426
-238.5, -349.00824
-237.5, -349.00824
-237, -349.87426
-236, -349.87426
-235.5, -349.00824
-234.5, -349.00824
-234, -348.14221
-234.5, -347.27619
-234, -346.41016
-234.5, -345.54414
-234, -344.67811
-233, -344.67811
-232.5, -343.81209
-233, -342.94606
-232.5, -342.08003
-233, -341.21401
-232.5, -340.34798
-231.5, -340.34798
-231, -339.48196
-230, -339.48196
-229.5, -340.34798
-228.5, -340.34798
-228, -339.48196
-227, -339.48196
-226.5, -338.61593
-227, -337.74991
-226.5, -336.88388
-227, -336.01786
-226.5, -335.15183
-225.5, -335.15183
-225, -334.28581
-225.5, -333.41978
-225, -332.55376
-225.5, -331.68773
-225, -330.8217
-224, -330.8217
-223.5, -329.95568
-222.5, -329.95568
-222, -330.8217
-221, -330.8217
-220.5, -329.95568
-219.5, -329.95568
-219, -329.08965
-218, -329.08965
-217.5, -329.95568
-216.5, -329.95568
-216, -330.8217
-216.5, -331.68773
-216, -332.55376
-215, -332.55376
-214.5, -333.41978
-213.5, -333.41978
-213, -332.55376
-212, -332.55376
-211.5, -331.68773
-210.5, -331.68773
-210, -332.55376
-209, -332.55376
-208.5, -331.68773
-207.5, -331.68773
-207, -330.8217
-206, -330.8217
-205.5, -331.68773
-204.5, -331.68773
-204, -332.55376
-204.5, -333.41978
-204, -334.28581
-203, -334.28581
-202.5, -335.15183
-201.5, -335.15183
-201, -336.01786
-201.5, -336.88388
-201, -337.74991
-201.5, -338.61593
-202.5, -338.61593
-203, -339.48196
-202.5, -340.34798
-203, -341.21401
-202.5, -342.08003
-201.5, -342.08003
-201, -342.94606
-200, -342.94606
-199.5, -343.81209
-200, -344.67811
-199.5, -345.54414
-198.5, -345.54414
-198, -346.41016
-197, -346.41016
-196.5, -345.54414
-195.5, -345.54414
-195, -344.67811
-194, -344.67811
-193.5, -345.54414
-192.5, -345.54414
-192, -344.67811
-191, -344.67811
-190.5, -343.81209
-189.5, -343.81209
-189, -344.67811
-188, -344.67811
-187.5, -345.54414
-188, -346.41016
-187.5, -347.27619
-186.5, -347.27619
-186, -348.14221
-185, -348.14221
-184.5, -347.27619
-183.5, -347.27619
-183, -346.41016
-182, -346.41016
-181.5, -347.27619
-180.5, -347.27619
-180, -346.41016
-179, -346.41016
-178.5, -345.54414
-179, -344.67811
-178.5, -343.81209
-179, -342.94606
-178.5, -342.08003
-177.5, -342.08003
-177, -341.21401
-177.5, -340.34798
-177, -339.48196
-177.5, -338.61593
-177, -337.74991
-176, -337.74991
-175.5, -336.88388
-174.5, -336.88388
-174, -337.74991
-173, -337.74991
-172.5, -336.88388
-171.5, -336.88388
-171, -336.01786
-171.5, -335.15183
-171, -334.28581
-171.5, -333.41978
-171, -332.55376
-170, -332.55376
-169.5, -331.68773
-170, -330.8217
-169.5, -329.95568
-170, -329.08965
-169.5, -328.22363
-168.5, -328.22363
-168, -327.3576
-167, -327.3576
-166.5, -328.22363
-165.5, -328.22363
-165, -327.3576
-164, -327.3576
-163.5, -326.49158
-162.5, -326.49158
-162, -327.3576
-161, -327.3576
-160.5, -328.22363
-161, -329.08965
-160.5, -329.95568
-159.5, -329.95568
-159, -330.8217
-158, -330.8217
-157.5, -329.95568
-156.5, -329.95568
-156, -329.08965
-155, -329.08965
-154.5, -329.95568
-153.5, -329.95568
-153, -329.08965
-152, -329.08965
-151.5, -328.22363
-152, -327.3576
-151.5, -326.49158
-152, -325.62555
-151.5, -324.75953
-150.5, -324.75953
-150, -323.8935
-150.5, -323.02748
-150, -322.16145
-150.5, -321.29542
-150, -320.4294
-149, -320.4294
-148.5, -319.56337
-147.5, -319.56337
-147, -320.4294
-146, -320.4294
-145.5, -319.56337
-144.5, -319.56337
-144, -318.69735
-144.5, -317.83132
-144, -316.9653
-144.5, -316.09927
-144, -315.23325
-143, -315.23325
-142.5, -314.36722
-143, -313.5012
-142.5, -312.63517
-143, -311.76915
-144, -311.76915
-144.5, -310.90312
-145.5, -310.90312
-146, -310.03709
-145.5, -309.17107
-146, -308.30504
-147, -308.30504
-147.5, -307.43902
-148.5, -307.43902
-149, -306.57299
-148.5, -305.70697
-149, -304.84094
-148.5, -303.97492
-147.5, -303.97492
-147, -303.10889
-147.5, -302.24287
-147, -301.37684
-147.5, -300.51082
-148.5, -300.51082
-149, -299.64479
-150, -299.64479
-150.5, -298.77876
-150, -297.91274
-150.5, -297.04671
-151.5, -297.04671
-152, -296.18069
-153, -296.18069
-153.5, -295.31466
-153, -294.44864
-153.5, -293.58261
-153, -292.71659
-152, -292.71659
-151.5, -291.85056
-152, -290.98454
-151.5, -290.11851
-152, -289.25248
-151.5, -288.38646
-150.5, -288.38646
-150, -287.52043
-149, -287.52043
-148.5, -288.38646
-147.5, -288.38646
-147, -287.52043
-146, -287.52043
-145.5, -286.65441
-146, -285.78838
-145.5, -284.92236
-146, -284.05633
-145.5, -283.19031
-144.5, -283.19031
-144, -282.32428
-144.5, -281.45826
-144, -280.59223
-144.5, -279.72621
-145.5, -279.72621
-146, -278.86018
-147, -278.86018
-147.5, -277.99415
-147, -277.12813
-147.5, -276.2621
-148.5, -276.2621
-149, -275.39608
-150, -275.39608
-150.5, -274.53005
-150, -273.66403
-150.5, -272.798
-150, -271.93198
-149, -271.93198
-148.5, -271.06595
-149, -270.19993
-148.5, -269.3339
-149, -268.46788
-150, -268.46788
-150.5, -267.60185
-151.5, -267.60185
-152, -266.73582
-151.5, -265.8698
-152, -265.00377
-153, -265.00377
-153.5, -264.13775
-154.5, -264.13775
-155, -263.27172
-154.5, -262.4057
-155, -261.53967
-154.5, -260.67365
-153.5, -260.67365
-153, -259.80762
-153.5, -258.9416
-153, -258.07557
-153.5, -257.20954
-153, -256.34352
-152, -256.34352
-151.5, -255.47749
-150.5, -255.47749
-150, -256.34352
-149, -256.34352
-148.5, -255.47749
-147.5, -255.47749
-147, -254.61147
-147.5, -253.74544
-147, -252.87942
-147.5, -252.01339
-147, -251.14737
-146, -251.14737
-145.5, -250.28134
-146, -249.41532
-145.5, -248.54929
-146, -247.68327
-145.5, -246.81724
-144.5, -246.81724
-144, -245.95121
-143, -245.95121
-142.5, -246.81724
-141.5, -246.81724
-141, -245.95121
-140, -245.95121
-139.5, -245.08519
-138.5, -245.08519
-138, -245.95121
-137, -245.95121
-136.5, -246.81724
-137, -247.68327
-136.5, -248.54929
-135.5, -248.54929
-135, -249.41532
-134, -249.41532
-133.5, -248.54929
-132.5, -248.54929
-132, -247.68327
-131, -247.68327
-130.5, -248.54929
-129.5, -248.54929
-129, -247.68327
-128, -247.68327
-127.5, -246.81724
-128, -245.95121
-127.5, -245.08519
-128, -244.21916
-127.5, -243.35314
-126.5, -243.35314
-126, -242.48711
-126.5, -241.62109
-126, -240.75506
-126.5, -239.88904
-126, -239.02301
-125, -239.02301
-124.5, -238.15699
-123.5, -238.15699
-123, -239.02301
-122, -239.02301
-121.5, -238.15699
-120.5, -238.15699
-120, -237.29096
-120.5, -236.42494
-120, -235.55891
-120.5, -234.69288
-120, -233.82686
-119, -233.82686
-118.5, -232.96083
-119, -232.09481
-118.5, -231.22878
-119, -230.36276
-120, -230.36276
-120.5, -229.49673
-121.5, -229.49673
-122, -228.63071
-121.5, -227.76468
-122, -226.89866
-123, -226.89866
-123.5, -226.03263
-124.5, -226.03263
-125, -225.1666
-124.5, -224.30058
-125, -223.43455
-124.5, -222.56853
-123.5, -222.56853
-123, -221.7025
-123.5, -220.83648
-123, -219.97045
-123.5, -219.10443
-124.5, -219.10443
-125, -218.2384
-126, -218.2384
-126.5, -217.37238
-126, -216.50635
-126.5, -215.64033
-127.5, -215.64033
-128, -214.7743
-129, -214.7743
-129.5, -213.90827
-129, -213.04225
-129.5, -212.17622
-129, -211.3102
-128, -211.3102
-127.5, -210.44417
-128, -209.57815
-127.5, -208.71212
-128, -207.8461
-127.5, -206.98007
-126.5, -206.98007
-126, -206.11405
-125, -206.11405
-124.5, -206.98007
-123.5, -206.98007
-123, -206.11405
-122, -206.11405
-121.5, -205.24802
-122, -204.382
-121.5, -203.51597
-122, -202.64994
-121.5, -201.78392
-120.5, -201.78392
-120, -200.91789
-120.5, -200.05187
-120, -199.18584
-120.5, -198.31982
-121.5, -198.31982
-122, -197.45379
-123, -197.45379
-123.5, -196.58777
-123, -195.72174
-123.5, -194.85572
-124.5, -194.85572
-125, -193.98969
-126, -193.98969
-126.5, -193.12367
-126, -192.25764
-126.5, -191.39161
-126, -190.52559
-125, -190.52559
-124.5, -189.65956
-125, -188.79354
-124.5, -187.92751
-125, -187.06149
-126, -187.06149
-126.5, -186.19546
-127.5, -186.19546
-128, -185.32944
-127.5, -184.46341
-128, -183.59739
-129, -183.59739
-129.5, -182.73136
-130.5, -182.73136
-131, -181.86533
-130.5, -180.99931
-131, -180.13328
-130.5, -179.26726
-129.5, -179.26726
-129, -178.40123
-129.5, -177.53521
-129, -176.66918
-129.5, -175.80316
-129, -174.93713
-128, -174.93713
-127.5, -174.07111
-126.5, -174.07111
-126, -174.93713
-125, -174.93713
-124.5, -174.07111
-123.5, -174.07111
-123, -173.20508
-123.5, -172.33906
-123, -171.47303
-123.5, -170.607
-123, -169.74098
-122, -169.74098
-121.5, -168.87495
-122, -168.00893
-121.5, -167.1429
-122, -166.27688
-121.5, -165.41085
-120.5, -165.41085
-120, -164.54483
-119, -164.54483
-118.5, -165.41085
-117.5, -165.41085
-117, -164.54483
-116, -164.54483
-115.5, -163.6788
-114.5, -163.6788
-114, -164.54483
-113, -164.54483
-112.5, -165.41085
-113, -166.27688
-112.5, -167.1429
-111.5, -167.1429
-111, -168.00893
-110, -168.00893
-109.5, -167.1429
-108.5, -167.1429
-108, -166.27688
-107, -166.27688
-106.5, -167.1429
-105.5, -167.1429
-105, -166.27688
-104, -166.27688
-103.5, -165.41085
-104, -164.54483
-103.5, -163.6788
-104, -162.81278
-103.5, -161.94675
-102.5, -161.94675
-102, -161.08073
-102.5, -160.2147
-102, -159.34867
-102.5, -158.48265
-102, -157.61662
-101, -157.61662
-100.5, -156.7506
-99.5, -156.7506
-99, -157.61662
-98, -157.61662
-97.5, -156.7506
-96.5, -156.7506
-96, -155.88457
-96.5, -155.01855
-96, -154.15252
-96.5, -153.2865
-96, -152.42047
-95, -152.42047
-94.5, -151.55445
-95, -150.68842
-94.5, -149.82239
-95, -148.95637
-94.5, -148.09034
-93.5, -148.09034
-93, -147.22432
-92, -147.22432
-91.5, -148.09034
-90.5, -148.09034
-90, -147.22432
-89, -147.22432
-88.5, -146.35829
-87.5, -146.35829
-87, -147.22432
-86, -147.22432
-85.5, -148.09034
-86, -148.95637
-85.5, -149.82239
-84.5, -149.82239
-84, -150.68842
-83, -150.68842
-82.5, -149.82239
-81.5, -149.82239
-81, -148.95637
-80, -148.95637
-79.5, -149.82239
-78.5, -149.82239
-78, -148.95637
-77, -148.95637
-76.5, -148.09034
-75.5, -148.09034
-75, -148.95637
-74, -148.95637
-73.5, -149.82239
-74, -150.68842
-73.5, -151.55445
-72.5, -151.55445
-72, -152.42047
-71, -152.42047
-70.5, -153.2865
-71, -154.15252
-70.5, -155.01855
-71, -155.88457
-72, -155.88457
-72.5, -156.7506
-72, -157.61662
-72.5, -158.48265
-72, -159.34867
-71, -159.34867
-70.5, -160.2147
-69.5, -160.2147
-69, -161.08073
-69.5, -161.94675
-69, -162.81278
-68, -162.81278
-67.5, -163.6788
-66.5, -163.6788
-66, -162.81278
-65, -162.81278
-64.5, -161.94675
-63.5, -161.94675
-63, -162.81278
-62, -162.81278
-61.5, -161.94675
-60.5, -161.94675
-60, -161.08073
-59, -161.08073
-58.5, -161.94675
-57.5, -161.94675
-57, -162.81278
-57.5, -163.6788
-57, -164.54483
-56, -164.54483
-55.5, -165.41085
-54.5, -165.41085
-54, -164.54483
-53, -164.54483
-52.5, -163.6788
-51.5, -163.6788
-51, -164.54483
-50, -164.54483
-49.5, -163.6788
-48.5, -163.6788
-48, -162.81278
-48.5, -161.94675
-48, -161.08073
-48.5, -160.2147
-48, -159.34867
-47, -159.34867
-46.5, -158.48265
-47, -157.61662
-46.5, -156.7506
-47, -155.88457
-46.5, -155.01855
-45.5, -155.01855
-45, -154.15252
-44, -154.15252
-43.5, -155.01855
-42.5, -155.01855
-42, -154.15252
-41, -154.15252
-40.5, -153.2865
-41, -152.42047
-40.5, -151.55445
-41, -150.68842
-40.5, -149.82239
-39.5, -149.82239
-39, -148.95637
-39.5, -148.09034
-39, -147.22432
-39.5, -146.35829
-39, -145.49227
-38, -145.49227
-37.5, -144.62624
-36.5, -144.62624
-36, -145.49227
-35, -145.49227
-34.5, -144.62624
-33.5, -144.62624
-33, -143.76022
-32, -143.76022
-31.5, -144.62624
-30.5, -144.62624
-30, -145.49227
-30.5, -146.35829
-30, -147.22432
-29, -147.22432
-28.5, -148.09034
-27.5, -148.09034
-27, -147.22432
-26, -147.22432
-25.5, -146.35829
-24.5, -146.35829
-24, -147.22432
-23, -147.22432
-22.5, -146.35829
-21.5, -146.35829
-21, -145.49227
-21.5, -144.62624
-21, -143.76022
-21.5, -142.89419
-21, -142.02817
-20, -142.02817
-19.5, -141.16214
-20, -140.29612
-19.5, -139.43009
-20, -138.56406
-19.5, -137.69804
-18.5, -137.69804
-18, -136.83201
-17, -136.83201
-16.5, -137.69804
-15.5, -137.69804
-15, -136.83201
-14, -136.83201
-13.5, -135.96599
-14, -135.09996
-13.5, -134.23394
-14, -133.36791
-13.5, -132.50189
-12.5, -132.50189
-12, -131.63586
-12.5, -130.76984
-12, -129.90381
-12.5, -129.03779
-13.5, -129.03779
-14, -128.17176
-15, -128.17176
-15.5, -127.30573
-15, -126.43971
-15.5, -125.57368
-16.5, -125.57368
-17, -124.70766
-18, -124.70766
-18.5, -123.84163
-18, -122.97561
-18.5, -122.10958
-18, -121.24356
-17, -121.24356
-16.5, -120.37753
-17, -119.51151
-16.5, -118.64548
-17, -117.77945
-18, -117.77945
-18.5, -116.91343
-19.5, -116.91343
-20, -116.0474
-19.5, -115.18138
-20, -114.31535
-21, -114.31535
-21.5, -113.44933
-22.5, -113.44933
-23, -112.5833
-22.5, -111.71728
-23, -110.85125
-22.5, -109.98523
-21.5, -109.98523
-21, -109.1192
-21.5, -108.25318
-21, -107.38715
-21.5, -106.52112
-21, -105.6551
-20, -105.6551
-19.5, -104.78907
-18.5, -104.78907
-18, -105.6551
-17, -105.6551
-16.5, -104.78907
-15.5, -104.78907
-15, -103.92305
-15.5, -103.05702
-15, -102.191
-15.5, -101.32497
-15, -100.45895
-14, -100.45895
-13.5, -99.59292
-14, -98.7269
-13.5, -97.86087
-14, -96.99485
-15, -96.99485
-15.5, -96.12882
-16.5, -96.12882
-17, -95.26279
-16.5, -94.39677
-17, -93.53074
-18, -93.53074
-18.5, -92.66472
-19.5, -92.66472
-20, -91.79869
-19.5, -90.93267
-20, -90.06664
-19.5, -89.20062
-18.5, -89.20062
-18, -88.33459
-18.5, -87.46857
-18, -86.60254
-18.5, -85.73651
-19.5, -85.73651
-20, -84.87049
-21, -84.87049
-21.5, -84.00446
-21, -83.13844
-21.5, -82.27241
-22.5, -82.27241
-23, -81.40639
-24, -81.40639
-24.5, -80.54036
-24, -79.67434
-24.5, -78.80831
-24, -77.94229
-23, -77.94229
-22.5, -77.07626
-23, -76.21024
-22.5, -75.34421
-23, -74.47818
-22.5, -73.61216
-21.5, -73.61216
-21, -72.74613
-20, -72.74613
-19.5, -73.61216
-18.5, -73.61216
-18, -72.74613
-17, -72.74613
-16.5, -71.88011
-17, -71.01408
-16.5, -70.14806
-17, -69.28203
-16.5, -68.41601
-15.5, -68.41601
-15, -67.54998
-15.5, -66.68396
-15, -65.81793
-15.5, -64.95191
-15, -64.08588
-14, -64.08588
-13.5, -63.21985
-12.5, -63.21985
-12, -64.08588
-11, -64.08588
-10.5, -63.21985
-9.5, -63.21985
-9, -62.35383
-8, -62.35383
-7.5, -63.21985
-6.5, -63.21985
-6, -64.08588
-6.5, -64.95191
-6, -65.81793
-5, -65.81793
-4.5, -66.68396
-3.5, -66.68396
-3, -65.81793
-2, -65.81793
-1.5, -64.95191
-0.5, -64.95191
-0, -65.81793
1, -65.81793
1.5, -64.95191
2.5, -64.95191
3, -64.08588
2.5, -63.21985
3, -62.35383
2.5, -61.4878
3, -60.62178
4, -60.62178
4.5, -59.75575
4, -58.88973
4.5, -58.0237
4, -57.15768
4.5, -56.29165
5.5, -56.29165
6, -55.42563
7, -55.42563
7.5, -56.29165
8.5, -56.29165
9, -55.42563
10, -55.42563
10.5, -54.5596
10, -53.69358
10.5, -52.82755
10, -51.96152
10.5, -51.0955
11.5, -51.0955
12, -50.22947
11.5, -49.36345
12, -48.49742
11.5, -47.6314
10.5, -47.6314
10, -46.76537
9, -46.76537
8.5, -45.89935
9, -45.03332
8.5, -44.1673
7.5, -44.1673
7, -43.30127
6, -43.30127
5.5, -42.43524
6, -41.56922
5.5, -40.70319
6, -39.83717
7, -39.83717
7.5, -38.97114
7, -38.10512
7.5, -37.23909
7, -36.37307
6, -36.37307
5.5, -35.50704
4.5, -35.50704
4, -34.64102
4.5, -33.77499
4, -32.90897
3, -32.90897
2.5, -32.04294
1.5, -32.04294
1, -31.17691
1.5, -30.31089
1, -29.44486
1.5, -28.57884
2.5, -28.57884
3, -27.71281
2.5, -26.84679
3, -25.98076
2.5, -25.11474
3, -24.24871
4, -24.24871
4.5, -23.38269
5.5, -23.38269
6, -24.24871
7, -24.24871
7.5, -23.38269
8.5, -23.38269
9, -22.51666
8.5, -21.65064
9, -20.78461
8.5, -19.91858
9, -19.05256
10, -19.05256
10.5, -18.18653
10, -17.32051
10.5, -16.45448
10, -15.58846
9, -15.58846
8.5, -14.72243
7.5, -14.72243
7, -13.85641
7.5, -12.99038
7, -12.12436
6, -12.12436
5.5, -11.25833
4.5, -11.25833
4, -10.3923
4.5, -9.52628
4, -8.66025
4.5, -7.79423
5.5, -7.79423
6, -6.9282
5.5, -6.06218
6, -5.19615
5.5, -4.33013
4.5, -4.33013
4, -3.4641
3, -3.4641
2.5, -2.59808
3, -1.73205
2.5, -0.86603
1.5, -0.86603
1, 0
0, 0
" fill="none" stroke="black" stroke-width="0.2658947160061666"/>
</svg>