<svg xmlns="http://www.w3.org/2000/svg"
     xmlns:xlink="http://www.w3.org/1999/xlink"
     width="500" height="500" viewBox="-36.5 -53.69358 57 53.69358">
<rect x="-36.5" y="-53.69358" width="100%" height="100%" fill="white"/>
<polyline points="
11.5, -47.6314
11, -48.49742
10, -48.49742
10.5, -47.6314
10, -46.76537
9.5, -47.6314
9, -48.49742
9.5, -49.36345
9, -50.22947
8, -50.22947
7, -50.22947
7.5, -49.36345
8.5, -49.36345
8, -48.49742
7, -48.49742
6.5, -47.6314
7, -46.76537
7.5, -45.89935
8, -46.76537
7.5, -47.6314
8.5, -47.6314
9, -46.76537
8.5, -45.89935
9, -45.03332
9.5, -45.89935
10.5, -45.89935
10, -45.03332
9.5, -44.1673
8.5, -44.1673
8, -45.03332
7, -45.03332
7.5, -44.1673
7, -43.30127
6.5, -44.1673
6, -45.03332
6.5, -45.89935
6, -46.76537
5, -46.76537
5.5, -45.89935
5, -45.03332
4.5, -45.89935
4, -46.76537
4.5, -47.6314
5.5, -47.6314
6, -48.49742
6.5, -49.36345
5.5, -49.36345
5, -48.49742
4.5, -49.36345
5, -50.22947
4.5, -51.0955
3.5, -51.0955
4, -50.22947
3.5, -49.36345
3, -50.22947
2.5, -51.0955
3, -51.96152
2.5, -52.82755
1.5, -52.82755
0.5, -52.82755
1, -51.96152
2, -51.96152
1.5, -51.0955
0.5, -51.0955
-0, -51.96152
-1, -51.96152
-2, -51.96152
-1.5, -51.0955
-0.5, -51.0955
-1, -50.22947
-2, -50.22947
-2.5, -49.36345
-2, -48.49742
-1.5, -47.6314
-1, -48.49742
-1.5, -49.36345
-0.5, -49.36345
-0, -48.49742
1, -48.49742
1.5, -49.36345
0.5, -49.36345
-0, -50.22947
1, -50.22947
2, -50.22947
2.5, -49.36345
2, -48.49742
2.5, -47.6314
3, -48.49742
4, -48.49742
3.5, -47.6314
3, -46.76537
2, -46.76537
1.5, -47.6314
0.5, -47.6314
-0.5, -47.6314
-0, -46.76537
1, -46.76537
0.5, -45.89935
-0.5, -45.89935
-1, -45.03332
-0.5, -44.1673
-0, -45.03332
1, -45.03332
0.5, -44.1673
-0, -43.30127
-1, -43.30127
-1.5, -42.43524
-1, -41.56922
-0.5, -40.70319
-0, -41.56922
-0.5, -42.43524
0.5, -42.43524
1, -41.56922
0.5, -40.70319
1, -39.83717
1.5, -38.97114
2, -39.83717
1.5, -40.70319
2.5, -40.70319
3, -39.83717
4, -39.83717
4.5, -40.70319
5, -41.56922
4, -41.56922
3.5, -40.70319
3, -41.56922
3.5, -42.43524
3, -43.30127
2, -43.30127
2.5, -42.43524
2, -41.56922
1.5, -42.43524
1, -43.30127
1.5, -44.1673
2.5, -44.1673
3, -45.03332
2, -45.03332
1.5, -45.89935
2.5, -45.89935
3.5, -45.89935
4, -45.03332
3.5, -44.1673
4, -43.30127
4.5, -42.43524
5, -43.30127
4.5, -44.1673
5.5, -44.1673
6, -43.30127
5.5, -42.43524
6, -41.56922
6.5, -42.43524
7.5, -42.43524
7, -41.56922
6.5, -40.70319
5.5, -40.70319
5, -39.83717
5.5, -38.97114
6, -38.10512
6.5, -38.97114
6, -39.83717
7, -39.83717
7.5, -38.97114
8.5, -38.97114
9, -39.83717
9.5, -40.70319
8.5, -40.70319
8, -39.83717
7.5, -40.70319
8, -41.56922
9, -41.56922
9.5, -42.43524
8.5, -42.43524
8, -43.30127
9, -43.30127
10, -43.30127
10.5, -42.43524
10, -41.56922
10.5, -40.70319
11, -41.56922
12, -41.56922
11.5, -40.70319
11, -39.83717
10, -39.83717
9.5, -38.97114
10, -38.10512
10.5, -38.97114
11.5, -38.97114
11, -38.10512
10.5, -37.23909
9.5, -37.23909
9, -38.10512
8, -38.10512
7, -38.10512
7.5, -37.23909
8.5, -37.23909
8, -36.37307
7, -36.37307
6.5, -37.23909
5.5, -37.23909
6, -36.37307
5.5, -35.50704
5, -36.37307
4.5, -37.23909
5, -38.10512
4.5, -38.97114
3.5, -38.97114
2.5, -38.97114
3, -38.10512
4, -38.10512
3.5, -37.23909
2.5, -37.23909
2, -36.37307
2.5, -35.50704
3, -34.64102
3.5, -35.50704
3, -36.37307
4, -36.37307
4.5, -35.50704
4, -34.64102
4.5, -33.77499
5, -34.64102
6, -34.64102
5.5, -33.77499
5, -32.90897
4, -32.90897
3.5, -33.77499
2.5, -33.77499
3, -32.90897
2.5, -32.04294
2, -32.90897
1.5, -33.77499
2, -34.64102
1.5, -35.50704
0.5, -35.50704
1, -34.64102
0.5, -33.77499
-0, -34.64102
-0.5, -35.50704
-0, -36.37307
1, -36.37307
1.5, -37.23909
2, -38.10512
1, -38.10512
0.5, -37.23909
-0, -38.10512
0.5, -38.97114
-0, -39.83717
-1, -39.83717
-0.5, -38.97114
-1, -38.10512
-1.5, -38.97114
-2, -39.83717
-1.5, -40.70319
-2, -41.56922
-3, -41.56922
-4, -41.56922
-3.5, -40.70319
-2.5, -40.70319
-3, -39.83717
-4, -39.83717
-4.5, -38.97114
-4, -38.10512
-3.5, -37.23909
-3, -38.10512
-3.5, -38.97114
-2.5, -38.97114
-2, -38.10512
-2.5, -37.23909
-2, -36.37307
-1.5, -37.23909
-0.5, -37.23909
-1, -36.37307
-1.5, -35.50704
-2.5, -35.50704
-3, -36.37307
-4, -36.37307
-3.5, -35.50704
-4, -34.64102
-4.5, -35.50704
-5, -36.37307
-4.5, -37.23909
-5, -38.10512
-6, -38.10512
-5.5, -37.23909
-6, -36.37307
-6.5, -37.23909
-7, -38.10512
-6.5, -38.97114
-5.5, -38.97114
-5, -39.83717
-4.5, -40.70319
-5.5, -40.70319
-6, -39.83717
-6.5, -40.70319
-6, -41.56922
-5, -41.56922
-4.5, -42.43524
-5.5, -42.43524
-6, -43.30127
-5, -43.30127
-4, -43.30127
-3.5, -42.43524
-2.5, -42.43524
-2, -43.30127
-1.5, -44.1673
-2.5, -44.1673
-3, -43.30127
-3.5, -44.1673
-3, -45.03332
-2, -45.03332
-1.5, -45.89935
-1, -46.76537
-2, -46.76537
-2.5, -45.89935
-3, -46.76537
-2.5, -47.6314
-3, -48.49742
-4, -48.49742
-5, -48.49742
-4.5, -47.6314
-3.5, -47.6314
-4, -46.76537
-5, -46.76537
-5.5, -45.89935
-5, -45.03332
-4.5, -45.89935
-3.5, -45.89935
-4, -45.03332
-4.5, -44.1673
-5.5, -44.1673
-6, -45.03332
-7, -45.03332
-6.5, -44.1673
-7, -43.30127
-7.5, -44.1673
-8, -45.03332
-7.5, -45.89935
-6.5, -45.89935
-6, -46.76537
-5.5, -47.6314
-6.5, -47.6314
-7, -46.76537
-7.5, -47.6314
-7, -48.49742
-7.5, -49.36345
-8.5, -49.36345
-8, -48.49742
-8.5, -47.6314
-9, -48.49742
-9.5, -49.36345
-9, -50.22947
-9.5, -51.0955
-10.5, -51.0955
-11.5, -51.0955
-11, -50.22947
-10, -50.22947
-10.5, -49.36345
-11.5, -49.36345
-12, -48.49742
-11.5, -47.6314
-11, -46.76537
-10.5, -47.6314
-11, -48.49742
-10, -48.49742
-9.5, -47.6314
-10, -46.76537
-9.5, -45.89935
-9, -46.76537
-8, -46.76537
-8.5, -45.89935
-9, -45.03332
-10, -45.03332
-10.5, -45.89935
-11.5, -45.89935
-11, -45.03332
-11.5, -44.1673
-12, -45.03332
-12.5, -45.89935
-12, -46.76537
-12.5, -47.6314
-13.5, -47.6314
-13, -46.76537
-13.5, -45.89935
-14, -46.76537
-14.5, -47.6314
-14, -48.49742
-13, -48.49742
-12.5, -49.36345
-12, -50.22947
-13, -50.22947
-13.5, -49.36345
-14, -50.22947
-13.5, -51.0955
-14, -51.96152
-15, -51.96152
-14.5, -51.0955
-15, -50.22947
-15.5, -51.0955
-16, -51.96152
-15.5, -52.82755
-16, -53.69358
-17, -53.69358
-18, -53.69358
-17.5, -52.82755
-16.5, -52.82755
-17, -51.96152
-18, -51.96152
-18.5, -52.82755
-19.5, -52.82755
-20.5, -52.82755
-20, -51.96152
-19, -51.96152
-19.5, -51.0955
-20.5, -51.0955
-21, -50.22947
-20.5, -49.36345
-20, -48.49742
-19.5, -49.36345
-20, -50.22947
-19, -50.22947
-18.5, -49.36345
-17.5, -49.36345
-17, -50.22947
-18, -50.22947
-18.5, -51.0955
-17.5, -51.0955
-16.5, -51.0955
-16, -50.22947
-16.5, -49.36345
-16, -48.49742
-15.5, -49.36345
-14.5, -49.36345
-15, -48.49742
-15.5, -47.6314
-16.5, -47.6314
-17, -48.49742
-18, -48.49742
-19, -48.49742
-18.5, -47.6314
-17.5, -47.6314
-18, -46.76537
-19, -46.76537
-19.5, -47.6314
-20.5, -47.6314
-20, -46.76537
-20.5, -45.89935
-21, -46.76537
-21.5, -47.6314
-21, -48.49742
-21.5, -49.36345
-22.5, -49.36345
-23.5, -49.36345
-23, -48.49742
-22, -48.49742
-22.5, -47.6314
-23.5, -47.6314
-24, -48.49742
-25, -48.49742
-26, -48.49742
-25.5, -47.6314
-24.5, -47.6314
-25, -46.76537
-26, -46.76537
-26.5, -45.89935
-26, -45.03332
-25.5, -44.1673
-25, -45.03332
-25.5, -45.89935
-24.5, -45.89935
-24, -45.03332
-23, -45.03332
-22.5, -45.89935
-23.5, -45.89935
-24, -46.76537
-23, -46.76537
-22, -46.76537
-21.5, -45.89935
-22, -45.03332
-21.5, -44.1673
-21, -45.03332
-20, -45.03332
-20.5, -44.1673
-21, -43.30127
-22, -43.30127
-22.5, -44.1673
-23.5, -44.1673
-24.5, -44.1673
-24, -43.30127
-23, -43.30127
-23.5, -42.43524
-24.5, -42.43524
-25, -41.56922
-24.5, -40.70319
-24, -41.56922
-23, -41.56922
-23.5, -40.70319
-24, -39.83717
-25, -39.83717
-25.5, -38.97114
-25, -38.10512
-24.5, -37.23909
-24, -38.10512
-24.5, -38.97114
-23.5, -38.97114
-23, -38.10512
-23.5, -37.23909
-23, -36.37307
-22.5, -35.50704
-22, -36.37307
-22.5, -37.23909
-21.5, -37.23909
-21, -36.37307
-20, -36.37307
-19.5, -37.23909
-19, -38.10512
-20, -38.10512
-20.5, -37.23909
-21, -38.10512
-20.5, -38.97114
-21, -39.83717
-22, -39.83717
-21.5, -38.97114
-22, -38.10512
-22.5, -38.97114
-23, -39.83717
-22.5, -40.70319
-21.5, -40.70319
-21, -41.56922
-22, -41.56922
-22.5, -42.43524
-21.5, -42.43524
-20.5, -42.43524
-20, -41.56922
-20.5, -40.70319
-20, -39.83717
-19.5, -38.97114
-19, -39.83717
-19.5, -40.70319
-18.5, -40.70319
-18, -39.83717
-17, -39.83717
-16.5, -40.70319
-17.5, -40.70319
-18, -41.56922
-17, -41.56922
-16, -41.56922
-15.5, -40.70319
-14.5, -40.70319
-14, -41.56922
-13.5, -42.43524
-14.5, -42.43524
-15, -41.56922
-15.5, -42.43524
-15, -43.30127
-15.5, -44.1673
-16.5, -44.1673
-17.5, -44.1673
-17, -43.30127
-16, -43.30127
-16.5, -42.43524
-17.5, -42.43524
-18, -43.30127
-19, -43.30127
-18.5, -42.43524
-19, -41.56922
-19.5, -42.43524
-20, -43.30127
-19.5, -44.1673
-18.5, -44.1673
-18, -45.03332
-19, -45.03332
-19.5, -45.89935
-18.5, -45.89935
-17.5, -45.89935
-17, -45.03332
-16, -45.03332
-15.5, -45.89935
-16.5, -45.89935
-17, -46.76537
-16, -46.76537
-15, -46.76537
-14.5, -45.89935
-15, -45.03332
-14.5, -44.1673
-14, -43.30127
-13.5, -44.1673
-14, -45.03332
-13, -45.03332
-12.5, -44.1673
-13, -43.30127
-12.5, -42.43524
-12, -43.30127
-11, -43.30127
-11.5, -42.43524
-12, -41.56922
-13, -41.56922
-13.5, -40.70319
-13, -39.83717
-12.5, -38.97114
-12, -39.83717
-12.5, -40.70319
-11.5, -40.70319
-11, -39.83717
-10, -39.83717
-9.5, -40.70319
-9, -41.56922
-10, -41.56922
-10.5, -40.70319
-11, -41.56922
-10.5, -42.43524
-9.5, -42.43524
-9, -43.30127
-10, -43.30127
-10.5, -44.1673
-9.5, -44.1673
-8.5, -44.1673
-8, -43.30127
-8.5, -42.43524
-8, -41.56922
-7.5, -42.43524
-6.5, -42.43524
-7, -41.56922
-7.5, -40.70319
-8.5, -40.70319
-9, -39.83717
-8.5, -38.97114
-8, -39.83717
-7, -39.83717
-7.5, -38.97114
-8, -38.10512
-9, -38.10512
-9.5, -38.97114
-10.5, -38.97114
-11.5, -38.97114
-11, -38.10512
-10, -38.10512
-10.5, -37.23909
-11.5, -37.23909
-12, -38.10512
-13, -38.10512
-12.5, -37.23909
-13, -36.37307
-13.5, -37.23909
-14, -38.10512
-13.5, -38.97114
-14, -39.83717
-15, -39.83717
-16, -39.83717
-15.5, -38.97114
-14.5, -38.97114
-15, -38.10512
-16, -38.10512
-16.5, -38.97114
-17.5, -38.97114
-18.5, -38.97114
-18, -38.10512
-17, -38.10512
-17.5, -37.23909
-18.5, -37.23909
-19, -36.37307
-18.5, -35.50704
-18, -34.64102
-17.5, -35.50704
-18, -36.37307
-17, -36.37307
-16.5, -35.50704
-15.5, -35.50704
-15, -36.37307
-16, -36.37307
-16.5, -37.23909
-15.5, -37.23909
-14.5, -37.23909
-14, -36.37307
-14.5, -35.50704
-14, -34.64102
-13.5, -35.50704
-12.5, -35.50704
-13, -34.64102
-13.5, -33.77499
-14.5, -33.77499
-15, -34.64102
-16, -34.64102
-17, -34.64102
-16.5, -33.77499
-15.5, -33.77499
-16, -32.90897
-17, -32.90897
-17.5, -33.77499
-18.5, -33.77499
-18, -32.90897
-18.5, -32.04294
-19, -32.90897
-19.5, -33.77499
-19, -34.64102
-19.5, -35.50704
-20.5, -35.50704
-21.5, -35.50704
-21, -34.64102
-20, -34.64102
-20.5, -33.77499
-21.5, -33.77499
-22, -32.90897
-21.5, -32.04294
-21, -31.17691
-20.5, -32.04294
-21, -32.90897
-20, -32.90897
-19.5, -32.04294
-20, -31.17691
-19.5, -30.31089
-19, -31.17691
-18, -31.17691
-18.5, -30.31089
-19, -29.44486
-20, -29.44486
-20.5, -30.31089
-21.5, -30.31089
-21, -29.44486
-21.5, -28.57884
-22, -29.44486
-22.5, -30.31089
-22, -31.17691
-22.5, -32.04294
-23.5, -32.04294
-23, -31.17691
-23.5, -30.31089
-24, -31.17691
-24.5, -32.04294
-24, -32.90897
-23, -32.90897
-22.5, -33.77499
-22, -34.64102
-23, -34.64102
-23.5, -33.77499
-24, -34.64102
-23.5, -35.50704
-24, -36.37307
-25, -36.37307
-24.5, -35.50704
-25, -34.64102
-25.5, -35.50704
-26, -36.37307
-25.5, -37.23909
-26, -38.10512
-27, -38.10512
-28, -38.10512
-27.5, -37.23909
-26.5, -37.23909
-27, -36.37307
-28, -36.37307
-28.5, -37.23909
-29.5, -37.23909
-30.5, -37.23909
-30, -36.37307
-29, -36.37307
-29.5, -35.50704
-30.5, -35.50704
-31, -34.64102
-30.5, -33.77499
-30, -32.90897
-29.5, -33.77499
-30, -34.64102
-29, -34.64102
-28.5, -33.77499
-27.5, -33.77499
-27, -34.64102
-28, -34.64102
-28.5, -35.50704
-27.5, -35.50704
-26.5, -35.50704
-26, -34.64102
-26.5, -33.77499
-26, -32.90897
-25.5, -33.77499
-24.5, -33.77499
-25, -32.90897
-25.5, -32.04294
-26.5, -32.04294
-27, -32.90897
-28, -32.90897
-29, -32.90897
-28.5, -32.04294
-27.5, -32.04294
-28, -31.17691
-29, -31.17691
-29.5, -32.04294
-30.5, -32.04294
-30, -31.17691
-30.5, -30.31089
-31, -31.17691
-31.5, -32.04294
-31, -32.90897
-31.5, -33.77499
-32.5, -33.77499
-33.5, -33.77499
-33, -32.90897
-32, -32.90897
-32.5, -32.04294
-33.5, -32.04294
-34, -32.90897
-35, -32.90897
-36, -32.90897
-35.5, -32.04294
-34.5, -32.04294
-35, -31.17691
-36, -31.17691
-36.5, -30.31089
-36, -29.44486
-35.5, -28.57884
-35, -29.44486
-35.5, -30.31089
-34.5, -30.31089
-34, -29.44486
-33, -29.44486
-32.5, -30.31089
-33.5, -30.31089
-34, -31.17691
-33, -31.17691
-32, -31.17691
-31.5, -30.31089
-32, -29.44486
-31.5, -28.57884
-31, -29.44486
-30, -29.44486
-30.5, -28.57884
-31, -27.71281
-32, -27.71281
-32.5, -28.57884
-33.5, -28.57884
-34.5, -28.57884
-34, -27.71281
-33, -27.71281
-33.5, -26.84679
-34.5, -26.84679
-35, -25.98076
-34.5, -25.11474
-34, -25.98076
-33, -25.98076
-33.5, -25.11474
-34, -24.24871
-35, -24.24871
-35.5, -23.38269
-35, -22.51666
-34.5, -21.65064
-34, -22.51666
-34.5, -23.38269
-33.5, -23.38269
-33, -22.51666
-33.5, -21.65064
-33, -20.78461
-32.5, -19.91858
-32, -20.78461
-32.5, -21.65064
-31.5, -21.65064
-31, -20.78461
-30, -20.78461
-29.5, -21.65064
-29, -22.51666
-30, -22.51666
-30.5, -21.65064
-31, -22.51666
-30.5, -23.38269
-31, -24.24871
-32, -24.24871
-31.5, -23.38269
-32, -22.51666
-32.5, -23.38269
-33, -24.24871
-32.5, -25.11474
-31.5, -25.11474
-31, -25.98076
-32, -25.98076
-32.5, -26.84679
-31.5, -26.84679
-30.5, -26.84679
-30, -25.98076
-30.5, -25.11474
-30, -24.24871
-29.5, -23.38269
-29, -24.24871
-29.5, -25.11474
-28.5, -25.11474
-28, -24.24871
-27, -24.24871
-26.5, -25.11474
-27.5, -25.11474
-28, -25.98076
-27, -25.98076
-26, -25.98076
-25.5, -25.11474
-24.5, -25.11474
-24, -25.98076
-23.5, -26.84679
-24.5, -26.84679
-25, -25.98076
-25.5, -26.84679
-25, -27.71281
-25.5, -28.57884
-26.5, -28.57884
-27.5, -28.57884
-27, -27.71281
-26, -27.71281
-26.5, -26.84679
-27.5, -26.84679
-28, -27.71281
-29, -27.71281
-28.5, -26.84679
-29, -25.98076
-29.5, -26.84679
-30, -27.71281
-29.5, -28.57884
-28.5, -28.57884
-28, -29.44486
-29, -29.44486
-29.5, -30.31089
-28.5, -30.31089
-27.5, -30.31089
-27, -29.44486
-26, -29.44486
-25.5, -30.31089
-26.5, -30.31089
-27, -31.17691
-26, -31.17691
-25, -31.17691
-24.5, -30.31089
-25, -29.44486
-24.5, -28.57884
-24, -27.71281
-23.5, -28.57884
-24, -29.44486
-23, -29.44486
-22.5, -28.57884
-23, -27.71281
-22.5, -26.84679
-22, -27.71281
-21, -27.71281
-21.5, -26.84679
-22, -25.98076
-23, -25.98076
-23.5, -25.11474
-23, -24.24871
-22.5, -23.38269
-22, -24.24871
-22.5, -25.11474
-21.5, -25.11474
-21, -24.24871
-20, -24.24871
-19.5, -25.11474
-19, -25.98076
-20, -25.98076
-20.5, -25.11474
-21, -25.98076
-20.5, -26.84679
-19.5, -26.84679
-19, -27.71281
-20, -27.71281
-20.5, -28.57884
-19.5, -28.57884
-18.5, -28.57884
-18, -27.71281
-18.5, -26.84679
-18, -25.98076
-17.5, -26.84679
-16.5, -26.84679
-17, -25.98076
-17.5, -25.11474
-18.5, -25.11474
-19, -24.24871
-18.5, -23.38269
-18, -24.24871
-17, -24.24871
-17.5, -23.38269
-18, -22.51666
-19, -22.51666
-19.5, -23.38269
-20.5, -23.38269
-21.5, -23.38269
-21, -22.51666
-20, -22.51666
-20.5, -21.65064
-21.5, -21.65064
-22, -22.51666
-23, -22.51666
-22.5, -21.65064
-23, -20.78461
-23.5, -21.65064
-24, -22.51666
-23.5, -23.38269
-24, -24.24871
-25, -24.24871
-26, -24.24871
-25.5, -23.38269
-24.5, -23.38269
-25, -22.51666
-26, -22.51666
-26.5, -23.38269
-27.5, -23.38269
-28.5, -23.38269
-28, -22.51666
-27, -22.51666
-27.5, -21.65064
-28.5, -21.65064
-29, -20.78461
-28.5, -19.91858
-28, -19.05256
-27.5, -19.91858
-28, -20.78461
-27, -20.78461
-26.5, -19.91858
-25.5, -19.91858
-25, -20.78461
-26, -20.78461
-26.5, -21.65064
-25.5, -21.65064
-24.5, -21.65064
-24, -20.78461
-24.5, -19.91858
-24, -19.05256
-23.5, -19.91858
-22.5, -19.91858
-23, -19.05256
-23.5, -18.18653
-24.5, -18.18653
-25, -19.05256
-26, -19.05256
-27, -19.05256
-26.5, -18.18653
-25.5, -18.18653
-26, -17.32051
-27, -17.32051
-27.5, -16.45448
-27, -15.58846
-26.5, -16.45448
-25.5, -16.45448
-26, -15.58846
-26.5, -14.72243
-27.5, -14.72243
-28, -13.85641
-27.5, -12.99038
-27, -12.12436
-26.5, -12.99038
-27, -13.85641
-26, -13.85641
-25.5, -12.99038
-24.5, -12.99038
-24, -13.85641
-23.5, -14.72243
-24.5, -14.72243
-25, -13.85641
-25.5, -14.72243
-25, -15.58846
-24, -15.58846
-23.5, -16.45448
-24.5, -16.45448
-25, -17.32051
-24, -17.32051
-23, -17.32051
-22.5, -16.45448
-23, -15.58846
-22.5, -14.72243
-22, -15.58846
-21, -15.58846
-21.5, -14.72243
-22, -13.85641
-23, -13.85641
-23.5, -12.99038
-23, -12.12436
-22.5, -12.99038
-21.5, -12.99038
-22, -12.12436
-22.5, -11.25833
-23.5, -11.25833
-24, -12.12436
-25, -12.12436
-26, -12.12436
-25.5, -11.25833
-24.5, -11.25833
-25, -10.3923
-26, -10.3923
-26.5, -9.52628
-26, -8.66025
-25.5, -9.52628
-24.5, -9.52628
-25, -8.66025
-25.5, -7.79423
-26.5, -7.79423
-27, -6.9282
-26.5, -6.06218
-26, -5.19615
-25.5, -6.06218
-26, -6.9282
-25, -6.9282
-24.5, -6.06218
-25, -5.19615
-24.5, -4.33013
-24, -3.4641
-23.5, -4.33013
-24, -5.19615
-23, -5.19615
-22.5, -4.33013
-21.5, -4.33013
-21, -5.19615
-20.5, -6.06218
-21.5, -6.06218
-22, -5.19615
-22.5, -6.06218
-22, -6.9282
-22.5, -7.79423
-23.5, -7.79423
-23, -6.9282
-23.5, -6.06218
-24, -6.9282
-24.5, -7.79423
-24, -8.66025
-23, -8.66025
-22.5, -9.52628
-23.5, -9.52628
-24, -10.3923
-23, -10.3923
-22, -10.3923
-21.5, -9.52628
-22, -8.66025
-21.5, -7.79423
-21, -6.9282
-20.5, -7.79423
-21, -8.66025
-20, -8.66025
-19.5, -7.79423
-20, -6.9282
-19.5, -6.06218
-19, -6.9282
-18, -6.9282
-18.5, -6.06218
-19, -5.19615
-20, -5.19615
-20.5, -4.33013
-20, -3.4641
-19.5, -2.59808
-19, -3.4641
-19.5, -4.33013
-18.5, -4.33013
-18, -3.4641
-18.5, -2.59808
-18, -1.73205
-17.5, -0.86603
-17, -1.73205
-17.5, -2.59808
-16.5, -2.59808
-16, -1.73205
-15, -1.73205
-14.5, -2.59808
-14, -3.4641
-15, -3.4641
-15.5, -2.59808
-16, -3.4641
-15.5, -4.33013
-16, -5.19615
-17, -5.19615
-16.5, -4.33013
-17, -3.4641
-17.5, -4.33013
-18, -5.19615
-17.5, -6.06218
-16.5, -6.06218
-16, -6.9282
-17, -6.9282
-17.5, -7.79423
-16.5, -7.79423
-15.5, -7.79423
-15, -6.9282
-15.5, -6.06218
-15, -5.19615
-14.5, -4.33013
-14, -5.19615
-14.5, -6.06218
-13.5, -6.06218
-13, -5.19615
-12, -5.19615
-11.5, -6.06218
-12.5, -6.06218
-13, -6.9282
-12, -6.9282
-11, -6.9282
-10.5, -6.06218
-9.5, -6.06218
-9, -6.9282
-8.5, -7.79423
-9.5, -7.79423
-10, -6.9282
-10.5, -7.79423
-10, -8.66025
-9, -8.66025
-8.5, -9.52628
-8, -10.3923
-9, -10.3923
-9.5, -9.52628
-10, -10.3923
-9.5, -11.25833
-10, -12.12436
-11, -12.12436
-12, -12.12436
-11.5, -11.25833
-10.5, -11.25833
-11, -10.3923
-12, -10.3923
-12.5, -9.52628
-12, -8.66025
-11.5, -9.52628
-10.5, -9.52628
-11, -8.66025
-11.5, -7.79423
-12.5, -7.79423
-13, -8.66025
-14, -8.66025
-13.5, -7.79423
-14, -6.9282
-14.5, -7.79423
-15, -8.66025
-14.5, -9.52628
-13.5, -9.52628
-13, -10.3923
-12.5, -11.25833
-13.5, -11.25833
-14, -10.3923
-14.5, -11.25833
-14, -12.12436
-14.5, -12.99038
-15.5, -12.99038
-15, -12.12436
-15.5, -11.25833
-16, -12.12436
-16.5, -12.99038
-16, -13.85641
-16.5, -14.72243
-17.5, -14.72243
-18.5, -14.72243
-18, -13.85641
-17, -13.85641
-17.5, -12.99038
-18.5, -12.99038
-19, -12.12436
-18.5, -11.25833
-18, -10.3923
-17.5, -11.25833
-18, -12.12436
-17, -12.12436
-16.5, -11.25833
-17, -10.3923
-16.5, -9.52628
-16, -10.3923
-15, -10.3923
-15.5, -9.52628
-16, -8.66025
-17, -8.66025
-17.5, -9.52628
-18.5, -9.52628
-18, -8.66025
-18.5, -7.79423
-19, -8.66025
-19.5, -9.52628
-19, -10.3923
-19.5, -11.25833
-20.5, -11.25833
-20, -10.3923
-20.5, -9.52628
-21, -10.3923
-21.5, -11.25833
-21, -12.12436
-20, -12.12436
-19.5, -12.99038
-19, -13.85641
-20, -13.85641
-20.5, -12.99038
-21, -13.85641
-20.5, -14.72243
-19.5, -14.72243
-19, -15.58846
-20, -15.58846
-20.5, -16.45448
-19.5, -16.45448
-18.5, -16.45448
-18, -15.58846
-17, -15.58846
-16.5, -16.45448
-16, -17.32051
-17, -17.32051
-17.5, -16.45448
-18, -17.32051
-17.5, -18.18653
-18, -19.05256
-19, -19.05256
-20, -19.05256
-19.5, -18.18653
-18.5, -18.18653
-19, -17.32051
-20, -17.32051
-20.5, -18.18653
-21.5, -18.18653
-21, -17.32051
-21.5, -16.45448
-22, -17.32051
-22.5, -18.18653
-22, -19.05256
-21, -19.05256
-20.5, -19.91858
-21.5, -19.91858
-22, -20.78461
-21, -20.78461
-20, -20.78461
-19.5, -19.91858
-18.5, -19.91858
-18, -20.78461
-19, -20.78461
-19.5, -21.65064
-18.5, -21.65064
-17.5, -21.65064
-17, -20.78461
-17.5, -19.91858
-17, -19.05256
-16.5, -18.18653
-16, -19.05256
-16.5, -19.91858
-15.5, -19.91858
-15, -19.05256
-15.5, -18.18653
-15, -17.32051
-14.5, -18.18653
-13.5, -18.18653
-14, -17.32051
-14.5, -16.45448
-15.5, -16.45448
-16, -15.58846
-15.5, -14.72243
-15, -13.85641
-14.5, -14.72243
-15, -15.58846
-14, -15.58846
-13.5, -14.72243
-14, -13.85641
-13.5, -12.99038
-13, -12.12436
-12.5, -12.99038
-13, -13.85641
-12, -13.85641
-11.5, -12.99038
-10.5, -12.99038
-10, -13.85641
-9.5, -14.72243
-10.5, -14.72243
-11, -13.85641
-11.5, -14.72243
-11, -15.58846
-11.5, -16.45448
-12.5, -16.45448
-12, -15.58846
-12.5, -14.72243
-13, -15.58846
-13.5, -16.45448
-13, -17.32051
-12, -17.32051
-11.5, -18.18653
-12.5, -18.18653
-13, -19.05256
-12, -19.05256
-11, -19.05256
-10.5, -18.18653
-11, -17.32051
-10.5, -16.45448
-10, -15.58846
-9.5, -16.45448
-10, -17.32051
-9, -17.32051
-8.5, -16.45448
-7.5, -16.45448
-7, -17.32051
-8, -17.32051
-8.5, -18.18653
-7.5, -18.18653
-6.5, -18.18653
-6, -17.32051
-5, -17.32051
-4.5, -18.18653
-4, -19.05256
-5, -19.05256
-5.5, -18.18653
-6, -19.05256
-5.5, -19.91858
-6, -20.78461
-7, -20.78461
-8, -20.78461
-7.5, -19.91858
-6.5, -19.91858
-7, -19.05256
-8, -19.05256
-8.5, -19.91858
-9.5, -19.91858
-9, -19.05256
-9.5, -18.18653
-10, -19.05256
-10.5, -19.91858
-10, -20.78461
-9, -20.78461
-8.5, -21.65064
-9.5, -21.65064
-10, -22.51666
-9, -22.51666
-8, -22.51666
-7.5, -21.65064
-6.5, -21.65064
-6, -22.51666
-7, -22.51666
-7.5, -23.38269
-6.5, -23.38269
-5.5, -23.38269
-5, -22.51666
-5.5, -21.65064
-5, -20.78461
-4.5, -19.91858
-4, -20.78461
-4.5, -21.65064
-3.5, -21.65064
-3, -20.78461
-2, -20.78461
-1.5, -21.65064
-2.5, -21.65064
-3, -22.51666
-2, -22.51666
-1, -22.51666
-0.5, -21.65064
0.5, -21.65064
1, -22.51666
1.5, -23.38269
0.5, -23.38269
-0, -22.51666
-0.5, -23.38269
-0, -24.24871
1, -24.24871
1.5, -25.11474
2, -25.98076
1, -25.98076
0.5, -25.11474
-0, -25.98076
0.5, -26.84679
-0, -27.71281
-1, -27.71281
-2, -27.71281
-1.5, -26.84679
-0.5, -26.84679
-1, -25.98076
-2, -25.98076
-2.5, -25.11474
-2, -24.24871
-1.5, -25.11474
-0.5, -25.11474
-1, -24.24871
-1.5, -23.38269
-2.5, -23.38269
-3, -24.24871
-4, -24.24871
-3.5, -23.38269
-4, -22.51666
-4.5, -23.38269
-5, -24.24871
-4.5, -25.11474
-3.5, -25.11474
-3, -25.98076
-2.5, -26.84679
-3.5, -26.84679
-4, -25.98076
-4.5, -26.84679
-4, -27.71281
-4.5, -28.57884
-5.5, -28.57884
-5, -27.71281
-5.5, -26.84679
-6, -27.71281
-6.5, -28.57884
-6, -29.44486
-6.5, -30.31089
-7.5, -30.31089
-8.5, -30.31089
-8, -29.44486
-7, -29.44486
-7.5, -28.57884
-8.5, -28.57884
-9, -29.44486
-10, -29.44486
-11, -29.44486
-10.5, -28.57884
-9.5, -28.57884
-10, -27.71281
-11, -27.71281
-11.5, -26.84679
-11, -25.98076
-10.5, -25.11474
-10, -25.98076
-10.5, -26.84679
-9.5, -26.84679
-9, -25.98076
-8, -25.98076
-7.5, -26.84679
-8.5, -26.84679
-9, -27.71281
-8, -27.71281
-7, -27.71281
-6.5, -26.84679
-7, -25.98076
-6.5, -25.11474
-6, -25.98076
-5, -25.98076
-5.5, -25.11474
-6, -24.24871
-7, -24.24871
-7.5, -25.11474
-8.5, -25.11474
-9.5, -25.11474
-9, -24.24871
-8, -24.24871
-8.5, -23.38269
-9.5, -23.38269
-10, -24.24871
-11, -24.24871
-10.5, -23.38269
-11, -22.51666
-11.5, -23.38269
-12, -24.24871
-11.5, -25.11474
-12, -25.98076
-13, -25.98076
-14, -25.98076
-13.5, -25.11474
-12.5, -25.11474
-13, -24.24871
-14, -24.24871
-14.5, -23.38269
-14, -22.51666
-13.5, -21.65064
-13, -22.51666
-13.5, -23.38269
-12.5, -23.38269
-12, -22.51666
-12.5, -21.65064
-12, -20.78461
-11.5, -21.65064
-10.5, -21.65064
-11, -20.78461
-11.5, -19.91858
-12.5, -19.91858
-13, -20.78461
-14, -20.78461
-13.5, -19.91858
-14, -19.05256
-14.5, -19.91858
-15, -20.78461
-14.5, -21.65064
-15, -22.51666
-16, -22.51666
-15.5, -21.65064
-16, -20.78461
-16.5, -21.65064
-17, -22.51666
-16.5, -23.38269
-15.5, -23.38269
-15, -24.24871
-14.5, -25.11474
-15.5, -25.11474
-16, -24.24871
-16.5, -25.11474
-16, -25.98076
-15, -25.98076
-14.5, -26.84679
-15.5, -26.84679
-16, -27.71281
-15, -27.71281
-14, -27.71281
-13.5, -26.84679
-12.5, -26.84679
-12, -27.71281
-11.5, -28.57884
-12.5, -28.57884
-13, -27.71281
-13.5, -28.57884
-13, -29.44486
-13.5, -30.31089
-14.5, -30.31089
-15.5, -30.31089
-15, -29.44486
-14, -29.44486
-14.5, -28.57884
-15.5, -28.57884
-16, -29.44486
-17, -29.44486
-16.5, -28.57884
-17, -27.71281
-17.5, -28.57884
-18, -29.44486
-17.5, -30.31089
-16.5, -30.31089
-16, -31.17691
-17, -31.17691
-17.5, -32.04294
-16.5, -32.04294
-15.5, -32.04294
-15, -31.17691
-14, -31.17691
-13.5, -32.04294
-14.5, -32.04294
-15, -32.90897
-14, -32.90897
-13, -32.90897
-12.5, -32.04294
-13, -31.17691
-12.5, -30.31089
-12, -29.44486
-11.5, -30.31089
-12, -31.17691
-11, -31.17691
-10.5, -30.31089
-9.5, -30.31089
-9, -31.17691
-10, -31.17691
-10.5, -32.04294
-9.5, -32.04294
-8.5, -32.04294
-8, -31.17691
-7, -31.17691
-6.5, -32.04294
-6, -32.90897
-7, -32.90897
-7.5, -32.04294
-8, -32.90897
-7.5, -33.77499
-8, -34.64102
-9, -34.64102
-10, -34.64102
-9.5, -33.77499
-8.5, -33.77499
-9, -32.90897
-10, -32.90897
-10.5, -33.77499
-11.5, -33.77499
-11, -32.90897
-11.5, -32.04294
-12, -32.90897
-12.5, -33.77499
-12, -34.64102
-11, -34.64102
-10.5, -35.50704
-11.5, -35.50704
-12, -36.37307
-11, -36.37307
-10, -36.37307
-9.5, -35.50704
-8.5, -35.50704
-8, -36.37307
-9, -36.37307
-9.5, -37.23909
-8.5, -37.23909
-7.5, -37.23909
-7, -36.37307
-7.5, -35.50704
-7, -34.64102
-6.5, -33.77499
-6, -34.64102
-6.5, -35.50704
-5.5, -35.50704
-5, -34.64102
-5.5, -33.77499
-5, -32.90897
-4.5, -33.77499
-3.5, -33.77499
-4, -32.90897
-4.5, -32.04294
-5.5, -32.04294
-6, -31.17691
-5.5, -30.31089
-5, -29.44486
-4.5, -30.31089
-5, -31.17691
-4, -31.17691
-3.5, -30.31089
-4, -29.44486
-3.5, -28.57884
-3, -27.71281
-2.5, -28.57884
-3, -29.44486
-2, -29.44486
-1.5, -28.57884
-0.5, -28.57884
-0, -29.44486
0.5, -30.31089
-0.5, -30.31089
-1, -29.44486
-1.5, -30.31089
-1, -31.17691
-1.5, -32.04294
-2.5, -32.04294
-2, -31.17691
-2.5, -30.31089
-3, -31.17691
-3.5, -32.04294
-3, -32.90897
-2, -32.90897
-1.5, -33.77499
-2.5, -33.77499
-3, -34.64102
-2, -34.64102
-1, -34.64102
-0.5, -33.77499
-1, -32.90897
-0.5, -32.04294
-0, -31.17691
0.5, -32.04294
-0, -32.90897
1, -32.90897
1.5, -32.04294
1, -31.17691
1.5, -30.31089
2, -31.17691
3, -31.17691
2.5, -30.31089
2, -29.44486
1, -29.44486
0.5, -28.57884
1, -27.71281
1.5, -26.84679
2, -27.71281
1.5, -28.57884
2.5, -28.57884
3, -27.71281
4, -27.71281
4.5, -28.57884
5, -29.44486
4, -29.44486
3.5, -28.57884
3, -29.44486
3.5, -30.31089
4.5, -30.31089
5, -31.17691
4, -31.17691
3.5, -32.04294
4.5, -32.04294
5.5, -32.04294
6, -31.17691
5.5, -30.31089
6, -29.44486
6.5, -30.31089
7.5, -30.31089
7, -29.44486
6.5, -28.57884
5.5, -28.57884
5, -27.71281
5.5, -26.84679
6, -27.71281
7, -27.71281
6.5, -26.84679
6, -25.98076
5, -25.98076
4.5, -26.84679
3.5, -26.84679
2.5, -26.84679
3, -25.98076
4, -25.98076
3.5, -25.11474
2.5, -25.11474
2, -24.24871
2.5, -23.38269
3, -24.24871
4, -24.24871
3.5, -23.38269
3, -22.51666
2, -22.51666
1.5, -21.65064
2, -20.78461
2.5, -19.91858
3, -20.78461
2.5, -21.65064
3.5, -21.65064
4, -20.78461
3.5, -19.91858
4, -19.05256
4.5, -18.18653
5, -19.05256
4.5, -19.91858
5.5, -19.91858
6, -19.05256
7, -19.05256
7.5, -19.91858
8, -20.78461
7, -20.78461
6.5, -19.91858
6, -20.78461
6.5, -21.65064
6, -22.51666
5, -22.51666
5.5, -21.65064
5, -20.78461
4.5, -21.65064
4, -22.51666
4.5, -23.38269
5.5, -23.38269
6, -24.24871
5, -24.24871
4.5, -25.11474
5.5, -25.11474
6.5, -25.11474
7, -24.24871
6.5, -23.38269
7, -22.51666
7.5, -21.65064
8, -22.51666
7.5, -23.38269
8.5, -23.38269
9, -22.51666
10, -22.51666
10.5, -23.38269
9.5, -23.38269
9, -24.24871
10, -24.24871
11, -24.24871
11.5, -23.38269
12.5, -23.38269
13, -24.24871
13.5, -25.11474
12.5, -25.11474
12, -24.24871
11.5, -25.11474
12, -25.98076
13, -25.98076
13.5, -26.84679
14, -27.71281
13, -27.71281
12.5, -26.84679
12, -27.71281
12.5, -28.57884
12, -29.44486
11, -29.44486
10, -29.44486
10.5, -28.57884
11.5, -28.57884
11, -27.71281
10, -27.71281
9.5, -26.84679
10, -25.98076
10.5, -26.84679
11.5, -26.84679
11, -25.98076
10.5, -25.11474
9.5, -25.11474
9, -25.98076
8, -25.98076
8.5, -25.11474
8, -24.24871
7.5, -25.11474
7, -25.98076
7.5, -26.84679
8.5, -26.84679
9, -27.71281
9.5, -28.57884
8.5, -28.57884
8, -27.71281
7.5, -28.57884
8, -29.44486
9, -29.44486
9.5, -30.31089
8.5, -30.31089
8, -31.17691
9, -31.17691
10, -31.17691
10.5, -30.31089
11.5, -30.31089
12, -31.17691
12.5, -32.04294
11.5, -32.04294
11, -31.17691
10.5, -32.04294
11, -32.90897
10.5, -33.77499
9.5, -33.77499
8.5, -33.77499
9, -32.90897
10, -32.90897
9.5, -32.04294
8.5, -32.04294
8, -32.90897
7, -32.90897
7.5, -32.04294
7, -31.17691
6.5, -32.04294
6, -32.90897
6.5, -33.77499
7.5, -33.77499
8, -34.64102
7, -34.64102
6.5, -35.50704
7.5, -35.50704
8.5, -35.50704
9, -34.64102
10, -34.64102
10.5, -35.50704
9.5, -35.50704
9, -36.37307
10, -36.37307
11, -36.37307
11.5, -35.50704
11, -34.64102
11.5, -33.77499
12, -32.90897
12.5, -33.77499
12, -34.64102
13, -34.64102
13.5, -33.77499
13, -32.90897
13.5, -32.04294
14, -32.90897
15, -32.90897
14.5, -32.04294
14, -31.17691
13, -31.17691
12.5, -30.31089
13, -29.44486
13.5, -28.57884
14, -29.44486
13.5, -30.31089
14.5, -30.31089
15, -29.44486
16, -29.44486
16.5, -30.31089
17, -31.17691
16, -31.17691
15.5, -30.31089
15, -31.17691
15.5, -32.04294
16.5, -32.04294
17, -32.90897
16, -32.90897
15.5, -33.77499
16.5, -33.77499
17.5, -33.77499
18, -32.90897
17.5, -32.04294
18, -31.17691
18.5, -32.04294
19.5, -32.04294
19, -31.17691
18.5, -30.31089
17.5, -30.31089
17, -29.44486
17.5, -28.57884
18, -29.44486
19, -29.44486
18.5, -28.57884
18, -27.71281
17, -27.71281
16.5, -28.57884
15.5, -28.57884
14.5, -28.57884
15, -27.71281
16, -27.71281
15.5, -26.84679
14.5, -26.84679
14, -25.98076
14.5, -25.11474
15, -25.98076
16, -25.98076
15.5, -25.11474
15, -24.24871
14, -24.24871
13.5, -23.38269
14, -22.51666
14.5, -21.65064
15, -22.51666
14.5, -23.38269
15.5, -23.38269
16, -22.51666
17, -22.51666
17.5, -23.38269
18, -24.24871
17, -24.24871
16.5, -23.38269
16, -24.24871
16.5, -25.11474
17.5, -25.11474
18, -25.98076
17, -25.98076
16.5, -26.84679
17.5, -26.84679
18.5, -26.84679
19, -25.98076
18.5, -25.11474
19, -24.24871
19.5, -25.11474
20.5, -25.11474
20, -24.24871
19.5, -23.38269
18.5, -23.38269
18, -22.51666
18.5, -21.65064
19, -22.51666
20, -22.51666
19.5, -21.65064
19, -20.78461
18, -20.78461
17.5, -21.65064
16.5, -21.65064
15.5, -21.65064
16, -20.78461
17, -20.78461
16.5, -19.91858
15.5, -19.91858
15, -20.78461
14, -20.78461
14.5, -19.91858
14, -19.05256
13.5, -19.91858
13, -20.78461
13.5, -21.65064
13, -22.51666
12, -22.51666
11, -22.51666
11.5, -21.65064
12.5, -21.65064
12, -20.78461
11, -20.78461
10.5, -21.65064
9.5, -21.65064
8.5, -21.65064
9, -20.78461
10, -20.78461
9.5, -19.91858
8.5, -19.91858
8, -19.05256
8.5, -18.18653
9, -17.32051
9.5, -18.18653
9, -19.05256
10, -19.05256
10.5, -18.18653
11.5, -18.18653
12, -19.05256
11, -19.05256
10.5, -19.91858
11.5, -19.91858
12.5, -19.91858
13, -19.05256
12.5, -18.18653
13, -17.32051
13.5, -18.18653
14.5, -18.18653
14, -17.32051
13.5, -16.45448
12.5, -16.45448
12, -17.32051
11, -17.32051
10, -17.32051
10.5, -16.45448
11.5, -16.45448
11, -15.58846
10, -15.58846
9.5, -16.45448
8.5, -16.45448
9, -15.58846
8.5, -14.72243
8, -15.58846
7.5, -16.45448
8, -17.32051
7.5, -18.18653
6.5, -18.18653
5.5, -18.18653
6, -17.32051
7, -17.32051
6.5, -16.45448
5.5, -16.45448
5, -15.58846
5.5, -14.72243
6, -13.85641
6.5, -14.72243
6, -15.58846
7, -15.58846
7.5, -14.72243
7, -13.85641
7.5, -12.99038
8, -13.85641
9, -13.85641
8.5, -12.99038
8, -12.12436
7, -12.12436
6.5, -12.99038
5.5, -12.99038
6, -12.12436
5.5, -11.25833
5, -12.12436
4.5, -12.99038
5, -13.85641
4.5, -14.72243
3.5, -14.72243
4, -13.85641
3.5, -12.99038
3, -13.85641
2.5, -14.72243
3, -15.58846
4, -15.58846
4.5, -16.45448
5, -17.32051
4, -17.32051
3.5, -16.45448
3, -17.32051
3.5, -18.18653
3, -19.05256
2, -19.05256
2.5, -18.18653
2, -17.32051
1.5, -18.18653
1, -19.05256
1.5, -19.91858
1, -20.78461
-0, -20.78461
-1, -20.78461
-0.5, -19.91858
0.5, -19.91858
-0, -19.05256
-1, -19.05256
-1.5, -19.91858
-2.5, -19.91858
-3.5, -19.91858
-3, -19.05256
-2, -19.05256
-2.5, -18.18653
-3.5, -18.18653
-4, -17.32051
-3.5, -16.45448
-3, -15.58846
-2.5, -16.45448
-3, -17.32051
-2, -17.32051
-1.5, -16.45448
-0.5, -16.45448
-0, -17.32051
-1, -17.32051
-1.5, -18.18653
-0.5, -18.18653
0.5, -18.18653
1, -17.32051
0.5, -16.45448
1, -15.58846
1.5, -16.45448
2.5, -16.45448
2, -15.58846
1.5, -14.72243
0.5, -14.72243
-0, -15.58846
-1, -15.58846
-2, -15.58846
-1.5, -14.72243
-0.5, -14.72243
-1, -13.85641
-2, -13.85641
-2.5, -14.72243
-3.5, -14.72243
-3, -13.85641
-3.5, -12.99038
-4, -13.85641
-4.5, -14.72243
-4, -15.58846
-4.5, -16.45448
-5.5, -16.45448
-6.5, -16.45448
-6, -15.58846
-5, -15.58846
-5.5, -14.72243
-6.5, -14.72243
-7, -15.58846
-8, -15.58846
-9, -15.58846
-8.5, -14.72243
-7.5, -14.72243
-8, -13.85641
-9, -13.85641
-9.5, -12.99038
-9, -12.12436
-8.5, -11.25833
-8, -12.12436
-8.5, -12.99038
-7.5, -12.99038
-7, -12.12436
-6, -12.12436
-5.5, -12.99038
-6.5, -12.99038
-7, -13.85641
-6, -13.85641
-5, -13.85641
-4.5, -12.99038
-5, -12.12436
-4.5, -11.25833
-4, -12.12436
-3, -12.12436
-3.5, -11.25833
-4, -10.3923
-5, -10.3923
-5.5, -11.25833
-6.5, -11.25833
-7.5, -11.25833
-7, -10.3923
-6, -10.3923
-6.5, -9.52628
-7.5, -9.52628
-8, -8.66025
-7.5, -7.79423
-7, -8.66025
-6, -8.66025
-6.5, -7.79423
-7, -6.9282
-8, -6.9282
-8.5, -6.06218
-8, -5.19615
-7.5, -4.33013
-7, -5.19615
-7.5, -6.06218
-6.5, -6.06218
-6, -5.19615
-6.5, -4.33013
-6, -3.4641
-5.5, -2.59808
-5, -3.4641
-5.5, -4.33013
-4.5, -4.33013
-4, -3.4641
-3, -3.4641
-2.5, -4.33013
-2, -5.19615
-3, -5.19615
-3.5, -4.33013
-4, -5.19615
-3.5, -6.06218
-4, -6.9282
-5, -6.9282
-4.5, -6.06218
-5, -5.19615
-5.5, -6.06218
-6, -6.9282
-5.5, -7.79423
-4.5, -7.79423
-4, -8.66025
-5, -8.66025
-5.5, -9.52628
-4.5, -9.52628
-3.5, -9.52628
-3, -8.66025
-3.5, -7.79423
-3, -6.9282
-2.5, -6.06218
-2, -6.9282
-2.5, -7.79423
-1.5, -7.79423
-1, -6.9282
-0, -6.9282
0.5, -7.79423
-0.5, -7.79423
-1, -8.66025
-0, -8.66025
1, -8.66025
1.5, -7.79423
2.5, -7.79423
3, -8.66025
3.5, -9.52628
2.5, -9.52628
2, -8.66025
1.5, -9.52628
2, -10.3923
1.5, -11.25833
0.5, -11.25833
-0.5, -11.25833
-0, -10.3923
1, -10.3923
0.5, -9.52628
-0.5, -9.52628
-1, -10.3923
-2, -10.3923
-1.5, -9.52628
-2, -8.66025
-2.5, -9.52628
-3, -10.3923
-2.5, -11.25833
-1.5, -11.25833
-1, -12.12436
-2, -12.12436
-2.5, -12.99038
-1.5, -12.99038
-0.5, -12.99038
-0, -12.12436
1, -12.12436
1.5, -12.99038
0.5, -12.99038
-0, -13.85641
1, -13.85641
2, -13.85641
2.5, -12.99038
2, -12.12436
2.5, -11.25833
3, -10.3923
3.5, -11.25833
3, -12.12436
4, -12.12436
4.5, -11.25833
4, -10.3923
4.5, -9.52628
5, -10.3923
6, -10.3923
5.5, -9.52628
5, -8.66025
4, -8.66025
3.5, -7.79423
4, -6.9282
4.5, -6.06218
5, -6.9282
4.5, -7.79423
5.5, -7.79423
6, -6.9282
7, -6.9282
7.5, -7.79423
8, -8.66025
7, -8.66025
6.5, -7.79423
6, -8.66025
6.5, -9.52628
7.5, -9.52628
8, -10.3923
7, -10.3923
6.5, -11.25833
7.5, -11.25833
8.5, -11.25833
9, -10.3923
8.5, -9.52628
9, -8.66025
9.5, -9.52628
10.5, -9.52628
10, -8.66025
9.5, -7.79423
8.5, -7.79423
8, -6.9282
8.5, -6.06218
9, -6.9282
10, -6.9282
9.5, -6.06218
9, -5.19615
8, -5.19615
7.5, -6.06218
6.5, -6.06218
5.5, -6.06218
6, -5.19615
7, -5.19615
6.5, -4.33013
5.5, -4.33013
5, -5.19615
4, -5.19615
4.5, -4.33013
4, -3.4641
3.5, -4.33013
3, -5.19615
3.5, -6.06218
3, -6.9282
2, -6.9282
1, -6.9282
1.5, -6.06218
2.5, -6.06218
2, -5.19615
1, -5.19615
0.5, -6.06218
-0.5, -6.06218
-1.5, -6.06218
-1, -5.19615
-0, -5.19615
-0.5, -4.33013
-1.5, -4.33013
-2, -3.4641
-1.5, -2.59808
-1, -1.73205
-0.5, -2.59808
-1, -3.4641
-0, -3.4641
0.5, -2.59808
1.5, -2.59808
2, -3.4641
1, -3.4641
0.5, -4.33013
1.5, -4.33013
2.5, -4.33013
3, -3.4641
2.5, -2.59808
3, -1.73205
3.5, -2.59808
4.5, -2.59808
4, -1.73205
3.5, -0.86603
2.5, -0.86603
2, -1.73205
1, -1.73205
-0, -1.73205
0.5, -0.86603
1.5, -0.86603
1, 0
0, 0
" fill="none" stroke="black" stroke-width="0.07549834435270758"/>
</svg>