<svg xmlns="http://www.w3.org/2000/svg"
     xmlns:xlink="http://www.w3.org/1999/xlink"
     width="500" height="500" viewBox="-0 -70.14806 81 93.53074">
<rect x="-0" y="-70.14806" width="100%" height="100%" fill="white"/>
<polyline points="
-0, 0
0.5, -0.86603
-0, -1.73205
1, -1.73205
1.5, -2.59808
1, -3.4641
-0, -3.4641
0.5, -4.33013
-0, -5.19615
1, -5.19615
1.5, -6.06218
2, -5.19615
3, -5.19615
3.5, -6.06218
3, -6.9282
4, -6.9282
4.5, -7.79423
4, -8.66025
3, -8.66025
3.5, -9.52628
3, -10.3923
2, -10.3923
1.5, -9.52628
1, -10.3923
-0, -10.3923
0.5, -11.25833
-0, -12.12436
1, -12.12436
1.5, -12.99038
1, -13.85641
-0, -13.85641
0.5, -14.72243
-0, -15.58846
1, -15.58846
1.5, -16.45448
2, -15.58846
3, -15.58846
3.5, -16.45448
3, -17.32051
4, -17.32051
4.5, -18.18653
5, -17.32051
6, -17.32051
5.5, -16.45448
6, -15.58846
7, -15.58846
7.5, -16.45448
8, -15.58846
9, -15.58846
9.5, -16.45448
9, -17.32051
10, -17.32051
10.5, -18.18653
10, -19.05256
9, -19.05256
9.5, -19.91858
9, -20.78461
10, -20.78461
10.5, -21.65064
11, -20.78461
12, -20.78461
12.5, -21.65064
12, -22.51666
13, -22.51666
13.5, -23.38269
13, -24.24871
12, -24.24871
12.5, -25.11474
12, -25.98076
11, -25.98076
10.5, -25.11474
10, -25.98076
9, -25.98076
9.5, -26.84679
9, -27.71281
10, -27.71281
10.5, -28.57884
10, -29.44486
9, -29.44486
9.5, -30.31089
9, -31.17691
8, -31.17691
7.5, -30.31089
7, -31.17691
6, -31.17691
5.5, -30.31089
6, -29.44486
5, -29.44486
4.5, -28.57884
4, -29.44486
3, -29.44486
3.5, -30.31089
3, -31.17691
2, -31.17691
1.5, -30.31089
1, -31.17691
-0, -31.17691
0.5, -32.04294
-0, -32.90897
1, -32.90897
1.5, -33.77499
1, -34.64102
-0, -34.64102
0.5, -35.50704
-0, -36.37307
1, -36.37307
1.5, -37.23909
2, -36.37307
3, -36.37307
3.5, -37.23909
3, -38.10512
4, -38.10512
4.5, -38.97114
4, -39.83717
3, -39.83717
3.5, -40.70319
3, -41.56922
2, -41.56922
1.5, -40.70319
1, -41.56922
-0, -41.56922
0.5, -42.43524
-0, -43.30127
1, -43.30127
1.5, -44.1673
1, -45.03332
-0, -45.03332
0.5, -45.89935
-0, -46.76537
1, -46.76537
1.5, -47.6314
2, -46.76537
3, -46.76537
3.5, -47.6314
3, -48.49742
4, -48.49742
4.5, -49.36345
5, -48.49742
6, -48.49742
5.5, -47.6314
6, -46.76537
7, -46.76537
7.5, -47.6314
8, -46.76537
9, -46.76537
9.5, -47.6314
9, -48.49742
10, -48.49742
10.5, -49.36345
10, -50.22947
9, -50.22947
9.5, -51.0955
9, -51.96152
10, -51.96152
10.5, -52.82755
11, -51.96152
12, -51.96152
12.5, -52.82755
12, -53.69358
13, -53.69358
13.5, -54.5596
14, -53.69358
15, -53.69358
14.5, -52.82755
15, -51.96152
16, -51.96152
16.5, -52.82755
17, -51.96152
18, -51.96152
17.5, -51.0955
18, -50.22947
17, -50.22947
16.5, -49.36345
17, -48.49742
18, -48.49742
17.5, -47.6314
18, -46.76537
19, -46.76537
19.5, -47.6314
20, -46.76537
21, -46.76537
21.5, -47.6314
21, -48.49742
22, -48.49742
22.5, -49.36345
23, -48.49742
24, -48.49742
23.5, -47.6314
24, -46.76537
25, -46.76537
25.5, -47.6314
26, -46.76537
27, -46.76537
27.5, -47.6314
27, -48.49742
28, -48.49742
28.5, -49.36345
28, -50.22947
27, -50.22947
27.5, -51.0955
27, -51.96152
28, -51.96152
28.5, -52.82755
29, -51.96152
30, -51.96152
30.5, -52.82755
30, -53.69358
31, -53.69358
31.5, -54.5596
31, -55.42563
30, -55.42563
30.5, -56.29165
30, -57.15768
29, -57.15768
28.5, -56.29165
28, -57.15768
27, -57.15768
27.5, -58.0237
27, -58.88973
28, -58.88973
28.5, -59.75575
28, -60.62178
27, -60.62178
27.5, -61.4878
27, -62.35383
28, -62.35383
28.5, -63.21985
29, -62.35383
30, -62.35383
30.5, -63.21985
30, -64.08588
31, -64.08588
31.5, -64.95191
32, -64.08588
33, -64.08588
32.5, -63.21985
33, -62.35383
34, -62.35383
34.5, -63.21985
35, -62.35383
36, -62.35383
36.5, -63.21985
36, -64.08588
37, -64.08588
37.5, -64.95191
37, -65.81793
36, -65.81793
36.5, -66.68396
36, -67.54998
37, -67.54998
37.5, -68.41601
38, -67.54998
39, -67.54998
39.5, -68.41601
39, -69.28203
40, -69.28203
40.5, -70.14806
41, -69.28203
42, -69.28203
41.5, -68.41601
42, -67.54998
43, -67.54998
43.5, -68.41601
44, -67.54998
45, -67.54998
44.5, -66.68396
45, -65.81793
44, -65.81793
43.5, -64.95191
44, -64.08588
45, -64.08588
44.5, -63.21985
45, -62.35383
46, -62.35383
46.5, -63.21985
47, -62.35383
48, -62.35383
48.5, -63.21985
48, -64.08588
49, -64.08588
49.5, -64.95191
50, -64.08588
51, -64.08588
50.5, -63.21985
51, -62.35383
52, -62.35383
52.5, -63.21985
53, -62.35383
54, -62.35383
53.5, -61.4878
54, -60.62178
53, -60.62178
52.5, -59.75575
53, -58.88973
54, -58.88973
53.5, -58.0237
54, -57.15768
53, -57.15768
52.5, -56.29165
52, -57.15768
51, -57.15768
50.5, -56.29165
51, -55.42563
50, -55.42563
49.5, -54.5596
50, -53.69358
51, -53.69358
50.5, -52.82755
51, -51.96152
52, -51.96152
52.5, -52.82755
53, -51.96152
54, -51.96152
53.5, -51.0955
54, -50.22947
53, -50.22947
52.5, -49.36345
53, -48.49742
54, -48.49742
53.5, -47.6314
54, -46.76537
55, -46.76537
55.5, -47.6314
56, -46.76537
57, -46.76537
57.5, -47.6314
57, -48.49742
58, -48.49742
58.5, -49.36345
59, -48.49742
60, -48.49742
59.5, -47.6314
60, -46.76537
61, -46.76537
61.5, -47.6314
62, -46.76537
63, -46.76537
63.5, -47.6314
63, -48.49742
64, -48.49742
64.5, -49.36345
64, -50.22947
63, -50.22947
63.5, -51.0955
63, -51.96152
64, -51.96152
64.5, -52.82755
65, -51.96152
66, -51.96152
66.5, -52.82755
66, -53.69358
67, -53.69358
67.5, -54.5596
68, -53.69358
69, -53.69358
68.5, -52.82755
69, -51.96152
70, -51.96152
70.5, -52.82755
71, -51.96152
72, -51.96152
71.5, -51.0955
72, -50.22947
71, -50.22947
70.5, -49.36345
71, -48.49742
72, -48.49742
71.5, -47.6314
72, -46.76537
73, -46.76537
73.5, -47.6314
74, -46.76537
75, -46.76537
75.5, -47.6314
75, -48.49742
76, -48.49742
76.5, -49.36345
77, -48.49742
78, -48.49742
77.5, -47.6314
78, -46.76537
79, -46.76537
79.5, -47.6314
80, -46.76537
81, -46.76537
80.5, -45.89935
81, -45.03332
80, -45.03332
79.5, -44.1673
80, -43.30127
81, -43.30127
80.5, -42.43524
81, -41.56922
80, -41.56922
79.5, -40.70319
79, -41.56922
78, -41.56922
77.5, -40.70319
78, -39.83717
77, -39.83717
76.5, -38.97114
77, -38.10512
78, -38.10512
77.5, -37.23909
78, -36.37307
79, -36.37307
79.5, -37.23909
80, -36.37307
81, -36.37307
80.5, -35.50704
81, -34.64102
80, -34.64102
79.5, -33.77499
80, -32.90897
81, -32.90897
80.5, -32.04294
81, -31.17691
80, -31.17691
79.5, -30.31089
79, -31.17691
78, -31.17691
77.5, -30.31089
78, -29.44486
77, -29.44486
76.5, -28.57884
76, -29.44486
75, -29.44486
75.5, -30.31089
75, -31.17691
74, -31.17691
73.5, -30.31089
73, -31.17691
72, -31.17691
71.5, -30.31089
72, -29.44486
71, -29.44486
70.5, -28.57884
71, -27.71281
72, -27.71281
71.5, -26.84679
72, -25.98076
71, -25.98076
70.5, -25.11474
70, -25.98076
69, -25.98076
68.5, -25.11474
69, -24.24871
68, -24.24871
67.5, -23.38269
68, -22.51666
69, -22.51666
68.5, -21.65064
69, -20.78461
70, -20.78461
70.5, -21.65064
71, -20.78461
72, -20.78461
71.5, -19.91858
72, -19.05256
71, -19.05256
70.5, -18.18653
71, -17.32051
72, -17.32051
71.5, -16.45448
72, -15.58846
73, -15.58846
73.5, -16.45448
74, -15.58846
75, -15.58846
75.5, -16.45448
75, -17.32051
76, -17.32051
76.5, -18.18653
77, -17.32051
78, -17.32051
77.5, -16.45448
78, -15.58846
79, -15.58846
79.5, -16.45448
80, -15.58846
81, -15.58846
80.5, -14.72243
81, -13.85641
80, -13.85641
79.5, -12.99038
80, -12.12436
81, -12.12436
80.5, -11.25833
81, -10.3923
80, -10.3923
79.5, -9.52628
79, -10.3923
78, -10.3923
77.5, -9.52628
78, -8.66025
77, -8.66025
76.5, -7.79423
77, -6.9282
78, -6.9282
77.5, -6.06218
78, -5.19615
79, -5.19615
79.5, -6.06218
80, -5.19615
81, -5.19615
80.5, -4.33013
81, -3.4641
80, -3.4641
79.5, -2.59808
80, -1.73205
81, -1.73205
80.5, -0.86603
81, 0
80, 0
79.5, 0.86603
79, 0
78, 0
77.5, 0.86603
78, 1.73205
77, 1.73205
76.5, 2.59808
76, 1.73205
75, 1.73205
75.5, 0.86603
75, 0
74, 0
73.5, 0.86603
73, 0
72, 0
71.5, 0.86603
72, 1.73205
71, 1.73205
70.5, 2.59808
71, 3.4641
72, 3.4641
71.5, 4.33013
72, 5.19615
71, 5.19615
70.5, 6.06218
70, 5.19615
69, 5.19615
68.5, 6.06218
69, 6.9282
68, 6.9282
67.5, 7.79423
67, 6.9282
66, 6.9282
66.5, 6.06218
66, 5.19615
65, 5.19615
64.5, 6.06218
64, 5.19615
63, 5.19615
63.5, 4.33013
63, 3.4641
64, 3.4641
64.5, 2.59808
64, 1.73205
63, 1.73205
63.5, 0.86603
63, 0
62, 0
61.5, 0.86603
61, 0
60, 0
59.5, 0.86603
60, 1.73205
59, 1.73205
58.5, 2.59808
58, 1.73205
57, 1.73205
57.5, 0.86603
57, 0
56, 0
55.5, 0.86603
55, 0
54, 0
53.5, 0.86603
54, 1.73205
53, 1.73205
52.5, 2.59808
53, 3.4641
54, 3.4641
53.5, 4.33013
54, 5.19615
53, 5.19615
52.5, 6.06218
52, 5.19615
51, 5.19615
50.5, 6.06218
51, 6.9282
50, 6.9282
49.5, 7.79423
50, 8.66025
51, 8.66025
50.5, 9.52628
51, 10.3923
52, 10.3923
52.5, 9.52628
53, 10.3923
54, 10.3923
53.5, 11.25833
54, 12.12436
53, 12.12436
52.5, 12.99038
53, 13.85641
54, 13.85641
53.5, 14.72243
54, 15.58846
53, 15.58846
52.5, 16.45448
52, 15.58846
51, 15.58846
50.5, 16.45448
51, 17.32051
50, 17.32051
49.5, 18.18653
49, 17.32051
48, 17.32051
48.5, 16.45448
48, 15.58846
47, 15.58846
46.5, 16.45448
46, 15.58846
45, 15.58846
44.5, 16.45448
45, 17.32051
44, 17.32051
43.5, 18.18653
44, 19.05256
45, 19.05256
44.5, 19.91858
45, 20.78461
44, 20.78461
43.5, 21.65064
43, 20.78461
42, 20.78461
41.5, 21.65064
42, 22.51666
41, 22.51666
40.5, 23.38269
40, 22.51666
39, 22.51666
39.5, 21.65064
39, 20.78461
38, 20.78461
37.5, 21.65064
37, 20.78461
36, 20.78461
36.5, 19.91858
36, 19.05256
37, 19.05256
37.5, 18.18653
37, 17.32051
36, 17.32051
36.5, 16.45448
36, 15.58846
35, 15.58846
34.5, 16.45448
34, 15.58846
33, 15.58846
32.5, 16.45448
33, 17.32051
32, 17.32051
31.5, 18.18653
31, 17.32051
30, 17.32051
30.5, 16.45448
30, 15.58846
29, 15.58846
28.5, 16.45448
28, 15.58846
27, 15.58846
27.5, 14.72243
27, 13.85641
28, 13.85641
28.5, 12.99038
28, 12.12436
27, 12.12436
27.5, 11.25833
27, 10.3923
28, 10.3923
28.5, 9.52628
29, 10.3923
30, 10.3923
30.5, 9.52628
30, 8.66025
31, 8.66025
31.5, 7.79423
31, 6.9282
30, 6.9282
30.5, 6.06218
30, 5.19615
29, 5.19615
28.5, 6.06218
28, 5.19615
27, 5.19615
27.5, 4.33013
27, 3.4641
28, 3.4641
28.5, 2.59808
28, 1.73205
27, 1.73205
27.5, 0.86603
27, 0
26, 0
25.5, 0.86603
25, 0
24, 0
23.5, 0.86603
24, 1.73205
23, 1.73205
22.5, 2.59808
22, 1.73205
21, 1.73205
21.5, 0.86603
21, 0
20, 0
19.5, 0.86603
19, 0
18, 0
17.5, 0.86603
18, 1.73205
17, 1.73205
16.5, 2.59808
17, 3.4641
18, 3.4641
17.5, 4.33013
18, 5.19615
17, 5.19615
16.5, 6.06218
16, 5.19615
15, 5.19615
14.5, 6.06218
15, 6.9282
14, 6.9282
13.5, 7.79423
13, 6.9282
12, 6.9282
12.5, 6.06218
12, 5.19615
11, 5.19615
10.5, 6.06218
10, 5.19615
9, 5.19615
9.5, 4.33013
9, 3.4641
10, 3.4641
10.5, 2.59808
10, 1.73205
9, 1.73205
9.5, 0.86603
9, 0
8, 0
7.5, 0.86603
7, 0
6, 0
5.5, 0.86603
6, 1.73205
5, 1.73205
4.5, 2.59808
4, 1.73205
3, 1.73205
3.5, 0.86603
3, 0
2, 0
1.5, 0.86603
1, 0
0, 0
" fill="none" stroke="black" stroke-width="0.0967112938641188"/>
</svg>