<svg xmlns="http://www.w3.org/2000/svg"
     xmlns:xlink="http://www.w3.org/1999/xlink"
     width="500" height="350" viewBox="-31 -15 126 78">
<rect x="-31" y="-15" width="100%" height="100%" fill="white"/>
<polyline points="
64, 0
65, 0
65, 1
65, 2
64, 2
64, 3
63, 3
62, 3
62, 2
62, 3
61, 3
60, 3
60, 2
59, 2
59, 1
59, 0
60, 0
60, 1
59, 1
58, 1
58, 0
57, 0
57, -1
57, -2
58, -2
57, -2
57, -3
57, -4
58, -4
58, -5
59, -5
60, -5
60, -4
60, -3
59, -3
58, -3
58, -4
57, -4
57, -5
57, -6
58, -6
57, -6
57, -7
57, -8
58, -8
58, -9
59, -9
60, -9
60, -8
59, -8
59, -9
59, -10
60, -10
60, -11
61, -11
62, -11
62, -10
62, -11
63, -11
64, -11
64, -10
65, -10
65, -9
65, -8
64, -8
64, -7
63, -7
62, -7
62, -8
61, -8
61, -9
61, -10
62, -10
61, -10
61, -11
61, -12
62, -12
62, -13
63, -13
64, -13
64, -12
63, -12
63, -13
63, -14
64, -14
64, -15
65, -15
66, -15
66, -14
66, -15
67, -15
68, -15
68, -14
69, -14
69, -13
69, -12
68, -12
67, -12
67, -13
67, -14
68, -14
68, -15
69, -15
70, -15
70, -14
70, -15
71, -15
72, -15
72, -14
73, -14
73, -13
73, -12
72, -12
72, -13
73, -13
74, -13
74, -12
75, -12
75, -11
75, -10
74, -10
75, -10
75, -9
75, -8
74, -8
74, -7
73, -7
72, -7
72, -8
72, -7
71, -7
70, -7
70, -8
69, -8
69, -9
69, -10
70, -10
69, -10
69, -11
69, -12
70, -12
70, -13
71, -13
72, -13
72, -12
71, -12
71, -13
71, -14
72, -14
72, -15
73, -15
74, -15
74, -14
74, -15
75, -15
76, -15
76, -14
77, -14
77, -13
77, -12
76, -12
75, -12
75, -13
75, -14
76, -14
76, -15
77, -15
78, -15
78, -14
78, -15
79, -15
80, -15
80, -14
81, -14
81, -13
81, -12
80, -12
80, -13
81, -13
82, -13
82, -12
83, -12
83, -11
83, -10
82, -10
83, -10
83, -9
83, -8
82, -8
82, -7
81, -7
80, -7
80, -8
79, -8
79, -9
79, -10
80, -10
80, -11
81, -11
82, -11
82, -10
82, -11
83, -11
84, -11
84, -10
85, -10
85, -9
85, -8
84, -8
84, -9
85, -9
86, -9
86, -8
87, -8
87, -7
87, -6
86, -6
87, -6
87, -5
87, -4
86, -4
86, -3
85, -3
84, -3
84, -4
84, -5
85, -5
86, -5
86, -4
87, -4
87, -3
87, -2
86, -2
87, -2
87, -1
87, 0
86, 0
86, 1
85, 1
84, 1
84, 0
85, 0
85, 1
85, 2
84, 2
84, 3
83, 3
82, 3
82, 2
82, 3
81, 3
80, 3
80, 2
79, 2
79, 1
79, 0
80, 0
80, 1
79, 1
78, 1
78, 0
77, 0
77, -1
77, -2
78, -2
77, -2
77, -3
77, -4
78, -4
78, -5
79, -5
80, -5
80, -4
79, -4
79, -5
79, -6
80, -6
80, -7
81, -7
82, -7
82, -6
82, -7
83, -7
84, -7
84, -6
85, -6
85, -5
85, -4
84, -4
83, -4
83, -5
83, -6
84, -6
84, -7
85, -7
86, -7
86, -6
86, -7
87, -7
88, -7
88, -6
89, -6
89, -5
89, -4
88, -4
88, -5
89, -5
90, -5
90, -4
91, -4
91, -3
91, -2
90, -2
91, -2
91, -1
91, 0
90, 0
90, 1
89, 1
88, 1
88, 0
87, 0
87, -1
87, -2
88, -2
88, -3
89, -3
90, -3
90, -2
90, -3
91, -3
92, -3
92, -2
93, -2
93, -1
93, 0
92, 0
92, -1
93, -1
94, -1
94, 0
95, 0
95, 1
95, 2
94, 2
95, 2
95, 3
95, 4
94, 4
94, 5
93, 5
92, 5
92, 4
92, 3
93, 3
94, 3
94, 4
95, 4
95, 5
95, 6
94, 6
95, 6
95, 7
95, 8
94, 8
94, 9
93, 9
92, 9
92, 8
93, 8
93, 9
93, 10
92, 10
92, 11
91, 11
90, 11
90, 10
90, 11
89, 11
88, 11
88, 10
87, 10
87, 9
87, 8
88, 8
87, 8
87, 7
87, 6
88, 6
88, 5
89, 5
90, 5
90, 6
90, 5
91, 5
92, 5
92, 6
93, 6
93, 7
93, 8
92, 8
92, 7
93, 7
94, 7
94, 8
95, 8
95, 9
95, 10
94, 10
95, 10
95, 11
95, 12
94, 12
94, 13
93, 13
92, 13
92, 12
92, 11
93, 11
94, 11
94, 12
95, 12
95, 13
95, 14
94, 14
95, 14
95, 15
95, 16
94, 16
94, 17
93, 17
92, 17
92, 16
93, 16
93, 17
93, 18
92, 18
92, 19
91, 19
90, 19
90, 18
90, 19
89, 19
88, 19
88, 18
87, 18
87, 17
87, 16
88, 16
88, 15
89, 15
90, 15
90, 16
91, 16
91, 17
91, 18
90, 18
91, 18
91, 19
91, 20
90, 20
90, 21
89, 21
88, 21
88, 20
89, 20
89, 21
89, 22
88, 22
88, 23
87, 23
86, 23
86, 22
86, 23
85, 23
84, 23
84, 22
83, 22
83, 21
83, 20
84, 20
85, 20
85, 21
85, 22
84, 22
84, 23
83, 23
82, 23
82, 22
82, 23
81, 23
80, 23
80, 22
79, 22
79, 21
79, 20
80, 20
80, 21
79, 21
78, 21
78, 20
77, 20
77, 19
77, 18
78, 18
77, 18
77, 17
77, 16
78, 16
78, 15
79, 15
80, 15
80, 16
80, 17
79, 17
78, 17
78, 16
77, 16
77, 15
77, 14
78, 14
77, 14
77, 13
77, 12
78, 12
78, 11
79, 11
80, 11
80, 12
79, 12
79, 11
79, 10
80, 10
80, 9
81, 9
82, 9
82, 10
82, 9
83, 9
84, 9
84, 10
85, 10
85, 11
85, 12
84, 12
83, 12
83, 11
83, 10
84, 10
84, 9
85, 9
86, 9
86, 10
86, 9
87, 9
88, 9
88, 10
89, 10
89, 11
89, 12
88, 12
88, 11
89, 11
90, 11
90, 12
91, 12
91, 13
91, 14
90, 14
91, 14
91, 15
91, 16
90, 16
90, 17
89, 17
88, 17
88, 16
87, 16
87, 15
87, 14
88, 14
88, 13
89, 13
90, 13
90, 14
90, 13
91, 13
92, 13
92, 14
93, 14
93, 15
93, 16
92, 16
92, 15
93, 15
94, 15
94, 16
95, 16
95, 17
95, 18
94, 18
95, 18
95, 19
95, 20
94, 20
94, 21
93, 21
92, 21
92, 20
92, 19
93, 19
94, 19
94, 20
95, 20
95, 21
95, 22
94, 22
95, 22
95, 23
95, 24
94, 24
94, 25
93, 25
92, 25
92, 24
93, 24
93, 25
93, 26
92, 26
92, 27
91, 27
90, 27
90, 26
90, 27
89, 27
88, 27
88, 26
87, 26
87, 25
87, 24
88, 24
87, 24
87, 23
87, 22
88, 22
88, 21
89, 21
90, 21
90, 22
90, 21
91, 21
92, 21
92, 22
93, 22
93, 23
93, 24
92, 24
92, 23
93, 23
94, 23
94, 24
95, 24
95, 25
95, 26
94, 26
95, 26
95, 27
95, 28
94, 28
94, 29
93, 29
92, 29
92, 28
92, 27
93, 27
94, 27
94, 28
95, 28
95, 29
95, 30
94, 30
95, 30
95, 31
95, 32
94, 32
94, 33
93, 33
92, 33
92, 32
93, 32
93, 33
93, 34
92, 34
92, 35
91, 35
90, 35
90, 34
90, 35
89, 35
88, 35
88, 34
87, 34
87, 33
87, 32
88, 32
88, 31
89, 31
90, 31
90, 32
91, 32
91, 33
91, 34
90, 34
91, 34
91, 35
91, 36
90, 36
90, 37
89, 37
88, 37
88, 36
89, 36
89, 37
89, 38
88, 38
88, 39
87, 39
86, 39
86, 38
86, 39
85, 39
84, 39
84, 38
83, 38
83, 37
83, 36
84, 36
85, 36
85, 37
85, 38
84, 38
84, 39
83, 39
82, 39
82, 38
82, 39
81, 39
80, 39
80, 38
79, 38
79, 37
79, 36
80, 36
80, 37
79, 37
78, 37
78, 36
77, 36
77, 35
77, 34
78, 34
77, 34
77, 33
77, 32
78, 32
78, 31
79, 31
80, 31
80, 32
79, 32
79, 31
79, 30
80, 30
80, 29
81, 29
82, 29
82, 30
82, 29
83, 29
84, 29
84, 30
85, 30
85, 31
85, 32
84, 32
84, 31
85, 31
86, 31
86, 32
87, 32
87, 33
87, 34
86, 34
87, 34
87, 35
87, 36
86, 36
86, 37
85, 37
84, 37
84, 36
84, 35
85, 35
86, 35
86, 36
87, 36
87, 37
87, 38
86, 38
87, 38
87, 39
87, 40
86, 40
86, 41
85, 41
84, 41
84, 40
85, 40
85, 41
85, 42
84, 42
84, 43
83, 43
82, 43
82, 42
82, 43
81, 43
80, 43
80, 42
79, 42
79, 41
79, 40
80, 40
80, 39
81, 39
82, 39
82, 40
83, 40
83, 41
83, 42
82, 42
83, 42
83, 43
83, 44
82, 44
82, 45
81, 45
80, 45
80, 44
81, 44
81, 45
81, 46
80, 46
80, 47
79, 47
78, 47
78, 46
78, 47
77, 47
76, 47
76, 46
75, 46
75, 45
75, 44
76, 44
77, 44
77, 45
77, 46
76, 46
76, 47
75, 47
74, 47
74, 46
74, 47
73, 47
72, 47
72, 46
71, 46
71, 45
71, 44
72, 44
72, 45
71, 45
70, 45
70, 44
69, 44
69, 43
69, 42
70, 42
69, 42
69, 41
69, 40
70, 40
70, 39
71, 39
72, 39
72, 40
72, 39
73, 39
74, 39
74, 40
75, 40
75, 41
75, 42
74, 42
75, 42
75, 43
75, 44
74, 44
74, 45
73, 45
72, 45
72, 44
73, 44
73, 45
73, 46
72, 46
72, 47
71, 47
70, 47
70, 46
70, 47
69, 47
68, 47
68, 46
67, 46
67, 45
67, 44
68, 44
69, 44
69, 45
69, 46
68, 46
68, 47
67, 47
66, 47
66, 46
66, 47
65, 47
64, 47
64, 46
63, 46
63, 45
63, 44
64, 44
64, 45
63, 45
62, 45
62, 44
61, 44
61, 43
61, 42
62, 42
61, 42
61, 41
61, 40
62, 40
62, 39
63, 39
64, 39
64, 40
65, 40
65, 41
65, 42
64, 42
64, 43
63, 43
62, 43
62, 42
62, 43
61, 43
60, 43
60, 42
59, 42
59, 41
59, 40
60, 40
60, 41
59, 41
58, 41
58, 40
57, 40
57, 39
57, 38
58, 38
57, 38
57, 37
57, 36
58, 36
58, 35
59, 35
60, 35
60, 36
60, 37
59, 37
58, 37
58, 36
57, 36
57, 35
57, 34
58, 34
57, 34
57, 33
57, 32
58, 32
58, 31
59, 31
60, 31
60, 32
59, 32
59, 31
59, 30
60, 30
60, 29
61, 29
62, 29
62, 30
62, 29
63, 29
64, 29
64, 30
65, 30
65, 31
65, 32
64, 32
64, 33
63, 33
62, 33
62, 32
61, 32
61, 31
61, 30
62, 30
61, 30
61, 29
61, 28
62, 28
62, 27
63, 27
64, 27
64, 28
63, 28
63, 27
63, 26
64, 26
64, 25
65, 25
66, 25
66, 26
66, 25
67, 25
68, 25
68, 26
69, 26
69, 27
69, 28
68, 28
67, 28
67, 27
67, 26
68, 26
68, 25
69, 25
70, 25
70, 26
70, 25
71, 25
72, 25
72, 26
73, 26
73, 27
73, 28
72, 28
72, 27
73, 27
74, 27
74, 28
75, 28
75, 29
75, 30
74, 30
75, 30
75, 31
75, 32
74, 32
74, 33
73, 33
72, 33
72, 32
71, 32
71, 31
71, 30
72, 30
72, 29
73, 29
74, 29
74, 30
74, 29
75, 29
76, 29
76, 30
77, 30
77, 31
77, 32
76, 32
76, 31
77, 31
78, 31
78, 32
79, 32
79, 33
79, 34
78, 34
79, 34
79, 35
79, 36
78, 36
78, 37
77, 37
76, 37
76, 36
76, 35
77, 35
78, 35
78, 36
79, 36
79, 37
79, 38
78, 38
79, 38
79, 39
79, 40
78, 40
78, 41
77, 41
76, 41
76, 40
77, 40
77, 41
77, 42
76, 42
76, 43
75, 43
74, 43
74, 42
74, 43
73, 43
72, 43
72, 42
71, 42
71, 41
71, 40
72, 40
71, 40
71, 39
71, 38
72, 38
72, 37
73, 37
74, 37
74, 38
74, 37
75, 37
76, 37
76, 38
77, 38
77, 39
77, 40
76, 40
76, 39
77, 39
78, 39
78, 40
79, 40
79, 41
79, 42
78, 42
79, 42
79, 43
79, 44
78, 44
78, 45
77, 45
76, 45
76, 44
76, 43
77, 43
78, 43
78, 44
79, 44
79, 45
79, 46
78, 46
79, 46
79, 47
79, 48
78, 48
78, 49
77, 49
76, 49
76, 48
77, 48
77, 49
77, 50
76, 50
76, 51
75, 51
74, 51
74, 50
74, 51
73, 51
72, 51
72, 50
71, 50
71, 49
71, 48
72, 48
72, 47
73, 47
74, 47
74, 48
75, 48
75, 49
75, 50
74, 50
75, 50
75, 51
75, 52
74, 52
74, 53
73, 53
72, 53
72, 52
73, 52
73, 53
73, 54
72, 54
72, 55
71, 55
70, 55
70, 54
70, 55
69, 55
68, 55
68, 54
67, 54
67, 53
67, 52
68, 52
69, 52
69, 53
69, 54
68, 54
68, 55
67, 55
66, 55
66, 54
66, 55
65, 55
64, 55
64, 54
63, 54
63, 53
63, 52
64, 52
64, 53
63, 53
62, 53
62, 52
61, 52
61, 51
61, 50
62, 50
61, 50
61, 49
61, 48
62, 48
62, 47
63, 47
64, 47
64, 48
63, 48
63, 47
63, 46
64, 46
64, 45
65, 45
66, 45
66, 46
66, 45
67, 45
68, 45
68, 46
69, 46
69, 47
69, 48
68, 48
68, 47
69, 47
70, 47
70, 48
71, 48
71, 49
71, 50
70, 50
71, 50
71, 51
71, 52
70, 52
70, 53
69, 53
68, 53
68, 52
68, 51
69, 51
70, 51
70, 52
71, 52
71, 53
71, 54
70, 54
71, 54
71, 55
71, 56
70, 56
70, 57
69, 57
68, 57
68, 56
69, 56
69, 57
69, 58
68, 58
68, 59
67, 59
66, 59
66, 58
66, 59
65, 59
64, 59
64, 58
63, 58
63, 57
63, 56
64, 56
64, 55
65, 55
66, 55
66, 56
67, 56
67, 57
67, 58
66, 58
67, 58
67, 59
67, 60
66, 60
66, 61
65, 61
64, 61
64, 60
65, 60
65, 61
65, 62
64, 62
64, 63
63, 63
62, 63
62, 62
62, 63
61, 63
60, 63
60, 62
59, 62
59, 61
59, 60
60, 60
61, 60
61, 61
61, 62
60, 62
60, 63
59, 63
58, 63
58, 62
58, 63
57, 63
56, 63
56, 62
55, 62
55, 61
55, 60
56, 60
56, 61
55, 61
54, 61
54, 60
53, 60
53, 59
53, 58
54, 58
53, 58
53, 57
53, 56
54, 56
54, 55
55, 55
56, 55
56, 56
56, 55
57, 55
58, 55
58, 56
59, 56
59, 57
59, 58
58, 58
59, 58
59, 59
59, 60
58, 60
58, 61
57, 61
56, 61
56, 60
57, 60
57, 61
57, 62
56, 62
56, 63
55, 63
54, 63
54, 62
54, 63
53, 63
52, 63
52, 62
51, 62
51, 61
51, 60
52, 60
53, 60
53, 61
53, 62
52, 62
52, 63
51, 63
50, 63
50, 62
50, 63
49, 63
48, 63
48, 62
47, 62
47, 61
47, 60
48, 60
48, 61
47, 61
46, 61
46, 60
45, 60
45, 59
45, 58
46, 58
45, 58
45, 57
45, 56
46, 56
46, 55
47, 55
48, 55
48, 56
49, 56
49, 57
49, 58
48, 58
48, 59
47, 59
46, 59
46, 58
46, 59
45, 59
44, 59
44, 58
43, 58
43, 57
43, 56
44, 56
44, 57
43, 57
42, 57
42, 56
41, 56
41, 55
41, 54
42, 54
41, 54
41, 53
41, 52
42, 52
42, 51
43, 51
44, 51
44, 52
44, 53
43, 53
42, 53
42, 52
41, 52
41, 51
41, 50
42, 50
41, 50
41, 49
41, 48
42, 48
42, 47
43, 47
44, 47
44, 48
43, 48
43, 47
43, 46
44, 46
44, 45
45, 45
46, 45
46, 46
46, 45
47, 45
48, 45
48, 46
49, 46
49, 47
49, 48
48, 48
47, 48
47, 47
47, 46
48, 46
48, 45
49, 45
50, 45
50, 46
50, 45
51, 45
52, 45
52, 46
53, 46
53, 47
53, 48
52, 48
52, 47
53, 47
54, 47
54, 48
55, 48
55, 49
55, 50
54, 50
55, 50
55, 51
55, 52
54, 52
54, 53
53, 53
52, 53
52, 52
52, 51
53, 51
54, 51
54, 52
55, 52
55, 53
55, 54
54, 54
55, 54
55, 55
55, 56
54, 56
54, 57
53, 57
52, 57
52, 56
53, 56
53, 57
53, 58
52, 58
52, 59
51, 59
50, 59
50, 58
50, 59
49, 59
48, 59
48, 58
47, 58
47, 57
47, 56
48, 56
48, 55
49, 55
50, 55
50, 56
51, 56
51, 57
51, 58
50, 58
51, 58
51, 59
51, 60
50, 60
50, 61
49, 61
48, 61
48, 60
49, 60
49, 61
49, 62
48, 62
48, 63
47, 63
46, 63
46, 62
46, 63
45, 63
44, 63
44, 62
43, 62
43, 61
43, 60
44, 60
45, 60
45, 61
45, 62
44, 62
44, 63
43, 63
42, 63
42, 62
42, 63
41, 63
40, 63
40, 62
39, 62
39, 61
39, 60
40, 60
40, 61
39, 61
38, 61
38, 60
37, 60
37, 59
37, 58
38, 58
37, 58
37, 57
37, 56
38, 56
38, 55
39, 55
40, 55
40, 56
40, 55
41, 55
42, 55
42, 56
43, 56
43, 57
43, 58
42, 58
43, 58
43, 59
43, 60
42, 60
42, 61
41, 61
40, 61
40, 60
41, 60
41, 61
41, 62
40, 62
40, 63
39, 63
38, 63
38, 62
38, 63
37, 63
36, 63
36, 62
35, 62
35, 61
35, 60
36, 60
37, 60
37, 61
37, 62
36, 62
36, 63
35, 63
34, 63
34, 62
34, 63
33, 63
32, 63
32, 62
31, 62
31, 61
31, 60
32, 60
32, 61
31, 61
30, 61
30, 60
29, 60
29, 59
29, 58
30, 58
29, 58
29, 57
29, 56
30, 56
30, 55
31, 55
32, 55
32, 56
33, 56
33, 57
33, 58
32, 58
32, 59
31, 59
30, 59
30, 58
30, 59
29, 59
28, 59
28, 58
27, 58
27, 57
27, 56
28, 56
28, 57
27, 57
26, 57
26, 56
25, 56
25, 55
25, 54
26, 54
25, 54
25, 53
25, 52
26, 52
26, 51
27, 51
28, 51
28, 52
28, 53
27, 53
26, 53
26, 52
25, 52
25, 51
25, 50
26, 50
25, 50
25, 49
25, 48
26, 48
26, 47
27, 47
28, 47
28, 48
27, 48
27, 47
27, 46
28, 46
28, 45
29, 45
30, 45
30, 46
30, 45
31, 45
32, 45
32, 46
33, 46
33, 47
33, 48
32, 48
32, 47
33, 47
34, 47
34, 48
35, 48
35, 49
35, 50
34, 50
35, 50
35, 51
35, 52
34, 52
34, 53
33, 53
32, 53
32, 52
33, 52
33, 53
33, 54
32, 54
32, 55
31, 55
30, 55
30, 54
30, 55
29, 55
28, 55
28, 54
27, 54
27, 53
27, 52
28, 52
29, 52
29, 53
29, 54
28, 54
28, 55
27, 55
26, 55
26, 54
26, 55
25, 55
24, 55
24, 54
23, 54
23, 53
23, 52
24, 52
24, 53
23, 53
22, 53
22, 52
21, 52
21, 51
21, 50
22, 50
21, 50
21, 49
21, 48
22, 48
22, 47
23, 47
24, 47
24, 48
25, 48
25, 49
25, 50
24, 50
24, 51
23, 51
22, 51
22, 50
22, 51
21, 51
20, 51
20, 50
19, 50
19, 49
19, 48
20, 48
20, 49
19, 49
18, 49
18, 48
17, 48
17, 47
17, 46
18, 46
17, 46
17, 45
17, 44
18, 44
18, 43
19, 43
20, 43
20, 44
20, 45
19, 45
18, 45
18, 44
17, 44
17, 43
17, 42
18, 42
17, 42
17, 41
17, 40
18, 40
18, 39
19, 39
20, 39
20, 40
19, 40
19, 39
19, 38
20, 38
20, 37
21, 37
22, 37
22, 38
22, 37
23, 37
24, 37
24, 38
25, 38
25, 39
25, 40
24, 40
25, 40
25, 41
25, 42
24, 42
24, 43
23, 43
22, 43
22, 42
22, 43
21, 43
20, 43
20, 42
19, 42
19, 41
19, 40
20, 40
20, 41
19, 41
18, 41
18, 40
17, 40
17, 39
17, 38
18, 38
17, 38
17, 37
17, 36
18, 36
18, 35
19, 35
20, 35
20, 36
20, 37
19, 37
18, 37
18, 36
17, 36
17, 35
17, 34
18, 34
17, 34
17, 33
17, 32
18, 32
18, 31
19, 31
20, 31
20, 32
19, 32
19, 31
19, 30
20, 30
20, 29
21, 29
22, 29
22, 30
22, 29
23, 29
24, 29
24, 30
25, 30
25, 31
25, 32
24, 32
24, 33
23, 33
22, 33
22, 32
21, 32
21, 31
21, 30
22, 30
21, 30
21, 29
21, 28
22, 28
22, 27
23, 27
24, 27
24, 28
23, 28
23, 27
23, 26
24, 26
24, 25
25, 25
26, 25
26, 26
26, 25
27, 25
28, 25
28, 26
29, 26
29, 27
29, 28
28, 28
27, 28
27, 27
27, 26
28, 26
28, 25
29, 25
30, 25
30, 26
30, 25
31, 25
32, 25
32, 26
33, 26
33, 27
33, 28
32, 28
32, 27
33, 27
34, 27
34, 28
35, 28
35, 29
35, 30
34, 30
35, 30
35, 31
35, 32
34, 32
34, 33
33, 33
32, 33
32, 32
32, 33
31, 33
30, 33
30, 32
29, 32
29, 31
29, 30
30, 30
29, 30
29, 29
29, 28
30, 28
30, 27
31, 27
32, 27
32, 28
31, 28
31, 27
31, 26
32, 26
32, 25
33, 25
34, 25
34, 26
34, 25
35, 25
36, 25
36, 26
37, 26
37, 27
37, 28
36, 28
35, 28
35, 27
35, 26
36, 26
36, 25
37, 25
38, 25
38, 26
38, 25
39, 25
40, 25
40, 26
41, 26
41, 27
41, 28
40, 28
40, 27
41, 27
42, 27
42, 28
43, 28
43, 29
43, 30
42, 30
43, 30
43, 31
43, 32
42, 32
42, 33
41, 33
40, 33
40, 32
39, 32
39, 31
39, 30
40, 30
40, 29
41, 29
42, 29
42, 30
42, 29
43, 29
44, 29
44, 30
45, 30
45, 31
45, 32
44, 32
44, 31
45, 31
46, 31
46, 32
47, 32
47, 33
47, 34
46, 34
47, 34
47, 35
47, 36
46, 36
46, 37
45, 37
44, 37
44, 36
44, 35
45, 35
46, 35
46, 36
47, 36
47, 37
47, 38
46, 38
47, 38
47, 39
47, 40
46, 40
46, 41
45, 41
44, 41
44, 40
45, 40
45, 41
45, 42
44, 42
44, 43
43, 43
42, 43
42, 42
42, 43
41, 43
40, 43
40, 42
39, 42
39, 41
39, 40
40, 40
39, 40
39, 39
39, 38
40, 38
40, 37
41, 37
42, 37
42, 38
42, 37
43, 37
44, 37
44, 38
45, 38
45, 39
45, 40
44, 40
44, 39
45, 39
46, 39
46, 40
47, 40
47, 41
47, 42
46, 42
47, 42
47, 43
47, 44
46, 44
46, 45
45, 45
44, 45
44, 44
44, 43
45, 43
46, 43
46, 44
47, 44
47, 45
47, 46
46, 46
47, 46
47, 47
47, 48
46, 48
46, 49
45, 49
44, 49
44, 48
45, 48
45, 49
45, 50
44, 50
44, 51
43, 51
42, 51
42, 50
42, 51
41, 51
40, 51
40, 50
39, 50
39, 49
39, 48
40, 48
40, 47
41, 47
42, 47
42, 48
43, 48
43, 49
43, 50
42, 50
43, 50
43, 51
43, 52
42, 52
42, 53
41, 53
40, 53
40, 52
41, 52
41, 53
41, 54
40, 54
40, 55
39, 55
38, 55
38, 54
38, 55
37, 55
36, 55
36, 54
35, 54
35, 53
35, 52
36, 52
37, 52
37, 53
37, 54
36, 54
36, 55
35, 55
34, 55
34, 54
34, 55
33, 55
32, 55
32, 54
31, 54
31, 53
31, 52
32, 52
32, 53
31, 53
30, 53
30, 52
29, 52
29, 51
29, 50
30, 50
29, 50
29, 49
29, 48
30, 48
30, 47
31, 47
32, 47
32, 48
31, 48
31, 47
31, 46
32, 46
32, 45
33, 45
34, 45
34, 46
34, 45
35, 45
36, 45
36, 46
37, 46
37, 47
37, 48
36, 48
36, 47
37, 47
38, 47
38, 48
39, 48
39, 49
39, 50
38, 50
39, 50
39, 51
39, 52
38, 52
38, 53
37, 53
36, 53
36, 52
36, 51
37, 51
38, 51
38, 52
39, 52
39, 53
39, 54
38, 54
39, 54
39, 55
39, 56
38, 56
38, 57
37, 57
36, 57
36, 56
37, 56
37, 57
37, 58
36, 58
36, 59
35, 59
34, 59
34, 58
34, 59
33, 59
32, 59
32, 58
31, 58
31, 57
31, 56
32, 56
32, 55
33, 55
34, 55
34, 56
35, 56
35, 57
35, 58
34, 58
35, 58
35, 59
35, 60
34, 60
34, 61
33, 61
32, 61
32, 60
33, 60
33, 61
33, 62
32, 62
32, 63
31, 63
30, 63
30, 62
30, 63
29, 63
28, 63
28, 62
27, 62
27, 61
27, 60
28, 60
29, 60
29, 61
29, 62
28, 62
28, 63
27, 63
26, 63
26, 62
26, 63
25, 63
24, 63
24, 62
23, 62
23, 61
23, 60
24, 60
24, 61
23, 61
22, 61
22, 60
21, 60
21, 59
21, 58
22, 58
21, 58
21, 57
21, 56
22, 56
22, 55
23, 55
24, 55
24, 56
24, 55
25, 55
26, 55
26, 56
27, 56
27, 57
27, 58
26, 58
27, 58
27, 59
27, 60
26, 60
26, 61
25, 61
24, 61
24, 60
25, 60
25, 61
25, 62
24, 62
24, 63
23, 63
22, 63
22, 62
22, 63
21, 63
20, 63
20, 62
19, 62
19, 61
19, 60
20, 60
21, 60
21, 61
21, 62
20, 62
20, 63
19, 63
18, 63
18, 62
18, 63
17, 63
16, 63
16, 62
15, 62
15, 61
15, 60
16, 60
16, 61
15, 61
14, 61
14, 60
13, 60
13, 59
13, 58
14, 58
13, 58
13, 57
13, 56
14, 56
14, 55
15, 55
16, 55
16, 56
17, 56
17, 57
17, 58
16, 58
16, 59
15, 59
14, 59
14, 58
14, 59
13, 59
12, 59
12, 58
11, 58
11, 57
11, 56
12, 56
12, 57
11, 57
10, 57
10, 56
9, 56
9, 55
9, 54
10, 54
9, 54
9, 53
9, 52
10, 52
10, 51
11, 51
12, 51
12, 52
12, 53
11, 53
10, 53
10, 52
9, 52
9, 51
9, 50
10, 50
9, 50
9, 49
9, 48
10, 48
10, 47
11, 47
12, 47
12, 48
11, 48
11, 47
11, 46
12, 46
12, 45
13, 45
14, 45
14, 46
14, 45
15, 45
16, 45
16, 46
17, 46
17, 47
17, 48
16, 48
15, 48
15, 47
15, 46
16, 46
16, 45
17, 45
18, 45
18, 46
18, 45
19, 45
20, 45
20, 46
21, 46
21, 47
21, 48
20, 48
20, 47
21, 47
22, 47
22, 48
23, 48
23, 49
23, 50
22, 50
23, 50
23, 51
23, 52
22, 52
22, 53
21, 53
20, 53
20, 52
20, 51
21, 51
22, 51
22, 52
23, 52
23, 53
23, 54
22, 54
23, 54
23, 55
23, 56
22, 56
22, 57
21, 57
20, 57
20, 56
21, 56
21, 57
21, 58
20, 58
20, 59
19, 59
18, 59
18, 58
18, 59
17, 59
16, 59
16, 58
15, 58
15, 57
15, 56
16, 56
16, 55
17, 55
18, 55
18, 56
19, 56
19, 57
19, 58
18, 58
19, 58
19, 59
19, 60
18, 60
18, 61
17, 61
16, 61
16, 60
17, 60
17, 61
17, 62
16, 62
16, 63
15, 63
14, 63
14, 62
14, 63
13, 63
12, 63
12, 62
11, 62
11, 61
11, 60
12, 60
13, 60
13, 61
13, 62
12, 62
12, 63
11, 63
10, 63
10, 62
10, 63
9, 63
8, 63
8, 62
7, 62
7, 61
7, 60
8, 60
8, 61
7, 61
6, 61
6, 60
5, 60
5, 59
5, 58
6, 58
5, 58
5, 57
5, 56
6, 56
6, 55
7, 55
8, 55
8, 56
8, 55
9, 55
10, 55
10, 56
11, 56
11, 57
11, 58
10, 58
11, 58
11, 59
11, 60
10, 60
10, 61
9, 61
8, 61
8, 60
9, 60
9, 61
9, 62
8, 62
8, 63
7, 63
6, 63
6, 62
6, 63
5, 63
4, 63
4, 62
3, 62
3, 61
3, 60
4, 60
5, 60
5, 61
5, 62
4, 62
4, 63
3, 63
2, 63
2, 62
2, 63
1, 63
0, 63
0, 62
-1, 62
-1, 61
-1, 60
0, 60
0, 61
-1, 61
-2, 61
-2, 60
-3, 60
-3, 59
-3, 58
-2, 58
-3, 58
-3, 57
-3, 56
-2, 56
-2, 55
-1, 55
0, 55
0, 56
1, 56
1, 57
1, 58
0, 58
0, 59
-1, 59
-2, 59
-2, 58
-2, 59
-3, 59
-4, 59
-4, 58
-5, 58
-5, 57
-5, 56
-4, 56
-4, 57
-5, 57
-6, 57
-6, 56
-7, 56
-7, 55
-7, 54
-6, 54
-7, 54
-7, 53
-7, 52
-6, 52
-6, 51
-5, 51
-4, 51
-4, 52
-4, 53
-5, 53
-6, 53
-6, 52
-7, 52
-7, 51
-7, 50
-6, 50
-7, 50
-7, 49
-7, 48
-6, 48
-6, 47
-5, 47
-4, 47
-4, 48
-5, 48
-5, 47
-5, 46
-4, 46
-4, 45
-3, 45
-2, 45
-2, 46
-2, 45
-1, 45
0, 45
0, 46
1, 46
1, 47
1, 48
0, 48
0, 47
1, 47
2, 47
2, 48
3, 48
3, 49
3, 50
2, 50
3, 50
3, 51
3, 52
2, 52
2, 53
1, 53
0, 53
0, 52
1, 52
1, 53
1, 54
0, 54
0, 55
-1, 55
-2, 55
-2, 54
-2, 55
-3, 55
-4, 55
-4, 54
-5, 54
-5, 53
-5, 52
-4, 52
-3, 52
-3, 53
-3, 54
-4, 54
-4, 55
-5, 55
-6, 55
-6, 54
-6, 55
-7, 55
-8, 55
-8, 54
-9, 54
-9, 53
-9, 52
-8, 52
-8, 53
-9, 53
-10, 53
-10, 52
-11, 52
-11, 51
-11, 50
-10, 50
-11, 50
-11, 49
-11, 48
-10, 48
-10, 47
-9, 47
-8, 47
-8, 48
-7, 48
-7, 49
-7, 50
-8, 50
-8, 51
-9, 51
-10, 51
-10, 50
-10, 51
-11, 51
-12, 51
-12, 50
-13, 50
-13, 49
-13, 48
-12, 48
-12, 49
-13, 49
-14, 49
-14, 48
-15, 48
-15, 47
-15, 46
-14, 46
-15, 46
-15, 45
-15, 44
-14, 44
-14, 43
-13, 43
-12, 43
-12, 44
-12, 45
-13, 45
-14, 45
-14, 44
-15, 44
-15, 43
-15, 42
-14, 42
-15, 42
-15, 41
-15, 40
-14, 40
-14, 39
-13, 39
-12, 39
-12, 40
-13, 40
-13, 39
-13, 38
-12, 38
-12, 37
-11, 37
-10, 37
-10, 38
-10, 37
-9, 37
-8, 37
-8, 38
-7, 38
-7, 39
-7, 40
-8, 40
-7, 40
-7, 41
-7, 42
-8, 42
-8, 43
-9, 43
-10, 43
-10, 42
-10, 43
-11, 43
-12, 43
-12, 42
-13, 42
-13, 41
-13, 40
-12, 40
-12, 41
-13, 41
-14, 41
-14, 40
-15, 40
-15, 39
-15, 38
-14, 38
-15, 38
-15, 37
-15, 36
-14, 36
-14, 35
-13, 35
-12, 35
-12, 36
-12, 37
-13, 37
-14, 37
-14, 36
-15, 36
-15, 35
-15, 34
-14, 34
-15, 34
-15, 33
-15, 32
-14, 32
-14, 31
-13, 31
-12, 31
-12, 32
-13, 32
-13, 31
-13, 30
-12, 30
-12, 29
-11, 29
-10, 29
-10, 30
-10, 29
-9, 29
-8, 29
-8, 30
-7, 30
-7, 31
-7, 32
-8, 32
-8, 33
-9, 33
-10, 33
-10, 32
-11, 32
-11, 31
-11, 30
-10, 30
-11, 30
-11, 29
-11, 28
-10, 28
-10, 27
-9, 27
-8, 27
-8, 28
-9, 28
-9, 27
-9, 26
-8, 26
-8, 25
-7, 25
-6, 25
-6, 26
-6, 25
-5, 25
-4, 25
-4, 26
-3, 26
-3, 27
-3, 28
-4, 28
-5, 28
-5, 27
-5, 26
-4, 26
-4, 25
-3, 25
-2, 25
-2, 26
-2, 25
-1, 25
-0, 25
-0, 26
1, 26
1, 27
1, 28
-0, 28
-0, 27
1, 27
2, 27
2, 28
3, 28
3, 29
3, 30
2, 30
3, 30
3, 31
3, 32
2, 32
2, 33
1, 33
-0, 33
-0, 32
-1, 32
-1, 31
-1, 30
-0, 30
-0, 29
1, 29
2, 29
2, 30
2, 29
3, 29
4, 29
4, 30
5, 30
5, 31
5, 32
4, 32
4, 31
5, 31
6, 31
6, 32
7, 32
7, 33
7, 34
6, 34
7, 34
7, 35
7, 36
6, 36
6, 37
5, 37
4, 37
4, 36
4, 35
5, 35
6, 35
6, 36
7, 36
7, 37
7, 38
6, 38
7, 38
7, 39
7, 40
6, 40
6, 41
5, 41
4, 41
4, 40
5, 40
5, 41
5, 42
4, 42
4, 43
3, 43
2, 43
2, 42
2, 43
1, 43
-0, 43
-0, 42
-1, 42
-1, 41
-1, 40
-0, 40
-0, 39
1, 39
2, 39
2, 40
3, 40
3, 41
3, 42
2, 42
3, 42
3, 43
3, 44
2, 44
2, 45
1, 45
-0, 45
-0, 44
1, 44
1, 45
1, 46
-0, 46
-0, 47
-1, 47
-2, 47
-2, 46
-2, 47
-3, 47
-4, 47
-4, 46
-5, 46
-5, 45
-5, 44
-4, 44
-3, 44
-3, 45
-3, 46
-4, 46
-4, 47
-5, 47
-6, 47
-6, 46
-6, 47
-7, 47
-8, 47
-8, 46
-9, 46
-9, 45
-9, 44
-8, 44
-8, 45
-9, 45
-10, 45
-10, 44
-11, 44
-11, 43
-11, 42
-10, 42
-11, 42
-11, 41
-11, 40
-10, 40
-10, 39
-9, 39
-8, 39
-8, 40
-8, 39
-7, 39
-6, 39
-6, 40
-5, 40
-5, 41
-5, 42
-6, 42
-5, 42
-5, 43
-5, 44
-6, 44
-6, 45
-7, 45
-8, 45
-8, 44
-7, 44
-7, 45
-7, 46
-8, 46
-8, 47
-9, 47
-10, 47
-10, 46
-10, 47
-11, 47
-12, 47
-12, 46
-13, 46
-13, 45
-13, 44
-12, 44
-11, 44
-11, 45
-11, 46
-12, 46
-12, 47
-13, 47
-14, 47
-14, 46
-14, 47
-15, 47
-16, 47
-16, 46
-17, 46
-17, 45
-17, 44
-16, 44
-16, 45
-17, 45
-18, 45
-18, 44
-19, 44
-19, 43
-19, 42
-18, 42
-19, 42
-19, 41
-19, 40
-18, 40
-18, 39
-17, 39
-16, 39
-16, 40
-15, 40
-15, 41
-15, 42
-16, 42
-16, 43
-17, 43
-18, 43
-18, 42
-18, 43
-19, 43
-20, 43
-20, 42
-21, 42
-21, 41
-21, 40
-20, 40
-20, 41
-21, 41
-22, 41
-22, 40
-23, 40
-23, 39
-23, 38
-22, 38
-23, 38
-23, 37
-23, 36
-22, 36
-22, 35
-21, 35
-20, 35
-20, 36
-20, 37
-21, 37
-22, 37
-22, 36
-23, 36
-23, 35
-23, 34
-22, 34
-23, 34
-23, 33
-23, 32
-22, 32
-22, 31
-21, 31
-20, 31
-20, 32
-21, 32
-21, 31
-21, 30
-20, 30
-20, 29
-19, 29
-18, 29
-18, 30
-18, 29
-17, 29
-16, 29
-16, 30
-15, 30
-15, 31
-15, 32
-16, 32
-16, 31
-15, 31
-14, 31
-14, 32
-13, 32
-13, 33
-13, 34
-14, 34
-13, 34
-13, 35
-13, 36
-14, 36
-14, 37
-15, 37
-16, 37
-16, 36
-15, 36
-15, 37
-15, 38
-16, 38
-16, 39
-17, 39
-18, 39
-18, 38
-18, 39
-19, 39
-20, 39
-20, 38
-21, 38
-21, 37
-21, 36
-20, 36
-19, 36
-19, 37
-19, 38
-20, 38
-20, 39
-21, 39
-22, 39
-22, 38
-22, 39
-23, 39
-24, 39
-24, 38
-25, 38
-25, 37
-25, 36
-24, 36
-24, 37
-25, 37
-26, 37
-26, 36
-27, 36
-27, 35
-27, 34
-26, 34
-27, 34
-27, 33
-27, 32
-26, 32
-26, 31
-25, 31
-24, 31
-24, 32
-23, 32
-23, 33
-23, 34
-24, 34
-24, 35
-25, 35
-26, 35
-26, 34
-26, 35
-27, 35
-28, 35
-28, 34
-29, 34
-29, 33
-29, 32
-28, 32
-28, 33
-29, 33
-30, 33
-30, 32
-31, 32
-31, 31
-31, 30
-30, 30
-31, 30
-31, 29
-31, 28
-30, 28
-30, 27
-29, 27
-28, 27
-28, 28
-28, 29
-29, 29
-30, 29
-30, 28
-31, 28
-31, 27
-31, 26
-30, 26
-31, 26
-31, 25
-31, 24
-30, 24
-30, 23
-29, 23
-28, 23
-28, 24
-29, 24
-29, 23
-29, 22
-28, 22
-28, 21
-27, 21
-26, 21
-26, 22
-26, 21
-25, 21
-24, 21
-24, 22
-23, 22
-23, 23
-23, 24
-24, 24
-23, 24
-23, 25
-23, 26
-24, 26
-24, 27
-25, 27
-26, 27
-26, 26
-26, 27
-27, 27
-28, 27
-28, 26
-29, 26
-29, 25
-29, 24
-28, 24
-28, 25
-29, 25
-30, 25
-30, 24
-31, 24
-31, 23
-31, 22
-30, 22
-31, 22
-31, 21
-31, 20
-30, 20
-30, 19
-29, 19
-28, 19
-28, 20
-28, 21
-29, 21
-30, 21
-30, 20
-31, 20
-31, 19
-31, 18
-30, 18
-31, 18
-31, 17
-31, 16
-30, 16
-30, 15
-29, 15
-28, 15
-28, 16
-29, 16
-29, 15
-29, 14
-28, 14
-28, 13
-27, 13
-26, 13
-26, 14
-26, 13
-25, 13
-24, 13
-24, 14
-23, 14
-23, 15
-23, 16
-24, 16
-24, 17
-25, 17
-26, 17
-26, 16
-27, 16
-27, 15
-27, 14
-26, 14
-27, 14
-27, 13
-27, 12
-26, 12
-26, 11
-25, 11
-24, 11
-24, 12
-25, 12
-25, 11
-25, 10
-24, 10
-24, 9
-23, 9
-22, 9
-22, 10
-22, 9
-21, 9
-20, 9
-20, 10
-19, 10
-19, 11
-19, 12
-20, 12
-21, 12
-21, 11
-21, 10
-20, 10
-20, 9
-19, 9
-18, 9
-18, 10
-18, 9
-17, 9
-16, 9
-16, 10
-15, 10
-15, 11
-15, 12
-16, 12
-16, 11
-15, 11
-14, 11
-14, 12
-13, 12
-13, 13
-13, 14
-14, 14
-13, 14
-13, 15
-13, 16
-14, 16
-14, 17
-15, 17
-16, 17
-16, 16
-16, 15
-15, 15
-14, 15
-14, 16
-13, 16
-13, 17
-13, 18
-14, 18
-13, 18
-13, 19
-13, 20
-14, 20
-14, 21
-15, 21
-16, 21
-16, 20
-15, 20
-15, 21
-15, 22
-16, 22
-16, 23
-17, 23
-18, 23
-18, 22
-18, 23
-19, 23
-20, 23
-20, 22
-21, 22
-21, 21
-21, 20
-20, 20
-19, 20
-19, 21
-19, 22
-20, 22
-20, 23
-21, 23
-22, 23
-22, 22
-22, 23
-23, 23
-24, 23
-24, 22
-25, 22
-25, 21
-25, 20
-24, 20
-24, 21
-25, 21
-26, 21
-26, 20
-27, 20
-27, 19
-27, 18
-26, 18
-27, 18
-27, 17
-27, 16
-26, 16
-26, 15
-25, 15
-24, 15
-24, 16
-23, 16
-23, 17
-23, 18
-24, 18
-24, 19
-25, 19
-26, 19
-26, 18
-26, 19
-27, 19
-28, 19
-28, 18
-29, 18
-29, 17
-29, 16
-28, 16
-28, 17
-29, 17
-30, 17
-30, 16
-31, 16
-31, 15
-31, 14
-30, 14
-31, 14
-31, 13
-31, 12
-30, 12
-30, 11
-29, 11
-28, 11
-28, 12
-28, 13
-29, 13
-30, 13
-30, 12
-31, 12
-31, 11
-31, 10
-30, 10
-31, 10
-31, 9
-31, 8
-30, 8
-30, 7
-29, 7
-28, 7
-28, 8
-29, 8
-29, 7
-29, 6
-28, 6
-28, 5
-27, 5
-26, 5
-26, 6
-26, 5
-25, 5
-24, 5
-24, 6
-23, 6
-23, 7
-23, 8
-24, 8
-23, 8
-23, 9
-23, 10
-24, 10
-24, 11
-25, 11
-26, 11
-26, 10
-26, 11
-27, 11
-28, 11
-28, 10
-29, 10
-29, 9
-29, 8
-28, 8
-28, 9
-29, 9
-30, 9
-30, 8
-31, 8
-31, 7
-31, 6
-30, 6
-31, 6
-31, 5
-31, 4
-30, 4
-30, 3
-29, 3
-28, 3
-28, 4
-28, 5
-29, 5
-30, 5
-30, 4
-31, 4
-31, 3
-31, 2
-30, 2
-31, 2
-31, 1
-31, 0
-30, 0
-30, -1
-29, -1
-28, -1
-28, 0
-29, 0
-29, -1
-29, -2
-28, -2
-28, -3
-27, -3
-26, -3
-26, -2
-26, -3
-25, -3
-24, -3
-24, -2
-23, -2
-23, -1
-23, 0
-24, 0
-24, 1
-25, 1
-26, 1
-26, 0
-27, 0
-27, -1
-27, -2
-26, -2
-27, -2
-27, -3
-27, -4
-26, -4
-26, -5
-25, -5
-24, -5
-24, -4
-25, -4
-25, -5
-25, -6
-24, -6
-24, -7
-23, -7
-22, -7
-22, -6
-22, -7
-21, -7
-20, -7
-20, -6
-19, -6
-19, -5
-19, -4
-20, -4
-21, -4
-21, -5
-21, -6
-20, -6
-20, -7
-19, -7
-18, -7
-18, -6
-18, -7
-17, -7
-16, -7
-16, -6
-15, -6
-15, -5
-15, -4
-16, -4
-16, -5
-15, -5
-14, -5
-14, -4
-13, -4
-13, -3
-13, -2
-14, -2
-13, -2
-13, -1
-13, 0
-14, 0
-14, 1
-15, 1
-16, 1
-16, 0
-15, 0
-15, 1
-15, 2
-16, 2
-16, 3
-17, 3
-18, 3
-18, 2
-18, 3
-19, 3
-20, 3
-20, 2
-21, 2
-21, 1
-21, 0
-20, 0
-20, 1
-21, 1
-22, 1
-22, 0
-23, 0
-23, -1
-23, -2
-22, -2
-23, -2
-23, -3
-23, -4
-22, -4
-22, -5
-21, -5
-20, -5
-20, -4
-20, -3
-21, -3
-22, -3
-22, -4
-23, -4
-23, -5
-23, -6
-22, -6
-23, -6
-23, -7
-23, -8
-22, -8
-22, -9
-21, -9
-20, -9
-20, -8
-21, -8
-21, -9
-21, -10
-20, -10
-20, -11
-19, -11
-18, -11
-18, -10
-18, -11
-17, -11
-16, -11
-16, -10
-15, -10
-15, -9
-15, -8
-16, -8
-16, -7
-17, -7
-18, -7
-18, -8
-19, -8
-19, -9
-19, -10
-18, -10
-19, -10
-19, -11
-19, -12
-18, -12
-18, -13
-17, -13
-16, -13
-16, -12
-17, -12
-17, -13
-17, -14
-16, -14
-16, -15
-15, -15
-14, -15
-14, -14
-14, -15
-13, -15
-12, -15
-12, -14
-11, -14
-11, -13
-11, -12
-12, -12
-13, -12
-13, -13
-13, -14
-12, -14
-12, -15
-11, -15
-10, -15
-10, -14
-10, -15
-9, -15
-8, -15
-8, -14
-7, -14
-7, -13
-7, -12
-8, -12
-8, -13
-7, -13
-6, -13
-6, -12
-5, -12
-5, -11
-5, -10
-6, -10
-5, -10
-5, -9
-5, -8
-6, -8
-6, -7
-7, -7
-8, -7
-8, -8
-8, -7
-9, -7
-10, -7
-10, -8
-11, -8
-11, -9
-11, -10
-10, -10
-11, -10
-11, -11
-11, -12
-10, -12
-10, -13
-9, -13
-8, -13
-8, -12
-9, -12
-9, -13
-9, -14
-8, -14
-8, -15
-7, -15
-6, -15
-6, -14
-6, -15
-5, -15
-4, -15
-4, -14
-3, -14
-3, -13
-3, -12
-4, -12
-5, -12
-5, -13
-5, -14
-4, -14
-4, -15
-3, -15
-2, -15
-2, -14
-2, -15
-1, -15
-0, -15
-0, -14
1, -14
1, -13
1, -12
-0, -12
-0, -13
1, -13
2, -13
2, -12
3, -12
3, -11
3, -10
2, -10
3, -10
3, -9
3, -8
2, -8
2, -7
1, -7
-0, -7
-0, -8
-1, -8
-1, -9
-1, -10
-0, -10
-0, -11
1, -11
2, -11
2, -10
2, -11
3, -11
4, -11
4, -10
5, -10
5, -9
5, -8
4, -8
4, -9
5, -9
6, -9
6, -8
7, -8
7, -7
7, -6
6, -6
7, -6
7, -5
7, -4
6, -4
6, -3
5, -3
4, -3
4, -4
4, -5
5, -5
6, -5
6, -4
7, -4
7, -3
7, -2
6, -2
7, -2
7, -1
7, -0
6, -0
6, 1
5, 1
4, 1
4, -0
5, -0
5, 1
5, 2
4, 2
4, 3
3, 3
2, 3
2, 2
2, 3
1, 3
0, 3
0, 2
-1, 2
-1, 1
-1, 0
0, 0
" fill="none" stroke="black" stroke-width="0.11224972160321829"/>
</svg>