<svg xmlns="http://www.w3.org/2000/svg"
     xmlns:xlink="http://www.w3.org/1999/xlink"
     width="500" height="350" viewBox="-14.51722 -0 76.01316 72.29281">
<rect x="-14.51722" y="-0" width="100%" height="100%" fill="white"/>
<polyline points="
-0, 0
-0.30902, 0.95106
0.5, 1.53884
-0.5, 1.53884
-0.80902, 2.4899
-0, 3.07768
0.80902, 2.4899
0.5, 3.44095
1.30902, 4.02874
0.30902, 4.02874
-0, 4.9798
-0.30902, 4.02874
-1.30902, 4.02874
-1.61803, 4.9798
-0.80902, 5.56758
-1.80902, 5.56758
-2.11803, 6.51864
-1.30902, 7.10642
-0.5, 6.51864
-0.80902, 7.46969
-0, 8.05748
0.80902, 7.46969
0.5, 6.51864
1.30902, 7.10642
2.11803, 6.51864
1.80902, 7.46969
2.61803, 8.05748
1.61803, 8.05748
1.30902, 9.00854
2.11803, 9.59632
2.92705, 9.00854
2.61803, 9.95959
3.42705, 10.54738
2.42705, 10.54738
2.11803, 11.49843
1.80902, 10.54738
0.80902, 10.54738
0.5, 11.49843
1.30902, 12.08622
0.30902, 12.08622
-0, 13.03728
-0.30902, 12.08622
-1.30902, 12.08622
-0.5, 11.49843
-0.80902, 10.54738
-1.80902, 10.54738
-2.11803, 11.49843
-2.42705, 10.54738
-3.42705, 10.54738
-3.73607, 11.49843
-2.92705, 12.08622
-3.92705, 12.08622
-4.23607, 13.03728
-3.42705, 13.62506
-2.61803, 13.03728
-2.92705, 13.98833
-2.11803, 14.57612
-3.11803, 14.57612
-3.42705, 15.52717
-3.73607, 14.57612
-4.73607, 14.57612
-5.04508, 15.52717
-4.23607, 16.11496
-5.23607, 16.11496
-5.54508, 17.06602
-4.73607, 17.6538
-3.92705, 17.06602
-4.23607, 18.01707
-3.42705, 18.60486
-2.61803, 18.01707
-2.92705, 17.06602
-2.11803, 17.6538
-1.30902, 17.06602
-1.61803, 18.01707
-0.80902, 18.60486
-1.80902, 18.60486
-2.11803, 19.55592
-1.30902, 20.1437
-0.5, 19.55592
-0.80902, 20.50697
-0, 21.09476
0.80902, 20.50697
0.5, 19.55592
1.30902, 20.1437
2.11803, 19.55592
1.80902, 18.60486
0.80902, 18.60486
1.61803, 18.01707
1.30902, 17.06602
2.11803, 17.6538
2.92705, 17.06602
2.61803, 18.01707
3.42705, 18.60486
4.23607, 18.01707
3.92705, 17.06602
4.73607, 17.6538
5.54508, 17.06602
5.23607, 18.01707
6.04508, 18.60486
5.04508, 18.60486
4.73607, 19.55592
5.54508, 20.1437
6.3541, 19.55592
6.04508, 20.50697
6.8541, 21.09476
5.8541, 21.09476
5.54508, 22.04581
5.23607, 21.09476
4.23607, 21.09476
3.92705, 22.04581
4.73607, 22.6336
3.73607, 22.6336
3.42705, 23.58466
4.23607, 24.17244
5.04508, 23.58466
4.73607, 24.53571
5.54508, 25.1235
6.3541, 24.53571
6.04508, 23.58466
6.8541, 24.17244
7.66312, 23.58466
7.3541, 24.53571
8.16312, 25.1235
7.16312, 25.1235
6.8541, 26.07455
7.66312, 26.66234
8.47214, 26.07455
8.16312, 27.02561
8.97214, 27.6134
7.97214, 27.6134
7.66312, 28.56445
7.3541, 27.6134
6.3541, 27.6134
6.04508, 28.56445
6.8541, 29.15224
5.8541, 29.15224
5.54508, 30.10329
5.23607, 29.15224
4.23607, 29.15224
5.04508, 28.56445
4.73607, 27.6134
3.73607, 27.6134
3.42705, 28.56445
3.11803, 27.6134
2.11803, 27.6134
1.80902, 28.56445
2.61803, 29.15224
1.61803, 29.15224
1.30902, 30.10329
2.11803, 30.69108
2.92705, 30.10329
2.61803, 31.05435
3.42705, 31.64214
2.42705, 31.64214
2.11803, 32.59319
1.80902, 31.64214
0.80902, 31.64214
0.5, 32.59319
1.30902, 33.18098
0.30902, 33.18098
-0, 34.13203
-0.30902, 33.18098
-1.30902, 33.18098
-0.5, 32.59319
-0.80902, 31.64214
-1.80902, 31.64214
-2.11803, 32.59319
-2.42705, 31.64214
-3.42705, 31.64214
-2.61803, 31.05435
-2.92705, 30.10329
-2.11803, 30.69108
-1.30902, 30.10329
-1.61803, 29.15224
-2.61803, 29.15224
-1.80902, 28.56445
-2.11803, 27.6134
-3.11803, 27.6134
-3.42705, 28.56445
-3.73607, 27.6134
-4.73607, 27.6134
-5.04508, 28.56445
-4.23607, 29.15224
-5.23607, 29.15224
-5.54508, 30.10329
-5.8541, 29.15224
-6.8541, 29.15224
-6.04508, 28.56445
-6.3541, 27.6134
-7.3541, 27.6134
-7.66312, 28.56445
-7.97214, 27.6134
-8.97214, 27.6134
-9.28115, 28.56445
-8.47214, 29.15224
-9.47214, 29.15224
-9.78115, 30.10329
-8.97214, 30.69108
-8.16312, 30.10329
-8.47214, 31.05435
-7.66312, 31.64214
-8.66312, 31.64214
-8.97214, 32.59319
-9.28115, 31.64214
-10.28115, 31.64214
-10.59017, 32.59319
-9.78115, 33.18098
-10.78115, 33.18098
-11.09017, 34.13203
-10.28115, 34.71982
-9.47214, 34.13203
-9.78115, 35.08309
-8.97214, 35.67088
-8.16312, 35.08309
-8.47214, 34.13203
-7.66312, 34.71982
-6.8541, 34.13203
-7.16312, 35.08309
-6.3541, 35.67088
-7.3541, 35.67088
-7.66312, 36.62193
-6.8541, 37.20972
-6.04508, 36.62193
-6.3541, 37.57299
-5.54508, 38.16077
-6.54508, 38.16077
-6.8541, 39.11183
-7.16312, 38.16077
-8.16312, 38.16077
-8.47214, 39.11183
-7.66312, 39.69962
-8.66312, 39.69962
-8.97214, 40.65067
-9.28115, 39.69962
-10.28115, 39.69962
-9.47214, 39.11183
-9.78115, 38.16077
-10.78115, 38.16077
-11.09017, 39.11183
-11.39919, 38.16077
-12.39919, 38.16077
-12.7082, 39.11183
-11.89919, 39.69962
-12.89919, 39.69962
-13.2082, 40.65067
-12.39919, 41.23846
-11.59017, 40.65067
-11.89919, 41.60173
-11.09017, 42.18951
-12.09017, 42.18951
-12.39919, 43.14057
-12.7082, 42.18951
-13.7082, 42.18951
-14.01722, 43.14057
-13.2082, 43.72836
-14.2082, 43.72836
-14.51722, 44.67941
-13.7082, 45.2672
-12.89919, 44.67941
-13.2082, 45.63047
-12.39919, 46.21825
-11.59017, 45.63047
-11.89919, 44.67941
-11.09017, 45.2672
-10.28115, 44.67941
-10.59017, 45.63047
-9.78115, 46.21825
-10.78115, 46.21825
-11.09017, 47.16931
-10.28115, 47.7571
-9.47214, 47.16931
-9.78115, 48.12037
-8.97214, 48.70815
-8.16312, 48.12037
-8.47214, 47.16931
-7.66312, 47.7571
-6.8541, 47.16931
-7.16312, 46.21825
-8.16312, 46.21825
-7.3541, 45.63047
-7.66312, 44.67941
-6.8541, 45.2672
-6.04508, 44.67941
-6.3541, 45.63047
-5.54508, 46.21825
-4.73607, 45.63047
-5.04508, 44.67941
-4.23607, 45.2672
-3.42705, 44.67941
-3.73607, 45.63047
-2.92705, 46.21825
-3.92705, 46.21825
-4.23607, 47.16931
-3.42705, 47.7571
-2.61803, 47.16931
-2.92705, 48.12037
-2.11803, 48.70815
-3.11803, 48.70815
-3.42705, 49.65921
-3.73607, 48.70815
-4.73607, 48.70815
-5.04508, 49.65921
-4.23607, 50.24699
-5.23607, 50.24699
-5.54508, 51.19805
-4.73607, 51.78584
-3.92705, 51.19805
-4.23607, 52.14911
-3.42705, 52.73689
-2.61803, 52.14911
-2.92705, 51.19805
-2.11803, 51.78584
-1.30902, 51.19805
-1.61803, 52.14911
-0.80902, 52.73689
-1.80902, 52.73689
-2.11803, 53.68795
-1.30902, 54.27573
-0.5, 53.68795
-0.80902, 54.639
-0, 55.22679
0.80902, 54.639
0.5, 53.68795
1.30902, 54.27573
2.11803, 53.68795
1.80902, 52.73689
0.80902, 52.73689
1.61803, 52.14911
1.30902, 51.19805
2.11803, 51.78584
2.92705, 51.19805
2.61803, 52.14911
3.42705, 52.73689
4.23607, 52.14911
3.92705, 51.19805
4.73607, 51.78584
5.54508, 51.19805
5.23607, 50.24699
4.23607, 50.24699
5.04508, 49.65921
4.73607, 48.70815
3.73607, 48.70815
3.42705, 49.65921
3.11803, 48.70815
2.11803, 48.70815
2.92705, 48.12037
2.61803, 47.16931
3.42705, 47.7571
4.23607, 47.16931
3.92705, 46.21825
2.92705, 46.21825
3.73607, 45.63047
3.42705, 44.67941
4.23607, 45.2672
5.04508, 44.67941
4.73607, 45.63047
5.54508, 46.21825
6.3541, 45.63047
6.04508, 44.67941
6.8541, 45.2672
7.66312, 44.67941
7.3541, 45.63047
8.16312, 46.21825
7.16312, 46.21825
6.8541, 47.16931
7.66312, 47.7571
8.47214, 47.16931
8.16312, 48.12037
8.97214, 48.70815
9.78115, 48.12037
9.47214, 47.16931
10.28115, 47.7571
11.09017, 47.16931
10.78115, 46.21825
9.78115, 46.21825
10.59017, 45.63047
10.28115, 44.67941
11.09017, 45.2672
11.89919, 44.67941
11.59017, 45.63047
12.39919, 46.21825
13.2082, 45.63047
12.89919, 44.67941
13.7082, 45.2672
14.51722, 44.67941
14.2082, 45.63047
15.01722, 46.21825
14.01722, 46.21825
13.7082, 47.16931
14.51722, 47.7571
15.32624, 47.16931
15.01722, 48.12037
15.82624, 48.70815
14.82624, 48.70815
14.51722, 49.65921
14.2082, 48.70815
13.2082, 48.70815
12.89919, 49.65921
13.7082, 50.24699
12.7082, 50.24699
12.39919, 51.19805
13.2082, 51.78584
14.01722, 51.19805
13.7082, 52.14911
14.51722, 52.73689
15.32624, 52.14911
15.01722, 51.19805
15.82624, 51.78584
16.63525, 51.19805
16.32624, 52.14911
17.13525, 52.73689
16.13525, 52.73689
15.82624, 53.68795
16.63525, 54.27573
17.44427, 53.68795
17.13525, 54.639
17.94427, 55.22679
16.94427, 55.22679
16.63525, 56.17785
16.32624, 55.22679
15.32624, 55.22679
15.01722, 56.17785
15.82624, 56.76563
14.82624, 56.76563
14.51722, 57.71669
14.2082, 56.76563
13.2082, 56.76563
14.01722, 56.17785
13.7082, 55.22679
12.7082, 55.22679
12.39919, 56.17785
12.09017, 55.22679
11.09017, 55.22679
10.78115, 56.17785
11.59017, 56.76563
10.59017, 56.76563
10.28115, 57.71669
11.09017, 58.30447
11.89919, 57.71669
11.59017, 58.66775
12.39919, 59.25553
11.39919, 59.25553
11.09017, 60.20659
10.78115, 59.25553
9.78115, 59.25553
9.47214, 60.20659
10.28115, 60.79437
9.28115, 60.79437
8.97214, 61.74543
9.78115, 62.33321
10.59017, 61.74543
10.28115, 62.69649
11.09017, 63.28427
11.89919, 62.69649
11.59017, 61.74543
12.39919, 62.33321
13.2082, 61.74543
12.89919, 62.69649
13.7082, 63.28427
12.7082, 63.28427
12.39919, 64.23533
13.2082, 64.82311
14.01722, 64.23533
13.7082, 65.18638
14.51722, 65.77417
15.32624, 65.18638
15.01722, 64.23533
15.82624, 64.82311
16.63525, 64.23533
16.32624, 63.28427
15.32624, 63.28427
16.13525, 62.69649
15.82624, 61.74543
16.63525, 62.33321
17.44427, 61.74543
17.13525, 62.69649
17.94427, 63.28427
18.75329, 62.69649
18.44427, 61.74543
19.25329, 62.33321
20.06231, 61.74543
19.75329, 62.69649
20.56231, 63.28427
19.56231, 63.28427
19.25329, 64.23533
20.06231, 64.82311
20.87132, 64.23533
20.56231, 65.18638
21.37132, 65.77417
20.37132, 65.77417
20.06231, 66.72523
19.75329, 65.77417
18.75329, 65.77417
18.44427, 66.72523
19.25329, 67.31301
18.25329, 67.31301
17.94427, 68.26407
18.75329, 68.85185
19.56231, 68.26407
19.25329, 69.21512
20.06231, 69.80291
20.87132, 69.21512
20.56231, 68.26407
21.37132, 68.85185
22.18034, 68.26407
21.87132, 69.21512
22.68034, 69.80291
21.68034, 69.80291
21.37132, 70.75397
22.18034, 71.34175
22.98936, 70.75397
22.68034, 71.70502
23.48936, 72.29281
24.29837, 71.70502
23.98936, 70.75397
24.79837, 71.34175
25.60739, 70.75397
25.29837, 69.80291
24.29837, 69.80291
25.10739, 69.21512
24.79837, 68.26407
25.60739, 68.85185
26.41641, 68.26407
26.10739, 69.21512
26.91641, 69.80291
27.72542, 69.21512
27.41641, 68.26407
28.22542, 68.85185
29.03444, 68.26407
28.72542, 67.31301
27.72542, 67.31301
28.53444, 66.72523
28.22542, 65.77417
27.22542, 65.77417
26.91641, 66.72523
26.60739, 65.77417
25.60739, 65.77417
26.41641, 65.18638
26.10739, 64.23533
26.91641, 64.82311
27.72542, 64.23533
27.41641, 63.28427
26.41641, 63.28427
27.22542, 62.69649
26.91641, 61.74543
27.72542, 62.33321
28.53444, 61.74543
28.22542, 62.69649
29.03444, 63.28427
29.84346, 62.69649
29.53444, 61.74543
30.34346, 62.33321
31.15248, 61.74543
30.84346, 62.69649
31.65248, 63.28427
30.65248, 63.28427
30.34346, 64.23533
31.15248, 64.82311
31.96149, 64.23533
31.65248, 65.18638
32.46149, 65.77417
33.27051, 65.18638
32.96149, 64.23533
33.77051, 64.82311
34.57953, 64.23533
34.27051, 63.28427
33.27051, 63.28427
34.07953, 62.69649
33.77051, 61.74543
34.57953, 62.33321
35.38854, 61.74543
35.07953, 62.69649
35.88854, 63.28427
36.69756, 62.69649
36.38854, 61.74543
37.19756, 62.33321
38.00658, 61.74543
37.69756, 60.79437
36.69756, 60.79437
37.50658, 60.20659
37.19756, 59.25553
36.19756, 59.25553
35.88854, 60.20659
35.57953, 59.25553
34.57953, 59.25553
35.38854, 58.66775
35.07953, 57.71669
35.88854, 58.30447
36.69756, 57.71669
36.38854, 56.76563
35.38854, 56.76563
36.19756, 56.17785
35.88854, 55.22679
34.88854, 55.22679
34.57953, 56.17785
34.27051, 55.22679
33.27051, 55.22679
32.96149, 56.17785
33.77051, 56.76563
32.77051, 56.76563
32.46149, 57.71669
32.15248, 56.76563
31.15248, 56.76563
31.96149, 56.17785
31.65248, 55.22679
30.65248, 55.22679
30.34346, 56.17785
30.03444, 55.22679
29.03444, 55.22679
29.84346, 54.639
29.53444, 53.68795
30.34346, 54.27573
31.15248, 53.68795
30.84346, 52.73689
29.84346, 52.73689
30.65248, 52.14911
30.34346, 51.19805
31.15248, 51.78584
31.96149, 51.19805
31.65248, 52.14911
32.46149, 52.73689
33.27051, 52.14911
32.96149, 51.19805
33.77051, 51.78584
34.57953, 51.19805
34.27051, 50.24699
33.27051, 50.24699
34.07953, 49.65921
33.77051, 48.70815
32.77051, 48.70815
32.46149, 49.65921
32.15248, 48.70815
31.15248, 48.70815
31.96149, 48.12037
31.65248, 47.16931
32.46149, 47.7571
33.27051, 47.16931
32.96149, 46.21825
31.96149, 46.21825
32.77051, 45.63047
32.46149, 44.67941
33.27051, 45.2672
34.07953, 44.67941
33.77051, 45.63047
34.57953, 46.21825
35.38854, 45.63047
35.07953, 44.67941
35.88854, 45.2672
36.69756, 44.67941
36.38854, 45.63047
37.19756, 46.21825
36.19756, 46.21825
35.88854, 47.16931
36.69756, 47.7571
37.50658, 47.16931
37.19756, 48.12037
38.00658, 48.70815
38.81559, 48.12037
38.50658, 47.16931
39.31559, 47.7571
40.12461, 47.16931
39.81559, 46.21825
38.81559, 46.21825
39.62461, 45.63047
39.31559, 44.67941
40.12461, 45.2672
40.93363, 44.67941
40.62461, 45.63047
41.43363, 46.21825
42.24265, 45.63047
41.93363, 44.67941
42.74265, 45.2672
43.55166, 44.67941
43.24265, 45.63047
44.05166, 46.21825
43.05166, 46.21825
42.74265, 47.16931
43.55166, 47.7571
44.36068, 47.16931
44.05166, 48.12037
44.86068, 48.70815
43.86068, 48.70815
43.55166, 49.65921
43.24265, 48.70815
42.24265, 48.70815
41.93363, 49.65921
42.74265, 50.24699
41.74265, 50.24699
41.43363, 51.19805
42.24265, 51.78584
43.05166, 51.19805
42.74265, 52.14911
43.55166, 52.73689
44.36068, 52.14911
44.05166, 51.19805
44.86068, 51.78584
45.6697, 51.19805
45.36068, 52.14911
46.1697, 52.73689
45.1697, 52.73689
44.86068, 53.68795
45.6697, 54.27573
46.47871, 53.68795
46.1697, 54.639
46.97871, 55.22679
47.78773, 54.639
47.47871, 53.68795
48.28773, 54.27573
49.09675, 53.68795
48.78773, 52.73689
47.78773, 52.73689
48.59675, 52.14911
48.28773, 51.19805
49.09675, 51.78584
49.90576, 51.19805
49.59675, 52.14911
50.40576, 52.73689
51.21478, 52.14911
50.90576, 51.19805
51.71478, 51.78584
52.5238, 51.19805
52.21478, 50.24699
51.21478, 50.24699
52.0238, 49.65921
51.71478, 48.70815
50.71478, 48.70815
50.40576, 49.65921
50.09675, 48.70815
49.09675, 48.70815
49.90576, 48.12037
49.59675, 47.16931
50.40576, 47.7571
51.21478, 47.16931
50.90576, 46.21825
49.90576, 46.21825
50.71478, 45.63047
50.40576, 44.67941
51.21478, 45.2672
52.0238, 44.67941
51.71478, 45.63047
52.5238, 46.21825
53.33282, 45.63047
53.0238, 44.67941
53.83282, 45.2672
54.64183, 44.67941
54.33282, 45.63047
55.14183, 46.21825
54.14183, 46.21825
53.83282, 47.16931
54.64183, 47.7571
55.45085, 47.16931
55.14183, 48.12037
55.95085, 48.70815
56.75987, 48.12037
56.45085, 47.16931
57.25987, 47.7571
58.06888, 47.16931
57.75987, 46.21825
56.75987, 46.21825
57.56888, 45.63047
57.25987, 44.67941
58.06888, 45.2672
58.8779, 44.67941
58.56888, 45.63047
59.3779, 46.21825
60.18692, 45.63047
59.8779, 44.67941
60.68692, 45.2672
61.49593, 44.67941
61.18692, 43.72836
60.18692, 43.72836
60.99593, 43.14057
60.68692, 42.18951
59.68692, 42.18951
59.3779, 43.14057
59.06888, 42.18951
58.06888, 42.18951
58.8779, 41.60173
58.56888, 40.65067
59.3779, 41.23846
60.18692, 40.65067
59.8779, 39.69962
58.8779, 39.69962
59.68692, 39.11183
59.3779, 38.16077
58.3779, 38.16077
58.06888, 39.11183
57.75987, 38.16077
56.75987, 38.16077
56.45085, 39.11183
57.25987, 39.69962
56.25987, 39.69962
55.95085, 40.65067
55.64183, 39.69962
54.64183, 39.69962
55.45085, 39.11183
55.14183, 38.16077
54.14183, 38.16077
53.83282, 39.11183
53.5238, 38.16077
52.5238, 38.16077
53.33282, 37.57299
53.0238, 36.62193
53.83282, 37.20972
54.64183, 36.62193
54.33282, 35.67088
53.33282, 35.67088
54.14183, 35.08309
53.83282, 34.13203
54.64183, 34.71982
55.45085, 34.13203
55.14183, 35.08309
55.95085, 35.67088
56.75987, 35.08309
56.45085, 34.13203
57.25987, 34.71982
58.06888, 34.13203
57.75987, 33.18098
56.75987, 33.18098
57.56888, 32.59319
57.25987, 31.64214
56.25987, 31.64214
55.95085, 32.59319
55.64183, 31.64214
54.64183, 31.64214
55.45085, 31.05435
55.14183, 30.10329
55.95085, 30.69108
56.75987, 30.10329
56.45085, 29.15224
55.45085, 29.15224
56.25987, 28.56445
55.95085, 27.6134
54.95085, 27.6134
54.64183, 28.56445
54.33282, 27.6134
53.33282, 27.6134
53.0238, 28.56445
53.83282, 29.15224
52.83282, 29.15224
52.5238, 30.10329
52.21478, 29.15224
51.21478, 29.15224
52.0238, 28.56445
51.71478, 27.6134
50.71478, 27.6134
50.40576, 28.56445
50.09675, 27.6134
49.09675, 27.6134
48.78773, 28.56445
49.59675, 29.15224
48.59675, 29.15224
48.28773, 30.10329
49.09675, 30.69108
49.90576, 30.10329
49.59675, 31.05435
50.40576, 31.64214
49.40576, 31.64214
49.09675, 32.59319
48.78773, 31.64214
47.78773, 31.64214
47.47871, 32.59319
48.28773, 33.18098
47.28773, 33.18098
46.97871, 34.13203
46.6697, 33.18098
45.6697, 33.18098
46.47871, 32.59319
46.1697, 31.64214
45.1697, 31.64214
44.86068, 32.59319
44.55166, 31.64214
43.55166, 31.64214
44.36068, 31.05435
44.05166, 30.10329
44.86068, 30.69108
45.6697, 30.10329
45.36068, 29.15224
44.36068, 29.15224
45.1697, 28.56445
44.86068, 27.6134
43.86068, 27.6134
43.55166, 28.56445
43.24265, 27.6134
42.24265, 27.6134
41.93363, 28.56445
42.74265, 29.15224
41.74265, 29.15224
41.43363, 30.10329
41.12461, 29.15224
40.12461, 29.15224
40.93363, 28.56445
40.62461, 27.6134
39.62461, 27.6134
39.31559, 28.56445
39.00658, 27.6134
38.00658, 27.6134
38.81559, 27.02561
38.50658, 26.07455
39.31559, 26.66234
40.12461, 26.07455
39.81559, 25.1235
38.81559, 25.1235
39.62461, 24.53571
39.31559, 23.58466
40.12461, 24.17244
40.93363, 23.58466
40.62461, 24.53571
41.43363, 25.1235
42.24265, 24.53571
41.93363, 23.58466
42.74265, 24.17244
43.55166, 23.58466
43.24265, 22.6336
42.24265, 22.6336
43.05166, 22.04581
42.74265, 21.09476
41.74265, 21.09476
41.43363, 22.04581
41.12461, 21.09476
40.12461, 21.09476
40.93363, 20.50697
40.62461, 19.55592
41.43363, 20.1437
42.24265, 19.55592
41.93363, 18.60486
40.93363, 18.60486
41.74265, 18.01707
41.43363, 17.06602
42.24265, 17.6538
43.05166, 17.06602
42.74265, 18.01707
43.55166, 18.60486
44.36068, 18.01707
44.05166, 17.06602
44.86068, 17.6538
45.6697, 17.06602
45.36068, 18.01707
46.1697, 18.60486
45.1697, 18.60486
44.86068, 19.55592
45.6697, 20.1437
46.47871, 19.55592
46.1697, 20.50697
46.97871, 21.09476
47.78773, 20.50697
47.47871, 19.55592
48.28773, 20.1437
49.09675, 19.55592
48.78773, 18.60486
47.78773, 18.60486
48.59675, 18.01707
48.28773, 17.06602
49.09675, 17.6538
49.90576, 17.06602
49.59675, 18.01707
50.40576, 18.60486
51.21478, 18.01707
50.90576, 17.06602
51.71478, 17.6538
52.5238, 17.06602
52.21478, 16.11496
51.21478, 16.11496
52.0238, 15.52717
51.71478, 14.57612
50.71478, 14.57612
50.40576, 15.52717
50.09675, 14.57612
49.09675, 14.57612
49.90576, 13.98833
49.59675, 13.03728
50.40576, 13.62506
51.21478, 13.03728
50.90576, 12.08622
49.90576, 12.08622
50.71478, 11.49843
50.40576, 10.54738
49.40576, 10.54738
49.09675, 11.49843
48.78773, 10.54738
47.78773, 10.54738
47.47871, 11.49843
48.28773, 12.08622
47.28773, 12.08622
46.97871, 13.03728
46.6697, 12.08622
45.6697, 12.08622
46.47871, 11.49843
46.1697, 10.54738
45.1697, 10.54738
44.86068, 11.49843
44.55166, 10.54738
43.55166, 10.54738
44.36068, 9.95959
44.05166, 9.00854
44.86068, 9.59632
45.6697, 9.00854
45.36068, 8.05748
44.36068, 8.05748
45.1697, 7.46969
44.86068, 6.51864
45.6697, 7.10642
46.47871, 6.51864
46.1697, 7.46969
46.97871, 8.05748
47.78773, 7.46969
47.47871, 6.51864
48.28773, 7.10642
49.09675, 6.51864
48.78773, 5.56758
47.78773, 5.56758
48.59675, 4.9798
48.28773, 4.02874
47.28773, 4.02874
46.97871, 4.9798
46.6697, 4.02874
45.6697, 4.02874
46.47871, 3.44095
46.1697, 2.4899
46.97871, 3.07768
47.78773, 2.4899
47.47871, 1.53884
46.47871, 1.53884
47.28773, 0.95106
46.97871, -0
45.97871, -0
45.6697, 0.95106
45.36068, -0
44.36068, -0
44.05166, 0.95106
44.86068, 1.53884
43.86068, 1.53884
43.55166, 2.4899
43.24265, 1.53884
42.24265, 1.53884
43.05166, 0.95106
42.74265, -0
41.74265, -0
41.43363, 0.95106
41.12461, -0
40.12461, -0
39.81559, 0.95106
40.62461, 1.53884
39.62461, 1.53884
39.31559, 2.4899
40.12461, 3.07768
40.93363, 2.4899
40.62461, 3.44095
41.43363, 4.02874
40.43363, 4.02874
40.12461, 4.9798
39.81559, 4.02874
38.81559, 4.02874
38.50658, 4.9798
39.31559, 5.56758
38.31559, 5.56758
38.00658, 6.51864
37.69756, 5.56758
36.69756, 5.56758
37.50658, 4.9798
37.19756, 4.02874
36.19756, 4.02874
35.88854, 4.9798
35.57953, 4.02874
34.57953, 4.02874
35.38854, 3.44095
35.07953, 2.4899
35.88854, 3.07768
36.69756, 2.4899
36.38854, 1.53884
35.38854, 1.53884
36.19756, 0.95106
35.88854, -0
34.88854, -0
34.57953, 0.95106
34.27051, -0
33.27051, -0
32.96149, 0.95106
33.77051, 1.53884
32.77051, 1.53884
32.46149, 2.4899
32.15248, 1.53884
31.15248, 1.53884
31.96149, 0.95106
31.65248, -0
30.65248, -0
30.34346, 0.95106
30.03444, -0
29.03444, -0
28.72542, 0.95106
29.53444, 1.53884
28.53444, 1.53884
28.22542, 2.4899
29.03444, 3.07768
29.84346, 2.4899
29.53444, 3.44095
30.34346, 4.02874
29.34346, 4.02874
29.03444, 4.9798
28.72542, 4.02874
27.72542, 4.02874
27.41641, 4.9798
28.22542, 5.56758
27.22542, 5.56758
26.91641, 6.51864
27.72542, 7.10642
28.53444, 6.51864
28.22542, 7.46969
29.03444, 8.05748
29.84346, 7.46969
29.53444, 6.51864
30.34346, 7.10642
31.15248, 6.51864
30.84346, 7.46969
31.65248, 8.05748
30.65248, 8.05748
30.34346, 9.00854
31.15248, 9.59632
31.96149, 9.00854
31.65248, 9.95959
32.46149, 10.54738
31.46149, 10.54738
31.15248, 11.49843
30.84346, 10.54738
29.84346, 10.54738
29.53444, 11.49843
30.34346, 12.08622
29.34346, 12.08622
29.03444, 13.03728
28.72542, 12.08622
27.72542, 12.08622
28.53444, 11.49843
28.22542, 10.54738
27.22542, 10.54738
26.91641, 11.49843
26.60739, 10.54738
25.60739, 10.54738
25.29837, 11.49843
26.10739, 12.08622
25.10739, 12.08622
24.79837, 13.03728
25.60739, 13.62506
26.41641, 13.03728
26.10739, 13.98833
26.91641, 14.57612
25.91641, 14.57612
25.60739, 15.52717
25.29837, 14.57612
24.29837, 14.57612
23.98936, 15.52717
24.79837, 16.11496
23.79837, 16.11496
23.48936, 17.06602
23.18034, 16.11496
22.18034, 16.11496
22.98936, 15.52717
22.68034, 14.57612
21.68034, 14.57612
21.37132, 15.52717
21.06231, 14.57612
20.06231, 14.57612
20.87132, 13.98833
20.56231, 13.03728
21.37132, 13.62506
22.18034, 13.03728
21.87132, 12.08622
20.87132, 12.08622
21.68034, 11.49843
21.37132, 10.54738
20.37132, 10.54738
20.06231, 11.49843
19.75329, 10.54738
18.75329, 10.54738
18.44427, 11.49843
19.25329, 12.08622
18.25329, 12.08622
17.94427, 13.03728
17.63525, 12.08622
16.63525, 12.08622
17.44427, 11.49843
17.13525, 10.54738
16.13525, 10.54738
15.82624, 11.49843
15.51722, 10.54738
14.51722, 10.54738
15.32624, 9.95959
15.01722, 9.00854
15.82624, 9.59632
16.63525, 9.00854
16.32624, 8.05748
15.32624, 8.05748
16.13525, 7.46969
15.82624, 6.51864
16.63525, 7.10642
17.44427, 6.51864
17.13525, 7.46969
17.94427, 8.05748
18.75329, 7.46969
18.44427, 6.51864
19.25329, 7.10642
20.06231, 6.51864
19.75329, 5.56758
18.75329, 5.56758
19.56231, 4.9798
19.25329, 4.02874
18.25329, 4.02874
17.94427, 4.9798
17.63525, 4.02874
16.63525, 4.02874
17.44427, 3.44095
17.13525, 2.4899
17.94427, 3.07768
18.75329, 2.4899
18.44427, 1.53884
17.44427, 1.53884
18.25329, 0.95106
17.94427, -0
16.94427, -0
16.63525, 0.95106
16.32624, -0
15.32624, -0
15.01722, 0.95106
15.82624, 1.53884
14.82624, 1.53884
14.51722, 2.4899
14.2082, 1.53884
13.2082, 1.53884
14.01722, 0.95106
13.7082, -0
12.7082, -0
12.39919, 0.95106
12.09017, -0
11.09017, -0
10.78115, 0.95106
11.59017, 1.53884
10.59017, 1.53884
10.28115, 2.4899
11.09017, 3.07768
11.89919, 2.4899
11.59017, 3.44095
12.39919, 4.02874
11.39919, 4.02874
11.09017, 4.9798
10.78115, 4.02874
9.78115, 4.02874
9.47214, 4.9798
10.28115, 5.56758
9.28115, 5.56758
8.97214, 6.51864
8.66312, 5.56758
7.66312, 5.56758
8.47214, 4.9798
8.16312, 4.02874
7.16312, 4.02874
6.8541, 4.9798
6.54508, 4.02874
5.54508, 4.02874
6.3541, 3.44095
6.04508, 2.4899
6.8541, 3.07768
7.66312, 2.4899
7.3541, 1.53884
6.3541, 1.53884
7.16312, 0.95106
6.8541, -0
5.8541, -0
5.54508, 0.95106
5.23607, -0
4.23607, -0
3.92705, 0.95106
4.73607, 1.53884
3.73607, 1.53884
3.42705, 2.4899
3.11803, 1.53884
2.11803, 1.53884
2.92705, 0.95106
2.61803, 0
1.61803, 0
1.30902, 0.95106
1, 0
0, 0
" fill="none" stroke="black" stroke-width="0.08718552380842619"/>
</svg>