<svg xmlns="http://www.w3.org/2000/svg"
     xmlns:xlink="http://www.w3.org/1999/xlink"
     width="500" height="500" viewBox="0 -49.83072 58.80495 56.48812">
<rect x="0" y="-49.83072" width="100%" height="100%" fill="white"/>
<polyline points="
46.0238, -49.83072
45.0238, -49.83072
44.71478, -48.87967
45.5238, -48.29188
44.5238, -48.29188
44.21478, -49.24294
43.21478, -49.24294
42.90576, -48.29188
43.71478, -47.70409
44.5238, -48.29188
44.21478, -47.34082
43.21478, -47.34082
42.90576, -46.38977
43.71478, -45.80198
44.5238, -46.38977
44.21478, -47.34082
45.0238, -46.75304
44.71478, -45.80198
45.5238, -45.2142
44.5238, -45.2142
44.21478, -44.26314
45.0238, -43.67535
44.0238, -43.67535
43.71478, -44.62641
42.71478, -44.62641
42.40576, -45.57747
41.40576, -45.57747
41.09675, -44.62641
40.78773, -45.57747
41.59675, -46.16525
41.28773, -47.11631
40.28773, -47.11631
39.97871, -46.16525
40.78773, -45.57747
39.78773, -45.57747
39.47871, -46.52852
38.47871, -46.52852
38.1697, -45.57747
38.97871, -44.98968
39.78773, -45.57747
39.47871, -44.62641
38.47871, -44.62641
38.1697, -43.67535
38.97871, -43.08757
39.78773, -43.67535
39.47871, -44.62641
40.28773, -44.03863
39.97871, -43.08757
40.78773, -42.49978
41.59675, -43.08757
41.28773, -44.03863
40.28773, -44.03863
41.09675, -44.62641
41.90576, -44.03863
42.71478, -44.62641
42.40576, -43.67535
43.21478, -43.08757
44.0238, -43.67535
43.71478, -42.7243
42.71478, -42.7243
42.40576, -41.77324
41.40576, -41.77324
41.09675, -40.82219
41.90576, -40.2344
40.90576, -40.2344
40.59675, -41.18546
39.59675, -41.18546
39.28773, -40.2344
40.09675, -39.64661
40.90576, -40.2344
40.59675, -39.28334
39.59675, -39.28334
39.28773, -38.33229
40.09675, -37.7445
40.90576, -38.33229
40.59675, -39.28334
41.40576, -38.69556
41.09675, -37.7445
41.90576, -37.15672
42.71478, -37.7445
42.40576, -38.69556
41.40576, -38.69556
42.21478, -39.28334
43.0238, -38.69556
43.83282, -39.28334
43.5238, -40.2344
42.5238, -40.2344
42.21478, -39.28334
41.90576, -40.2344
42.71478, -40.82219
42.40576, -41.77324
43.21478, -41.18546
44.0238, -41.77324
43.71478, -42.7243
44.5238, -42.13651
44.21478, -41.18546
45.0238, -40.59767
44.71478, -39.64661
45.5238, -39.05883
46.33282, -39.64661
46.0238, -38.69556
45.0238, -38.69556
44.71478, -37.7445
45.5238, -37.15672
46.33282, -37.7445
46.0238, -38.69556
46.83282, -38.10777
46.5238, -37.15672
47.33282, -36.56893
46.33282, -36.56893
46.0238, -35.61787
46.83282, -35.03009
45.83282, -35.03009
45.5238, -35.98115
44.5238, -35.98115
44.21478, -35.03009
45.0238, -34.4423
45.83282, -35.03009
45.5238, -34.07903
44.5238, -34.07903
44.21478, -33.12798
45.0238, -32.54019
45.83282, -33.12798
45.5238, -34.07903
46.33282, -33.49125
46.0238, -32.54019
46.83282, -31.95241
45.83282, -31.95241
45.5238, -31.00135
46.33282, -30.41356
45.33282, -30.41356
45.0238, -31.36462
44.0238, -31.36462
43.71478, -32.31568
42.71478, -32.31568
42.40576, -31.36462
42.09675, -32.31568
42.90576, -32.90346
42.59675, -33.85452
41.59675, -33.85452
41.28773, -32.90346
42.09675, -32.31568
41.09675, -32.31568
40.78773, -33.26673
39.78773, -33.26673
39.47871, -34.21779
38.47871, -34.21779
38.1697, -33.26673
37.86068, -34.21779
38.6697, -34.80558
38.36068, -35.75663
37.36068, -35.75663
37.05166, -34.80558
37.86068, -34.21779
36.86068, -34.21779
36.55166, -35.16885
35.55166, -35.16885
35.24265, -34.21779
36.05166, -33.63
36.86068, -34.21779
36.55166, -33.26673
35.55166, -33.26673
35.24265, -32.31568
34.93363, -33.26673
33.93363, -33.26673
33.62461, -32.31568
33.31559, -33.26673
34.12461, -33.85452
33.81559, -34.80558
34.62461, -35.39336
34.31559, -36.34442
33.31559, -36.34442
34.12461, -36.9322
34.93363, -36.34442
35.74265, -36.9322
35.43363, -37.88326
34.43363, -37.88326
34.12461, -36.9322
33.81559, -37.88326
34.62461, -38.47104
34.31559, -39.4221
33.31559, -39.4221
33.00658, -38.47104
33.81559, -37.88326
32.81559, -37.88326
32.50658, -38.83432
31.50658, -38.83432
31.19756, -37.88326
32.00658, -37.29547
32.81559, -37.88326
32.50658, -36.9322
31.50658, -36.9322
31.19756, -35.98115
32.00658, -35.39336
32.81559, -35.98115
32.50658, -36.9322
33.31559, -36.34442
33.00658, -35.39336
33.81559, -34.80558
32.81559, -34.80558
32.50658, -33.85452
33.31559, -33.26673
32.31559, -33.26673
32.00658, -34.21779
31.00658, -34.21779
30.69756, -35.16885
29.69756, -35.16885
29.38854, -34.21779
29.07953, -35.16885
29.88854, -35.75663
29.57953, -36.70769
28.57953, -36.70769
28.27051, -35.75663
29.07953, -35.16885
28.07953, -35.16885
27.77051, -36.1199
26.77051, -36.1199
26.46149, -35.16885
27.27051, -34.58106
28.07953, -35.16885
27.77051, -34.21779
26.77051, -34.21779
26.46149, -33.26673
27.27051, -32.67895
28.07953, -33.26673
27.77051, -34.21779
28.57953, -33.63
28.27051, -32.67895
29.07953, -32.09116
29.88854, -32.67895
29.57953, -33.63
28.57953, -33.63
29.38854, -34.21779
30.19756, -33.63
31.00658, -34.21779
30.69756, -33.26673
31.50658, -32.67895
32.31559, -33.26673
32.00658, -32.31568
31.00658, -32.31568
30.69756, -31.36462
29.69756, -31.36462
29.38854, -30.41356
30.19756, -29.82578
29.19756, -29.82578
28.88854, -30.77684
27.88854, -30.77684
27.57953, -29.82578
28.38854, -29.23799
29.19756, -29.82578
28.88854, -28.87472
27.88854, -28.87472
27.57953, -27.92367
28.38854, -27.33588
29.19756, -27.92367
28.88854, -28.87472
29.69756, -28.28694
29.38854, -27.33588
30.19756, -26.7481
31.00658, -27.33588
30.69756, -28.28694
29.69756, -28.28694
30.50658, -28.87472
31.31559, -28.28694
32.12461, -28.87472
31.81559, -29.82578
30.81559, -29.82578
30.50658, -28.87472
30.19756, -29.82578
31.00658, -30.41356
30.69756, -31.36462
31.50658, -30.77684
32.31559, -31.36462
32.00658, -32.31568
32.81559, -31.72789
32.50658, -30.77684
33.31559, -30.18905
33.00658, -29.23799
33.81559, -28.65021
34.62461, -29.23799
34.31559, -28.28694
33.31559, -28.28694
33.00658, -27.33588
33.81559, -26.7481
34.62461, -27.33588
34.31559, -28.28694
35.12461, -27.69915
34.81559, -26.7481
35.62461, -26.16031
36.43363, -26.7481
36.12461, -27.69915
35.12461, -27.69915
35.93363, -28.28694
36.74265, -27.69915
37.55166, -28.28694
37.24265, -29.23799
36.24265, -29.23799
35.93363, -28.28694
35.62461, -29.23799
36.43363, -29.82578
36.12461, -30.77684
35.12461, -30.77684
34.81559, -29.82578
35.62461, -29.23799
34.62461, -29.23799
34.31559, -30.18905
33.31559, -30.18905
34.12461, -30.77684
33.81559, -31.72789
32.81559, -31.72789
33.62461, -32.31568
34.43363, -31.72789
35.24265, -32.31568
36.05166, -31.72789
36.86068, -32.31568
36.55166, -33.26673
37.36068, -32.67895
37.05166, -31.72789
37.86068, -31.14011
38.6697, -31.72789
38.36068, -32.67895
37.36068, -32.67895
38.1697, -33.26673
38.97871, -32.67895
39.78773, -33.26673
39.47871, -32.31568
40.28773, -31.72789
41.09675, -32.31568
40.78773, -31.36462
39.78773, -31.36462
39.47871, -30.41356
40.28773, -29.82578
41.09675, -30.41356
40.78773, -31.36462
41.59675, -30.77684
41.28773, -29.82578
42.09675, -29.23799
42.90576, -29.82578
42.59675, -30.77684
41.59675, -30.77684
42.40576, -31.36462
43.21478, -30.77684
44.0238, -31.36462
43.71478, -30.41356
44.5238, -29.82578
45.33282, -30.41356
45.0238, -29.46251
44.0238, -29.46251
43.71478, -28.51145
42.71478, -28.51145
42.40576, -27.56039
43.21478, -26.97261
42.21478, -26.97261
41.90576, -27.92367
40.90576, -27.92367
40.59675, -26.97261
41.40576, -26.38482
42.21478, -26.97261
41.90576, -26.02155
40.90576, -26.02155
40.59675, -25.0705
39.59675, -25.0705
39.28773, -24.11944
40.09675, -23.53165
39.09675, -23.53165
38.78773, -24.48271
37.78773, -24.48271
37.47871, -23.53165
38.28773, -22.94387
39.09675, -23.53165
38.78773, -22.5806
37.78773, -22.5806
37.47871, -21.62954
38.28773, -21.04176
39.09675, -21.62954
38.78773, -22.5806
39.59675, -21.99281
39.28773, -21.04176
40.09675, -20.45397
39.09675, -20.45397
38.78773, -19.50291
39.59675, -18.91513
38.59675, -18.91513
38.28773, -19.86619
37.28773, -19.86619
36.97871, -20.81724
35.97871, -20.81724
35.6697, -19.86619
35.36068, -20.81724
36.1697, -21.40503
35.86068, -22.35608
34.86068, -22.35608
34.55166, -21.40503
35.36068, -20.81724
34.36068, -20.81724
34.05166, -21.7683
33.05166, -21.7683
32.74265, -20.81724
33.55166, -20.22946
34.36068, -20.81724
34.05166, -19.86619
33.05166, -19.86619
32.74265, -18.91513
33.55166, -18.32734
34.36068, -18.91513
34.05166, -19.86619
34.86068, -19.2784
34.55166, -18.32734
35.36068, -17.73956
36.1697, -18.32734
35.86068, -19.2784
34.86068, -19.2784
35.6697, -19.86619
36.47871, -19.2784
37.28773, -19.86619
36.97871, -18.91513
37.78773, -18.32734
38.59675, -18.91513
38.28773, -17.96407
37.28773, -17.96407
36.97871, -17.01302
35.97871, -17.01302
35.6697, -16.06196
36.47871, -15.47417
35.47871, -15.47417
35.1697, -16.42523
34.1697, -16.42523
33.86068, -15.47417
34.6697, -14.88639
35.47871, -15.47417
35.1697, -14.52312
34.1697, -14.52312
33.86068, -13.57206
34.6697, -12.98428
35.47871, -13.57206
35.1697, -14.52312
35.97871, -13.93533
35.6697, -12.98428
36.47871, -12.39649
37.28773, -12.98428
36.97871, -13.93533
35.97871, -13.93533
36.78773, -14.52312
37.59675, -13.93533
38.40576, -14.52312
38.09675, -15.47417
37.09675, -15.47417
36.78773, -14.52312
36.47871, -15.47417
37.28773, -16.06196
36.97871, -17.01302
37.78773, -16.42523
38.59675, -17.01302
38.28773, -17.96407
39.09675, -17.37629
38.78773, -16.42523
39.59675, -15.83745
39.28773, -14.88639
40.09675, -14.2986
40.90576, -14.88639
40.59675, -13.93533
39.59675, -13.93533
39.28773, -12.98428
40.09675, -12.39649
40.90576, -12.98428
40.59675, -13.93533
41.40576, -13.34755
41.09675, -12.39649
41.90576, -11.80871
42.71478, -12.39649
42.40576, -13.34755
41.40576, -13.34755
42.21478, -13.93533
43.0238, -13.34755
43.83282, -13.93533
43.5238, -14.88639
42.5238, -14.88639
42.21478, -13.93533
41.90576, -14.88639
42.71478, -15.47417
42.40576, -16.42523
41.40576, -16.42523
41.09675, -15.47417
41.90576, -14.88639
40.90576, -14.88639
40.59675, -15.83745
39.59675, -15.83745
40.40576, -16.42523
40.09675, -17.37629
39.09675, -17.37629
39.90576, -17.96407
40.71478, -17.37629
41.5238, -17.96407
42.33282, -17.37629
43.14183, -17.96407
42.83282, -18.91513
43.64183, -18.32734
43.33282, -17.37629
44.14183, -16.7885
44.95085, -17.37629
44.64183, -18.32734
43.64183, -18.32734
44.45085, -18.91513
45.25987, -18.32734
46.06888, -18.91513
45.75987, -19.86619
44.75987, -19.86619
44.45085, -18.91513
44.14183, -19.86619
44.95085, -20.45397
44.64183, -21.40503
43.64183, -21.40503
43.33282, -20.45397
44.14183, -19.86619
43.14183, -19.86619
42.83282, -20.81724
41.83282, -20.81724
41.5238, -19.86619
42.33282, -19.2784
43.14183, -19.86619
42.83282, -18.91513
41.83282, -18.91513
41.5238, -17.96407
41.21478, -18.91513
40.21478, -18.91513
39.90576, -17.96407
39.59675, -18.91513
40.40576, -19.50291
40.09675, -20.45397
40.90576, -21.04176
40.59675, -21.99281
39.59675, -21.99281
40.40576, -22.5806
41.21478, -21.99281
42.0238, -22.5806
41.71478, -23.53165
40.71478, -23.53165
40.40576, -22.5806
40.09675, -23.53165
40.90576, -24.11944
40.59675, -25.0705
41.40576, -24.48271
42.21478, -25.0705
41.90576, -26.02155
42.71478, -25.43377
42.40576, -24.48271
43.21478, -23.89493
44.0238, -24.48271
43.71478, -25.43377
42.71478, -25.43377
43.5238, -26.02155
44.33282, -25.43377
45.14183, -26.02155
44.83282, -26.97261
43.83282, -26.97261
43.5238, -26.02155
43.21478, -26.97261
44.0238, -27.56039
43.71478, -28.51145
44.5238, -27.92367
45.33282, -28.51145
45.0238, -29.46251
45.83282, -28.87472
45.5238, -27.92367
46.33282, -27.33588
46.0238, -26.38482
46.83282, -25.79704
47.64183, -26.38482
47.33282, -25.43377
46.33282, -25.43377
46.0238, -24.48271
46.83282, -23.89493
47.64183, -24.48271
47.33282, -25.43377
48.14183, -24.84598
47.83282, -23.89493
48.64183, -23.30714
48.33282, -22.35608
49.14183, -21.7683
49.95085, -22.35608
49.64183, -21.40503
48.64183, -21.40503
48.33282, -20.45397
49.14183, -19.86619
49.95085, -20.45397
49.64183, -21.40503
50.45085, -20.81724
50.14183, -19.86619
50.95085, -19.2784
51.75987, -19.86619
51.45085, -20.81724
50.45085, -20.81724
51.25987, -21.40503
52.06888, -20.81724
52.8779, -21.40503
52.56888, -20.45397
53.3779, -19.86619
54.18692, -20.45397
53.8779, -19.50291
52.8779, -19.50291
52.56888, -18.55186
51.56888, -18.55186
51.25987, -17.6008
52.06888, -17.01302
51.06888, -17.01302
50.75987, -17.96407
49.75987, -17.96407
49.45085, -17.01302
50.25987, -16.42523
51.06888, -17.01302
50.75987, -16.06196
49.75987, -16.06196
49.45085, -15.1109
50.25987, -14.52312
51.06888, -15.1109
50.75987, -16.06196
51.56888, -15.47417
51.25987, -14.52312
52.06888, -13.93533
52.8779, -14.52312
52.56888, -15.47417
51.56888, -15.47417
52.3779, -16.06196
53.18692, -15.47417
53.99593, -16.06196
53.68692, -17.01302
52.68692, -17.01302
52.3779, -16.06196
52.06888, -17.01302
52.8779, -17.6008
52.56888, -18.55186
53.3779, -17.96407
54.18692, -18.55186
53.8779, -19.50291
54.68692, -18.91513
54.3779, -17.96407
55.18692, -17.37629
54.8779, -16.42523
55.68692, -15.83745
56.49593, -16.42523
56.18692, -15.47417
55.18692, -15.47417
54.8779, -14.52312
55.68692, -13.93533
56.49593, -14.52312
56.18692, -15.47417
56.99593, -14.88639
56.68692, -13.93533
57.49593, -13.34755
56.49593, -13.34755
56.18692, -12.39649
56.99593, -11.80871
55.99593, -11.80871
55.68692, -12.75976
54.68692, -12.75976
54.3779, -11.80871
55.18692, -11.22092
55.99593, -11.80871
55.68692, -10.85765
54.68692, -10.85765
54.3779, -9.90659
55.18692, -9.31881
55.99593, -9.90659
55.68692, -10.85765
56.49593, -10.26986
56.18692, -9.31881
56.99593, -8.73102
55.99593, -8.73102
55.68692, -7.77997
56.49593, -7.19218
55.49593, -7.19218
55.18692, -8.14324
54.18692, -8.14324
53.8779, -9.09429
52.8779, -9.09429
52.56888, -8.14324
52.25987, -9.09429
53.06888, -9.68208
52.75987, -10.63314
51.75987, -10.63314
51.45085, -9.68208
52.25987, -9.09429
51.25987, -9.09429
50.95085, -10.04535
49.95085, -10.04535
49.64183, -9.09429
50.45085, -8.50651
51.25987, -9.09429
50.95085, -8.14324
49.95085, -8.14324
49.64183, -7.19218
50.45085, -6.6044
51.25987, -7.19218
50.95085, -8.14324
51.75987, -7.55545
51.45085, -6.6044
52.25987, -6.01661
53.06888, -6.6044
52.75987, -7.55545
51.75987, -7.55545
52.56888, -8.14324
53.3779, -7.55545
54.18692, -8.14324
53.8779, -7.19218
54.68692, -6.6044
55.49593, -7.19218
55.18692, -6.24112
54.18692, -6.24112
53.8779, -5.29007
52.8779, -5.29007
52.56888, -4.33901
53.3779, -3.75123
52.3779, -3.75123
52.06888, -4.70228
51.06888, -4.70228
50.75987, -3.75123
51.56888, -3.16344
52.3779, -3.75123
52.06888, -2.80017
51.06888, -2.80017
50.75987, -1.84911
51.56888, -1.26133
52.3779, -1.84911
52.06888, -2.80017
52.8779, -2.21238
52.56888, -1.26133
53.3779, -0.67354
54.18692, -1.26133
53.8779, -2.21238
52.8779, -2.21238
53.68692, -2.80017
54.49593, -2.21238
55.30495, -2.80017
54.99593, -3.75123
53.99593, -3.75123
53.68692, -2.80017
53.3779, -3.75123
54.18692, -4.33901
53.8779, -5.29007
54.68692, -4.70228
55.49593, -5.29007
55.18692, -6.24112
55.99593, -5.65334
55.68692, -4.70228
56.49593, -4.1145
56.18692, -3.16344
56.99593, -2.57565
57.80495, -3.16344
57.49593, -2.21238
56.49593, -2.21238
56.18692, -1.26133
56.99593, -0.67354
57.80495, -1.26133
57.49593, -2.21238
58.30495, -1.6246
57.99593, -0.67354
58.80495, -0.08576
57.80495, -0.08576
57.49593, 0.8653
58.30495, 1.45309
57.30495, 1.45309
56.99593, 0.50203
55.99593, 0.50203
55.68692, 1.45309
56.49593, 2.04087
57.30495, 1.45309
56.99593, 2.40414
55.99593, 2.40414
55.68692, 3.3552
56.49593, 3.94298
57.30495, 3.3552
56.99593, 2.40414
57.80495, 2.99193
57.49593, 3.94298
58.30495, 4.53077
57.30495, 4.53077
56.99593, 5.48183
57.80495, 6.06961
56.80495, 6.06961
56.49593, 5.11855
55.49593, 5.11855
55.18692, 4.1675
54.18692, 4.1675
53.8779, 5.11855
53.56888, 4.1675
54.3779, 3.57971
54.06888, 2.62866
53.06888, 2.62866
52.75987, 3.57971
53.56888, 4.1675
52.56888, 4.1675
52.25987, 3.21644
51.25987, 3.21644
50.95085, 2.26538
49.95085, 2.26538
49.64183, 3.21644
49.33282, 2.26538
50.14183, 1.6776
49.83282, 0.72654
48.83282, 0.72654
48.5238, 1.6776
49.33282, 2.26538
48.33282, 2.26538
48.0238, 1.31433
47.0238, 1.31433
46.71478, 2.26538
47.5238, 2.85317
48.33282, 2.26538
48.0238, 3.21644
47.0238, 3.21644
46.71478, 4.1675
46.40576, 3.21644
45.40576, 3.21644
45.09675, 4.1675
44.78773, 3.21644
45.59675, 2.62866
45.28773, 1.6776
46.09675, 1.08981
45.78773, 0.13876
44.78773, 0.13876
45.59675, -0.44903
46.40576, 0.13876
47.21478, -0.44903
46.90576, -1.40008
45.90576, -1.40008
45.59675, -0.44903
45.28773, -1.40008
46.09675, -1.98787
45.78773, -2.93893
44.78773, -2.93893
44.47871, -1.98787
45.28773, -1.40008
44.28773, -1.40008
43.97871, -2.35114
42.97871, -2.35114
42.6697, -1.40008
43.47871, -0.8123
44.28773, -1.40008
43.97871, -0.44903
42.97871, -0.44903
42.6697, 0.50203
43.47871, 1.08981
44.28773, 0.50203
43.97871, -0.44903
44.78773, 0.13876
44.47871, 1.08981
45.28773, 1.6776
44.28773, 1.6776
43.97871, 2.62866
44.78773, 3.21644
43.78773, 3.21644
43.47871, 2.26538
42.47871, 2.26538
42.1697, 1.31433
41.1697, 1.31433
40.86068, 2.26538
40.55166, 1.31433
41.36068, 0.72654
41.05166, -0.22451
40.05166, -0.22451
39.74265, 0.72654
40.55166, 1.31433
39.55166, 1.31433
39.24265, 0.36327
38.24265, 0.36327
37.93363, -0.58779
36.93363, -0.58779
36.62461, 0.36327
36.31559, -0.58779
37.12461, -1.17557
36.81559, -2.12663
35.81559, -2.12663
35.50658, -1.17557
36.31559, -0.58779
35.31559, -0.58779
35.00658, -1.53884
34.00658, -1.53884
33.69756, -0.58779
34.50658, -0
35.31559, -0.58779
35.00658, 0.36327
34.00658, 0.36327
33.69756, 1.31433
33.38854, 0.36327
32.38854, 0.36327
32.07953, 1.31433
31.77051, 0.36327
32.57953, -0.22451
32.27051, -1.17557
33.07953, -1.76336
32.77051, -2.71441
31.77051, -2.71441
32.57953, -3.3022
33.38854, -2.71441
34.19756, -3.3022
33.88854, -4.25325
32.88854, -4.25325
32.57953, -3.3022
32.27051, -4.25325
33.07953, -4.84104
32.77051, -5.7921
31.77051, -5.7921
31.46149, -4.84104
32.27051, -4.25325
31.27051, -4.25325
30.96149, -5.20431
29.96149, -5.20431
29.65248, -4.25325
30.46149, -3.66547
31.27051, -4.25325
30.96149, -3.3022
29.96149, -3.3022
29.65248, -2.35114
30.46149, -1.76336
31.27051, -2.35114
30.96149, -3.3022
31.77051, -2.71441
31.46149, -1.76336
32.27051, -1.17557
31.27051, -1.17557
30.96149, -0.22451
31.77051, 0.36327
30.77051, 0.36327
30.46149, -0.58779
29.46149, -0.58779
29.15248, -1.53884
28.15248, -1.53884
27.84346, -0.58779
27.53444, -1.53884
28.34346, -2.12663
28.03444, -3.07768
27.03444, -3.07768
26.72542, -2.12663
27.53444, -1.53884
26.53444, -1.53884
26.22542, -2.4899
25.22542, -2.4899
24.91641, -1.53884
25.72542, -0.95106
26.53444, -1.53884
26.22542, -0.58779
25.22542, -0.58779
24.91641, 0.36327
25.72542, 0.95106
26.53444, 0.36327
26.22542, -0.58779
27.03444, -0
26.72542, 0.95106
27.53444, 1.53884
28.34346, 0.95106
28.03444, -0
27.03444, -0
27.84346, -0.58779
28.65248, -0
29.46149, -0.58779
29.15248, 0.36327
29.96149, 0.95106
30.77051, 0.36327
30.46149, 1.31433
29.46149, 1.31433
29.15248, 2.26538
28.15248, 2.26538
27.84346, 3.21644
28.65248, 3.80423
27.65248, 3.80423
27.34346, 2.85317
26.34346, 2.85317
26.03444, 3.80423
26.84346, 4.39201
27.65248, 3.80423
27.34346, 4.75528
26.34346, 4.75528
26.03444, 5.70634
25.72542, 4.75528
24.72542, 4.75528
24.41641, 5.70634
24.10739, 4.75528
24.91641, 4.1675
24.60739, 3.21644
23.60739, 3.21644
23.29837, 4.1675
24.10739, 4.75528
23.10739, 4.75528
22.79837, 3.80423
21.79837, 3.80423
21.48936, 4.75528
22.29837, 5.34307
23.10739, 4.75528
22.79837, 5.70634
21.79837, 5.70634
21.48936, 6.6574
21.18034, 5.70634
20.18034, 5.70634
19.87132, 6.6574
19.56231, 5.70634
20.37132, 5.11855
20.06231, 4.1675
20.87132, 3.57971
20.56231, 2.62866
19.56231, 2.62866
20.37132, 2.04087
21.18034, 2.62866
21.98936, 2.04087
21.68034, 1.08981
20.68034, 1.08981
20.37132, 2.04087
20.06231, 1.08981
20.87132, 0.50203
20.56231, -0.44903
21.37132, -1.03681
21.06231, -1.98787
20.06231, -1.98787
20.87132, -2.57565
21.68034, -1.98787
22.48936, -2.57565
22.18034, -3.52671
21.18034, -3.52671
20.87132, -2.57565
20.56231, -3.52671
21.37132, -4.1145
21.06231, -5.06555
20.06231, -5.06555
19.75329, -4.1145
20.56231, -3.52671
19.56231, -3.52671
19.25329, -4.47777
18.25329, -4.47777
19.06231, -5.06555
18.75329, -6.01661
17.75329, -6.01661
18.56231, -6.6044
19.37132, -6.01661
20.18034, -6.6044
20.98936, -6.01661
21.79837, -6.6044
21.48936, -7.55545
22.29837, -6.96767
21.98936, -6.01661
22.79837, -5.42882
23.60739, -6.01661
23.29837, -6.96767
22.29837, -6.96767
23.10739, -7.55545
23.91641, -6.96767
24.72542, -7.55545
24.41641, -8.50651
23.41641, -8.50651
23.10739, -7.55545
22.79837, -8.50651
23.60739, -9.09429
23.29837, -10.04535
22.29837, -10.04535
21.98936, -9.09429
22.79837, -8.50651
21.79837, -8.50651
21.48936, -9.45756
20.48936, -9.45756
20.18034, -8.50651
20.98936, -7.91872
21.79837, -8.50651
21.48936, -7.55545
20.48936, -7.55545
20.18034, -6.6044
19.87132, -7.55545
18.87132, -7.55545
18.56231, -6.6044
18.25329, -7.55545
19.06231, -8.14324
18.75329, -9.09429
19.56231, -9.68208
19.25329, -10.63314
18.25329, -10.63314
19.06231, -11.22092
19.87132, -10.63314
20.68034, -11.22092
20.37132, -12.17198
19.37132, -12.17198
19.06231, -11.22092
18.75329, -12.17198
19.56231, -12.75976
19.25329, -13.71082
18.25329, -13.71082
17.94427, -12.75976
18.75329, -12.17198
17.75329, -12.17198
17.44427, -13.12303
16.44427, -13.12303
16.13525, -12.17198
16.94427, -11.58419
17.75329, -12.17198
17.44427, -11.22092
16.44427, -11.22092
16.13525, -10.26986
16.94427, -9.68208
17.75329, -10.26986
17.44427, -11.22092
18.25329, -10.63314
17.94427, -9.68208
18.75329, -9.09429
17.75329, -9.09429
17.44427, -8.14324
18.25329, -7.55545
17.25329, -7.55545
16.94427, -8.50651
15.94427, -8.50651
15.63525, -9.45756
14.63525, -9.45756
14.32624, -8.50651
14.01722, -9.45756
14.82624, -10.04535
14.51722, -10.99641
13.51722, -10.99641
13.2082, -10.04535
14.01722, -9.45756
13.01722, -9.45756
12.7082, -10.40862
11.7082, -10.40862
11.39919, -9.45756
12.2082, -8.86978
13.01722, -9.45756
12.7082, -8.50651
11.7082, -8.50651
11.39919, -7.55545
12.2082, -6.96767
13.01722, -7.55545
12.7082, -8.50651
13.51722, -7.91872
13.2082, -6.96767
14.01722, -6.37988
14.82624, -6.96767
14.51722, -7.91872
13.51722, -7.91872
14.32624, -8.50651
15.13525, -7.91872
15.94427, -8.50651
15.63525, -7.55545
16.44427, -6.96767
17.25329, -7.55545
16.94427, -6.6044
15.94427, -6.6044
15.63525, -5.65334
14.63525, -5.65334
14.32624, -4.70228
15.13525, -4.1145
14.13525, -4.1145
13.82624, -5.06555
12.82624, -5.06555
12.51722, -4.1145
13.32624, -3.52671
14.13525, -4.1145
13.82624, -3.16344
12.82624, -3.16344
12.51722, -2.21238
13.32624, -1.6246
14.13525, -2.21238
13.82624, -3.16344
14.63525, -2.57565
14.32624, -1.6246
15.13525, -1.03681
15.94427, -1.6246
15.63525, -2.57565
14.63525, -2.57565
15.44427, -3.16344
16.25329, -2.57565
17.06231, -3.16344
16.75329, -4.1145
15.75329, -4.1145
15.44427, -3.16344
15.13525, -4.1145
15.94427, -4.70228
15.63525, -5.65334
16.44427, -5.06555
17.25329, -5.65334
16.94427, -6.6044
17.75329, -6.01661
17.44427, -5.06555
18.25329, -4.47777
17.94427, -3.52671
18.75329, -2.93893
19.56231, -3.52671
19.25329, -2.57565
18.25329, -2.57565
17.94427, -1.6246
18.75329, -1.03681
19.56231, -1.6246
19.25329, -2.57565
20.06231, -1.98787
19.75329, -1.03681
20.56231, -0.44903
19.56231, -0.44903
19.25329, 0.50203
20.06231, 1.08981
19.06231, 1.08981
18.75329, 0.13876
17.75329, 0.13876
17.44427, 1.08981
18.25329, 1.6776
19.06231, 1.08981
18.75329, 2.04087
17.75329, 2.04087
17.44427, 2.99193
18.25329, 3.57971
19.06231, 2.99193
18.75329, 2.04087
19.56231, 2.62866
19.25329, 3.57971
20.06231, 4.1675
19.06231, 4.1675
18.75329, 5.11855
19.56231, 5.70634
18.56231, 5.70634
18.25329, 4.75528
17.25329, 4.75528
16.94427, 3.80423
15.94427, 3.80423
15.63525, 4.75528
15.32624, 3.80423
16.13525, 3.21644
15.82624, 2.26538
14.82624, 2.26538
14.51722, 3.21644
15.32624, 3.80423
14.32624, 3.80423
14.01722, 2.85317
13.01722, 2.85317
12.7082, 1.90211
11.7082, 1.90211
11.39919, 2.85317
11.09017, 1.90211
11.89919, 1.31433
11.59017, 0.36327
10.59017, 0.36327
10.28115, 1.31433
11.09017, 1.90211
10.09017, 1.90211
9.78115, 0.95106
8.78115, 0.95106
8.47214, 1.90211
9.28115, 2.4899
10.09017, 1.90211
9.78115, 2.85317
8.78115, 2.85317
8.47214, 3.80423
8.16312, 2.85317
7.16312, 2.85317
6.8541, 3.80423
6.54508, 2.85317
7.3541, 2.26538
7.04508, 1.31433
7.8541, 0.72654
7.54508, -0.22451
6.54508, -0.22451
7.3541, -0.8123
8.16312, -0.22451
8.97214, -0.8123
8.66312, -1.76336
7.66312, -1.76336
7.3541, -0.8123
7.04508, -1.76336
7.8541, -2.35114
7.54508, -3.3022
6.54508, -3.3022
6.23607, -2.35114
7.04508, -1.76336
6.04508, -1.76336
5.73607, -2.71441
4.73607, -2.71441
4.42705, -1.76336
5.23607, -1.17557
6.04508, -1.76336
5.73607, -0.8123
4.73607, -0.8123
4.42705, 0.13876
5.23607, 0.72654
6.04508, 0.13876
5.73607, -0.8123
6.54508, -0.22451
6.23607, 0.72654
7.04508, 1.31433
6.04508, 1.31433
5.73607, 2.26538
6.54508, 2.85317
5.54508, 2.85317
5.23607, 1.90211
4.23607, 1.90211
3.92705, 0.95106
2.92705, 0.95106
2.61803, 1.90211
2.30902, 0.95106
3.11803, 0.36327
2.80902, -0.58779
1.80902, -0.58779
1.5, 0.36327
2.30902, 0.95106
1.30902, 0.95106
1, 0
0, 0
" fill="none" stroke="black" stroke-width="0.07668438673223978"/>
</svg>