<svg xmlns="http://www.w3.org/2000/svg"
     xmlns:xlink="http://www.w3.org/1999/xlink"
     width="500" height="500" viewBox="0 -110.85125 127.5 110.85125">
<rect x="0" y="-110.85125" width="100%" height="100%" fill="white"/>
<polyline points="
64, -110.85125
64.5, -109.98523
64, -109.1192
63, -109.1192
62.5, -108.25318
63, -107.38715
64, -107.38715
64.5, -108.25318
65.5, -108.25318
66, -107.38715
65.5, -106.52112
66, -105.6551
67, -105.6551
67.5, -104.78907
67, -103.92305
66, -103.92305
65.5, -104.78907
64.5, -104.78907
64, -103.92305
63, -103.92305
62.5, -104.78907
63, -105.6551
62.5, -106.52112
61.5, -106.52112
61, -105.6551
61.5, -104.78907
61, -103.92305
60, -103.92305
59.5, -103.05702
60, -102.191
61, -102.191
61.5, -101.32497
61, -100.45895
60, -100.45895
59.5, -101.32497
58.5, -101.32497
58, -100.45895
58.5, -99.59292
58, -98.7269
57, -98.7269
56.5, -97.86087
57, -96.99485
58, -96.99485
58.5, -97.86087
59.5, -97.86087
60, -96.99485
61, -96.99485
61.5, -97.86087
61, -98.7269
61.5, -99.59292
62.5, -99.59292
63, -98.7269
62.5, -97.86087
63, -96.99485
64, -96.99485
64.5, -97.86087
65.5, -97.86087
66, -96.99485
67, -96.99485
67.5, -97.86087
67, -98.7269
66, -98.7269
65.5, -99.59292
66, -100.45895
67, -100.45895
67.5, -101.32497
67, -102.191
67.5, -103.05702
68.5, -103.05702
69, -102.191
68.5, -101.32497
69, -100.45895
70, -100.45895
70.5, -99.59292
70, -98.7269
69, -98.7269
68.5, -97.86087
69, -96.99485
70, -96.99485
70.5, -97.86087
71.5, -97.86087
72, -96.99485
71.5, -96.12882
72, -95.26279
73, -95.26279
73.5, -94.39677
73, -93.53074
72, -93.53074
71.5, -94.39677
70.5, -94.39677
70, -93.53074
70.5, -92.66472
70, -91.79869
69, -91.79869
68.5, -90.93267
69, -90.06664
70, -90.06664
70.5, -90.93267
71.5, -90.93267
72, -90.06664
73, -90.06664
73.5, -90.93267
73, -91.79869
73.5, -92.66472
74.5, -92.66472
75, -91.79869
74.5, -90.93267
75, -90.06664
76, -90.06664
76.5, -89.20062
76, -88.33459
75, -88.33459
74.5, -87.46857
75, -86.60254
76, -86.60254
76.5, -87.46857
77.5, -87.46857
78, -86.60254
77.5, -85.73651
78, -84.87049
79, -84.87049
79.5, -84.00446
79, -83.13844
78, -83.13844
77.5, -84.00446
76.5, -84.00446
76, -83.13844
75, -83.13844
74.5, -84.00446
75, -84.87049
74.5, -85.73651
73.5, -85.73651
73, -84.87049
73.5, -84.00446
73, -83.13844
72, -83.13844
71.5, -84.00446
70.5, -84.00446
70, -83.13844
69, -83.13844
68.5, -84.00446
69, -84.87049
70, -84.87049
70.5, -85.73651
70, -86.60254
69, -86.60254
68.5, -87.46857
69, -88.33459
68.5, -89.20062
67.5, -89.20062
67, -88.33459
67.5, -87.46857
67, -86.60254
66, -86.60254
65.5, -85.73651
66, -84.87049
67, -84.87049
67.5, -84.00446
67, -83.13844
66, -83.13844
65.5, -84.00446
64.5, -84.00446
64, -83.13844
63, -83.13844
62.5, -84.00446
63, -84.87049
62.5, -85.73651
61.5, -85.73651
61, -84.87049
61.5, -84.00446
61, -83.13844
60, -83.13844
59.5, -84.00446
58.5, -84.00446
58, -83.13844
57, -83.13844
56.5, -84.00446
57, -84.87049
58, -84.87049
58.5, -85.73651
58, -86.60254
58.5, -87.46857
59.5, -87.46857
60, -86.60254
61, -86.60254
61.5, -87.46857
61, -88.33459
60, -88.33459
59.5, -89.20062
60, -90.06664
59.5, -90.93267
58.5, -90.93267
58, -90.06664
57, -90.06664
56.5, -90.93267
57, -91.79869
58, -91.79869
58.5, -92.66472
58, -93.53074
57, -93.53074
56.5, -94.39677
57, -95.26279
56.5, -96.12882
55.5, -96.12882
55, -95.26279
55.5, -94.39677
55, -93.53074
54, -93.53074
53.5, -92.66472
54, -91.79869
55, -91.79869
55.5, -90.93267
55, -90.06664
54, -90.06664
53.5, -90.93267
52.5, -90.93267
52, -90.06664
52.5, -89.20062
52, -88.33459
51, -88.33459
50.5, -87.46857
51, -86.60254
52, -86.60254
52.5, -87.46857
53.5, -87.46857
54, -86.60254
53.5, -85.73651
54, -84.87049
55, -84.87049
55.5, -84.00446
55, -83.13844
54, -83.13844
53.5, -84.00446
52.5, -84.00446
52, -83.13844
51, -83.13844
50.5, -84.00446
51, -84.87049
50.5, -85.73651
49.5, -85.73651
49, -84.87049
49.5, -84.00446
49, -83.13844
48, -83.13844
47.5, -82.27241
48, -81.40639
49, -81.40639
49.5, -80.54036
49, -79.67434
48, -79.67434
47.5, -80.54036
46.5, -80.54036
46, -79.67434
46.5, -78.80831
46, -77.94229
45, -77.94229
44.5, -77.07626
45, -76.21024
46, -76.21024
46.5, -77.07626
47.5, -77.07626
48, -76.21024
49, -76.21024
49.5, -77.07626
49, -77.94229
49.5, -78.80831
50.5, -78.80831
51, -77.94229
50.5, -77.07626
51, -76.21024
52, -76.21024
52.5, -75.34421
52, -74.47818
51, -74.47818
50.5, -73.61216
51, -72.74613
52, -72.74613
52.5, -73.61216
53.5, -73.61216
54, -72.74613
53.5, -71.88011
54, -71.01408
55, -71.01408
55.5, -70.14806
55, -69.28203
54, -69.28203
53.5, -70.14806
52.5, -70.14806
52, -69.28203
51, -69.28203
50.5, -70.14806
51, -71.01408
50.5, -71.88011
49.5, -71.88011
49, -71.01408
49.5, -70.14806
49, -69.28203
48, -69.28203
47.5, -70.14806
46.5, -70.14806
46, -69.28203
45, -69.28203
44.5, -70.14806
45, -71.01408
46, -71.01408
46.5, -71.88011
46, -72.74613
45, -72.74613
44.5, -73.61216
45, -74.47818
44.5, -75.34421
43.5, -75.34421
43, -74.47818
43.5, -73.61216
43, -72.74613
42, -72.74613
41.5, -71.88011
42, -71.01408
43, -71.01408
43.5, -70.14806
43, -69.28203
42, -69.28203
41.5, -70.14806
40.5, -70.14806
40, -69.28203
40.5, -68.41601
40, -67.54998
39, -67.54998
38.5, -66.68396
39, -65.81793
40, -65.81793
40.5, -66.68396
41.5, -66.68396
42, -65.81793
41.5, -64.95191
42, -64.08588
43, -64.08588
43.5, -63.21985
43, -62.35383
42, -62.35383
41.5, -63.21985
40.5, -63.21985
40, -62.35383
39, -62.35383
38.5, -63.21985
39, -64.08588
38.5, -64.95191
37.5, -64.95191
37, -64.08588
37.5, -63.21985
37, -62.35383
36, -62.35383
35.5, -61.4878
36, -60.62178
37, -60.62178
37.5, -59.75575
37, -58.88973
36, -58.88973
35.5, -59.75575
34.5, -59.75575
34, -58.88973
34.5, -58.0237
34, -57.15768
33, -57.15768
32.5, -56.29165
33, -55.42563
34, -55.42563
34.5, -56.29165
35.5, -56.29165
36, -55.42563
37, -55.42563
37.5, -56.29165
37, -57.15768
37.5, -58.0237
38.5, -58.0237
39, -57.15768
38.5, -56.29165
39, -55.42563
40, -55.42563
40.5, -56.29165
41.5, -56.29165
42, -55.42563
43, -55.42563
43.5, -56.29165
43, -57.15768
42, -57.15768
41.5, -58.0237
42, -58.88973
43, -58.88973
43.5, -59.75575
43, -60.62178
43.5, -61.4878
44.5, -61.4878
45, -60.62178
44.5, -59.75575
45, -58.88973
46, -58.88973
46.5, -58.0237
46, -57.15768
45, -57.15768
44.5, -56.29165
45, -55.42563
46, -55.42563
46.5, -56.29165
47.5, -56.29165
48, -55.42563
49, -55.42563
49.5, -56.29165
49, -57.15768
49.5, -58.0237
50.5, -58.0237
51, -57.15768
50.5, -56.29165
51, -55.42563
52, -55.42563
52.5, -56.29165
53.5, -56.29165
54, -55.42563
55, -55.42563
55.5, -56.29165
55, -57.15768
54, -57.15768
53.5, -58.0237
54, -58.88973
53.5, -59.75575
52.5, -59.75575
52, -58.88973
51, -58.88973
50.5, -59.75575
51, -60.62178
52, -60.62178
52.5, -61.4878
52, -62.35383
52.5, -63.21985
53.5, -63.21985
54, -62.35383
55, -62.35383
55.5, -63.21985
55, -64.08588
54, -64.08588
53.5, -64.95191
54, -65.81793
55, -65.81793
55.5, -66.68396
55, -67.54998
55.5, -68.41601
56.5, -68.41601
57, -67.54998
56.5, -66.68396
57, -65.81793
58, -65.81793
58.5, -64.95191
58, -64.08588
57, -64.08588
56.5, -63.21985
57, -62.35383
58, -62.35383
58.5, -63.21985
59.5, -63.21985
60, -62.35383
59.5, -61.4878
60, -60.62178
61, -60.62178
61.5, -59.75575
61, -58.88973
60, -58.88973
59.5, -59.75575
58.5, -59.75575
58, -58.88973
58.5, -58.0237
58, -57.15768
57, -57.15768
56.5, -56.29165
57, -55.42563
58, -55.42563
58.5, -56.29165
59.5, -56.29165
60, -55.42563
61, -55.42563
61.5, -56.29165
61, -57.15768
61.5, -58.0237
62.5, -58.0237
63, -57.15768
62.5, -56.29165
63, -55.42563
64, -55.42563
64.5, -56.29165
65.5, -56.29165
66, -55.42563
67, -55.42563
67.5, -56.29165
67, -57.15768
66, -57.15768
65.5, -58.0237
66, -58.88973
67, -58.88973
67.5, -59.75575
67, -60.62178
67.5, -61.4878
68.5, -61.4878
69, -60.62178
68.5, -59.75575
69, -58.88973
70, -58.88973
70.5, -58.0237
70, -57.15768
69, -57.15768
68.5, -56.29165
69, -55.42563
70, -55.42563
70.5, -56.29165
71.5, -56.29165
72, -55.42563
73, -55.42563
73.5, -56.29165
73, -57.15768
73.5, -58.0237
74.5, -58.0237
75, -57.15768
74.5, -56.29165
75, -55.42563
76, -55.42563
76.5, -56.29165
77.5, -56.29165
78, -55.42563
79, -55.42563
79.5, -56.29165
79, -57.15768
78, -57.15768
77.5, -58.0237
78, -58.88973
77.5, -59.75575
76.5, -59.75575
76, -58.88973
75, -58.88973
74.5, -59.75575
75, -60.62178
76, -60.62178
76.5, -61.4878
76, -62.35383
75, -62.35383
74.5, -63.21985
75, -64.08588
74.5, -64.95191
73.5, -64.95191
73, -64.08588
73.5, -63.21985
73, -62.35383
72, -62.35383
71.5, -63.21985
70.5, -63.21985
70, -62.35383
69, -62.35383
68.5, -63.21985
69, -64.08588
70, -64.08588
70.5, -64.95191
70, -65.81793
70.5, -66.68396
71.5, -66.68396
72, -65.81793
73, -65.81793
73.5, -66.68396
73, -67.54998
72, -67.54998
71.5, -68.41601
72, -69.28203
73, -69.28203
73.5, -70.14806
73, -71.01408
73.5, -71.88011
74.5, -71.88011
75, -71.01408
74.5, -70.14806
75, -69.28203
76, -69.28203
76.5, -70.14806
77.5, -70.14806
78, -69.28203
79, -69.28203
79.5, -70.14806
79, -71.01408
78, -71.01408
77.5, -71.88011
78, -72.74613
77.5, -73.61216
76.5, -73.61216
76, -72.74613
75, -72.74613
74.5, -73.61216
75, -74.47818
76, -74.47818
76.5, -75.34421
76, -76.21024
76.5, -77.07626
77.5, -77.07626
78, -76.21024
79, -76.21024
79.5, -77.07626
79, -77.94229
78, -77.94229
77.5, -78.80831
78, -79.67434
79, -79.67434
79.5, -80.54036
79, -81.40639
79.5, -82.27241
80.5, -82.27241
81, -81.40639
80.5, -80.54036
81, -79.67434
82, -79.67434
82.5, -78.80831
82, -77.94229
81, -77.94229
80.5, -77.07626
81, -76.21024
82, -76.21024
82.5, -77.07626
83.5, -77.07626
84, -76.21024
83.5, -75.34421
84, -74.47818
85, -74.47818
85.5, -73.61216
85, -72.74613
84, -72.74613
83.5, -73.61216
82.5, -73.61216
82, -72.74613
82.5, -71.88011
82, -71.01408
81, -71.01408
80.5, -70.14806
81, -69.28203
82, -69.28203
82.5, -70.14806
83.5, -70.14806
84, -69.28203
85, -69.28203
85.5, -70.14806
85, -71.01408
85.5, -71.88011
86.5, -71.88011
87, -71.01408
86.5, -70.14806
87, -69.28203
88, -69.28203
88.5, -68.41601
88, -67.54998
87, -67.54998
86.5, -66.68396
87, -65.81793
88, -65.81793
88.5, -66.68396
89.5, -66.68396
90, -65.81793
89.5, -64.95191
90, -64.08588
91, -64.08588
91.5, -63.21985
91, -62.35383
90, -62.35383
89.5, -63.21985
88.5, -63.21985
88, -62.35383
87, -62.35383
86.5, -63.21985
87, -64.08588
86.5, -64.95191
85.5, -64.95191
85, -64.08588
85.5, -63.21985
85, -62.35383
84, -62.35383
83.5, -61.4878
84, -60.62178
85, -60.62178
85.5, -59.75575
85, -58.88973
84, -58.88973
83.5, -59.75575
82.5, -59.75575
82, -58.88973
82.5, -58.0237
82, -57.15768
81, -57.15768
80.5, -56.29165
81, -55.42563
82, -55.42563
82.5, -56.29165
83.5, -56.29165
84, -55.42563
85, -55.42563
85.5, -56.29165
85, -57.15768
85.5, -58.0237
86.5, -58.0237
87, -57.15768
86.5, -56.29165
87, -55.42563
88, -55.42563
88.5, -56.29165
89.5, -56.29165
90, -55.42563
91, -55.42563
91.5, -56.29165
91, -57.15768
90, -57.15768
89.5, -58.0237
90, -58.88973
91, -58.88973
91.5, -59.75575
91, -60.62178
91.5, -61.4878
92.5, -61.4878
93, -60.62178
92.5, -59.75575
93, -58.88973
94, -58.88973
94.5, -58.0237
94, -57.15768
93, -57.15768
92.5, -56.29165
93, -55.42563
94, -55.42563
94.5, -56.29165
95.5, -56.29165
96, -55.42563
95.5, -54.5596
96, -53.69358
97, -53.69358
97.5, -52.82755
97, -51.96152
96, -51.96152
95.5, -52.82755
94.5, -52.82755
94, -51.96152
94.5, -51.0955
94, -50.22947
93, -50.22947
92.5, -49.36345
93, -48.49742
94, -48.49742
94.5, -49.36345
95.5, -49.36345
96, -48.49742
97, -48.49742
97.5, -49.36345
97, -50.22947
97.5, -51.0955
98.5, -51.0955
99, -50.22947
98.5, -49.36345
99, -48.49742
100, -48.49742
100.5, -47.6314
100, -46.76537
99, -46.76537
98.5, -45.89935
99, -45.03332
100, -45.03332
100.5, -45.89935
101.5, -45.89935
102, -45.03332
101.5, -44.1673
102, -43.30127
103, -43.30127
103.5, -42.43524
103, -41.56922
102, -41.56922
101.5, -42.43524
100.5, -42.43524
100, -41.56922
99, -41.56922
98.5, -42.43524
99, -43.30127
98.5, -44.1673
97.5, -44.1673
97, -43.30127
97.5, -42.43524
97, -41.56922
96, -41.56922
95.5, -42.43524
94.5, -42.43524
94, -41.56922
93, -41.56922
92.5, -42.43524
93, -43.30127
94, -43.30127
94.5, -44.1673
94, -45.03332
93, -45.03332
92.5, -45.89935
93, -46.76537
92.5, -47.6314
91.5, -47.6314
91, -46.76537
91.5, -45.89935
91, -45.03332
90, -45.03332
89.5, -44.1673
90, -43.30127
91, -43.30127
91.5, -42.43524
91, -41.56922
90, -41.56922
89.5, -42.43524
88.5, -42.43524
88, -41.56922
88.5, -40.70319
88, -39.83717
87, -39.83717
86.5, -38.97114
87, -38.10512
88, -38.10512
88.5, -38.97114
89.5, -38.97114
90, -38.10512
89.5, -37.23909
90, -36.37307
91, -36.37307
91.5, -35.50704
91, -34.64102
90, -34.64102
89.5, -35.50704
88.5, -35.50704
88, -34.64102
87, -34.64102
86.5, -35.50704
87, -36.37307
86.5, -37.23909
85.5, -37.23909
85, -36.37307
85.5, -35.50704
85, -34.64102
84, -34.64102
83.5, -33.77499
84, -32.90897
85, -32.90897
85.5, -32.04294
85, -31.17691
84, -31.17691
83.5, -32.04294
82.5, -32.04294
82, -31.17691
82.5, -30.31089
82, -29.44486
81, -29.44486
80.5, -28.57884
81, -27.71281
82, -27.71281
82.5, -28.57884
83.5, -28.57884
84, -27.71281
85, -27.71281
85.5, -28.57884
85, -29.44486
85.5, -30.31089
86.5, -30.31089
87, -29.44486
86.5, -28.57884
87, -27.71281
88, -27.71281
88.5, -28.57884
89.5, -28.57884
90, -27.71281
91, -27.71281
91.5, -28.57884
91, -29.44486
90, -29.44486
89.5, -30.31089
90, -31.17691
91, -31.17691
91.5, -32.04294
91, -32.90897
91.5, -33.77499
92.5, -33.77499
93, -32.90897
92.5, -32.04294
93, -31.17691
94, -31.17691
94.5, -30.31089
94, -29.44486
93, -29.44486
92.5, -28.57884
93, -27.71281
94, -27.71281
94.5, -28.57884
95.5, -28.57884
96, -27.71281
97, -27.71281
97.5, -28.57884
97, -29.44486
97.5, -30.31089
98.5, -30.31089
99, -29.44486
98.5, -28.57884
99, -27.71281
100, -27.71281
100.5, -28.57884
101.5, -28.57884
102, -27.71281
103, -27.71281
103.5, -28.57884
103, -29.44486
102, -29.44486
101.5, -30.31089
102, -31.17691
101.5, -32.04294
100.5, -32.04294
100, -31.17691
99, -31.17691
98.5, -32.04294
99, -32.90897
100, -32.90897
100.5, -33.77499
100, -34.64102
100.5, -35.50704
101.5, -35.50704
102, -34.64102
103, -34.64102
103.5, -35.50704
103, -36.37307
102, -36.37307
101.5, -37.23909
102, -38.10512
103, -38.10512
103.5, -38.97114
103, -39.83717
103.5, -40.70319
104.5, -40.70319
105, -39.83717
104.5, -38.97114
105, -38.10512
106, -38.10512
106.5, -37.23909
106, -36.37307
105, -36.37307
104.5, -35.50704
105, -34.64102
106, -34.64102
106.5, -35.50704
107.5, -35.50704
108, -34.64102
107.5, -33.77499
108, -32.90897
109, -32.90897
109.5, -32.04294
109, -31.17691
108, -31.17691
107.5, -32.04294
106.5, -32.04294
106, -31.17691
106.5, -30.31089
106, -29.44486
105, -29.44486
104.5, -28.57884
105, -27.71281
106, -27.71281
106.5, -28.57884
107.5, -28.57884
108, -27.71281
109, -27.71281
109.5, -28.57884
109, -29.44486
109.5, -30.31089
110.5, -30.31089
111, -29.44486
110.5, -28.57884
111, -27.71281
112, -27.71281
112.5, -26.84679
112, -25.98076
111, -25.98076
110.5, -25.11474
111, -24.24871
112, -24.24871
112.5, -25.11474
113.5, -25.11474
114, -24.24871
113.5, -23.38269
114, -22.51666
115, -22.51666
115.5, -21.65064
115, -20.78461
114, -20.78461
113.5, -21.65064
112.5, -21.65064
112, -20.78461
111, -20.78461
110.5, -21.65064
111, -22.51666
110.5, -23.38269
109.5, -23.38269
109, -22.51666
109.5, -21.65064
109, -20.78461
108, -20.78461
107.5, -19.91858
108, -19.05256
109, -19.05256
109.5, -18.18653
109, -17.32051
108, -17.32051
107.5, -18.18653
106.5, -18.18653
106, -17.32051
106.5, -16.45448
106, -15.58846
105, -15.58846
104.5, -14.72243
105, -13.85641
106, -13.85641
106.5, -14.72243
107.5, -14.72243
108, -13.85641
109, -13.85641
109.5, -14.72243
109, -15.58846
109.5, -16.45448
110.5, -16.45448
111, -15.58846
110.5, -14.72243
111, -13.85641
112, -13.85641
112.5, -14.72243
113.5, -14.72243
114, -13.85641
115, -13.85641
115.5, -14.72243
115, -15.58846
114, -15.58846
113.5, -16.45448
114, -17.32051
115, -17.32051
115.5, -18.18653
115, -19.05256
115.5, -19.91858
116.5, -19.91858
117, -19.05256
116.5, -18.18653
117, -17.32051
118, -17.32051
118.5, -16.45448
118, -15.58846
117, -15.58846
116.5, -14.72243
117, -13.85641
118, -13.85641
118.5, -14.72243
119.5, -14.72243
120, -13.85641
119.5, -12.99038
120, -12.12436
121, -12.12436
121.5, -11.25833
121, -10.3923
120, -10.3923
119.5, -11.25833
118.5, -11.25833
118, -10.3923
118.5, -9.52628
118, -8.66025
117, -8.66025
116.5, -7.79423
117, -6.9282
118, -6.9282
118.5, -7.79423
119.5, -7.79423
120, -6.9282
121, -6.9282
121.5, -7.79423
121, -8.66025
121.5, -9.52628
122.5, -9.52628
123, -8.66025
122.5, -7.79423
123, -6.9282
124, -6.9282
124.5, -6.06218
124, -5.19615
123, -5.19615
122.5, -4.33013
123, -3.4641
124, -3.4641
124.5, -4.33013
125.5, -4.33013
126, -3.4641
125.5, -2.59808
126, -1.73205
127, -1.73205
127.5, -0.86603
127, -0
126, -0
125.5, -0.86603
124.5, -0.86603
124, 0
123, 0
122.5, -0.86603
123, -1.73205
122.5, -2.59808
121.5, -2.59808
121, -1.73205
121.5, -0.86603
121, 0
120, 0
119.5, -0.86603
118.5, -0.86603
118, 0
117, 0
116.5, -0.86603
117, -1.73205
118, -1.73205
118.5, -2.59808
118, -3.4641
117, -3.4641
116.5, -4.33013
117, -5.19615
116.5, -6.06218
115.5, -6.06218
115, -5.19615
115.5, -4.33013
115, -3.4641
114, -3.4641
113.5, -2.59808
114, -1.73205
115, -1.73205
115.5, -0.86603
115, 0
114, 0
113.5, -0.86603
112.5, -0.86603
112, 0
111, 0
110.5, -0.86603
111, -1.73205
110.5, -2.59808
109.5, -2.59808
109, -1.73205
109.5, -0.86603
109, 0
108, 0
107.5, -0.86603
106.5, -0.86603
106, 0
105, 0
104.5, -0.86603
105, -1.73205
106, -1.73205
106.5, -2.59808
106, -3.4641
106.5, -4.33013
107.5, -4.33013
108, -3.4641
109, -3.4641
109.5, -4.33013
109, -5.19615
108, -5.19615
107.5, -6.06218
108, -6.9282
107.5, -7.79423
106.5, -7.79423
106, -6.9282
105, -6.9282
104.5, -7.79423
105, -8.66025
106, -8.66025
106.5, -9.52628
106, -10.3923
105, -10.3923
104.5, -11.25833
105, -12.12436
104.5, -12.99038
103.5, -12.99038
103, -12.12436
103.5, -11.25833
103, -10.3923
102, -10.3923
101.5, -9.52628
102, -8.66025
103, -8.66025
103.5, -7.79423
103, -6.9282
102, -6.9282
101.5, -7.79423
100.5, -7.79423
100, -6.9282
100.5, -6.06218
100, -5.19615
99, -5.19615
98.5, -4.33013
99, -3.4641
100, -3.4641
100.5, -4.33013
101.5, -4.33013
102, -3.4641
101.5, -2.59808
102, -1.73205
103, -1.73205
103.5, -0.86603
103, 0
102, 0
101.5, -0.86603
100.5, -0.86603
100, 0
99, 0
98.5, -0.86603
99, -1.73205
98.5, -2.59808
97.5, -2.59808
97, -1.73205
97.5, -0.86603
97, 0
96, 0
95.5, -0.86603
94.5, -0.86603
94, 0
93, 0
92.5, -0.86603
93, -1.73205
94, -1.73205
94.5, -2.59808
94, -3.4641
93, -3.4641
92.5, -4.33013
93, -5.19615
92.5, -6.06218
91.5, -6.06218
91, -5.19615
91.5, -4.33013
91, -3.4641
90, -3.4641
89.5, -2.59808
90, -1.73205
91, -1.73205
91.5, -0.86603
91, 0
90, 0
89.5, -0.86603
88.5, -0.86603
88, 0
87, 0
86.5, -0.86603
87, -1.73205
86.5, -2.59808
85.5, -2.59808
85, -1.73205
85.5, -0.86603
85, 0
84, 0
83.5, -0.86603
82.5, -0.86603
82, 0
81, 0
80.5, -0.86603
81, -1.73205
82, -1.73205
82.5, -2.59808
82, -3.4641
82.5, -4.33013
83.5, -4.33013
84, -3.4641
85, -3.4641
85.5, -4.33013
85, -5.19615
84, -5.19615
83.5, -6.06218
84, -6.9282
85, -6.9282
85.5, -7.79423
85, -8.66025
85.5, -9.52628
86.5, -9.52628
87, -8.66025
86.5, -7.79423
87, -6.9282
88, -6.9282
88.5, -7.79423
89.5, -7.79423
90, -6.9282
91, -6.9282
91.5, -7.79423
91, -8.66025
90, -8.66025
89.5, -9.52628
90, -10.3923
89.5, -11.25833
88.5, -11.25833
88, -10.3923
87, -10.3923
86.5, -11.25833
87, -12.12436
88, -12.12436
88.5, -12.99038
88, -13.85641
87, -13.85641
86.5, -14.72243
87, -15.58846
86.5, -16.45448
85.5, -16.45448
85, -15.58846
85.5, -14.72243
85, -13.85641
84, -13.85641
83.5, -14.72243
82.5, -14.72243
82, -13.85641
81, -13.85641
80.5, -14.72243
81, -15.58846
82, -15.58846
82.5, -16.45448
82, -17.32051
82.5, -18.18653
83.5, -18.18653
84, -17.32051
85, -17.32051
85.5, -18.18653
85, -19.05256
84, -19.05256
83.5, -19.91858
84, -20.78461
83.5, -21.65064
82.5, -21.65064
82, -20.78461
81, -20.78461
80.5, -21.65064
81, -22.51666
82, -22.51666
82.5, -23.38269
82, -24.24871
81, -24.24871
80.5, -25.11474
81, -25.98076
80.5, -26.84679
79.5, -26.84679
79, -25.98076
79.5, -25.11474
79, -24.24871
78, -24.24871
77.5, -23.38269
78, -22.51666
79, -22.51666
79.5, -21.65064
79, -20.78461
78, -20.78461
77.5, -21.65064
76.5, -21.65064
76, -20.78461
76.5, -19.91858
76, -19.05256
75, -19.05256
74.5, -18.18653
75, -17.32051
76, -17.32051
76.5, -18.18653
77.5, -18.18653
78, -17.32051
77.5, -16.45448
78, -15.58846
79, -15.58846
79.5, -14.72243
79, -13.85641
78, -13.85641
77.5, -14.72243
76.5, -14.72243
76, -13.85641
75, -13.85641
74.5, -14.72243
75, -15.58846
74.5, -16.45448
73.5, -16.45448
73, -15.58846
73.5, -14.72243
73, -13.85641
72, -13.85641
71.5, -12.99038
72, -12.12436
73, -12.12436
73.5, -11.25833
73, -10.3923
72, -10.3923
71.5, -11.25833
70.5, -11.25833
70, -10.3923
70.5, -9.52628
70, -8.66025
69, -8.66025
68.5, -7.79423
69, -6.9282
70, -6.9282
70.5, -7.79423
71.5, -7.79423
72, -6.9282
73, -6.9282
73.5, -7.79423
73, -8.66025
73.5, -9.52628
74.5, -9.52628
75, -8.66025
74.5, -7.79423
75, -6.9282
76, -6.9282
76.5, -6.06218
76, -5.19615
75, -5.19615
74.5, -4.33013
75, -3.4641
76, -3.4641
76.5, -4.33013
77.5, -4.33013
78, -3.4641
77.5, -2.59808
78, -1.73205
79, -1.73205
79.5, -0.86603
79, 0
78, 0
77.5, -0.86603
76.5, -0.86603
76, 0
75, 0
74.5, -0.86603
75, -1.73205
74.5, -2.59808
73.5, -2.59808
73, -1.73205
73.5, -0.86603
73, 0
72, 0
71.5, -0.86603
70.5, -0.86603
70, 0
69, 0
68.5, -0.86603
69, -1.73205
70, -1.73205
70.5, -2.59808
70, -3.4641
69, -3.4641
68.5, -4.33013
69, -5.19615
68.5, -6.06218
67.5, -6.06218
67, -5.19615
67.5, -4.33013
67, -3.4641
66, -3.4641
65.5, -2.59808
66, -1.73205
67, -1.73205
67.5, -0.86603
67, 0
66, 0
65.5, -0.86603
64.5, -0.86603
64, 0
63, 0
62.5, -0.86603
63, -1.73205
62.5, -2.59808
61.5, -2.59808
61, -1.73205
61.5, -0.86603
61, 0
60, 0
59.5, -0.86603
58.5, -0.86603
58, 0
57, 0
56.5, -0.86603
57, -1.73205
58, -1.73205
58.5, -2.59808
58, -3.4641
58.5, -4.33013
59.5, -4.33013
60, -3.4641
61, -3.4641
61.5, -4.33013
61, -5.19615
60, -5.19615
59.5, -6.06218
60, -6.9282
59.5, -7.79423
58.5, -7.79423
58, -6.9282
57, -6.9282
56.5, -7.79423
57, -8.66025
58, -8.66025
58.5, -9.52628
58, -10.3923
57, -10.3923
56.5, -11.25833
57, -12.12436
56.5, -12.99038
55.5, -12.99038
55, -12.12436
55.5, -11.25833
55, -10.3923
54, -10.3923
53.5, -9.52628
54, -8.66025
55, -8.66025
55.5, -7.79423
55, -6.9282
54, -6.9282
53.5, -7.79423
52.5, -7.79423
52, -6.9282
52.5, -6.06218
52, -5.19615
51, -5.19615
50.5, -4.33013
51, -3.4641
52, -3.4641
52.5, -4.33013
53.5, -4.33013
54, -3.4641
53.5, -2.59808
54, -1.73205
55, -1.73205
55.5, -0.86603
55, 0
54, 0
53.5, -0.86603
52.5, -0.86603
52, 0
51, 0
50.5, -0.86603
51, -1.73205
50.5, -2.59808
49.5, -2.59808
49, -1.73205
49.5, -0.86603
49, 0
48, 0
47.5, -0.86603
46.5, -0.86603
46, 0
45, 0
44.5, -0.86603
45, -1.73205
46, -1.73205
46.5, -2.59808
46, -3.4641
45, -3.4641
44.5, -4.33013
45, -5.19615
44.5, -6.06218
43.5, -6.06218
43, -5.19615
43.5, -4.33013
43, -3.4641
42, -3.4641
41.5, -2.59808
42, -1.73205
43, -1.73205
43.5, -0.86603
43, 0
42, 0
41.5, -0.86603
40.5, -0.86603
40, 0
39, 0
38.5, -0.86603
39, -1.73205
38.5, -2.59808
37.5, -2.59808
37, -1.73205
37.5, -0.86603
37, 0
36, 0
35.5, -0.86603
34.5, -0.86603
34, 0
33, 0
32.5, -0.86603
33, -1.73205
34, -1.73205
34.5, -2.59808
34, -3.4641
34.5, -4.33013
35.5, -4.33013
36, -3.4641
37, -3.4641
37.5, -4.33013
37, -5.19615
36, -5.19615
35.5, -6.06218
36, -6.9282
37, -6.9282
37.5, -7.79423
37, -8.66025
37.5, -9.52628
38.5, -9.52628
39, -8.66025
38.5, -7.79423
39, -6.9282
40, -6.9282
40.5, -7.79423
41.5, -7.79423
42, -6.9282
43, -6.9282
43.5, -7.79423
43, -8.66025
42, -8.66025
41.5, -9.52628
42, -10.3923
41.5, -11.25833
40.5, -11.25833
40, -10.3923
39, -10.3923
38.5, -11.25833
39, -12.12436
40, -12.12436
40.5, -12.99038
40, -13.85641
40.5, -14.72243
41.5, -14.72243
42, -13.85641
43, -13.85641
43.5, -14.72243
43, -15.58846
42, -15.58846
41.5, -16.45448
42, -17.32051
43, -17.32051
43.5, -18.18653
43, -19.05256
43.5, -19.91858
44.5, -19.91858
45, -19.05256
44.5, -18.18653
45, -17.32051
46, -17.32051
46.5, -16.45448
46, -15.58846
45, -15.58846
44.5, -14.72243
45, -13.85641
46, -13.85641
46.5, -14.72243
47.5, -14.72243
48, -13.85641
49, -13.85641
49.5, -14.72243
49, -15.58846
49.5, -16.45448
50.5, -16.45448
51, -15.58846
50.5, -14.72243
51, -13.85641
52, -13.85641
52.5, -14.72243
53.5, -14.72243
54, -13.85641
55, -13.85641
55.5, -14.72243
55, -15.58846
54, -15.58846
53.5, -16.45448
54, -17.32051
53.5, -18.18653
52.5, -18.18653
52, -17.32051
51, -17.32051
50.5, -18.18653
51, -19.05256
52, -19.05256
52.5, -19.91858
52, -20.78461
51, -20.78461
50.5, -21.65064
51, -22.51666
50.5, -23.38269
49.5, -23.38269
49, -22.51666
49.5, -21.65064
49, -20.78461
48, -20.78461
47.5, -21.65064
46.5, -21.65064
46, -20.78461
45, -20.78461
44.5, -21.65064
45, -22.51666
46, -22.51666
46.5, -23.38269
46, -24.24871
46.5, -25.11474
47.5, -25.11474
48, -24.24871
49, -24.24871
49.5, -25.11474
49, -25.98076
48, -25.98076
47.5, -26.84679
48, -27.71281
47.5, -28.57884
46.5, -28.57884
46, -27.71281
45, -27.71281
44.5, -28.57884
45, -29.44486
46, -29.44486
46.5, -30.31089
46, -31.17691
45, -31.17691
44.5, -32.04294
45, -32.90897
44.5, -33.77499
43.5, -33.77499
43, -32.90897
43.5, -32.04294
43, -31.17691
42, -31.17691
41.5, -30.31089
42, -29.44486
43, -29.44486
43.5, -28.57884
43, -27.71281
42, -27.71281
41.5, -28.57884
40.5, -28.57884
40, -27.71281
39, -27.71281
38.5, -28.57884
39, -29.44486
38.5, -30.31089
37.5, -30.31089
37, -29.44486
37.5, -28.57884
37, -27.71281
36, -27.71281
35.5, -28.57884
34.5, -28.57884
34, -27.71281
33, -27.71281
32.5, -28.57884
33, -29.44486
34, -29.44486
34.5, -30.31089
34, -31.17691
34.5, -32.04294
35.5, -32.04294
36, -31.17691
37, -31.17691
37.5, -32.04294
37, -32.90897
36, -32.90897
35.5, -33.77499
36, -34.64102
37, -34.64102
37.5, -35.50704
37, -36.37307
37.5, -37.23909
38.5, -37.23909
39, -36.37307
38.5, -35.50704
39, -34.64102
40, -34.64102
40.5, -35.50704
41.5, -35.50704
42, -34.64102
43, -34.64102
43.5, -35.50704
43, -36.37307
42, -36.37307
41.5, -37.23909
42, -38.10512
41.5, -38.97114
40.5, -38.97114
40, -38.10512
39, -38.10512
38.5, -38.97114
39, -39.83717
40, -39.83717
40.5, -40.70319
40, -41.56922
39, -41.56922
38.5, -42.43524
39, -43.30127
38.5, -44.1673
37.5, -44.1673
37, -43.30127
37.5, -42.43524
37, -41.56922
36, -41.56922
35.5, -42.43524
34.5, -42.43524
34, -41.56922
33, -41.56922
32.5, -42.43524
33, -43.30127
34, -43.30127
34.5, -44.1673
34, -45.03332
34.5, -45.89935
35.5, -45.89935
36, -45.03332
37, -45.03332
37.5, -45.89935
37, -46.76537
36, -46.76537
35.5, -47.6314
36, -48.49742
35.5, -49.36345
34.5, -49.36345
34, -48.49742
33, -48.49742
32.5, -49.36345
33, -50.22947
34, -50.22947
34.5, -51.0955
34, -51.96152
33, -51.96152
32.5, -52.82755
33, -53.69358
32.5, -54.5596
31.5, -54.5596
31, -53.69358
31.5, -52.82755
31, -51.96152
30, -51.96152
29.5, -51.0955
30, -50.22947
31, -50.22947
31.5, -49.36345
31, -48.49742
30, -48.49742
29.5, -49.36345
28.5, -49.36345
28, -48.49742
28.5, -47.6314
28, -46.76537
27, -46.76537
26.5, -45.89935
27, -45.03332
28, -45.03332
28.5, -45.89935
29.5, -45.89935
30, -45.03332
29.5, -44.1673
30, -43.30127
31, -43.30127
31.5, -42.43524
31, -41.56922
30, -41.56922
29.5, -42.43524
28.5, -42.43524
28, -41.56922
27, -41.56922
26.5, -42.43524
27, -43.30127
26.5, -44.1673
25.5, -44.1673
25, -43.30127
25.5, -42.43524
25, -41.56922
24, -41.56922
23.5, -40.70319
24, -39.83717
25, -39.83717
25.5, -38.97114
25, -38.10512
24, -38.10512
23.5, -38.97114
22.5, -38.97114
22, -38.10512
22.5, -37.23909
22, -36.37307
21, -36.37307
20.5, -35.50704
21, -34.64102
22, -34.64102
22.5, -35.50704
23.5, -35.50704
24, -34.64102
25, -34.64102
25.5, -35.50704
25, -36.37307
25.5, -37.23909
26.5, -37.23909
27, -36.37307
26.5, -35.50704
27, -34.64102
28, -34.64102
28.5, -33.77499
28, -32.90897
27, -32.90897
26.5, -32.04294
27, -31.17691
28, -31.17691
28.5, -32.04294
29.5, -32.04294
30, -31.17691
29.5, -30.31089
30, -29.44486
31, -29.44486
31.5, -28.57884
31, -27.71281
30, -27.71281
29.5, -28.57884
28.5, -28.57884
28, -27.71281
27, -27.71281
26.5, -28.57884
27, -29.44486
26.5, -30.31089
25.5, -30.31089
25, -29.44486
25.5, -28.57884
25, -27.71281
24, -27.71281
23.5, -28.57884
22.5, -28.57884
22, -27.71281
21, -27.71281
20.5, -28.57884
21, -29.44486
22, -29.44486
22.5, -30.31089
22, -31.17691
21, -31.17691
20.5, -32.04294
21, -32.90897
20.5, -33.77499
19.5, -33.77499
19, -32.90897
19.5, -32.04294
19, -31.17691
18, -31.17691
17.5, -30.31089
18, -29.44486
19, -29.44486
19.5, -28.57884
19, -27.71281
18, -27.71281
17.5, -28.57884
16.5, -28.57884
16, -27.71281
16.5, -26.84679
16, -25.98076
15, -25.98076
14.5, -25.11474
15, -24.24871
16, -24.24871
16.5, -25.11474
17.5, -25.11474
18, -24.24871
17.5, -23.38269
18, -22.51666
19, -22.51666
19.5, -21.65064
19, -20.78461
18, -20.78461
17.5, -21.65064
16.5, -21.65064
16, -20.78461
15, -20.78461
14.5, -21.65064
15, -22.51666
14.5, -23.38269
13.5, -23.38269
13, -22.51666
13.5, -21.65064
13, -20.78461
12, -20.78461
11.5, -19.91858
12, -19.05256
13, -19.05256
13.5, -18.18653
13, -17.32051
12, -17.32051
11.5, -18.18653
10.5, -18.18653
10, -17.32051
10.5, -16.45448
10, -15.58846
9, -15.58846
8.5, -14.72243
9, -13.85641
10, -13.85641
10.5, -14.72243
11.5, -14.72243
12, -13.85641
13, -13.85641
13.5, -14.72243
13, -15.58846
13.5, -16.45448
14.5, -16.45448
15, -15.58846
14.5, -14.72243
15, -13.85641
16, -13.85641
16.5, -14.72243
17.5, -14.72243
18, -13.85641
19, -13.85641
19.5, -14.72243
19, -15.58846
18, -15.58846
17.5, -16.45448
18, -17.32051
19, -17.32051
19.5, -18.18653
19, -19.05256
19.5, -19.91858
20.5, -19.91858
21, -19.05256
20.5, -18.18653
21, -17.32051
22, -17.32051
22.5, -16.45448
22, -15.58846
21, -15.58846
20.5, -14.72243
21, -13.85641
22, -13.85641
22.5, -14.72243
23.5, -14.72243
24, -13.85641
23.5, -12.99038
24, -12.12436
25, -12.12436
25.5, -11.25833
25, -10.3923
24, -10.3923
23.5, -11.25833
22.5, -11.25833
22, -10.3923
22.5, -9.52628
22, -8.66025
21, -8.66025
20.5, -7.79423
21, -6.9282
22, -6.9282
22.5, -7.79423
23.5, -7.79423
24, -6.9282
25, -6.9282
25.5, -7.79423
25, -8.66025
25.5, -9.52628
26.5, -9.52628
27, -8.66025
26.5, -7.79423
27, -6.9282
28, -6.9282
28.5, -6.06218
28, -5.19615
27, -5.19615
26.5, -4.33013
27, -3.4641
28, -3.4641
28.5, -4.33013
29.5, -4.33013
30, -3.4641
29.5, -2.59808
30, -1.73205
31, -1.73205
31.5, -0.86603
31, -0
30, -0
29.5, -0.86603
28.5, -0.86603
28, -0
27, -0
26.5, -0.86603
27, -1.73205
26.5, -2.59808
25.5, -2.59808
25, -1.73205
25.5, -0.86603
25, -0
24, -0
23.5, -0.86603
22.5, -0.86603
22, -0
21, -0
20.5, -0.86603
21, -1.73205
22, -1.73205
22.5, -2.59808
22, -3.4641
21, -3.4641
20.5, -4.33013
21, -5.19615
20.5, -6.06218
19.5, -6.06218
19, -5.19615
19.5, -4.33013
19, -3.4641
18, -3.4641
17.5, -2.59808
18, -1.73205
19, -1.73205
19.5, -0.86603
19, -0
18, -0
17.5, -0.86603
16.5, -0.86603
16, -0
15, -0
14.5, -0.86603
15, -1.73205
14.5, -2.59808
13.5, -2.59808
13, -1.73205
13.5, -0.86603
13, -0
12, -0
11.5, -0.86603
10.5, -0.86603
10, -0
9, -0
8.5, -0.86603
9, -1.73205
10, -1.73205
10.5, -2.59808
10, -3.4641
10.5, -4.33013
11.5, -4.33013
12, -3.4641
13, -3.4641
13.5, -4.33013
13, -5.19615
12, -5.19615
11.5, -6.06218
12, -6.9282
11.5, -7.79423
10.5, -7.79423
10, -6.9282
9, -6.9282
8.5, -7.79423
9, -8.66025
10, -8.66025
10.5, -9.52628
10, -10.3923
9, -10.3923
8.5, -11.25833
9, -12.12436
8.5, -12.99038
7.5, -12.99038
7, -12.12436
7.5, -11.25833
7, -10.3923
6, -10.3923
5.5, -9.52628
6, -8.66025
7, -8.66025
7.5, -7.79423
7, -6.9282
6, -6.9282
5.5, -7.79423
4.5, -7.79423
4, -6.9282
4.5, -6.06218
4, -5.19615
3, -5.19615
2.5, -4.33013
3, -3.4641
4, -3.4641
4.5, -4.33013
5.5, -4.33013
6, -3.4641
5.5, -2.59808
6, -1.73205
7, -1.73205
7.5, -0.86603
7, -0
6, -0
5.5, -0.86603
4.5, -0.86603
4, -0
3, -0
2.5, -0.86603
3, -1.73205
2.5, -2.59808
1.5, -2.59808
1, -1.73205
1.5, -0.86603
1, 0
0, 0
" fill="none" stroke="black" stroke-width="0.11291589790636214"/>
</svg>