<svg xmlns="http://www.w3.org/2000/svg"
     xmlns:xlink="http://www.w3.org/1999/xlink"
     width="500" height="500" viewBox="-52.92031 -106.84062 106.84062 106.84062">
<rect x="-52.92031" y="-106.84062" width="100%" height="100%" fill="white"/>
<polyline points="
-0, 0
-0, -1
-0.70711, -1.70711
-1.70711, -1.70711
-1.70711, -2.70711
-0.70711, -2.70711
-0, -3.41421
-0, -4.41421
-0.70711, -5.12132
-1.70711, -5.12132
-2.41421, -4.41421
-2.41421, -3.41421
-3.41421, -3.41421
-3.41421, -4.41421
-4.12132, -5.12132
-5.12132, -5.12132
-5.12132, -6.12132
-4.12132, -6.12132
-3.41421, -6.82843
-3.41421, -7.82843
-2.41421, -7.82843
-2.41421, -6.82843
-1.70711, -6.12132
-0.70711, -6.12132
-0, -6.82843
-0, -7.82843
-0.70711, -8.53553
-1.70711, -8.53553
-1.70711, -9.53553
-0.70711, -9.53553
-0, -10.24264
-0, -11.24264
-0.70711, -11.94975
-1.70711, -11.94975
-2.41421, -11.24264
-2.41421, -10.24264
-3.41421, -10.24264
-3.41421, -11.24264
-4.12132, -11.94975
-5.12132, -11.94975
-5.82843, -11.24264
-5.82843, -10.24264
-5.12132, -9.53553
-4.12132, -9.53553
-4.12132, -8.53553
-5.12132, -8.53553
-5.82843, -7.82843
-5.82843, -6.82843
-6.82843, -6.82843
-6.82843, -7.82843
-7.53553, -8.53553
-8.53553, -8.53553
-8.53553, -9.53553
-7.53553, -9.53553
-6.82843, -10.24264
-6.82843, -11.24264
-7.53553, -11.94975
-8.53553, -11.94975
-9.24264, -11.24264
-9.24264, -10.24264
-10.24264, -10.24264
-10.24264, -11.24264
-10.94975, -11.94975
-11.94975, -11.94975
-11.94975, -12.94975
-10.94975, -12.94975
-10.24264, -13.65685
-10.24264, -14.65685
-9.24264, -14.65685
-9.24264, -13.65685
-8.53553, -12.94975
-7.53553, -12.94975
-6.82843, -13.65685
-6.82843, -14.65685
-7.53553, -15.36396
-8.53553, -15.36396
-8.53553, -16.36396
-7.53553, -16.36396
-6.82843, -17.07107
-6.82843, -18.07107
-5.82843, -18.07107
-5.82843, -17.07107
-5.12132, -16.36396
-4.12132, -16.36396
-4.12132, -15.36396
-5.12132, -15.36396
-5.82843, -14.65685
-5.82843, -13.65685
-5.12132, -12.94975
-4.12132, -12.94975
-3.41421, -13.65685
-3.41421, -14.65685
-2.41421, -14.65685
-2.41421, -13.65685
-1.70711, -12.94975
-0.70711, -12.94975
-0, -13.65685
-0, -14.65685
-0.70711, -15.36396
-1.70711, -15.36396
-1.70711, -16.36396
-0.70711, -16.36396
-0, -17.07107
-0, -18.07107
-0.70711, -18.77817
-1.70711, -18.77817
-2.41421, -18.07107
-2.41421, -17.07107
-3.41421, -17.07107
-3.41421, -18.07107
-4.12132, -18.77817
-5.12132, -18.77817
-5.12132, -19.77817
-4.12132, -19.77817
-3.41421, -20.48528
-3.41421, -21.48528
-2.41421, -21.48528
-2.41421, -20.48528
-1.70711, -19.77817
-0.70711, -19.77817
-0, -20.48528
-0, -21.48528
-0.70711, -22.19239
-1.70711, -22.19239
-1.70711, -23.19239
-0.70711, -23.19239
-0, -23.89949
-0, -24.89949
-0.70711, -25.6066
-1.70711, -25.6066
-2.41421, -24.89949
-2.41421, -23.89949
-3.41421, -23.89949
-3.41421, -24.89949
-4.12132, -25.6066
-5.12132, -25.6066
-5.82843, -24.89949
-5.82843, -23.89949
-5.12132, -23.19239
-4.12132, -23.19239
-4.12132, -22.19239
-5.12132, -22.19239
-5.82843, -21.48528
-5.82843, -20.48528
-6.82843, -20.48528
-6.82843, -21.48528
-7.53553, -22.19239
-8.53553, -22.19239
-8.53553, -23.19239
-7.53553, -23.19239
-6.82843, -23.89949
-6.82843, -24.89949
-7.53553, -25.6066
-8.53553, -25.6066
-9.24264, -24.89949
-9.24264, -23.89949
-10.24264, -23.89949
-10.24264, -24.89949
-10.94975, -25.6066
-11.94975, -25.6066
-12.65685, -24.89949
-12.65685, -23.89949
-11.94975, -23.19239
-10.94975, -23.19239
-10.94975, -22.19239
-11.94975, -22.19239
-12.65685, -21.48528
-12.65685, -20.48528
-11.94975, -19.77817
-10.94975, -19.77817
-10.24264, -20.48528
-10.24264, -21.48528
-9.24264, -21.48528
-9.24264, -20.48528
-8.53553, -19.77817
-7.53553, -19.77817
-7.53553, -18.77817
-8.53553, -18.77817
-9.24264, -18.07107
-9.24264, -17.07107
-10.24264, -17.07107
-10.24264, -18.07107
-10.94975, -18.77817
-11.94975, -18.77817
-12.65685, -18.07107
-12.65685, -17.07107
-11.94975, -16.36396
-10.94975, -16.36396
-10.94975, -15.36396
-11.94975, -15.36396
-12.65685, -14.65685
-12.65685, -13.65685
-13.65685, -13.65685
-13.65685, -14.65685
-14.36396, -15.36396
-15.36396, -15.36396
-15.36396, -16.36396
-14.36396, -16.36396
-13.65685, -17.07107
-13.65685, -18.07107
-14.36396, -18.77817
-15.36396, -18.77817
-16.07107, -18.07107
-16.07107, -17.07107
-17.07107, -17.07107
-17.07107, -18.07107
-17.77817, -18.77817
-18.77817, -18.77817
-18.77817, -19.77817
-17.77817, -19.77817
-17.07107, -20.48528
-17.07107, -21.48528
-16.07107, -21.48528
-16.07107, -20.48528
-15.36396, -19.77817
-14.36396, -19.77817
-13.65685, -20.48528
-13.65685, -21.48528
-14.36396, -22.19239
-15.36396, -22.19239
-15.36396, -23.19239
-14.36396, -23.19239
-13.65685, -23.89949
-13.65685, -24.89949
-14.36396, -25.6066
-15.36396, -25.6066
-16.07107, -24.89949
-16.07107, -23.89949
-17.07107, -23.89949
-17.07107, -24.89949
-17.77817, -25.6066
-18.77817, -25.6066
-19.48528, -24.89949
-19.48528, -23.89949
-18.77817, -23.19239
-17.77817, -23.19239
-17.77817, -22.19239
-18.77817, -22.19239
-19.48528, -21.48528
-19.48528, -20.48528
-20.48528, -20.48528
-20.48528, -21.48528
-21.19239, -22.19239
-22.19239, -22.19239
-22.19239, -23.19239
-21.19239, -23.19239
-20.48528, -23.89949
-20.48528, -24.89949
-21.19239, -25.6066
-22.19239, -25.6066
-22.89949, -24.89949
-22.89949, -23.89949
-23.89949, -23.89949
-23.89949, -24.89949
-24.6066, -25.6066
-25.6066, -25.6066
-25.6066, -26.6066
-24.6066, -26.6066
-23.89949, -27.31371
-23.89949, -28.31371
-22.89949, -28.31371
-22.89949, -27.31371
-22.19239, -26.6066
-21.19239, -26.6066
-20.48528, -27.31371
-20.48528, -28.31371
-21.19239, -29.02082
-22.19239, -29.02082
-22.19239, -30.02082
-21.19239, -30.02082
-20.48528, -30.72792
-20.48528, -31.72792
-19.48528, -31.72792
-19.48528, -30.72792
-18.77817, -30.02082
-17.77817, -30.02082
-17.77817, -29.02082
-18.77817, -29.02082
-19.48528, -28.31371
-19.48528, -27.31371
-18.77817, -26.6066
-17.77817, -26.6066
-17.07107, -27.31371
-17.07107, -28.31371
-16.07107, -28.31371
-16.07107, -27.31371
-15.36396, -26.6066
-14.36396, -26.6066
-13.65685, -27.31371
-13.65685, -28.31371
-14.36396, -29.02082
-15.36396, -29.02082
-15.36396, -30.02082
-14.36396, -30.02082
-13.65685, -30.72792
-13.65685, -31.72792
-14.36396, -32.43503
-15.36396, -32.43503
-16.07107, -31.72792
-16.07107, -30.72792
-17.07107, -30.72792
-17.07107, -31.72792
-17.77817, -32.43503
-18.77817, -32.43503
-18.77817, -33.43503
-17.77817, -33.43503
-17.07107, -34.14214
-17.07107, -35.14214
-16.07107, -35.14214
-16.07107, -34.14214
-15.36396, -33.43503
-14.36396, -33.43503
-13.65685, -34.14214
-13.65685, -35.14214
-14.36396, -35.84924
-15.36396, -35.84924
-15.36396, -36.84924
-14.36396, -36.84924
-13.65685, -37.55635
-13.65685, -38.55635
-12.65685, -38.55635
-12.65685, -37.55635
-11.94975, -36.84924
-10.94975, -36.84924
-10.94975, -35.84924
-11.94975, -35.84924
-12.65685, -35.14214
-12.65685, -34.14214
-11.94975, -33.43503
-10.94975, -33.43503
-10.24264, -34.14214
-10.24264, -35.14214
-9.24264, -35.14214
-9.24264, -34.14214
-8.53553, -33.43503
-7.53553, -33.43503
-7.53553, -32.43503
-8.53553, -32.43503
-9.24264, -31.72792
-9.24264, -30.72792
-10.24264, -30.72792
-10.24264, -31.72792
-10.94975, -32.43503
-11.94975, -32.43503
-12.65685, -31.72792
-12.65685, -30.72792
-11.94975, -30.02082
-10.94975, -30.02082
-10.94975, -29.02082
-11.94975, -29.02082
-12.65685, -28.31371
-12.65685, -27.31371
-11.94975, -26.6066
-10.94975, -26.6066
-10.24264, -27.31371
-10.24264, -28.31371
-9.24264, -28.31371
-9.24264, -27.31371
-8.53553, -26.6066
-7.53553, -26.6066
-6.82843, -27.31371
-6.82843, -28.31371
-7.53553, -29.02082
-8.53553, -29.02082
-8.53553, -30.02082
-7.53553, -30.02082
-6.82843, -30.72792
-6.82843, -31.72792
-5.82843, -31.72792
-5.82843, -30.72792
-5.12132, -30.02082
-4.12132, -30.02082
-4.12132, -29.02082
-5.12132, -29.02082
-5.82843, -28.31371
-5.82843, -27.31371
-5.12132, -26.6066
-4.12132, -26.6066
-3.41421, -27.31371
-3.41421, -28.31371
-2.41421, -28.31371
-2.41421, -27.31371
-1.70711, -26.6066
-0.70711, -26.6066
-0, -27.31371
-0, -28.31371
-0.70711, -29.02082
-1.70711, -29.02082
-1.70711, -30.02082
-0.70711, -30.02082
-0, -30.72792
-0, -31.72792
-0.70711, -32.43503
-1.70711, -32.43503
-2.41421, -31.72792
-2.41421, -30.72792
-3.41421, -30.72792
-3.41421, -31.72792
-4.12132, -32.43503
-5.12132, -32.43503
-5.12132, -33.43503
-4.12132, -33.43503
-3.41421, -34.14214
-3.41421, -35.14214
-2.41421, -35.14214
-2.41421, -34.14214
-1.70711, -33.43503
-0.70711, -33.43503
-0, -34.14214
-0, -35.14214
-0.70711, -35.84924
-1.70711, -35.84924
-1.70711, -36.84924
-0.70711, -36.84924
-0, -37.55635
-0, -38.55635
-0.70711, -39.26346
-1.70711, -39.26346
-2.41421, -38.55635
-2.41421, -37.55635
-3.41421, -37.55635
-3.41421, -38.55635
-4.12132, -39.26346
-5.12132, -39.26346
-5.82843, -38.55635
-5.82843, -37.55635
-5.12132, -36.84924
-4.12132, -36.84924
-4.12132, -35.84924
-5.12132, -35.84924
-5.82843, -35.14214
-5.82843, -34.14214
-6.82843, -34.14214
-6.82843, -35.14214
-7.53553, -35.84924
-8.53553, -35.84924
-8.53553, -36.84924
-7.53553, -36.84924
-6.82843, -37.55635
-6.82843, -38.55635
-7.53553, -39.26346
-8.53553, -39.26346
-9.24264, -38.55635
-9.24264, -37.55635
-10.24264, -37.55635
-10.24264, -38.55635
-10.94975, -39.26346
-11.94975, -39.26346
-11.94975, -40.26346
-10.94975, -40.26346
-10.24264, -40.97056
-10.24264, -41.97056
-9.24264, -41.97056
-9.24264, -40.97056
-8.53553, -40.26346
-7.53553, -40.26346
-6.82843, -40.97056
-6.82843, -41.97056
-7.53553, -42.67767
-8.53553, -42.67767
-8.53553, -43.67767
-7.53553, -43.67767
-6.82843, -44.38478
-6.82843, -45.38478
-5.82843, -45.38478
-5.82843, -44.38478
-5.12132, -43.67767
-4.12132, -43.67767
-4.12132, -42.67767
-5.12132, -42.67767
-5.82843, -41.97056
-5.82843, -40.97056
-5.12132, -40.26346
-4.12132, -40.26346
-3.41421, -40.97056
-3.41421, -41.97056
-2.41421, -41.97056
-2.41421, -40.97056
-1.70711, -40.26346
-0.70711, -40.26346
0, -40.97056
0, -41.97056
-0.70711, -42.67767
-1.70711, -42.67767
-1.70711, -43.67767
-0.70711, -43.67767
0, -44.38478
0, -45.38478
-0.70711, -46.09188
-1.70711, -46.09188
-2.41421, -45.38478
-2.41421, -44.38478
-3.41421, -44.38478
-3.41421, -45.38478
-4.12132, -46.09188
-5.12132, -46.09188
-5.12132, -47.09188
-4.12132, -47.09188
-3.41421, -47.79899
-3.41421, -48.79899
-2.41421, -48.79899
-2.41421, -47.79899
-1.70711, -47.09188
-0.70711, -47.09188
0, -47.79899
0, -48.79899
-0.70711, -49.5061
-1.70711, -49.5061
-1.70711, -50.5061
-0.70711, -50.5061
0, -51.2132
0, -52.2132
-0.70711, -52.92031
-1.70711, -52.92031
-2.41421, -52.2132
-2.41421, -51.2132
-3.41421, -51.2132
-3.41421, -52.2132
-4.12132, -52.92031
-5.12132, -52.92031
-5.82843, -52.2132
-5.82843, -51.2132
-5.12132, -50.5061
-4.12132, -50.5061
-4.12132, -49.5061
-5.12132, -49.5061
-5.82843, -48.79899
-5.82843, -47.79899
-6.82843, -47.79899
-6.82843, -48.79899
-7.53553, -49.5061
-8.53553, -49.5061
-8.53553, -50.5061
-7.53553, -50.5061
-6.82843, -51.2132
-6.82843, -52.2132
-7.53553, -52.92031
-8.53553, -52.92031
-9.24264, -52.2132
-9.24264, -51.2132
-10.24264, -51.2132
-10.24264, -52.2132
-10.94975, -52.92031
-11.94975, -52.92031
-12.65685, -52.2132
-12.65685, -51.2132
-11.94975, -50.5061
-10.94975, -50.5061
-10.94975, -49.5061
-11.94975, -49.5061
-12.65685, -48.79899
-12.65685, -47.79899
-11.94975, -47.09188
-10.94975, -47.09188
-10.24264, -47.79899
-10.24264, -48.79899
-9.24264, -48.79899
-9.24264, -47.79899
-8.53553, -47.09188
-7.53553, -47.09188
-7.53553, -46.09188
-8.53553, -46.09188
-9.24264, -45.38478
-9.24264, -44.38478
-10.24264, -44.38478
-10.24264, -45.38478
-10.94975, -46.09188
-11.94975, -46.09188
-12.65685, -45.38478
-12.65685, -44.38478
-11.94975, -43.67767
-10.94975, -43.67767
-10.94975, -42.67767
-11.94975, -42.67767
-12.65685, -41.97056
-12.65685, -40.97056
-13.65685, -40.97056
-13.65685, -41.97056
-14.36396, -42.67767
-15.36396, -42.67767
-15.36396, -43.67767
-14.36396, -43.67767
-13.65685, -44.38478
-13.65685, -45.38478
-14.36396, -46.09188
-15.36396, -46.09188
-16.07107, -45.38478
-16.07107, -44.38478
-17.07107, -44.38478
-17.07107, -45.38478
-17.77817, -46.09188
-18.77817, -46.09188
-18.77817, -47.09188
-17.77817, -47.09188
-17.07107, -47.79899
-17.07107, -48.79899
-16.07107, -48.79899
-16.07107, -47.79899
-15.36396, -47.09188
-14.36396, -47.09188
-13.65685, -47.79899
-13.65685, -48.79899
-14.36396, -49.5061
-15.36396, -49.5061
-15.36396, -50.5061
-14.36396, -50.5061
-13.65685, -51.2132
-13.65685, -52.2132
-14.36396, -52.92031
-15.36396, -52.92031
-16.07107, -52.2132
-16.07107, -51.2132
-17.07107, -51.2132
-17.07107, -52.2132
-17.77817, -52.92031
-18.77817, -52.92031
-19.48528, -52.2132
-19.48528, -51.2132
-18.77817, -50.5061
-17.77817, -50.5061
-17.77817, -49.5061
-18.77817, -49.5061
-19.48528, -48.79899
-19.48528, -47.79899
-20.48528, -47.79899
-20.48528, -48.79899
-21.19239, -49.5061
-22.19239, -49.5061
-22.19239, -50.5061
-21.19239, -50.5061
-20.48528, -51.2132
-20.48528, -52.2132
-21.19239, -52.92031
-22.19239, -52.92031
-22.89949, -52.2132
-22.89949, -51.2132
-23.89949, -51.2132
-23.89949, -52.2132
-24.6066, -52.92031
-25.6066, -52.92031
-26.31371, -52.2132
-26.31371, -51.2132
-25.6066, -50.5061
-24.6066, -50.5061
-24.6066, -49.5061
-25.6066, -49.5061
-26.31371, -48.79899
-26.31371, -47.79899
-25.6066, -47.09188
-24.6066, -47.09188
-23.89949, -47.79899
-23.89949, -48.79899
-22.89949, -48.79899
-22.89949, -47.79899
-22.19239, -47.09188
-21.19239, -47.09188
-21.19239, -46.09188
-22.19239, -46.09188
-22.89949, -45.38478
-22.89949, -44.38478
-23.89949, -44.38478
-23.89949, -45.38478
-24.6066, -46.09188
-25.6066, -46.09188
-26.31371, -45.38478
-26.31371, -44.38478
-25.6066, -43.67767
-24.6066, -43.67767
-24.6066, -42.67767
-25.6066, -42.67767
-26.31371, -41.97056
-26.31371, -40.97056
-25.6066, -40.26346
-24.6066, -40.26346
-23.89949, -40.97056
-23.89949, -41.97056
-22.89949, -41.97056
-22.89949, -40.97056
-22.19239, -40.26346
-21.19239, -40.26346
-20.48528, -40.97056
-20.48528, -41.97056
-21.19239, -42.67767
-22.19239, -42.67767
-22.19239, -43.67767
-21.19239, -43.67767
-20.48528, -44.38478
-20.48528, -45.38478
-19.48528, -45.38478
-19.48528, -44.38478
-18.77817, -43.67767
-17.77817, -43.67767
-17.77817, -42.67767
-18.77817, -42.67767
-19.48528, -41.97056
-19.48528, -40.97056
-18.77817, -40.26346
-17.77817, -40.26346
-17.07107, -40.97056
-17.07107, -41.97056
-16.07107, -41.97056
-16.07107, -40.97056
-15.36396, -40.26346
-14.36396, -40.26346
-14.36396, -39.26346
-15.36396, -39.26346
-16.07107, -38.55635
-16.07107, -37.55635
-17.07107, -37.55635
-17.07107, -38.55635
-17.77817, -39.26346
-18.77817, -39.26346
-19.48528, -38.55635
-19.48528, -37.55635
-18.77817, -36.84924
-17.77817, -36.84924
-17.77817, -35.84924
-18.77817, -35.84924
-19.48528, -35.14214
-19.48528, -34.14214
-20.48528, -34.14214
-20.48528, -35.14214
-21.19239, -35.84924
-22.19239, -35.84924
-22.19239, -36.84924
-21.19239, -36.84924
-20.48528, -37.55635
-20.48528, -38.55635
-21.19239, -39.26346
-22.19239, -39.26346
-22.89949, -38.55635
-22.89949, -37.55635
-23.89949, -37.55635
-23.89949, -38.55635
-24.6066, -39.26346
-25.6066, -39.26346
-26.31371, -38.55635
-26.31371, -37.55635
-25.6066, -36.84924
-24.6066, -36.84924
-24.6066, -35.84924
-25.6066, -35.84924
-26.31371, -35.14214
-26.31371, -34.14214
-25.6066, -33.43503
-24.6066, -33.43503
-23.89949, -34.14214
-23.89949, -35.14214
-22.89949, -35.14214
-22.89949, -34.14214
-22.19239, -33.43503
-21.19239, -33.43503
-21.19239, -32.43503
-22.19239, -32.43503
-22.89949, -31.72792
-22.89949, -30.72792
-23.89949, -30.72792
-23.89949, -31.72792
-24.6066, -32.43503
-25.6066, -32.43503
-26.31371, -31.72792
-26.31371, -30.72792
-25.6066, -30.02082
-24.6066, -30.02082
-24.6066, -29.02082
-25.6066, -29.02082
-26.31371, -28.31371
-26.31371, -27.31371
-27.31371, -27.31371
-27.31371, -28.31371
-28.02082, -29.02082
-29.02082, -29.02082
-29.02082, -30.02082
-28.02082, -30.02082
-27.31371, -30.72792
-27.31371, -31.72792
-28.02082, -32.43503
-29.02082, -32.43503
-29.72792, -31.72792
-29.72792, -30.72792
-30.72792, -30.72792
-30.72792, -31.72792
-31.43503, -32.43503
-32.43503, -32.43503
-32.43503, -33.43503
-31.43503, -33.43503
-30.72792, -34.14214
-30.72792, -35.14214
-29.72792, -35.14214
-29.72792, -34.14214
-29.02082, -33.43503
-28.02082, -33.43503
-27.31371, -34.14214
-27.31371, -35.14214
-28.02082, -35.84924
-29.02082, -35.84924
-29.02082, -36.84924
-28.02082, -36.84924
-27.31371, -37.55635
-27.31371, -38.55635
-28.02082, -39.26346
-29.02082, -39.26346
-29.72792, -38.55635
-29.72792, -37.55635
-30.72792, -37.55635
-30.72792, -38.55635
-31.43503, -39.26346
-32.43503, -39.26346
-33.14214, -38.55635
-33.14214, -37.55635
-32.43503, -36.84924
-31.43503, -36.84924
-31.43503, -35.84924
-32.43503, -35.84924
-33.14214, -35.14214
-33.14214, -34.14214
-34.14214, -34.14214
-34.14214, -35.14214
-34.84924, -35.84924
-35.84924, -35.84924
-35.84924, -36.84924
-34.84924, -36.84924
-34.14214, -37.55635
-34.14214, -38.55635
-34.84924, -39.26346
-35.84924, -39.26346
-36.55635, -38.55635
-36.55635, -37.55635
-37.55635, -37.55635
-37.55635, -38.55635
-38.26346, -39.26346
-39.26346, -39.26346
-39.26346, -40.26346
-38.26346, -40.26346
-37.55635, -40.97056
-37.55635, -41.97056
-36.55635, -41.97056
-36.55635, -40.97056
-35.84924, -40.26346
-34.84924, -40.26346
-34.14214, -40.97056
-34.14214, -41.97056
-34.84924, -42.67767
-35.84924, -42.67767
-35.84924, -43.67767
-34.84924, -43.67767
-34.14214, -44.38478
-34.14214, -45.38478
-33.14214, -45.38478
-33.14214, -44.38478
-32.43503, -43.67767
-31.43503, -43.67767
-31.43503, -42.67767
-32.43503, -42.67767
-33.14214, -41.97056
-33.14214, -40.97056
-32.43503, -40.26346
-31.43503, -40.26346
-30.72792, -40.97056
-30.72792, -41.97056
-29.72792, -41.97056
-29.72792, -40.97056
-29.02082, -40.26346
-28.02082, -40.26346
-27.31371, -40.97056
-27.31371, -41.97056
-28.02082, -42.67767
-29.02082, -42.67767
-29.02082, -43.67767
-28.02082, -43.67767
-27.31371, -44.38478
-27.31371, -45.38478
-28.02082, -46.09188
-29.02082, -46.09188
-29.72792, -45.38478
-29.72792, -44.38478
-30.72792, -44.38478
-30.72792, -45.38478
-31.43503, -46.09188
-32.43503, -46.09188
-32.43503, -47.09188
-31.43503, -47.09188
-30.72792, -47.79899
-30.72792, -48.79899
-29.72792, -48.79899
-29.72792, -47.79899
-29.02082, -47.09188
-28.02082, -47.09188
-27.31371, -47.79899
-27.31371, -48.79899
-28.02082, -49.5061
-29.02082, -49.5061
-29.02082, -50.5061
-28.02082, -50.5061
-27.31371, -51.2132
-27.31371, -52.2132
-28.02082, -52.92031
-29.02082, -52.92031
-29.72792, -52.2132
-29.72792, -51.2132
-30.72792, -51.2132
-30.72792, -52.2132
-31.43503, -52.92031
-32.43503, -52.92031
-33.14214, -52.2132
-33.14214, -51.2132
-32.43503, -50.5061
-31.43503, -50.5061
-31.43503, -49.5061
-32.43503, -49.5061
-33.14214, -48.79899
-33.14214, -47.79899
-34.14214, -47.79899
-34.14214, -48.79899
-34.84924, -49.5061
-35.84924, -49.5061
-35.84924, -50.5061
-34.84924, -50.5061
-34.14214, -51.2132
-34.14214, -52.2132
-34.84924, -52.92031
-35.84924, -52.92031
-36.55635, -52.2132
-36.55635, -51.2132
-37.55635, -51.2132
-37.55635, -52.2132
-38.26346, -52.92031
-39.26346, -52.92031
-39.97056, -52.2132
-39.97056, -51.2132
-39.26346, -50.5061
-38.26346, -50.5061
-38.26346, -49.5061
-39.26346, -49.5061
-39.97056, -48.79899
-39.97056, -47.79899
-39.26346, -47.09188
-38.26346, -47.09188
-37.55635, -47.79899
-37.55635, -48.79899
-36.55635, -48.79899
-36.55635, -47.79899
-35.84924, -47.09188
-34.84924, -47.09188
-34.84924, -46.09188
-35.84924, -46.09188
-36.55635, -45.38478
-36.55635, -44.38478
-37.55635, -44.38478
-37.55635, -45.38478
-38.26346, -46.09188
-39.26346, -46.09188
-39.97056, -45.38478
-39.97056, -44.38478
-39.26346, -43.67767
-38.26346, -43.67767
-38.26346, -42.67767
-39.26346, -42.67767
-39.97056, -41.97056
-39.97056, -40.97056
-40.97056, -40.97056
-40.97056, -41.97056
-41.67767, -42.67767
-42.67767, -42.67767
-42.67767, -43.67767
-41.67767, -43.67767
-40.97056, -44.38478
-40.97056, -45.38478
-41.67767, -46.09188
-42.67767, -46.09188
-43.38478, -45.38478
-43.38478, -44.38478
-44.38478, -44.38478
-44.38478, -45.38478
-45.09188, -46.09188
-46.09188, -46.09188
-46.09188, -47.09188
-45.09188, -47.09188
-44.38478, -47.79899
-44.38478, -48.79899
-43.38478, -48.79899
-43.38478, -47.79899
-42.67767, -47.09188
-41.67767, -47.09188
-40.97056, -47.79899
-40.97056, -48.79899
-41.67767, -49.5061
-42.67767, -49.5061
-42.67767, -50.5061
-41.67767, -50.5061
-40.97056, -51.2132
-40.97056, -52.2132
-41.67767, -52.92031
-42.67767, -52.92031
-43.38478, -52.2132
-43.38478, -51.2132
-44.38478, -51.2132
-44.38478, -52.2132
-45.09188, -52.92031
-46.09188, -52.92031
-46.79899, -52.2132
-46.79899, -51.2132
-46.09188, -50.5061
-45.09188, -50.5061
-45.09188, -49.5061
-46.09188, -49.5061
-46.79899, -48.79899
-46.79899, -47.79899
-47.79899, -47.79899
-47.79899, -48.79899
-48.5061, -49.5061
-49.5061, -49.5061
-49.5061, -50.5061
-48.5061, -50.5061
-47.79899, -51.2132
-47.79899, -52.2132
-48.5061, -52.92031
-49.5061, -52.92031
-50.2132, -52.2132
-50.2132, -51.2132
-51.2132, -51.2132
-51.2132, -52.2132
-51.92031, -52.92031
-52.92031, -52.92031
-52.92031, -53.92031
-51.92031, -53.92031
-51.2132, -54.62742
-51.2132, -55.62742
-50.2132, -55.62742
-50.2132, -54.62742
-49.5061, -53.92031
-48.5061, -53.92031
-47.79899, -54.62742
-47.79899, -55.62742
-48.5061, -56.33452
-49.5061, -56.33452
-49.5061, -57.33452
-48.5061, -57.33452
-47.79899, -58.04163
-47.79899, -59.04163
-46.79899, -59.04163
-46.79899, -58.04163
-46.09188, -57.33452
-45.09188, -57.33452
-45.09188, -56.33452
-46.09188, -56.33452
-46.79899, -55.62742
-46.79899, -54.62742
-46.09188, -53.92031
-45.09188, -53.92031
-44.38478, -54.62742
-44.38478, -55.62742
-43.38478, -55.62742
-43.38478, -54.62742
-42.67767, -53.92031
-41.67767, -53.92031
-40.97056, -54.62742
-40.97056, -55.62742
-41.67767, -56.33452
-42.67767, -56.33452
-42.67767, -57.33452
-41.67767, -57.33452
-40.97056, -58.04163
-40.97056, -59.04163
-41.67767, -59.74874
-42.67767, -59.74874
-43.38478, -59.04163
-43.38478, -58.04163
-44.38478, -58.04163
-44.38478, -59.04163
-45.09188, -59.74874
-46.09188, -59.74874
-46.09188, -60.74874
-45.09188, -60.74874
-44.38478, -61.45584
-44.38478, -62.45584
-43.38478, -62.45584
-43.38478, -61.45584
-42.67767, -60.74874
-41.67767, -60.74874
-40.97056, -61.45584
-40.97056, -62.45584
-41.67767, -63.16295
-42.67767, -63.16295
-42.67767, -64.16295
-41.67767, -64.16295
-40.97056, -64.87006
-40.97056, -65.87006
-39.97056, -65.87006
-39.97056, -64.87006
-39.26346, -64.16295
-38.26346, -64.16295
-38.26346, -63.16295
-39.26346, -63.16295
-39.97056, -62.45584
-39.97056, -61.45584
-39.26346, -60.74874
-38.26346, -60.74874
-37.55635, -61.45584
-37.55635, -62.45584
-36.55635, -62.45584
-36.55635, -61.45584
-35.84924, -60.74874
-34.84924, -60.74874
-34.84924, -59.74874
-35.84924, -59.74874
-36.55635, -59.04163
-36.55635, -58.04163
-37.55635, -58.04163
-37.55635, -59.04163
-38.26346, -59.74874
-39.26346, -59.74874
-39.97056, -59.04163
-39.97056, -58.04163
-39.26346, -57.33452
-38.26346, -57.33452
-38.26346, -56.33452
-39.26346, -56.33452
-39.97056, -55.62742
-39.97056, -54.62742
-39.26346, -53.92031
-38.26346, -53.92031
-37.55635, -54.62742
-37.55635, -55.62742
-36.55635, -55.62742
-36.55635, -54.62742
-35.84924, -53.92031
-34.84924, -53.92031
-34.14214, -54.62742
-34.14214, -55.62742
-34.84924, -56.33452
-35.84924, -56.33452
-35.84924, -57.33452
-34.84924, -57.33452
-34.14214, -58.04163
-34.14214, -59.04163
-33.14214, -59.04163
-33.14214, -58.04163
-32.43503, -57.33452
-31.43503, -57.33452
-31.43503, -56.33452
-32.43503, -56.33452
-33.14214, -55.62742
-33.14214, -54.62742
-32.43503, -53.92031
-31.43503, -53.92031
-30.72792, -54.62742
-30.72792, -55.62742
-29.72792, -55.62742
-29.72792, -54.62742
-29.02082, -53.92031
-28.02082, -53.92031
-27.31371, -54.62742
-27.31371, -55.62742
-28.02082, -56.33452
-29.02082, -56.33452
-29.02082, -57.33452
-28.02082, -57.33452
-27.31371, -58.04163
-27.31371, -59.04163
-28.02082, -59.74874
-29.02082, -59.74874
-29.72792, -59.04163
-29.72792, -58.04163
-30.72792, -58.04163
-30.72792, -59.04163
-31.43503, -59.74874
-32.43503, -59.74874
-32.43503, -60.74874
-31.43503, -60.74874
-30.72792, -61.45584
-30.72792, -62.45584
-29.72792, -62.45584
-29.72792, -61.45584
-29.02082, -60.74874
-28.02082, -60.74874
-27.31371, -61.45584
-27.31371, -62.45584
-28.02082, -63.16295
-29.02082, -63.16295
-29.02082, -64.16295
-28.02082, -64.16295
-27.31371, -64.87006
-27.31371, -65.87006
-28.02082, -66.57716
-29.02082, -66.57716
-29.72792, -65.87006
-29.72792, -64.87006
-30.72792, -64.87006
-30.72792, -65.87006
-31.43503, -66.57716
-32.43503, -66.57716
-33.14214, -65.87006
-33.14214, -64.87006
-32.43503, -64.16295
-31.43503, -64.16295
-31.43503, -63.16295
-32.43503, -63.16295
-33.14214, -62.45584
-33.14214, -61.45584
-34.14214, -61.45584
-34.14214, -62.45584
-34.84924, -63.16295
-35.84924, -63.16295
-35.84924, -64.16295
-34.84924, -64.16295
-34.14214, -64.87006
-34.14214, -65.87006
-34.84924, -66.57716
-35.84924, -66.57716
-36.55635, -65.87006
-36.55635, -64.87006
-37.55635, -64.87006
-37.55635, -65.87006
-38.26346, -66.57716
-39.26346, -66.57716
-39.26346, -67.57716
-38.26346, -67.57716
-37.55635, -68.28427
-37.55635, -69.28427
-36.55635, -69.28427
-36.55635, -68.28427
-35.84924, -67.57716
-34.84924, -67.57716
-34.14214, -68.28427
-34.14214, -69.28427
-34.84924, -69.99138
-35.84924, -69.99138
-35.84924, -70.99138
-34.84924, -70.99138
-34.14214, -71.69848
-34.14214, -72.69848
-33.14214, -72.69848
-33.14214, -71.69848
-32.43503, -70.99138
-31.43503, -70.99138
-31.43503, -69.99138
-32.43503, -69.99138
-33.14214, -69.28427
-33.14214, -68.28427
-32.43503, -67.57716
-31.43503, -67.57716
-30.72792, -68.28427
-30.72792, -69.28427
-29.72792, -69.28427
-29.72792, -68.28427
-29.02082, -67.57716
-28.02082, -67.57716
-27.31371, -68.28427
-27.31371, -69.28427
-28.02082, -69.99138
-29.02082, -69.99138
-29.02082, -70.99138
-28.02082, -70.99138
-27.31371, -71.69848
-27.31371, -72.69848
-28.02082, -73.40559
-29.02082, -73.40559
-29.72792, -72.69848
-29.72792, -71.69848
-30.72792, -71.69848
-30.72792, -72.69848
-31.43503, -73.40559
-32.43503, -73.40559
-32.43503, -74.40559
-31.43503, -74.40559
-30.72792, -75.1127
-30.72792, -76.1127
-29.72792, -76.1127
-29.72792, -75.1127
-29.02082, -74.40559
-28.02082, -74.40559
-27.31371, -75.1127
-27.31371, -76.1127
-28.02082, -76.81981
-29.02082, -76.81981
-29.02082, -77.81981
-28.02082, -77.81981
-27.31371, -78.52691
-27.31371, -79.52691
-26.31371, -79.52691
-26.31371, -78.52691
-25.6066, -77.81981
-24.6066, -77.81981
-24.6066, -76.81981
-25.6066, -76.81981
-26.31371, -76.1127
-26.31371, -75.1127
-25.6066, -74.40559
-24.6066, -74.40559
-23.89949, -75.1127
-23.89949, -76.1127
-22.89949, -76.1127
-22.89949, -75.1127
-22.19239, -74.40559
-21.19239, -74.40559
-21.19239, -73.40559
-22.19239, -73.40559
-22.89949, -72.69848
-22.89949, -71.69848
-23.89949, -71.69848
-23.89949, -72.69848
-24.6066, -73.40559
-25.6066, -73.40559
-26.31371, -72.69848
-26.31371, -71.69848
-25.6066, -70.99138
-24.6066, -70.99138
-24.6066, -69.99138
-25.6066, -69.99138
-26.31371, -69.28427
-26.31371, -68.28427
-25.6066, -67.57716
-24.6066, -67.57716
-23.89949, -68.28427
-23.89949, -69.28427
-22.89949, -69.28427
-22.89949, -68.28427
-22.19239, -67.57716
-21.19239, -67.57716
-20.48528, -68.28427
-20.48528, -69.28427
-21.19239, -69.99138
-22.19239, -69.99138
-22.19239, -70.99138
-21.19239, -70.99138
-20.48528, -71.69848
-20.48528, -72.69848
-19.48528, -72.69848
-19.48528, -71.69848
-18.77817, -70.99138
-17.77817, -70.99138
-17.77817, -69.99138
-18.77817, -69.99138
-19.48528, -69.28427
-19.48528, -68.28427
-18.77817, -67.57716
-17.77817, -67.57716
-17.07107, -68.28427
-17.07107, -69.28427
-16.07107, -69.28427
-16.07107, -68.28427
-15.36396, -67.57716
-14.36396, -67.57716
-14.36396, -66.57716
-15.36396, -66.57716
-16.07107, -65.87006
-16.07107, -64.87006
-17.07107, -64.87006
-17.07107, -65.87006
-17.77817, -66.57716
-18.77817, -66.57716
-19.48528, -65.87006
-19.48528, -64.87006
-18.77817, -64.16295
-17.77817, -64.16295
-17.77817, -63.16295
-18.77817, -63.16295
-19.48528, -62.45584
-19.48528, -61.45584
-20.48528, -61.45584
-20.48528, -62.45584
-21.19239, -63.16295
-22.19239, -63.16295
-22.19239, -64.16295
-21.19239, -64.16295
-20.48528, -64.87006
-20.48528, -65.87006
-21.19239, -66.57716
-22.19239, -66.57716
-22.89949, -65.87006
-22.89949, -64.87006
-23.89949, -64.87006
-23.89949, -65.87006
-24.6066, -66.57716
-25.6066, -66.57716
-26.31371, -65.87006
-26.31371, -64.87006
-25.6066, -64.16295
-24.6066, -64.16295
-24.6066, -63.16295
-25.6066, -63.16295
-26.31371, -62.45584
-26.31371, -61.45584
-25.6066, -60.74874
-24.6066, -60.74874
-23.89949, -61.45584
-23.89949, -62.45584
-22.89949, -62.45584
-22.89949, -61.45584
-22.19239, -60.74874
-21.19239, -60.74874
-21.19239, -59.74874
-22.19239, -59.74874
-22.89949, -59.04163
-22.89949, -58.04163
-23.89949, -58.04163
-23.89949, -59.04163
-24.6066, -59.74874
-25.6066, -59.74874
-26.31371, -59.04163
-26.31371, -58.04163
-25.6066, -57.33452
-24.6066, -57.33452
-24.6066, -56.33452
-25.6066, -56.33452
-26.31371, -55.62742
-26.31371, -54.62742
-25.6066, -53.92031
-24.6066, -53.92031
-23.89949, -54.62742
-23.89949, -55.62742
-22.89949, -55.62742
-22.89949, -54.62742
-22.19239, -53.92031
-21.19239, -53.92031
-20.48528, -54.62742
-20.48528, -55.62742
-21.19239, -56.33452
-22.19239, -56.33452
-22.19239, -57.33452
-21.19239, -57.33452
-20.48528, -58.04163
-20.48528, -59.04163
-19.48528, -59.04163
-19.48528, -58.04163
-18.77817, -57.33452
-17.77817, -57.33452
-17.77817, -56.33452
-18.77817, -56.33452
-19.48528, -55.62742
-19.48528, -54.62742
-18.77817, -53.92031
-17.77817, -53.92031
-17.07107, -54.62742
-17.07107, -55.62742
-16.07107, -55.62742
-16.07107, -54.62742
-15.36396, -53.92031
-14.36396, -53.92031
-13.65685, -54.62742
-13.65685, -55.62742
-14.36396, -56.33452
-15.36396, -56.33452
-15.36396, -57.33452
-14.36396, -57.33452
-13.65685, -58.04163
-13.65685, -59.04163
-14.36396, -59.74874
-15.36396, -59.74874
-16.07107, -59.04163
-16.07107, -58.04163
-17.07107, -58.04163
-17.07107, -59.04163
-17.77817, -59.74874
-18.77817, -59.74874
-18.77817, -60.74874
-17.77817, -60.74874
-17.07107, -61.45584
-17.07107, -62.45584
-16.07107, -62.45584
-16.07107, -61.45584
-15.36396, -60.74874
-14.36396, -60.74874
-13.65685, -61.45584
-13.65685, -62.45584
-14.36396, -63.16295
-15.36396, -63.16295
-15.36396, -64.16295
-14.36396, -64.16295
-13.65685, -64.87006
-13.65685, -65.87006
-12.65685, -65.87006
-12.65685, -64.87006
-11.94975, -64.16295
-10.94975, -64.16295
-10.94975, -63.16295
-11.94975, -63.16295
-12.65685, -62.45584
-12.65685, -61.45584
-11.94975, -60.74874
-10.94975, -60.74874
-10.24264, -61.45584
-10.24264, -62.45584
-9.24264, -62.45584
-9.24264, -61.45584
-8.53553, -60.74874
-7.53553, -60.74874
-7.53553, -59.74874
-8.53553, -59.74874
-9.24264, -59.04163
-9.24264, -58.04163
-10.24264, -58.04163
-10.24264, -59.04163
-10.94975, -59.74874
-11.94975, -59.74874
-12.65685, -59.04163
-12.65685, -58.04163
-11.94975, -57.33452
-10.94975, -57.33452
-10.94975, -56.33452
-11.94975, -56.33452
-12.65685, -55.62742
-12.65685, -54.62742
-11.94975, -53.92031
-10.94975, -53.92031
-10.24264, -54.62742
-10.24264, -55.62742
-9.24264, -55.62742
-9.24264, -54.62742
-8.53553, -53.92031
-7.53553, -53.92031
-6.82843, -54.62742
-6.82843, -55.62742
-7.53553, -56.33452
-8.53553, -56.33452
-8.53553, -57.33452
-7.53553, -57.33452
-6.82843, -58.04163
-6.82843, -59.04163
-5.82843, -59.04163
-5.82843, -58.04163
-5.12132, -57.33452
-4.12132, -57.33452
-4.12132, -56.33452
-5.12132, -56.33452
-5.82843, -55.62742
-5.82843, -54.62742
-5.12132, -53.92031
-4.12132, -53.92031
-3.41421, -54.62742
-3.41421, -55.62742
-2.41421, -55.62742
-2.41421, -54.62742
-1.70711, -53.92031
-0.70711, -53.92031
-0, -54.62742
-0, -55.62742
-0.70711, -56.33452
-1.70711, -56.33452
-1.70711, -57.33452
-0.70711, -57.33452
-0, -58.04163
-0, -59.04163
-0.70711, -59.74874
-1.70711, -59.74874
-2.41421, -59.04163
-2.41421, -58.04163
-3.41421, -58.04163
-3.41421, -59.04163
-4.12132, -59.74874
-5.12132, -59.74874
-5.12132, -60.74874
-4.12132, -60.74874
-3.41421, -61.45584
-3.41421, -62.45584
-2.41421, -62.45584
-2.41421, -61.45584
-1.70711, -60.74874
-0.70711, -60.74874
-0, -61.45584
-0, -62.45584
-0.70711, -63.16295
-1.70711, -63.16295
-1.70711, -64.16295
-0.70711, -64.16295
0, -64.87006
0, -65.87006
-0.70711, -66.57716
-1.70711, -66.57716
-2.41421, -65.87006
-2.41421, -64.87006
-3.41421, -64.87006
-3.41421, -65.87006
-4.12132, -66.57716
-5.12132, -66.57716
-5.82843, -65.87006
-5.82843, -64.87006
-5.12132, -64.16295
-4.12132, -64.16295
-4.12132, -63.16295
-5.12132, -63.16295
-5.82843, -62.45584
-5.82843, -61.45584
-6.82843, -61.45584
-6.82843, -62.45584
-7.53553, -63.16295
-8.53553, -63.16295
-8.53553, -64.16295
-7.53553, -64.16295
-6.82843, -64.87006
-6.82843, -65.87006
-7.53553, -66.57716
-8.53553, -66.57716
-9.24264, -65.87006
-9.24264, -64.87006
-10.24264, -64.87006
-10.24264, -65.87006
-10.94975, -66.57716
-11.94975, -66.57716
-11.94975, -67.57716
-10.94975, -67.57716
-10.24264, -68.28427
-10.24264, -69.28427
-9.24264, -69.28427
-9.24264, -68.28427
-8.53553, -67.57716
-7.53553, -67.57716
-6.82843, -68.28427
-6.82843, -69.28427
-7.53553, -69.99138
-8.53553, -69.99138
-8.53553, -70.99138
-7.53553, -70.99138
-6.82843, -71.69848
-6.82843, -72.69848
-5.82843, -72.69848
-5.82843, -71.69848
-5.12132, -70.99138
-4.12132, -70.99138
-4.12132, -69.99138
-5.12132, -69.99138
-5.82843, -69.28427
-5.82843, -68.28427
-5.12132, -67.57716
-4.12132, -67.57716
-3.41421, -68.28427
-3.41421, -69.28427
-2.41421, -69.28427
-2.41421, -68.28427
-1.70711, -67.57716
-0.70711, -67.57716
0, -68.28427
0, -69.28427
-0.70711, -69.99138
-1.70711, -69.99138
-1.70711, -70.99138
-0.70711, -70.99138
0, -71.69848
0, -72.69848
-0.70711, -73.40559
-1.70711, -73.40559
-2.41421, -72.69848
-2.41421, -71.69848
-3.41421, -71.69848
-3.41421, -72.69848
-4.12132, -73.40559
-5.12132, -73.40559
-5.12132, -74.40559
-4.12132, -74.40559
-3.41421, -75.1127
-3.41421, -76.1127
-2.41421, -76.1127
-2.41421, -75.1127
-1.70711, -74.40559
-0.70711, -74.40559
0, -75.1127
0, -76.1127
-0.70711, -76.81981
-1.70711, -76.81981
-1.70711, -77.81981
-0.70711, -77.81981
0, -78.52691
0, -79.52691
-0.70711, -80.23402
-1.70711, -80.23402
-2.41421, -79.52691
-2.41421, -78.52691
-3.41421, -78.52691
-3.41421, -79.52691
-4.12132, -80.23402
-5.12132, -80.23402
-5.82843, -79.52691
-5.82843, -78.52691
-5.12132, -77.81981
-4.12132, -77.81981
-4.12132, -76.81981
-5.12132, -76.81981
-5.82843, -76.1127
-5.82843, -75.1127
-6.82843, -75.1127
-6.82843, -76.1127
-7.53553, -76.81981
-8.53553, -76.81981
-8.53553, -77.81981
-7.53553, -77.81981
-6.82843, -78.52691
-6.82843, -79.52691
-7.53553, -80.23402
-8.53553, -80.23402
-9.24264, -79.52691
-9.24264, -78.52691
-10.24264, -78.52691
-10.24264, -79.52691
-10.94975, -80.23402
-11.94975, -80.23402
-12.65685, -79.52691
-12.65685, -78.52691
-11.94975, -77.81981
-10.94975, -77.81981
-10.94975, -76.81981
-11.94975, -76.81981
-12.65685, -76.1127
-12.65685, -75.1127
-11.94975, -74.40559
-10.94975, -74.40559
-10.24264, -75.1127
-10.24264, -76.1127
-9.24264, -76.1127
-9.24264, -75.1127
-8.53553, -74.40559
-7.53553, -74.40559
-7.53553, -73.40559
-8.53553, -73.40559
-9.24264, -72.69848
-9.24264, -71.69848
-10.24264, -71.69848
-10.24264, -72.69848
-10.94975, -73.40559
-11.94975, -73.40559
-12.65685, -72.69848
-12.65685, -71.69848
-11.94975, -70.99138
-10.94975, -70.99138
-10.94975, -69.99138
-11.94975, -69.99138
-12.65685, -69.28427
-12.65685, -68.28427
-13.65685, -68.28427
-13.65685, -69.28427
-14.36396, -69.99138
-15.36396, -69.99138
-15.36396, -70.99138
-14.36396, -70.99138
-13.65685, -71.69848
-13.65685, -72.69848
-14.36396, -73.40559
-15.36396, -73.40559
-16.07107, -72.69848
-16.07107, -71.69848
-17.07107, -71.69848
-17.07107, -72.69848
-17.77817, -73.40559
-18.77817, -73.40559
-18.77817, -74.40559
-17.77817, -74.40559
-17.07107, -75.1127
-17.07107, -76.1127
-16.07107, -76.1127
-16.07107, -75.1127
-15.36396, -74.40559
-14.36396, -74.40559
-13.65685, -75.1127
-13.65685, -76.1127
-14.36396, -76.81981
-15.36396, -76.81981
-15.36396, -77.81981
-14.36396, -77.81981
-13.65685, -78.52691
-13.65685, -79.52691
-14.36396, -80.23402
-15.36396, -80.23402
-16.07107, -79.52691
-16.07107, -78.52691
-17.07107, -78.52691
-17.07107, -79.52691
-17.77817, -80.23402
-18.77817, -80.23402
-19.48528, -79.52691
-19.48528, -78.52691
-18.77817, -77.81981
-17.77817, -77.81981
-17.77817, -76.81981
-18.77817, -76.81981
-19.48528, -76.1127
-19.48528, -75.1127
-20.48528, -75.1127
-20.48528, -76.1127
-21.19239, -76.81981
-22.19239, -76.81981
-22.19239, -77.81981
-21.19239, -77.81981
-20.48528, -78.52691
-20.48528, -79.52691
-21.19239, -80.23402
-22.19239, -80.23402
-22.89949, -79.52691
-22.89949, -78.52691
-23.89949, -78.52691
-23.89949, -79.52691
-24.6066, -80.23402
-25.6066, -80.23402
-25.6066, -81.23402
-24.6066, -81.23402
-23.89949, -81.94113
-23.89949, -82.94113
-22.89949, -82.94113
-22.89949, -81.94113
-22.19239, -81.23402
-21.19239, -81.23402
-20.48528, -81.94113
-20.48528, -82.94113
-21.19239, -83.64823
-22.19239, -83.64823
-22.19239, -84.64823
-21.19239, -84.64823
-20.48528, -85.35534
-20.48528, -86.35534
-19.48528, -86.35534
-19.48528, -85.35534
-18.77817, -84.64823
-17.77817, -84.64823
-17.77817, -83.64823
-18.77817, -83.64823
-19.48528, -82.94113
-19.48528, -81.94113
-18.77817, -81.23402
-17.77817, -81.23402
-17.07107, -81.94113
-17.07107, -82.94113
-16.07107, -82.94113
-16.07107, -81.94113
-15.36396, -81.23402
-14.36396, -81.23402
-13.65685, -81.94113
-13.65685, -82.94113
-14.36396, -83.64823
-15.36396, -83.64823
-15.36396, -84.64823
-14.36396, -84.64823
-13.65685, -85.35534
-13.65685, -86.35534
-14.36396, -87.06245
-15.36396, -87.06245
-16.07107, -86.35534
-16.07107, -85.35534
-17.07107, -85.35534
-17.07107, -86.35534
-17.77817, -87.06245
-18.77817, -87.06245
-18.77817, -88.06245
-17.77817, -88.06245
-17.07107, -88.76955
-17.07107, -89.76955
-16.07107, -89.76955
-16.07107, -88.76955
-15.36396, -88.06245
-14.36396, -88.06245
-13.65685, -88.76955
-13.65685, -89.76955
-14.36396, -90.47666
-15.36396, -90.47666
-15.36396, -91.47666
-14.36396, -91.47666
-13.65685, -92.18377
-13.65685, -93.18377
-12.65685, -93.18377
-12.65685, -92.18377
-11.94975, -91.47666
-10.94975, -91.47666
-10.94975, -90.47666
-11.94975, -90.47666
-12.65685, -89.76955
-12.65685, -88.76955
-11.94975, -88.06245
-10.94975, -88.06245
-10.24264, -88.76955
-10.24264, -89.76955
-9.24264, -89.76955
-9.24264, -88.76955
-8.53553, -88.06245
-7.53553, -88.06245
-7.53553, -87.06245
-8.53553, -87.06245
-9.24264, -86.35534
-9.24264, -85.35534
-10.24264, -85.35534
-10.24264, -86.35534
-10.94975, -87.06245
-11.94975, -87.06245
-12.65685, -86.35534
-12.65685, -85.35534
-11.94975, -84.64823
-10.94975, -84.64823
-10.94975, -83.64823
-11.94975, -83.64823
-12.65685, -82.94113
-12.65685, -81.94113
-11.94975, -81.23402
-10.94975, -81.23402
-10.24264, -81.94113
-10.24264, -82.94113
-9.24264, -82.94113
-9.24264, -81.94113
-8.53553, -81.23402
-7.53553, -81.23402
-6.82843, -81.94113
-6.82843, -82.94113
-7.53553, -83.64823
-8.53553, -83.64823
-8.53553, -84.64823
-7.53553, -84.64823
-6.82843, -85.35534
-6.82843, -86.35534
-5.82843, -86.35534
-5.82843, -85.35534
-5.12132, -84.64823
-4.12132, -84.64823
-4.12132, -83.64823
-5.12132, -83.64823
-5.82843, -82.94113
-5.82843, -81.94113
-5.12132, -81.23402
-4.12132, -81.23402
-3.41421, -81.94113
-3.41421, -82.94113
-2.41421, -82.94113
-2.41421, -81.94113
-1.70711, -81.23402
-0.70711, -81.23402
0, -81.94113
0, -82.94113
-0.70711, -83.64823
-1.70711, -83.64823
-1.70711, -84.64823
-0.70711, -84.64823
0, -85.35534
0, -86.35534
-0.70711, -87.06245
-1.70711, -87.06245
-2.41421, -86.35534
-2.41421, -85.35534
-3.41421, -85.35534
-3.41421, -86.35534
-4.12132, -87.06245
-5.12132, -87.06245
-5.12132, -88.06245
-4.12132, -88.06245
-3.41421, -88.76955
-3.41421, -89.76955
-2.41421, -89.76955
-2.41421, -88.76955
-1.70711, -88.06245
-0.70711, -88.06245
0, -88.76955
0, -89.76955
-0.70711, -90.47666
-1.70711, -90.47666
-1.70711, -91.47666
-0.70711, -91.47666
0, -92.18377
0, -93.18377
-0.70711, -93.89087
-1.70711, -93.89087
-2.41421, -93.18377
-2.41421, -92.18377
-3.41421, -92.18377
-3.41421, -93.18377
-4.12132, -93.89087
-5.12132, -93.89087
-5.82843, -93.18377
-5.82843, -92.18377
-5.12132, -91.47666
-4.12132, -91.47666
-4.12132, -90.47666
-5.12132, -90.47666
-5.82843, -89.76955
-5.82843, -88.76955
-6.82843, -88.76955
-6.82843, -89.76955
-7.53553, -90.47666
-8.53553, -90.47666
-8.53553, -91.47666
-7.53553, -91.47666
-6.82843, -92.18377
-6.82843, -93.18377
-7.53553, -93.89087
-8.53553, -93.89087
-9.24264, -93.18377
-9.24264, -92.18377
-10.24264, -92.18377
-10.24264, -93.18377
-10.94975, -93.89087
-11.94975, -93.89087
-11.94975, -94.89087
-10.94975, -94.89087
-10.24264, -95.59798
-10.24264, -96.59798
-9.24264, -96.59798
-9.24264, -95.59798
-8.53553, -94.89087
-7.53553, -94.89087
-6.82843, -95.59798
-6.82843, -96.59798
-7.53553, -97.30509
-8.53553, -97.30509
-8.53553, -98.30509
-7.53553, -98.30509
-6.82843, -99.01219
-6.82843, -100.01219
-5.82843, -100.01219
-5.82843, -99.01219
-5.12132, -98.30509
-4.12132, -98.30509
-4.12132, -97.30509
-5.12132, -97.30509
-5.82843, -96.59798
-5.82843, -95.59798
-5.12132, -94.89087
-4.12132, -94.89087
-3.41421, -95.59798
-3.41421, -96.59798
-2.41421, -96.59798
-2.41421, -95.59798
-1.70711, -94.89087
-0.70711, -94.89087
0, -95.59798
0, -96.59798
-0.70711, -97.30509
-1.70711, -97.30509
-1.70711, -98.30509
-0.70711, -98.30509
0, -99.01219
0, -100.01219
-0.70711, -100.7193
-1.70711, -100.7193
-2.41421, -100.01219
-2.41421, -99.01219
-3.41421, -99.01219
-3.41421, -100.01219
-4.12132, -100.7193
-5.12132, -100.7193
-5.12132, -101.7193
-4.12132, -101.7193
-3.41421, -102.42641
-3.41421, -103.42641
-2.41421, -103.42641
-2.41421, -102.42641
-1.70711, -101.7193
-0.70711, -101.7193
0, -102.42641
0, -103.42641
-0.70711, -104.13351
-1.70711, -104.13351
-1.70711, -105.13351
-0.70711, -105.13351
0, -105.84062
0, -106.84062
1, -106.84062
1, -105.84062
1.70711, -105.13351
2.70711, -105.13351
2.70711, -104.13351
1.70711, -104.13351
1, -103.42641
1, -102.42641
1.70711, -101.7193
2.70711, -101.7193
3.41421, -102.42641
3.41421, -103.42641
4.41421, -103.42641
4.41421, -102.42641
5.12132, -101.7193
6.12132, -101.7193
6.12132, -100.7193
5.12132, -100.7193
4.41421, -100.01219
4.41421, -99.01219
3.41421, -99.01219
3.41421, -100.01219
2.70711, -100.7193
1.70711, -100.7193
1, -100.01219
1, -99.01219
1.70711, -98.30509
2.70711, -98.30509
2.70711, -97.30509
1.70711, -97.30509
1, -96.59798
1, -95.59798
1.70711, -94.89087
2.70711, -94.89087
3.41421, -95.59798
3.41421, -96.59798
4.41421, -96.59798
4.41421, -95.59798
5.12132, -94.89087
6.12132, -94.89087
6.82843, -95.59798
6.82843, -96.59798
6.12132, -97.30509
5.12132, -97.30509
5.12132, -98.30509
6.12132, -98.30509
6.82843, -99.01219
6.82843, -100.01219
7.82843, -100.01219
7.82843, -99.01219
8.53553, -98.30509
9.53553, -98.30509
9.53553, -97.30509
8.53553, -97.30509
7.82843, -96.59798
7.82843, -95.59798
8.53553, -94.89087
9.53553, -94.89087
10.24264, -95.59798
10.24264, -96.59798
11.24264, -96.59798
11.24264, -95.59798
11.94975, -94.89087
12.94975, -94.89087
12.94975, -93.89087
11.94975, -93.89087
11.24264, -93.18377
11.24264, -92.18377
10.24264, -92.18377
10.24264, -93.18377
9.53553, -93.89087
8.53553, -93.89087
7.82843, -93.18377
7.82843, -92.18377
8.53553, -91.47666
9.53553, -91.47666
9.53553, -90.47666
8.53553, -90.47666
7.82843, -89.76955
7.82843, -88.76955
6.82843, -88.76955
6.82843, -89.76955
6.12132, -90.47666
5.12132, -90.47666
5.12132, -91.47666
6.12132, -91.47666
6.82843, -92.18377
6.82843, -93.18377
6.12132, -93.89087
5.12132, -93.89087
4.41421, -93.18377
4.41421, -92.18377
3.41421, -92.18377
3.41421, -93.18377
2.70711, -93.89087
1.70711, -93.89087
1, -93.18377
1, -92.18377
1.70711, -91.47666
2.70711, -91.47666
2.70711, -90.47666
1.70711, -90.47666
1, -89.76955
1, -88.76955
1.70711, -88.06245
2.70711, -88.06245
3.41421, -88.76955
3.41421, -89.76955
4.41421, -89.76955
4.41421, -88.76955
5.12132, -88.06245
6.12132, -88.06245
6.12132, -87.06245
5.12132, -87.06245
4.41421, -86.35534
4.41421, -85.35534
3.41421, -85.35534
3.41421, -86.35534
2.70711, -87.06245
1.70711, -87.06245
1, -86.35534
1, -85.35534
1.70711, -84.64823
2.70711, -84.64823
2.70711, -83.64823
1.70711, -83.64823
1, -82.94113
1, -81.94113
1.70711, -81.23402
2.70711, -81.23402
3.41421, -81.94113
3.41421, -82.94113
4.41421, -82.94113
4.41421, -81.94113
5.12132, -81.23402
6.12132, -81.23402
6.82843, -81.94113
6.82843, -82.94113
6.12132, -83.64823
5.12132, -83.64823
5.12132, -84.64823
6.12132, -84.64823
6.82843, -85.35534
6.82843, -86.35534
7.82843, -86.35534
7.82843, -85.35534
8.53553, -84.64823
9.53553, -84.64823
9.53553, -83.64823
8.53553, -83.64823
7.82843, -82.94113
7.82843, -81.94113
8.53553, -81.23402
9.53553, -81.23402
10.24264, -81.94113
10.24264, -82.94113
11.24264, -82.94113
11.24264, -81.94113
11.94975, -81.23402
12.94975, -81.23402
13.65685, -81.94113
13.65685, -82.94113
12.94975, -83.64823
11.94975, -83.64823
11.94975, -84.64823
12.94975, -84.64823
13.65685, -85.35534
13.65685, -86.35534
12.94975, -87.06245
11.94975, -87.06245
11.24264, -86.35534
11.24264, -85.35534
10.24264, -85.35534
10.24264, -86.35534
9.53553, -87.06245
8.53553, -87.06245
8.53553, -88.06245
9.53553, -88.06245
10.24264, -88.76955
10.24264, -89.76955
11.24264, -89.76955
11.24264, -88.76955
11.94975, -88.06245
12.94975, -88.06245
13.65685, -88.76955
13.65685, -89.76955
12.94975, -90.47666
11.94975, -90.47666
11.94975, -91.47666
12.94975, -91.47666
13.65685, -92.18377
13.65685, -93.18377
14.65685, -93.18377
14.65685, -92.18377
15.36396, -91.47666
16.36396, -91.47666
16.36396, -90.47666
15.36396, -90.47666
14.65685, -89.76955
14.65685, -88.76955
15.36396, -88.06245
16.36396, -88.06245
17.07107, -88.76955
17.07107, -89.76955
18.07107, -89.76955
18.07107, -88.76955
18.77817, -88.06245
19.77817, -88.06245
19.77817, -87.06245
18.77817, -87.06245
18.07107, -86.35534
18.07107, -85.35534
17.07107, -85.35534
17.07107, -86.35534
16.36396, -87.06245
15.36396, -87.06245
14.65685, -86.35534
14.65685, -85.35534
15.36396, -84.64823
16.36396, -84.64823
16.36396, -83.64823
15.36396, -83.64823
14.65685, -82.94113
14.65685, -81.94113
15.36396, -81.23402
16.36396, -81.23402
17.07107, -81.94113
17.07107, -82.94113
18.07107, -82.94113
18.07107, -81.94113
18.77817, -81.23402
19.77817, -81.23402
20.48528, -81.94113
20.48528, -82.94113
19.77817, -83.64823
18.77817, -83.64823
18.77817, -84.64823
19.77817, -84.64823
20.48528, -85.35534
20.48528, -86.35534
21.48528, -86.35534
21.48528, -85.35534
22.19239, -84.64823
23.19239, -84.64823
23.19239, -83.64823
22.19239, -83.64823
21.48528, -82.94113
21.48528, -81.94113
22.19239, -81.23402
23.19239, -81.23402
23.89949, -81.94113
23.89949, -82.94113
24.89949, -82.94113
24.89949, -81.94113
25.6066, -81.23402
26.6066, -81.23402
26.6066, -80.23402
25.6066, -80.23402
24.89949, -79.52691
24.89949, -78.52691
23.89949, -78.52691
23.89949, -79.52691
23.19239, -80.23402
22.19239, -80.23402
21.48528, -79.52691
21.48528, -78.52691
22.19239, -77.81981
23.19239, -77.81981
23.19239, -76.81981
22.19239, -76.81981
21.48528, -76.1127
21.48528, -75.1127
20.48528, -75.1127
20.48528, -76.1127
19.77817, -76.81981
18.77817, -76.81981
18.77817, -77.81981
19.77817, -77.81981
20.48528, -78.52691
20.48528, -79.52691
19.77817, -80.23402
18.77817, -80.23402
18.07107, -79.52691
18.07107, -78.52691
17.07107, -78.52691
17.07107, -79.52691
16.36396, -80.23402
15.36396, -80.23402
14.65685, -79.52691
14.65685, -78.52691
15.36396, -77.81981
16.36396, -77.81981
16.36396, -76.81981
15.36396, -76.81981
14.65685, -76.1127
14.65685, -75.1127
15.36396, -74.40559
16.36396, -74.40559
17.07107, -75.1127
17.07107, -76.1127
18.07107, -76.1127
18.07107, -75.1127
18.77817, -74.40559
19.77817, -74.40559
19.77817, -73.40559
18.77817, -73.40559
18.07107, -72.69848
18.07107, -71.69848
17.07107, -71.69848
17.07107, -72.69848
16.36396, -73.40559
15.36396, -73.40559
14.65685, -72.69848
14.65685, -71.69848
15.36396, -70.99138
16.36396, -70.99138
16.36396, -69.99138
15.36396, -69.99138
14.65685, -69.28427
14.65685, -68.28427
13.65685, -68.28427
13.65685, -69.28427
12.94975, -69.99138
11.94975, -69.99138
11.94975, -70.99138
12.94975, -70.99138
13.65685, -71.69848
13.65685, -72.69848
12.94975, -73.40559
11.94975, -73.40559
11.24264, -72.69848
11.24264, -71.69848
10.24264, -71.69848
10.24264, -72.69848
9.53553, -73.40559
8.53553, -73.40559
8.53553, -74.40559
9.53553, -74.40559
10.24264, -75.1127
10.24264, -76.1127
11.24264, -76.1127
11.24264, -75.1127
11.94975, -74.40559
12.94975, -74.40559
13.65685, -75.1127
13.65685, -76.1127
12.94975, -76.81981
11.94975, -76.81981
11.94975, -77.81981
12.94975, -77.81981
13.65685, -78.52691
13.65685, -79.52691
12.94975, -80.23402
11.94975, -80.23402
11.24264, -79.52691
11.24264, -78.52691
10.24264, -78.52691
10.24264, -79.52691
9.53553, -80.23402
8.53553, -80.23402
7.82843, -79.52691
7.82843, -78.52691
8.53553, -77.81981
9.53553, -77.81981
9.53553, -76.81981
8.53553, -76.81981
7.82843, -76.1127
7.82843, -75.1127
6.82843, -75.1127
6.82843, -76.1127
6.12132, -76.81981
5.12132, -76.81981
5.12132, -77.81981
6.12132, -77.81981
6.82843, -78.52691
6.82843, -79.52691
6.12132, -80.23402
5.12132, -80.23402
4.41421, -79.52691
4.41421, -78.52691
3.41421, -78.52691
3.41421, -79.52691
2.70711, -80.23402
1.70711, -80.23402
1, -79.52691
1, -78.52691
1.70711, -77.81981
2.70711, -77.81981
2.70711, -76.81981
1.70711, -76.81981
1, -76.1127
1, -75.1127
1.70711, -74.40559
2.70711, -74.40559
3.41421, -75.1127
3.41421, -76.1127
4.41421, -76.1127
4.41421, -75.1127
5.12132, -74.40559
6.12132, -74.40559
6.12132, -73.40559
5.12132, -73.40559
4.41421, -72.69848
4.41421, -71.69848
3.41421, -71.69848
3.41421, -72.69848
2.70711, -73.40559
1.70711, -73.40559
1, -72.69848
1, -71.69848
1.70711, -70.99138
2.70711, -70.99138
2.70711, -69.99138
1.70711, -69.99138
1, -69.28427
1, -68.28427
1.70711, -67.57716
2.70711, -67.57716
3.41421, -68.28427
3.41421, -69.28427
4.41421, -69.28427
4.41421, -68.28427
5.12132, -67.57716
6.12132, -67.57716
6.82843, -68.28427
6.82843, -69.28427
6.12132, -69.99138
5.12132, -69.99138
5.12132, -70.99138
6.12132, -70.99138
6.82843, -71.69848
6.82843, -72.69848
7.82843, -72.69848
7.82843, -71.69848
8.53553, -70.99138
9.53553, -70.99138
9.53553, -69.99138
8.53553, -69.99138
7.82843, -69.28427
7.82843, -68.28427
8.53553, -67.57716
9.53553, -67.57716
10.24264, -68.28427
10.24264, -69.28427
11.24264, -69.28427
11.24264, -68.28427
11.94975, -67.57716
12.94975, -67.57716
12.94975, -66.57716
11.94975, -66.57716
11.24264, -65.87006
11.24264, -64.87006
10.24264, -64.87006
10.24264, -65.87006
9.53553, -66.57716
8.53553, -66.57716
7.82843, -65.87006
7.82843, -64.87006
8.53553, -64.16295
9.53553, -64.16295
9.53553, -63.16295
8.53553, -63.16295
7.82843, -62.45584
7.82843, -61.45584
6.82843, -61.45584
6.82843, -62.45584
6.12132, -63.16295
5.12132, -63.16295
5.12132, -64.16295
6.12132, -64.16295
6.82843, -64.87006
6.82843, -65.87006
6.12132, -66.57716
5.12132, -66.57716
4.41421, -65.87006
4.41421, -64.87006
3.41421, -64.87006
3.41421, -65.87006
2.70711, -66.57716
1.70711, -66.57716
1, -65.87006
1, -64.87006
1.70711, -64.16295
2.70711, -64.16295
2.70711, -63.16295
1.70711, -63.16295
1, -62.45584
1, -61.45584
1.70711, -60.74874
2.70711, -60.74874
3.41421, -61.45584
3.41421, -62.45584
4.41421, -62.45584
4.41421, -61.45584
5.12132, -60.74874
6.12132, -60.74874
6.12132, -59.74874
5.12132, -59.74874
4.41421, -59.04163
4.41421, -58.04163
3.41421, -58.04163
3.41421, -59.04163
2.70711, -59.74874
1.70711, -59.74874
1, -59.04163
1, -58.04163
1.70711, -57.33452
2.70711, -57.33452
2.70711, -56.33452
1.70711, -56.33452
1, -55.62742
1, -54.62742
1.70711, -53.92031
2.70711, -53.92031
3.41421, -54.62742
3.41421, -55.62742
4.41421, -55.62742
4.41421, -54.62742
5.12132, -53.92031
6.12132, -53.92031
6.82843, -54.62742
6.82843, -55.62742
6.12132, -56.33452
5.12132, -56.33452
5.12132, -57.33452
6.12132, -57.33452
6.82843, -58.04163
6.82843, -59.04163
7.82843, -59.04163
7.82843, -58.04163
8.53553, -57.33452
9.53553, -57.33452
9.53553, -56.33452
8.53553, -56.33452
7.82843, -55.62742
7.82843, -54.62742
8.53553, -53.92031
9.53553, -53.92031
10.24264, -54.62742
10.24264, -55.62742
11.24264, -55.62742
11.24264, -54.62742
11.94975, -53.92031
12.94975, -53.92031
13.65685, -54.62742
13.65685, -55.62742
12.94975, -56.33452
11.94975, -56.33452
11.94975, -57.33452
12.94975, -57.33452
13.65685, -58.04163
13.65685, -59.04163
12.94975, -59.74874
11.94975, -59.74874
11.24264, -59.04163
11.24264, -58.04163
10.24264, -58.04163
10.24264, -59.04163
9.53553, -59.74874
8.53553, -59.74874
8.53553, -60.74874
9.53553, -60.74874
10.24264, -61.45584
10.24264, -62.45584
11.24264, -62.45584
11.24264, -61.45584
11.94975, -60.74874
12.94975, -60.74874
13.65685, -61.45584
13.65685, -62.45584
12.94975, -63.16295
11.94975, -63.16295
11.94975, -64.16295
12.94975, -64.16295
13.65685, -64.87006
13.65685, -65.87006
14.65685, -65.87006
14.65685, -64.87006
15.36396, -64.16295
16.36396, -64.16295
16.36396, -63.16295
15.36396, -63.16295
14.65685, -62.45584
14.65685, -61.45584
15.36396, -60.74874
16.36396, -60.74874
17.07107, -61.45584
17.07107, -62.45584
18.07107, -62.45584
18.07107, -61.45584
18.77817, -60.74874
19.77817, -60.74874
19.77817, -59.74874
18.77817, -59.74874
18.07107, -59.04163
18.07107, -58.04163
17.07107, -58.04163
17.07107, -59.04163
16.36396, -59.74874
15.36396, -59.74874
14.65685, -59.04163
14.65685, -58.04163
15.36396, -57.33452
16.36396, -57.33452
16.36396, -56.33452
15.36396, -56.33452
14.65685, -55.62742
14.65685, -54.62742
15.36396, -53.92031
16.36396, -53.92031
17.07107, -54.62742
17.07107, -55.62742
18.07107, -55.62742
18.07107, -54.62742
18.77817, -53.92031
19.77817, -53.92031
20.48528, -54.62742
20.48528, -55.62742
19.77817, -56.33452
18.77817, -56.33452
18.77817, -57.33452
19.77817, -57.33452
20.48528, -58.04163
20.48528, -59.04163
21.48528, -59.04163
21.48528, -58.04163
22.19239, -57.33452
23.19239, -57.33452
23.19239, -56.33452
22.19239, -56.33452
21.48528, -55.62742
21.48528, -54.62742
22.19239, -53.92031
23.19239, -53.92031
23.89949, -54.62742
23.89949, -55.62742
24.89949, -55.62742
24.89949, -54.62742
25.6066, -53.92031
26.6066, -53.92031
27.31371, -54.62742
27.31371, -55.62742
26.6066, -56.33452
25.6066, -56.33452
25.6066, -57.33452
26.6066, -57.33452
27.31371, -58.04163
27.31371, -59.04163
26.6066, -59.74874
25.6066, -59.74874
24.89949, -59.04163
24.89949, -58.04163
23.89949, -58.04163
23.89949, -59.04163
23.19239, -59.74874
22.19239, -59.74874
22.19239, -60.74874
23.19239, -60.74874
23.89949, -61.45584
23.89949, -62.45584
24.89949, -62.45584
24.89949, -61.45584
25.6066, -60.74874
26.6066, -60.74874
27.31371, -61.45584
27.31371, -62.45584
26.6066, -63.16295
25.6066, -63.16295
25.6066, -64.16295
26.6066, -64.16295
27.31371, -64.87006
27.31371, -65.87006
26.6066, -66.57716
25.6066, -66.57716
24.89949, -65.87006
24.89949, -64.87006
23.89949, -64.87006
23.89949, -65.87006
23.19239, -66.57716
22.19239, -66.57716
21.48528, -65.87006
21.48528, -64.87006
22.19239, -64.16295
23.19239, -64.16295
23.19239, -63.16295
22.19239, -63.16295
21.48528, -62.45584
21.48528, -61.45584
20.48528, -61.45584
20.48528, -62.45584
19.77817, -63.16295
18.77817, -63.16295
18.77817, -64.16295
19.77817, -64.16295
20.48528, -64.87006
20.48528, -65.87006
19.77817, -66.57716
18.77817, -66.57716
18.07107, -65.87006
18.07107, -64.87006
17.07107, -64.87006
17.07107, -65.87006
16.36396, -66.57716
15.36396, -66.57716
15.36396, -67.57716
16.36396, -67.57716
17.07107, -68.28427
17.07107, -69.28427
18.07107, -69.28427
18.07107, -68.28427
18.77817, -67.57716
19.77817, -67.57716
20.48528, -68.28427
20.48528, -69.28427
19.77817, -69.99138
18.77817, -69.99138
18.77817, -70.99138
19.77817, -70.99138
20.48528, -71.69848
20.48528, -72.69848
21.48528, -72.69848
21.48528, -71.69848
22.19239, -70.99138
23.19239, -70.99138
23.19239, -69.99138
22.19239, -69.99138
21.48528, -69.28427
21.48528, -68.28427
22.19239, -67.57716
23.19239, -67.57716
23.89949, -68.28427
23.89949, -69.28427
24.89949, -69.28427
24.89949, -68.28427
25.6066, -67.57716
26.6066, -67.57716
27.31371, -68.28427
27.31371, -69.28427
26.6066, -69.99138
25.6066, -69.99138
25.6066, -70.99138
26.6066, -70.99138
27.31371, -71.69848
27.31371, -72.69848
26.6066, -73.40559
25.6066, -73.40559
24.89949, -72.69848
24.89949, -71.69848
23.89949, -71.69848
23.89949, -72.69848
23.19239, -73.40559
22.19239, -73.40559
22.19239, -74.40559
23.19239, -74.40559
23.89949, -75.1127
23.89949, -76.1127
24.89949, -76.1127
24.89949, -75.1127
25.6066, -74.40559
26.6066, -74.40559
27.31371, -75.1127
27.31371, -76.1127
26.6066, -76.81981
25.6066, -76.81981
25.6066, -77.81981
26.6066, -77.81981
27.31371, -78.52691
27.31371, -79.52691
28.31371, -79.52691
28.31371, -78.52691
29.02082, -77.81981
30.02082, -77.81981
30.02082, -76.81981
29.02082, -76.81981
28.31371, -76.1127
28.31371, -75.1127
29.02082, -74.40559
30.02082, -74.40559
30.72792, -75.1127
30.72792, -76.1127
31.72792, -76.1127
31.72792, -75.1127
32.43503, -74.40559
33.43503, -74.40559
33.43503, -73.40559
32.43503, -73.40559
31.72792, -72.69848
31.72792, -71.69848
30.72792, -71.69848
30.72792, -72.69848
30.02082, -73.40559
29.02082, -73.40559
28.31371, -72.69848
28.31371, -71.69848
29.02082, -70.99138
30.02082, -70.99138
30.02082, -69.99138
29.02082, -69.99138
28.31371, -69.28427
28.31371, -68.28427
29.02082, -67.57716
30.02082, -67.57716
30.72792, -68.28427
30.72792, -69.28427
31.72792, -69.28427
31.72792, -68.28427
32.43503, -67.57716
33.43503, -67.57716
34.14214, -68.28427
34.14214, -69.28427
33.43503, -69.99138
32.43503, -69.99138
32.43503, -70.99138
33.43503, -70.99138
34.14214, -71.69848
34.14214, -72.69848
35.14214, -72.69848
35.14214, -71.69848
35.84924, -70.99138
36.84924, -70.99138
36.84924, -69.99138
35.84924, -69.99138
35.14214, -69.28427
35.14214, -68.28427
35.84924, -67.57716
36.84924, -67.57716
37.55635, -68.28427
37.55635, -69.28427
38.55635, -69.28427
38.55635, -68.28427
39.26346, -67.57716
40.26346, -67.57716
40.26346, -66.57716
39.26346, -66.57716
38.55635, -65.87006
38.55635, -64.87006
37.55635, -64.87006
37.55635, -65.87006
36.84924, -66.57716
35.84924, -66.57716
35.14214, -65.87006
35.14214, -64.87006
35.84924, -64.16295
36.84924, -64.16295
36.84924, -63.16295
35.84924, -63.16295
35.14214, -62.45584
35.14214, -61.45584
34.14214, -61.45584
34.14214, -62.45584
33.43503, -63.16295
32.43503, -63.16295
32.43503, -64.16295
33.43503, -64.16295
34.14214, -64.87006
34.14214, -65.87006
33.43503, -66.57716
32.43503, -66.57716
31.72792, -65.87006
31.72792, -64.87006
30.72792, -64.87006
30.72792, -65.87006
30.02082, -66.57716
29.02082, -66.57716
28.31371, -65.87006
28.31371, -64.87006
29.02082, -64.16295
30.02082, -64.16295
30.02082, -63.16295
29.02082, -63.16295
28.31371, -62.45584
28.31371, -61.45584
29.02082, -60.74874
30.02082, -60.74874
30.72792, -61.45584
30.72792, -62.45584
31.72792, -62.45584
31.72792, -61.45584
32.43503, -60.74874
33.43503, -60.74874
33.43503, -59.74874
32.43503, -59.74874
31.72792, -59.04163
31.72792, -58.04163
30.72792, -58.04163
30.72792, -59.04163
30.02082, -59.74874
29.02082, -59.74874
28.31371, -59.04163
28.31371, -58.04163
29.02082, -57.33452
30.02082, -57.33452
30.02082, -56.33452
29.02082, -56.33452
28.31371, -55.62742
28.31371, -54.62742
29.02082, -53.92031
30.02082, -53.92031
30.72792, -54.62742
30.72792, -55.62742
31.72792, -55.62742
31.72792, -54.62742
32.43503, -53.92031
33.43503, -53.92031
34.14214, -54.62742
34.14214, -55.62742
33.43503, -56.33452
32.43503, -56.33452
32.43503, -57.33452
33.43503, -57.33452
34.14214, -58.04163
34.14214, -59.04163
35.14214, -59.04163
35.14214, -58.04163
35.84924, -57.33452
36.84924, -57.33452
36.84924, -56.33452
35.84924, -56.33452
35.14214, -55.62742
35.14214, -54.62742
35.84924, -53.92031
36.84924, -53.92031
37.55635, -54.62742
37.55635, -55.62742
38.55635, -55.62742
38.55635, -54.62742
39.26346, -53.92031
40.26346, -53.92031
40.97056, -54.62742
40.97056, -55.62742
40.26346, -56.33452
39.26346, -56.33452
39.26346, -57.33452
40.26346, -57.33452
40.97056, -58.04163
40.97056, -59.04163
40.26346, -59.74874
39.26346, -59.74874
38.55635, -59.04163
38.55635, -58.04163
37.55635, -58.04163
37.55635, -59.04163
36.84924, -59.74874
35.84924, -59.74874
35.84924, -60.74874
36.84924, -60.74874
37.55635, -61.45584
37.55635, -62.45584
38.55635, -62.45584
38.55635, -61.45584
39.26346, -60.74874
40.26346, -60.74874
40.97056, -61.45584
40.97056, -62.45584
40.26346, -63.16295
39.26346, -63.16295
39.26346, -64.16295
40.26346, -64.16295
40.97056, -64.87006
40.97056, -65.87006
41.97056, -65.87006
41.97056, -64.87006
42.67767, -64.16295
43.67767, -64.16295
43.67767, -63.16295
42.67767, -63.16295
41.97056, -62.45584
41.97056, -61.45584
42.67767, -60.74874
43.67767, -60.74874
44.38478, -61.45584
44.38478, -62.45584
45.38478, -62.45584
45.38478, -61.45584
46.09188, -60.74874
47.09188, -60.74874
47.09188, -59.74874
46.09188, -59.74874
45.38478, -59.04163
45.38478, -58.04163
44.38478, -58.04163
44.38478, -59.04163
43.67767, -59.74874
42.67767, -59.74874
41.97056, -59.04163
41.97056, -58.04163
42.67767, -57.33452
43.67767, -57.33452
43.67767, -56.33452
42.67767, -56.33452
41.97056, -55.62742
41.97056, -54.62742
42.67767, -53.92031
43.67767, -53.92031
44.38478, -54.62742
44.38478, -55.62742
45.38478, -55.62742
45.38478, -54.62742
46.09188, -53.92031
47.09188, -53.92031
47.79899, -54.62742
47.79899, -55.62742
47.09188, -56.33452
46.09188, -56.33452
46.09188, -57.33452
47.09188, -57.33452
47.79899, -58.04163
47.79899, -59.04163
48.79899, -59.04163
48.79899, -58.04163
49.5061, -57.33452
50.5061, -57.33452
50.5061, -56.33452
49.5061, -56.33452
48.79899, -55.62742
48.79899, -54.62742
49.5061, -53.92031
50.5061, -53.92031
51.2132, -54.62742
51.2132, -55.62742
52.2132, -55.62742
52.2132, -54.62742
52.92031, -53.92031
53.92031, -53.92031
53.92031, -52.92031
52.92031, -52.92031
52.2132, -52.2132
52.2132, -51.2132
51.2132, -51.2132
51.2132, -52.2132
50.5061, -52.92031
49.5061, -52.92031
48.79899, -52.2132
48.79899, -51.2132
49.5061, -50.5061
50.5061, -50.5061
50.5061, -49.5061
49.5061, -49.5061
48.79899, -48.79899
48.79899, -47.79899
47.79899, -47.79899
47.79899, -48.79899
47.09188, -49.5061
46.09188, -49.5061
46.09188, -50.5061
47.09188, -50.5061
47.79899, -51.2132
47.79899, -52.2132
47.09188, -52.92031
46.09188, -52.92031
45.38478, -52.2132
45.38478, -51.2132
44.38478, -51.2132
44.38478, -52.2132
43.67767, -52.92031
42.67767, -52.92031
41.97056, -52.2132
41.97056, -51.2132
42.67767, -50.5061
43.67767, -50.5061
43.67767, -49.5061
42.67767, -49.5061
41.97056, -48.79899
41.97056, -47.79899
42.67767, -47.09188
43.67767, -47.09188
44.38478, -47.79899
44.38478, -48.79899
45.38478, -48.79899
45.38478, -47.79899
46.09188, -47.09188
47.09188, -47.09188
47.09188, -46.09188
46.09188, -46.09188
45.38478, -45.38478
45.38478, -44.38478
44.38478, -44.38478
44.38478, -45.38478
43.67767, -46.09188
42.67767, -46.09188
41.97056, -45.38478
41.97056, -44.38478
42.67767, -43.67767
43.67767, -43.67767
43.67767, -42.67767
42.67767, -42.67767
41.97056, -41.97056
41.97056, -40.97056
40.97056, -40.97056
40.97056, -41.97056
40.26346, -42.67767
39.26346, -42.67767
39.26346, -43.67767
40.26346, -43.67767
40.97056, -44.38478
40.97056, -45.38478
40.26346, -46.09188
39.26346, -46.09188
38.55635, -45.38478
38.55635, -44.38478
37.55635, -44.38478
37.55635, -45.38478
36.84924, -46.09188
35.84924, -46.09188
35.84924, -47.09188
36.84924, -47.09188
37.55635, -47.79899
37.55635, -48.79899
38.55635, -48.79899
38.55635, -47.79899
39.26346, -47.09188
40.26346, -47.09188
40.97056, -47.79899
40.97056, -48.79899
40.26346, -49.5061
39.26346, -49.5061
39.26346, -50.5061
40.26346, -50.5061
40.97056, -51.2132
40.97056, -52.2132
40.26346, -52.92031
39.26346, -52.92031
38.55635, -52.2132
38.55635, -51.2132
37.55635, -51.2132
37.55635, -52.2132
36.84924, -52.92031
35.84924, -52.92031
35.14214, -52.2132
35.14214, -51.2132
35.84924, -50.5061
36.84924, -50.5061
36.84924, -49.5061
35.84924, -49.5061
35.14214, -48.79899
35.14214, -47.79899
34.14214, -47.79899
34.14214, -48.79899
33.43503, -49.5061
32.43503, -49.5061
32.43503, -50.5061
33.43503, -50.5061
34.14214, -51.2132
34.14214, -52.2132
33.43503, -52.92031
32.43503, -52.92031
31.72792, -52.2132
31.72792, -51.2132
30.72792, -51.2132
30.72792, -52.2132
30.02082, -52.92031
29.02082, -52.92031
28.31371, -52.2132
28.31371, -51.2132
29.02082, -50.5061
30.02082, -50.5061
30.02082, -49.5061
29.02082, -49.5061
28.31371, -48.79899
28.31371, -47.79899
29.02082, -47.09188
30.02082, -47.09188
30.72792, -47.79899
30.72792, -48.79899
31.72792, -48.79899
31.72792, -47.79899
32.43503, -47.09188
33.43503, -47.09188
33.43503, -46.09188
32.43503, -46.09188
31.72792, -45.38478
31.72792, -44.38478
30.72792, -44.38478
30.72792, -45.38478
30.02082, -46.09188
29.02082, -46.09188
28.31371, -45.38478
28.31371, -44.38478
29.02082, -43.67767
30.02082, -43.67767
30.02082, -42.67767
29.02082, -42.67767
28.31371, -41.97056
28.31371, -40.97056
29.02082, -40.26346
30.02082, -40.26346
30.72792, -40.97056
30.72792, -41.97056
31.72792, -41.97056
31.72792, -40.97056
32.43503, -40.26346
33.43503, -40.26346
34.14214, -40.97056
34.14214, -41.97056
33.43503, -42.67767
32.43503, -42.67767
32.43503, -43.67767
33.43503, -43.67767
34.14214, -44.38478
34.14214, -45.38478
35.14214, -45.38478
35.14214, -44.38478
35.84924, -43.67767
36.84924, -43.67767
36.84924, -42.67767
35.84924, -42.67767
35.14214, -41.97056
35.14214, -40.97056
35.84924, -40.26346
36.84924, -40.26346
37.55635, -40.97056
37.55635, -41.97056
38.55635, -41.97056
38.55635, -40.97056
39.26346, -40.26346
40.26346, -40.26346
40.26346, -39.26346
39.26346, -39.26346
38.55635, -38.55635
38.55635, -37.55635
37.55635, -37.55635
37.55635, -38.55635
36.84924, -39.26346
35.84924, -39.26346
35.14214, -38.55635
35.14214, -37.55635
35.84924, -36.84924
36.84924, -36.84924
36.84924, -35.84924
35.84924, -35.84924
35.14214, -35.14214
35.14214, -34.14214
34.14214, -34.14214
34.14214, -35.14214
33.43503, -35.84924
32.43503, -35.84924
32.43503, -36.84924
33.43503, -36.84924
34.14214, -37.55635
34.14214, -38.55635
33.43503, -39.26346
32.43503, -39.26346
31.72792, -38.55635
31.72792, -37.55635
30.72792, -37.55635
30.72792, -38.55635
30.02082, -39.26346
29.02082, -39.26346
28.31371, -38.55635
28.31371, -37.55635
29.02082, -36.84924
30.02082, -36.84924
30.02082, -35.84924
29.02082, -35.84924
28.31371, -35.14214
28.31371, -34.14214
29.02082, -33.43503
30.02082, -33.43503
30.72792, -34.14214
30.72792, -35.14214
31.72792, -35.14214
31.72792, -34.14214
32.43503, -33.43503
33.43503, -33.43503
33.43503, -32.43503
32.43503, -32.43503
31.72792, -31.72792
31.72792, -30.72792
30.72792, -30.72792
30.72792, -31.72792
30.02082, -32.43503
29.02082, -32.43503
28.31371, -31.72792
28.31371, -30.72792
29.02082, -30.02082
30.02082, -30.02082
30.02082, -29.02082
29.02082, -29.02082
28.31371, -28.31371
28.31371, -27.31371
27.31371, -27.31371
27.31371, -28.31371
26.6066, -29.02082
25.6066, -29.02082
25.6066, -30.02082
26.6066, -30.02082
27.31371, -30.72792
27.31371, -31.72792
26.6066, -32.43503
25.6066, -32.43503
24.89949, -31.72792
24.89949, -30.72792
23.89949, -30.72792
23.89949, -31.72792
23.19239, -32.43503
22.19239, -32.43503
22.19239, -33.43503
23.19239, -33.43503
23.89949, -34.14214
23.89949, -35.14214
24.89949, -35.14214
24.89949, -34.14214
25.6066, -33.43503
26.6066, -33.43503
27.31371, -34.14214
27.31371, -35.14214
26.6066, -35.84924
25.6066, -35.84924
25.6066, -36.84924
26.6066, -36.84924
27.31371, -37.55635
27.31371, -38.55635
26.6066, -39.26346
25.6066, -39.26346
24.89949, -38.55635
24.89949, -37.55635
23.89949, -37.55635
23.89949, -38.55635
23.19239, -39.26346
22.19239, -39.26346
21.48528, -38.55635
21.48528, -37.55635
22.19239, -36.84924
23.19239, -36.84924
23.19239, -35.84924
22.19239, -35.84924
21.48528, -35.14214
21.48528, -34.14214
20.48528, -34.14214
20.48528, -35.14214
19.77817, -35.84924
18.77817, -35.84924
18.77817, -36.84924
19.77817, -36.84924
20.48528, -37.55635
20.48528, -38.55635
19.77817, -39.26346
18.77817, -39.26346
18.07107, -38.55635
18.07107, -37.55635
17.07107, -37.55635
17.07107, -38.55635
16.36396, -39.26346
15.36396, -39.26346
15.36396, -40.26346
16.36396, -40.26346
17.07107, -40.97056
17.07107, -41.97056
18.07107, -41.97056
18.07107, -40.97056
18.77817, -40.26346
19.77817, -40.26346
20.48528, -40.97056
20.48528, -41.97056
19.77817, -42.67767
18.77817, -42.67767
18.77817, -43.67767
19.77817, -43.67767
20.48528, -44.38478
20.48528, -45.38478
21.48528, -45.38478
21.48528, -44.38478
22.19239, -43.67767
23.19239, -43.67767
23.19239, -42.67767
22.19239, -42.67767
21.48528, -41.97056
21.48528, -40.97056
22.19239, -40.26346
23.19239, -40.26346
23.89949, -40.97056
23.89949, -41.97056
24.89949, -41.97056
24.89949, -40.97056
25.6066, -40.26346
26.6066, -40.26346
27.31371, -40.97056
27.31371, -41.97056
26.6066, -42.67767
25.6066, -42.67767
25.6066, -43.67767
26.6066, -43.67767
27.31371, -44.38478
27.31371, -45.38478
26.6066, -46.09188
25.6066, -46.09188
24.89949, -45.38478
24.89949, -44.38478
23.89949, -44.38478
23.89949, -45.38478
23.19239, -46.09188
22.19239, -46.09188
22.19239, -47.09188
23.19239, -47.09188
23.89949, -47.79899
23.89949, -48.79899
24.89949, -48.79899
24.89949, -47.79899
25.6066, -47.09188
26.6066, -47.09188
27.31371, -47.79899
27.31371, -48.79899
26.6066, -49.5061
25.6066, -49.5061
25.6066, -50.5061
26.6066, -50.5061
27.31371, -51.2132
27.31371, -52.2132
26.6066, -52.92031
25.6066, -52.92031
24.89949, -52.2132
24.89949, -51.2132
23.89949, -51.2132
23.89949, -52.2132
23.19239, -52.92031
22.19239, -52.92031
21.48528, -52.2132
21.48528, -51.2132
22.19239, -50.5061
23.19239, -50.5061
23.19239, -49.5061
22.19239, -49.5061
21.48528, -48.79899
21.48528, -47.79899
20.48528, -47.79899
20.48528, -48.79899
19.77817, -49.5061
18.77817, -49.5061
18.77817, -50.5061
19.77817, -50.5061
20.48528, -51.2132
20.48528, -52.2132
19.77817, -52.92031
18.77817, -52.92031
18.07107, -52.2132
18.07107, -51.2132
17.07107, -51.2132
17.07107, -52.2132
16.36396, -52.92031
15.36396, -52.92031
14.65685, -52.2132
14.65685, -51.2132
15.36396, -50.5061
16.36396, -50.5061
16.36396, -49.5061
15.36396, -49.5061
14.65685, -48.79899
14.65685, -47.79899
15.36396, -47.09188
16.36396, -47.09188
17.07107, -47.79899
17.07107, -48.79899
18.07107, -48.79899
18.07107, -47.79899
18.77817, -47.09188
19.77817, -47.09188
19.77817, -46.09188
18.77817, -46.09188
18.07107, -45.38478
18.07107, -44.38478
17.07107, -44.38478
17.07107, -45.38478
16.36396, -46.09188
15.36396, -46.09188
14.65685, -45.38478
14.65685, -44.38478
15.36396, -43.67767
16.36396, -43.67767
16.36396, -42.67767
15.36396, -42.67767
14.65685, -41.97056
14.65685, -40.97056
13.65685, -40.97056
13.65685, -41.97056
12.94975, -42.67767
11.94975, -42.67767
11.94975, -43.67767
12.94975, -43.67767
13.65685, -44.38478
13.65685, -45.38478
12.94975, -46.09188
11.94975, -46.09188
11.24264, -45.38478
11.24264, -44.38478
10.24264, -44.38478
10.24264, -45.38478
9.53553, -46.09188
8.53553, -46.09188
8.53553, -47.09188
9.53553, -47.09188
10.24264, -47.79899
10.24264, -48.79899
11.24264, -48.79899
11.24264, -47.79899
11.94975, -47.09188
12.94975, -47.09188
13.65685, -47.79899
13.65685, -48.79899
12.94975, -49.5061
11.94975, -49.5061
11.94975, -50.5061
12.94975, -50.5061
13.65685, -51.2132
13.65685, -52.2132
12.94975, -52.92031
11.94975, -52.92031
11.24264, -52.2132
11.24264, -51.2132
10.24264, -51.2132
10.24264, -52.2132
9.53553, -52.92031
8.53553, -52.92031
7.82843, -52.2132
7.82843, -51.2132
8.53553, -50.5061
9.53553, -50.5061
9.53553, -49.5061
8.53553, -49.5061
7.82843, -48.79899
7.82843, -47.79899
6.82843, -47.79899
6.82843, -48.79899
6.12132, -49.5061
5.12132, -49.5061
5.12132, -50.5061
6.12132, -50.5061
6.82843, -51.2132
6.82843, -52.2132
6.12132, -52.92031
5.12132, -52.92031
4.41421, -52.2132
4.41421, -51.2132
3.41421, -51.2132
3.41421, -52.2132
2.70711, -52.92031
1.70711, -52.92031
1, -52.2132
1, -51.2132
1.70711, -50.5061
2.70711, -50.5061
2.70711, -49.5061
1.70711, -49.5061
1, -48.79899
1, -47.79899
1.70711, -47.09188
2.70711, -47.09188
3.41421, -47.79899
3.41421, -48.79899
4.41421, -48.79899
4.41421, -47.79899
5.12132, -47.09188
6.12132, -47.09188
6.12132, -46.09188
5.12132, -46.09188
4.41421, -45.38478
4.41421, -44.38478
3.41421, -44.38478
3.41421, -45.38478
2.70711, -46.09188
1.70711, -46.09188
1, -45.38478
1, -44.38478
1.70711, -43.67767
2.70711, -43.67767
2.70711, -42.67767
1.70711, -42.67767
1, -41.97056
1, -40.97056
1.70711, -40.26346
2.70711, -40.26346
3.41421, -40.97056
3.41421, -41.97056
4.41421, -41.97056
4.41421, -40.97056
5.12132, -40.26346
6.12132, -40.26346
6.82843, -40.97056
6.82843, -41.97056
6.12132, -42.67767
5.12132, -42.67767
5.12132, -43.67767
6.12132, -43.67767
6.82843, -44.38478
6.82843, -45.38478
7.82843, -45.38478
7.82843, -44.38478
8.53553, -43.67767
9.53553, -43.67767
9.53553, -42.67767
8.53553, -42.67767
7.82843, -41.97056
7.82843, -40.97056
8.53553, -40.26346
9.53553, -40.26346
10.24264, -40.97056
10.24264, -41.97056
11.24264, -41.97056
11.24264, -40.97056
11.94975, -40.26346
12.94975, -40.26346
12.94975, -39.26346
11.94975, -39.26346
11.24264, -38.55635
11.24264, -37.55635
10.24264, -37.55635
10.24264, -38.55635
9.53553, -39.26346
8.53553, -39.26346
7.82843, -38.55635
7.82843, -37.55635
8.53553, -36.84924
9.53553, -36.84924
9.53553, -35.84924
8.53553, -35.84924
7.82843, -35.14214
7.82843, -34.14214
6.82843, -34.14214
6.82843, -35.14214
6.12132, -35.84924
5.12132, -35.84924
5.12132, -36.84924
6.12132, -36.84924
6.82843, -37.55635
6.82843, -38.55635
6.12132, -39.26346
5.12132, -39.26346
4.41421, -38.55635
4.41421, -37.55635
3.41421, -37.55635
3.41421, -38.55635
2.70711, -39.26346
1.70711, -39.26346
1, -38.55635
1, -37.55635
1.70711, -36.84924
2.70711, -36.84924
2.70711, -35.84924
1.70711, -35.84924
1, -35.14214
1, -34.14214
1.70711, -33.43503
2.70711, -33.43503
3.41421, -34.14214
3.41421, -35.14214
4.41421, -35.14214
4.41421, -34.14214
5.12132, -33.43503
6.12132, -33.43503
6.12132, -32.43503
5.12132, -32.43503
4.41421, -31.72792
4.41421, -30.72792
3.41421, -30.72792
3.41421, -31.72792
2.70711, -32.43503
1.70711, -32.43503
1, -31.72792
1, -30.72792
1.70711, -30.02082
2.70711, -30.02082
2.70711, -29.02082
1.70711, -29.02082
1, -28.31371
1, -27.31371
1.70711, -26.6066
2.70711, -26.6066
3.41421, -27.31371
3.41421, -28.31371
4.41421, -28.31371
4.41421, -27.31371
5.12132, -26.6066
6.12132, -26.6066
6.82843, -27.31371
6.82843, -28.31371
6.12132, -29.02082
5.12132, -29.02082
5.12132, -30.02082
6.12132, -30.02082
6.82843, -30.72792
6.82843, -31.72792
7.82843, -31.72792
7.82843, -30.72792
8.53553, -30.02082
9.53553, -30.02082
9.53553, -29.02082
8.53553, -29.02082
7.82843, -28.31371
7.82843, -27.31371
8.53553, -26.6066
9.53553, -26.6066
10.24264, -27.31371
10.24264, -28.31371
11.24264, -28.31371
11.24264, -27.31371
11.94975, -26.6066
12.94975, -26.6066
13.65685, -27.31371
13.65685, -28.31371
12.94975, -29.02082
11.94975, -29.02082
11.94975, -30.02082
12.94975, -30.02082
13.65685, -30.72792
13.65685, -31.72792
12.94975, -32.43503
11.94975, -32.43503
11.24264, -31.72792
11.24264, -30.72792
10.24264, -30.72792
10.24264, -31.72792
9.53553, -32.43503
8.53553, -32.43503
8.53553, -33.43503
9.53553, -33.43503
10.24264, -34.14214
10.24264, -35.14214
11.24264, -35.14214
11.24264, -34.14214
11.94975, -33.43503
12.94975, -33.43503
13.65685, -34.14214
13.65685, -35.14214
12.94975, -35.84924
11.94975, -35.84924
11.94975, -36.84924
12.94975, -36.84924
13.65685, -37.55635
13.65685, -38.55635
14.65685, -38.55635
14.65685, -37.55635
15.36396, -36.84924
16.36396, -36.84924
16.36396, -35.84924
15.36396, -35.84924
14.65685, -35.14214
14.65685, -34.14214
15.36396, -33.43503
16.36396, -33.43503
17.07107, -34.14214
17.07107, -35.14214
18.07107, -35.14214
18.07107, -34.14214
18.77817, -33.43503
19.77817, -33.43503
19.77817, -32.43503
18.77817, -32.43503
18.07107, -31.72792
18.07107, -30.72792
17.07107, -30.72792
17.07107, -31.72792
16.36396, -32.43503
15.36396, -32.43503
14.65685, -31.72792
14.65685, -30.72792
15.36396, -30.02082
16.36396, -30.02082
16.36396, -29.02082
15.36396, -29.02082
14.65685, -28.31371
14.65685, -27.31371
15.36396, -26.6066
16.36396, -26.6066
17.07107, -27.31371
17.07107, -28.31371
18.07107, -28.31371
18.07107, -27.31371
18.77817, -26.6066
19.77817, -26.6066
20.48528, -27.31371
20.48528, -28.31371
19.77817, -29.02082
18.77817, -29.02082
18.77817, -30.02082
19.77817, -30.02082
20.48528, -30.72792
20.48528, -31.72792
21.48528, -31.72792
21.48528, -30.72792
22.19239, -30.02082
23.19239, -30.02082
23.19239, -29.02082
22.19239, -29.02082
21.48528, -28.31371
21.48528, -27.31371
22.19239, -26.6066
23.19239, -26.6066
23.89949, -27.31371
23.89949, -28.31371
24.89949, -28.31371
24.89949, -27.31371
25.6066, -26.6066
26.6066, -26.6066
26.6066, -25.6066
25.6066, -25.6066
24.89949, -24.89949
24.89949, -23.89949
23.89949, -23.89949
23.89949, -24.89949
23.19239, -25.6066
22.19239, -25.6066
21.48528, -24.89949
21.48528, -23.89949
22.19239, -23.19239
23.19239, -23.19239
23.19239, -22.19239
22.19239, -22.19239
21.48528, -21.48528
21.48528, -20.48528
20.48528, -20.48528
20.48528, -21.48528
19.77817, -22.19239
18.77817, -22.19239
18.77817, -23.19239
19.77817, -23.19239
20.48528, -23.89949
20.48528, -24.89949
19.77817, -25.6066
18.77817, -25.6066
18.07107, -24.89949
18.07107, -23.89949
17.07107, -23.89949
17.07107, -24.89949
16.36396, -25.6066
15.36396, -25.6066
14.65685, -24.89949
14.65685, -23.89949
15.36396, -23.19239
16.36396, -23.19239
16.36396, -22.19239
15.36396, -22.19239
14.65685, -21.48528
14.65685, -20.48528
15.36396, -19.77817
16.36396, -19.77817
17.07107, -20.48528
17.07107, -21.48528
18.07107, -21.48528
18.07107, -20.48528
18.77817, -19.77817
19.77817, -19.77817
19.77817, -18.77817
18.77817, -18.77817
18.07107, -18.07107
18.07107, -17.07107
17.07107, -17.07107
17.07107, -18.07107
16.36396, -18.77817
15.36396, -18.77817
14.65685, -18.07107
14.65685, -17.07107
15.36396, -16.36396
16.36396, -16.36396
16.36396, -15.36396
15.36396, -15.36396
14.65685, -14.65685
14.65685, -13.65685
13.65685, -13.65685
13.65685, -14.65685
12.94975, -15.36396
11.94975, -15.36396
11.94975, -16.36396
12.94975, -16.36396
13.65685, -17.07107
13.65685, -18.07107
12.94975, -18.77817
11.94975, -18.77817
11.24264, -18.07107
11.24264, -17.07107
10.24264, -17.07107
10.24264, -18.07107
9.53553, -18.77817
8.53553, -18.77817
8.53553, -19.77817
9.53553, -19.77817
10.24264, -20.48528
10.24264, -21.48528
11.24264, -21.48528
11.24264, -20.48528
11.94975, -19.77817
12.94975, -19.77817
13.65685, -20.48528
13.65685, -21.48528
12.94975, -22.19239
11.94975, -22.19239
11.94975, -23.19239
12.94975, -23.19239
13.65685, -23.89949
13.65685, -24.89949
12.94975, -25.6066
11.94975, -25.6066
11.24264, -24.89949
11.24264, -23.89949
10.24264, -23.89949
10.24264, -24.89949
9.53553, -25.6066
8.53553, -25.6066
7.82843, -24.89949
7.82843, -23.89949
8.53553, -23.19239
9.53553, -23.19239
9.53553, -22.19239
8.53553, -22.19239
7.82843, -21.48528
7.82843, -20.48528
6.82843, -20.48528
6.82843, -21.48528
6.12132, -22.19239
5.12132, -22.19239
5.12132, -23.19239
6.12132, -23.19239
6.82843, -23.89949
6.82843, -24.89949
6.12132, -25.6066
5.12132, -25.6066
4.41421, -24.89949
4.41421, -23.89949
3.41421, -23.89949
3.41421, -24.89949
2.70711, -25.6066
1.70711, -25.6066
1, -24.89949
1, -23.89949
1.70711, -23.19239
2.70711, -23.19239
2.70711, -22.19239
1.70711, -22.19239
1, -21.48528
1, -20.48528
1.70711, -19.77817
2.70711, -19.77817
3.41421, -20.48528
3.41421, -21.48528
4.41421, -21.48528
4.41421, -20.48528
5.12132, -19.77817
6.12132, -19.77817
6.12132, -18.77817
5.12132, -18.77817
4.41421, -18.07107
4.41421, -17.07107
3.41421, -17.07107
3.41421, -18.07107
2.70711, -18.77817
1.70711, -18.77817
1, -18.07107
1, -17.07107
1.70711, -16.36396
2.70711, -16.36396
2.70711, -15.36396
1.70711, -15.36396
1, -14.65685
1, -13.65685
1.70711, -12.94975
2.70711, -12.94975
3.41421, -13.65685
3.41421, -14.65685
4.41421, -14.65685
4.41421, -13.65685
5.12132, -12.94975
6.12132, -12.94975
6.82843, -13.65685
6.82843, -14.65685
6.12132, -15.36396
5.12132, -15.36396
5.12132, -16.36396
6.12132, -16.36396
6.82843, -17.07107
6.82843, -18.07107
7.82843, -18.07107
7.82843, -17.07107
8.53553, -16.36396
9.53553, -16.36396
9.53553, -15.36396
8.53553, -15.36396
7.82843, -14.65685
7.82843, -13.65685
8.53553, -12.94975
9.53553, -12.94975
10.24264, -13.65685
10.24264, -14.65685
11.24264, -14.65685
11.24264, -13.65685
11.94975, -12.94975
12.94975, -12.94975
12.94975, -11.94975
11.94975, -11.94975
11.24264, -11.24264
11.24264, -10.24264
10.24264, -10.24264
10.24264, -11.24264
9.53553, -11.94975
8.53553, -11.94975
7.82843, -11.24264
7.82843, -10.24264
8.53553, -9.53553
9.53553, -9.53553
9.53553, -8.53553
8.53553, -8.53553
7.82843, -7.82843
7.82843, -6.82843
6.82843, -6.82843
6.82843, -7.82843
6.12132, -8.53553
5.12132, -8.53553
5.12132, -9.53553
6.12132, -9.53553
6.82843, -10.24264
6.82843, -11.24264
6.12132, -11.94975
5.12132, -11.94975
4.41421, -11.24264
4.41421, -10.24264
3.41421, -10.24264
3.41421, -11.24264
2.70711, -11.94975
1.70711, -11.94975
1, -11.24264
1, -10.24264
1.70711, -9.53553
2.70711, -9.53553
2.70711, -8.53553
1.70711, -8.53553
1, -7.82843
1, -6.82843
1.70711, -6.12132
2.70711, -6.12132
3.41421, -6.82843
3.41421, -7.82843
4.41421, -7.82843
4.41421, -6.82843
5.12132, -6.12132
6.12132, -6.12132
6.12132, -5.12132
5.12132, -5.12132
4.41421, -4.41421
4.41421, -3.41421
3.41421, -3.41421
3.41421, -4.41421
2.70711, -5.12132
1.70711, -5.12132
1, -4.41421
1, -3.41421
1.70711, -2.70711
2.70711, -2.70711
2.70711, -1.70711
1.70711, -1.70711
1, -1
1, 0
0, 0
" fill="none" stroke="black" stroke-width="0.10336373659730286"/>
</svg>