<svg xmlns="http://www.w3.org/2000/svg"
     xmlns:xlink="http://www.w3.org/1999/xlink"
     width="500" height="500" viewBox="-62 -0 125 125">
<rect x="-62" y="-0" width="100%" height="100%" fill="white"/>
<polyline points="
-0, -0
-0, 1
-1, 1
-1, 2
-2, 2
-2, 3
-1, 3
-1, 4
-0, 4
-0, 5
-1, 5
-1, 6
-2, 6
-2, 5
-3, 5
-3, 4
-4, 4
-4, 5
-5, 5
-5, 6
-6, 6
-6, 7
-5, 7
-5, 8
-4, 8
-4, 9
-3, 9
-3, 8
-2, 8
-2, 7
-1, 7
-1, 8
-0, 8
-0, 9
-1, 9
-1, 10
-2, 10
-2, 11
-1, 11
-1, 12
-0, 12
-0, 13
-1, 13
-1, 14
-2, 14
-2, 13
-3, 13
-3, 12
-4, 12
-4, 13
-5, 13
-5, 14
-6, 14
-6, 13
-7, 13
-7, 12
-6, 12
-6, 11
-5, 11
-5, 10
-6, 10
-6, 9
-7, 9
-7, 8
-8, 8
-8, 9
-9, 9
-9, 10
-10, 10
-10, 11
-9, 11
-9, 12
-8, 12
-8, 13
-9, 13
-9, 14
-10, 14
-10, 13
-11, 13
-11, 12
-12, 12
-12, 13
-13, 13
-13, 14
-14, 14
-14, 15
-13, 15
-13, 16
-12, 16
-12, 17
-11, 17
-11, 16
-10, 16
-10, 15
-9, 15
-9, 16
-8, 16
-8, 17
-9, 17
-9, 18
-10, 18
-10, 19
-9, 19
-9, 20
-8, 20
-8, 21
-7, 21
-7, 20
-6, 20
-6, 19
-5, 19
-5, 18
-6, 18
-6, 17
-7, 17
-7, 16
-6, 16
-6, 15
-5, 15
-5, 16
-4, 16
-4, 17
-3, 17
-3, 16
-2, 16
-2, 15
-1, 15
-1, 16
-0, 16
-0, 17
-1, 17
-1, 18
-2, 18
-2, 19
-1, 19
-1, 20
-0, 20
-0, 21
-1, 21
-1, 22
-2, 22
-2, 21
-3, 21
-3, 20
-4, 20
-4, 21
-5, 21
-5, 22
-6, 22
-6, 23
-5, 23
-5, 24
-4, 24
-4, 25
-3, 25
-3, 24
-2, 24
-2, 23
-1, 23
-1, 24
-0, 24
-0, 25
-1, 25
-1, 26
-2, 26
-2, 27
-1, 27
-1, 28
-0, 28
-0, 29
-1, 29
-1, 30
-2, 30
-2, 29
-3, 29
-3, 28
-4, 28
-4, 29
-5, 29
-5, 30
-6, 30
-6, 29
-7, 29
-7, 28
-6, 28
-6, 27
-5, 27
-5, 26
-6, 26
-6, 25
-7, 25
-7, 24
-8, 24
-8, 25
-9, 25
-9, 26
-10, 26
-10, 27
-9, 27
-9, 28
-8, 28
-8, 29
-9, 29
-9, 30
-10, 30
-10, 29
-11, 29
-11, 28
-12, 28
-12, 29
-13, 29
-13, 30
-14, 30
-14, 29
-15, 29
-15, 28
-14, 28
-14, 27
-13, 27
-13, 26
-14, 26
-14, 25
-15, 25
-15, 24
-14, 24
-14, 23
-13, 23
-13, 24
-12, 24
-12, 25
-11, 25
-11, 24
-10, 24
-10, 23
-9, 23
-9, 22
-10, 22
-10, 21
-11, 21
-11, 20
-12, 20
-12, 21
-13, 21
-13, 22
-14, 22
-14, 21
-15, 21
-15, 20
-14, 20
-14, 19
-13, 19
-13, 18
-14, 18
-14, 17
-15, 17
-15, 16
-16, 16
-16, 17
-17, 17
-17, 18
-18, 18
-18, 19
-17, 19
-17, 20
-16, 20
-16, 21
-17, 21
-17, 22
-18, 22
-18, 21
-19, 21
-19, 20
-20, 20
-20, 21
-21, 21
-21, 22
-22, 22
-22, 23
-21, 23
-21, 24
-20, 24
-20, 25
-19, 25
-19, 24
-18, 24
-18, 23
-17, 23
-17, 24
-16, 24
-16, 25
-17, 25
-17, 26
-18, 26
-18, 27
-17, 27
-17, 28
-16, 28
-16, 29
-17, 29
-17, 30
-18, 30
-18, 29
-19, 29
-19, 28
-20, 28
-20, 29
-21, 29
-21, 30
-22, 30
-22, 29
-23, 29
-23, 28
-22, 28
-22, 27
-21, 27
-21, 26
-22, 26
-22, 25
-23, 25
-23, 24
-24, 24
-24, 25
-25, 25
-25, 26
-26, 26
-26, 27
-25, 27
-25, 28
-24, 28
-24, 29
-25, 29
-25, 30
-26, 30
-26, 29
-27, 29
-27, 28
-28, 28
-28, 29
-29, 29
-29, 30
-30, 30
-30, 31
-29, 31
-29, 32
-28, 32
-28, 33
-27, 33
-27, 32
-26, 32
-26, 31
-25, 31
-25, 32
-24, 32
-24, 33
-25, 33
-25, 34
-26, 34
-26, 35
-25, 35
-25, 36
-24, 36
-24, 37
-23, 37
-23, 36
-22, 36
-22, 35
-21, 35
-21, 34
-22, 34
-22, 33
-23, 33
-23, 32
-22, 32
-22, 31
-21, 31
-21, 32
-20, 32
-20, 33
-19, 33
-19, 32
-18, 32
-18, 31
-17, 31
-17, 32
-16, 32
-16, 33
-17, 33
-17, 34
-18, 34
-18, 35
-17, 35
-17, 36
-16, 36
-16, 37
-17, 37
-17, 38
-18, 38
-18, 37
-19, 37
-19, 36
-20, 36
-20, 37
-21, 37
-21, 38
-22, 38
-22, 39
-21, 39
-21, 40
-20, 40
-20, 41
-19, 41
-19, 40
-18, 40
-18, 39
-17, 39
-17, 40
-16, 40
-16, 41
-17, 41
-17, 42
-18, 42
-18, 43
-17, 43
-17, 44
-16, 44
-16, 45
-15, 45
-15, 44
-14, 44
-14, 43
-13, 43
-13, 42
-14, 42
-14, 41
-15, 41
-15, 40
-14, 40
-14, 39
-13, 39
-13, 40
-12, 40
-12, 41
-11, 41
-11, 40
-10, 40
-10, 39
-9, 39
-9, 38
-10, 38
-10, 37
-11, 37
-11, 36
-12, 36
-12, 37
-13, 37
-13, 38
-14, 38
-14, 37
-15, 37
-15, 36
-14, 36
-14, 35
-13, 35
-13, 34
-14, 34
-14, 33
-15, 33
-15, 32
-14, 32
-14, 31
-13, 31
-13, 32
-12, 32
-12, 33
-11, 33
-11, 32
-10, 32
-10, 31
-9, 31
-9, 32
-8, 32
-8, 33
-9, 33
-9, 34
-10, 34
-10, 35
-9, 35
-9, 36
-8, 36
-8, 37
-7, 37
-7, 36
-6, 36
-6, 35
-5, 35
-5, 34
-6, 34
-6, 33
-7, 33
-7, 32
-6, 32
-6, 31
-5, 31
-5, 32
-4, 32
-4, 33
-3, 33
-3, 32
-2, 32
-2, 31
-1, 31
-1, 32
-0, 32
-0, 33
-1, 33
-1, 34
-2, 34
-2, 35
-1, 35
-1, 36
-0, 36
-0, 37
-1, 37
-1, 38
-2, 38
-2, 37
-3, 37
-3, 36
-4, 36
-4, 37
-5, 37
-5, 38
-6, 38
-6, 39
-5, 39
-5, 40
-4, 40
-4, 41
-3, 41
-3, 40
-2, 40
-2, 39
-1, 39
-1, 40
-0, 40
-0, 41
-1, 41
-1, 42
-2, 42
-2, 43
-1, 43
-1, 44
-0, 44
-0, 45
-1, 45
-1, 46
-2, 46
-2, 45
-3, 45
-3, 44
-4, 44
-4, 45
-5, 45
-5, 46
-6, 46
-6, 45
-7, 45
-7, 44
-6, 44
-6, 43
-5, 43
-5, 42
-6, 42
-6, 41
-7, 41
-7, 40
-8, 40
-8, 41
-9, 41
-9, 42
-10, 42
-10, 43
-9, 43
-9, 44
-8, 44
-8, 45
-9, 45
-9, 46
-10, 46
-10, 45
-11, 45
-11, 44
-12, 44
-12, 45
-13, 45
-13, 46
-14, 46
-14, 47
-13, 47
-13, 48
-12, 48
-12, 49
-11, 49
-11, 48
-10, 48
-10, 47
-9, 47
-9, 48
-8, 48
-8, 49
-9, 49
-9, 50
-10, 50
-10, 51
-9, 51
-9, 52
-8, 52
-8, 53
-7, 53
-7, 52
-6, 52
-6, 51
-5, 51
-5, 50
-6, 50
-6, 49
-7, 49
-7, 48
-6, 48
-6, 47
-5, 47
-5, 48
-4, 48
-4, 49
-3, 49
-3, 48
-2, 48
-2, 47
-1, 47
-1, 48
-0, 48
-0, 49
-1, 49
-1, 50
-2, 50
-2, 51
-1, 51
-1, 52
-0, 52
-0, 53
-1, 53
-1, 54
-2, 54
-2, 53
-3, 53
-3, 52
-4, 52
-4, 53
-5, 53
-5, 54
-6, 54
-6, 55
-5, 55
-5, 56
-4, 56
-4, 57
-3, 57
-3, 56
-2, 56
-2, 55
-1, 55
-1, 56
-0, 56
-0, 57
-1, 57
-1, 58
-2, 58
-2, 59
-1, 59
-1, 60
-0, 60
-0, 61
-1, 61
-1, 62
-2, 62
-2, 61
-3, 61
-3, 60
-4, 60
-4, 61
-5, 61
-5, 62
-6, 62
-6, 61
-7, 61
-7, 60
-6, 60
-6, 59
-5, 59
-5, 58
-6, 58
-6, 57
-7, 57
-7, 56
-8, 56
-8, 57
-9, 57
-9, 58
-10, 58
-10, 59
-9, 59
-9, 60
-8, 60
-8, 61
-9, 61
-9, 62
-10, 62
-10, 61
-11, 61
-11, 60
-12, 60
-12, 61
-13, 61
-13, 62
-14, 62
-14, 61
-15, 61
-15, 60
-14, 60
-14, 59
-13, 59
-13, 58
-14, 58
-14, 57
-15, 57
-15, 56
-14, 56
-14, 55
-13, 55
-13, 56
-12, 56
-12, 57
-11, 57
-11, 56
-10, 56
-10, 55
-9, 55
-9, 54
-10, 54
-10, 53
-11, 53
-11, 52
-12, 52
-12, 53
-13, 53
-13, 54
-14, 54
-14, 53
-15, 53
-15, 52
-14, 52
-14, 51
-13, 51
-13, 50
-14, 50
-14, 49
-15, 49
-15, 48
-16, 48
-16, 49
-17, 49
-17, 50
-18, 50
-18, 51
-17, 51
-17, 52
-16, 52
-16, 53
-17, 53
-17, 54
-18, 54
-18, 53
-19, 53
-19, 52
-20, 52
-20, 53
-21, 53
-21, 54
-22, 54
-22, 55
-21, 55
-21, 56
-20, 56
-20, 57
-19, 57
-19, 56
-18, 56
-18, 55
-17, 55
-17, 56
-16, 56
-16, 57
-17, 57
-17, 58
-18, 58
-18, 59
-17, 59
-17, 60
-16, 60
-16, 61
-17, 61
-17, 62
-18, 62
-18, 61
-19, 61
-19, 60
-20, 60
-20, 61
-21, 61
-21, 62
-22, 62
-22, 61
-23, 61
-23, 60
-22, 60
-22, 59
-21, 59
-21, 58
-22, 58
-22, 57
-23, 57
-23, 56
-24, 56
-24, 57
-25, 57
-25, 58
-26, 58
-26, 59
-25, 59
-25, 60
-24, 60
-24, 61
-25, 61
-25, 62
-26, 62
-26, 61
-27, 61
-27, 60
-28, 60
-28, 61
-29, 61
-29, 62
-30, 62
-30, 61
-31, 61
-31, 60
-30, 60
-30, 59
-29, 59
-29, 58
-30, 58
-30, 57
-31, 57
-31, 56
-30, 56
-30, 55
-29, 55
-29, 56
-28, 56
-28, 57
-27, 57
-27, 56
-26, 56
-26, 55
-25, 55
-25, 54
-26, 54
-26, 53
-27, 53
-27, 52
-28, 52
-28, 53
-29, 53
-29, 54
-30, 54
-30, 53
-31, 53
-31, 52
-30, 52
-30, 51
-29, 51
-29, 50
-30, 50
-30, 49
-31, 49
-31, 48
-30, 48
-30, 47
-29, 47
-29, 48
-28, 48
-28, 49
-27, 49
-27, 48
-26, 48
-26, 47
-25, 47
-25, 48
-24, 48
-24, 49
-25, 49
-25, 50
-26, 50
-26, 51
-25, 51
-25, 52
-24, 52
-24, 53
-23, 53
-23, 52
-22, 52
-22, 51
-21, 51
-21, 50
-22, 50
-22, 49
-23, 49
-23, 48
-22, 48
-22, 47
-21, 47
-21, 48
-20, 48
-20, 49
-19, 49
-19, 48
-18, 48
-18, 47
-17, 47
-17, 46
-18, 46
-18, 45
-19, 45
-19, 44
-20, 44
-20, 45
-21, 45
-21, 46
-22, 46
-22, 45
-23, 45
-23, 44
-22, 44
-22, 43
-21, 43
-21, 42
-22, 42
-22, 41
-23, 41
-23, 40
-24, 40
-24, 41
-25, 41
-25, 42
-26, 42
-26, 43
-25, 43
-25, 44
-24, 44
-24, 45
-25, 45
-25, 46
-26, 46
-26, 45
-27, 45
-27, 44
-28, 44
-28, 45
-29, 45
-29, 46
-30, 46
-30, 45
-31, 45
-31, 44
-30, 44
-30, 43
-29, 43
-29, 42
-30, 42
-30, 41
-31, 41
-31, 40
-30, 40
-30, 39
-29, 39
-29, 40
-28, 40
-28, 41
-27, 41
-27, 40
-26, 40
-26, 39
-25, 39
-25, 38
-26, 38
-26, 37
-27, 37
-27, 36
-28, 36
-28, 37
-29, 37
-29, 38
-30, 38
-30, 37
-31, 37
-31, 36
-30, 36
-30, 35
-29, 35
-29, 34
-30, 34
-30, 33
-31, 33
-31, 32
-32, 32
-32, 33
-33, 33
-33, 34
-34, 34
-34, 35
-33, 35
-33, 36
-32, 36
-32, 37
-33, 37
-33, 38
-34, 38
-34, 37
-35, 37
-35, 36
-36, 36
-36, 37
-37, 37
-37, 38
-38, 38
-38, 39
-37, 39
-37, 40
-36, 40
-36, 41
-35, 41
-35, 40
-34, 40
-34, 39
-33, 39
-33, 40
-32, 40
-32, 41
-33, 41
-33, 42
-34, 42
-34, 43
-33, 43
-33, 44
-32, 44
-32, 45
-33, 45
-33, 46
-34, 46
-34, 45
-35, 45
-35, 44
-36, 44
-36, 45
-37, 45
-37, 46
-38, 46
-38, 45
-39, 45
-39, 44
-38, 44
-38, 43
-37, 43
-37, 42
-38, 42
-38, 41
-39, 41
-39, 40
-40, 40
-40, 41
-41, 41
-41, 42
-42, 42
-42, 43
-41, 43
-41, 44
-40, 44
-40, 45
-41, 45
-41, 46
-42, 46
-42, 45
-43, 45
-43, 44
-44, 44
-44, 45
-45, 45
-45, 46
-46, 46
-46, 47
-45, 47
-45, 48
-44, 48
-44, 49
-43, 49
-43, 48
-42, 48
-42, 47
-41, 47
-41, 48
-40, 48
-40, 49
-41, 49
-41, 50
-42, 50
-42, 51
-41, 51
-41, 52
-40, 52
-40, 53
-39, 53
-39, 52
-38, 52
-38, 51
-37, 51
-37, 50
-38, 50
-38, 49
-39, 49
-39, 48
-38, 48
-38, 47
-37, 47
-37, 48
-36, 48
-36, 49
-35, 49
-35, 48
-34, 48
-34, 47
-33, 47
-33, 48
-32, 48
-32, 49
-33, 49
-33, 50
-34, 50
-34, 51
-33, 51
-33, 52
-32, 52
-32, 53
-33, 53
-33, 54
-34, 54
-34, 53
-35, 53
-35, 52
-36, 52
-36, 53
-37, 53
-37, 54
-38, 54
-38, 55
-37, 55
-37, 56
-36, 56
-36, 57
-35, 57
-35, 56
-34, 56
-34, 55
-33, 55
-33, 56
-32, 56
-32, 57
-33, 57
-33, 58
-34, 58
-34, 59
-33, 59
-33, 60
-32, 60
-32, 61
-33, 61
-33, 62
-34, 62
-34, 61
-35, 61
-35, 60
-36, 60
-36, 61
-37, 61
-37, 62
-38, 62
-38, 61
-39, 61
-39, 60
-38, 60
-38, 59
-37, 59
-37, 58
-38, 58
-38, 57
-39, 57
-39, 56
-40, 56
-40, 57
-41, 57
-41, 58
-42, 58
-42, 59
-41, 59
-41, 60
-40, 60
-40, 61
-41, 61
-41, 62
-42, 62
-42, 61
-43, 61
-43, 60
-44, 60
-44, 61
-45, 61
-45, 62
-46, 62
-46, 61
-47, 61
-47, 60
-46, 60
-46, 59
-45, 59
-45, 58
-46, 58
-46, 57
-47, 57
-47, 56
-46, 56
-46, 55
-45, 55
-45, 56
-44, 56
-44, 57
-43, 57
-43, 56
-42, 56
-42, 55
-41, 55
-41, 54
-42, 54
-42, 53
-43, 53
-43, 52
-44, 52
-44, 53
-45, 53
-45, 54
-46, 54
-46, 53
-47, 53
-47, 52
-46, 52
-46, 51
-45, 51
-45, 50
-46, 50
-46, 49
-47, 49
-47, 48
-48, 48
-48, 49
-49, 49
-49, 50
-50, 50
-50, 51
-49, 51
-49, 52
-48, 52
-48, 53
-49, 53
-49, 54
-50, 54
-50, 53
-51, 53
-51, 52
-52, 52
-52, 53
-53, 53
-53, 54
-54, 54
-54, 55
-53, 55
-53, 56
-52, 56
-52, 57
-51, 57
-51, 56
-50, 56
-50, 55
-49, 55
-49, 56
-48, 56
-48, 57
-49, 57
-49, 58
-50, 58
-50, 59
-49, 59
-49, 60
-48, 60
-48, 61
-49, 61
-49, 62
-50, 62
-50, 61
-51, 61
-51, 60
-52, 60
-52, 61
-53, 61
-53, 62
-54, 62
-54, 61
-55, 61
-55, 60
-54, 60
-54, 59
-53, 59
-53, 58
-54, 58
-54, 57
-55, 57
-55, 56
-56, 56
-56, 57
-57, 57
-57, 58
-58, 58
-58, 59
-57, 59
-57, 60
-56, 60
-56, 61
-57, 61
-57, 62
-58, 62
-58, 61
-59, 61
-59, 60
-60, 60
-60, 61
-61, 61
-61, 62
-62, 62
-62, 63
-61, 63
-61, 64
-60, 64
-60, 65
-59, 65
-59, 64
-58, 64
-58, 63
-57, 63
-57, 64
-56, 64
-56, 65
-57, 65
-57, 66
-58, 66
-58, 67
-57, 67
-57, 68
-56, 68
-56, 69
-55, 69
-55, 68
-54, 68
-54, 67
-53, 67
-53, 66
-54, 66
-54, 65
-55, 65
-55, 64
-54, 64
-54, 63
-53, 63
-53, 64
-52, 64
-52, 65
-51, 65
-51, 64
-50, 64
-50, 63
-49, 63
-49, 64
-48, 64
-48, 65
-49, 65
-49, 66
-50, 66
-50, 67
-49, 67
-49, 68
-48, 68
-48, 69
-49, 69
-49, 70
-50, 70
-50, 69
-51, 69
-51, 68
-52, 68
-52, 69
-53, 69
-53, 70
-54, 70
-54, 71
-53, 71
-53, 72
-52, 72
-52, 73
-51, 73
-51, 72
-50, 72
-50, 71
-49, 71
-49, 72
-48, 72
-48, 73
-49, 73
-49, 74
-50, 74
-50, 75
-49, 75
-49, 76
-48, 76
-48, 77
-47, 77
-47, 76
-46, 76
-46, 75
-45, 75
-45, 74
-46, 74
-46, 73
-47, 73
-47, 72
-46, 72
-46, 71
-45, 71
-45, 72
-44, 72
-44, 73
-43, 73
-43, 72
-42, 72
-42, 71
-41, 71
-41, 70
-42, 70
-42, 69
-43, 69
-43, 68
-44, 68
-44, 69
-45, 69
-45, 70
-46, 70
-46, 69
-47, 69
-47, 68
-46, 68
-46, 67
-45, 67
-45, 66
-46, 66
-46, 65
-47, 65
-47, 64
-46, 64
-46, 63
-45, 63
-45, 64
-44, 64
-44, 65
-43, 65
-43, 64
-42, 64
-42, 63
-41, 63
-41, 64
-40, 64
-40, 65
-41, 65
-41, 66
-42, 66
-42, 67
-41, 67
-41, 68
-40, 68
-40, 69
-39, 69
-39, 68
-38, 68
-38, 67
-37, 67
-37, 66
-38, 66
-38, 65
-39, 65
-39, 64
-38, 64
-38, 63
-37, 63
-37, 64
-36, 64
-36, 65
-35, 65
-35, 64
-34, 64
-34, 63
-33, 63
-33, 64
-32, 64
-32, 65
-33, 65
-33, 66
-34, 66
-34, 67
-33, 67
-33, 68
-32, 68
-32, 69
-33, 69
-33, 70
-34, 70
-34, 69
-35, 69
-35, 68
-36, 68
-36, 69
-37, 69
-37, 70
-38, 70
-38, 71
-37, 71
-37, 72
-36, 72
-36, 73
-35, 73
-35, 72
-34, 72
-34, 71
-33, 71
-33, 72
-32, 72
-32, 73
-33, 73
-33, 74
-34, 74
-34, 75
-33, 75
-33, 76
-32, 76
-32, 77
-33, 77
-33, 78
-34, 78
-34, 77
-35, 77
-35, 76
-36, 76
-36, 77
-37, 77
-37, 78
-38, 78
-38, 77
-39, 77
-39, 76
-38, 76
-38, 75
-37, 75
-37, 74
-38, 74
-38, 73
-39, 73
-39, 72
-40, 72
-40, 73
-41, 73
-41, 74
-42, 74
-42, 75
-41, 75
-41, 76
-40, 76
-40, 77
-41, 77
-41, 78
-42, 78
-42, 77
-43, 77
-43, 76
-44, 76
-44, 77
-45, 77
-45, 78
-46, 78
-46, 79
-45, 79
-45, 80
-44, 80
-44, 81
-43, 81
-43, 80
-42, 80
-42, 79
-41, 79
-41, 80
-40, 80
-40, 81
-41, 81
-41, 82
-42, 82
-42, 83
-41, 83
-41, 84
-40, 84
-40, 85
-39, 85
-39, 84
-38, 84
-38, 83
-37, 83
-37, 82
-38, 82
-38, 81
-39, 81
-39, 80
-38, 80
-38, 79
-37, 79
-37, 80
-36, 80
-36, 81
-35, 81
-35, 80
-34, 80
-34, 79
-33, 79
-33, 80
-32, 80
-32, 81
-33, 81
-33, 82
-34, 82
-34, 83
-33, 83
-33, 84
-32, 84
-32, 85
-33, 85
-33, 86
-34, 86
-34, 85
-35, 85
-35, 84
-36, 84
-36, 85
-37, 85
-37, 86
-38, 86
-38, 87
-37, 87
-37, 88
-36, 88
-36, 89
-35, 89
-35, 88
-34, 88
-34, 87
-33, 87
-33, 88
-32, 88
-32, 89
-33, 89
-33, 90
-34, 90
-34, 91
-33, 91
-33, 92
-32, 92
-32, 93
-31, 93
-31, 92
-30, 92
-30, 91
-29, 91
-29, 90
-30, 90
-30, 89
-31, 89
-31, 88
-30, 88
-30, 87
-29, 87
-29, 88
-28, 88
-28, 89
-27, 89
-27, 88
-26, 88
-26, 87
-25, 87
-25, 86
-26, 86
-26, 85
-27, 85
-27, 84
-28, 84
-28, 85
-29, 85
-29, 86
-30, 86
-30, 85
-31, 85
-31, 84
-30, 84
-30, 83
-29, 83
-29, 82
-30, 82
-30, 81
-31, 81
-31, 80
-30, 80
-30, 79
-29, 79
-29, 80
-28, 80
-28, 81
-27, 81
-27, 80
-26, 80
-26, 79
-25, 79
-25, 80
-24, 80
-24, 81
-25, 81
-25, 82
-26, 82
-26, 83
-25, 83
-25, 84
-24, 84
-24, 85
-23, 85
-23, 84
-22, 84
-22, 83
-21, 83
-21, 82
-22, 82
-22, 81
-23, 81
-23, 80
-22, 80
-22, 79
-21, 79
-21, 80
-20, 80
-20, 81
-19, 81
-19, 80
-18, 80
-18, 79
-17, 79
-17, 78
-18, 78
-18, 77
-19, 77
-19, 76
-20, 76
-20, 77
-21, 77
-21, 78
-22, 78
-22, 77
-23, 77
-23, 76
-22, 76
-22, 75
-21, 75
-21, 74
-22, 74
-22, 73
-23, 73
-23, 72
-24, 72
-24, 73
-25, 73
-25, 74
-26, 74
-26, 75
-25, 75
-25, 76
-24, 76
-24, 77
-25, 77
-25, 78
-26, 78
-26, 77
-27, 77
-27, 76
-28, 76
-28, 77
-29, 77
-29, 78
-30, 78
-30, 77
-31, 77
-31, 76
-30, 76
-30, 75
-29, 75
-29, 74
-30, 74
-30, 73
-31, 73
-31, 72
-30, 72
-30, 71
-29, 71
-29, 72
-28, 72
-28, 73
-27, 73
-27, 72
-26, 72
-26, 71
-25, 71
-25, 70
-26, 70
-26, 69
-27, 69
-27, 68
-28, 68
-28, 69
-29, 69
-29, 70
-30, 70
-30, 69
-31, 69
-31, 68
-30, 68
-30, 67
-29, 67
-29, 66
-30, 66
-30, 65
-31, 65
-31, 64
-30, 64
-30, 63
-29, 63
-29, 64
-28, 64
-28, 65
-27, 65
-27, 64
-26, 64
-26, 63
-25, 63
-25, 64
-24, 64
-24, 65
-25, 65
-25, 66
-26, 66
-26, 67
-25, 67
-25, 68
-24, 68
-24, 69
-23, 69
-23, 68
-22, 68
-22, 67
-21, 67
-21, 66
-22, 66
-22, 65
-23, 65
-23, 64
-22, 64
-22, 63
-21, 63
-21, 64
-20, 64
-20, 65
-19, 65
-19, 64
-18, 64
-18, 63
-17, 63
-17, 64
-16, 64
-16, 65
-17, 65
-17, 66
-18, 66
-18, 67
-17, 67
-17, 68
-16, 68
-16, 69
-17, 69
-17, 70
-18, 70
-18, 69
-19, 69
-19, 68
-20, 68
-20, 69
-21, 69
-21, 70
-22, 70
-22, 71
-21, 71
-21, 72
-20, 72
-20, 73
-19, 73
-19, 72
-18, 72
-18, 71
-17, 71
-17, 72
-16, 72
-16, 73
-17, 73
-17, 74
-18, 74
-18, 75
-17, 75
-17, 76
-16, 76
-16, 77
-15, 77
-15, 76
-14, 76
-14, 75
-13, 75
-13, 74
-14, 74
-14, 73
-15, 73
-15, 72
-14, 72
-14, 71
-13, 71
-13, 72
-12, 72
-12, 73
-11, 73
-11, 72
-10, 72
-10, 71
-9, 71
-9, 70
-10, 70
-10, 69
-11, 69
-11, 68
-12, 68
-12, 69
-13, 69
-13, 70
-14, 70
-14, 69
-15, 69
-15, 68
-14, 68
-14, 67
-13, 67
-13, 66
-14, 66
-14, 65
-15, 65
-15, 64
-14, 64
-14, 63
-13, 63
-13, 64
-12, 64
-12, 65
-11, 65
-11, 64
-10, 64
-10, 63
-9, 63
-9, 64
-8, 64
-8, 65
-9, 65
-9, 66
-10, 66
-10, 67
-9, 67
-9, 68
-8, 68
-8, 69
-7, 69
-7, 68
-6, 68
-6, 67
-5, 67
-5, 66
-6, 66
-6, 65
-7, 65
-7, 64
-6, 64
-6, 63
-5, 63
-5, 64
-4, 64
-4, 65
-3, 65
-3, 64
-2, 64
-2, 63
-1, 63
-1, 64
-0, 64
-0, 65
-1, 65
-1, 66
-2, 66
-2, 67
-1, 67
-1, 68
-0, 68
-0, 69
-1, 69
-1, 70
-2, 70
-2, 69
-3, 69
-3, 68
-4, 68
-4, 69
-5, 69
-5, 70
-6, 70
-6, 71
-5, 71
-5, 72
-4, 72
-4, 73
-3, 73
-3, 72
-2, 72
-2, 71
-1, 71
-1, 72
-0, 72
-0, 73
-1, 73
-1, 74
-2, 74
-2, 75
-1, 75
-1, 76
-0, 76
-0, 77
-1, 77
-1, 78
-2, 78
-2, 77
-3, 77
-3, 76
-4, 76
-4, 77
-5, 77
-5, 78
-6, 78
-6, 77
-7, 77
-7, 76
-6, 76
-6, 75
-5, 75
-5, 74
-6, 74
-6, 73
-7, 73
-7, 72
-8, 72
-8, 73
-9, 73
-9, 74
-10, 74
-10, 75
-9, 75
-9, 76
-8, 76
-8, 77
-9, 77
-9, 78
-10, 78
-10, 77
-11, 77
-11, 76
-12, 76
-12, 77
-13, 77
-13, 78
-14, 78
-14, 79
-13, 79
-13, 80
-12, 80
-12, 81
-11, 81
-11, 80
-10, 80
-10, 79
-9, 79
-9, 80
-8, 80
-8, 81
-9, 81
-9, 82
-10, 82
-10, 83
-9, 83
-9, 84
-8, 84
-8, 85
-7, 85
-7, 84
-6, 84
-6, 83
-5, 83
-5, 82
-6, 82
-6, 81
-7, 81
-7, 80
-6, 80
-6, 79
-5, 79
-5, 80
-4, 80
-4, 81
-3, 81
-3, 80
-2, 80
-2, 79
-1, 79
-1, 80
-0, 80
-0, 81
-1, 81
-1, 82
-2, 82
-2, 83
-1, 83
-1, 84
-0, 84
-0, 85
-1, 85
-1, 86
-2, 86
-2, 85
-3, 85
-3, 84
-4, 84
-4, 85
-5, 85
-5, 86
-6, 86
-6, 87
-5, 87
-5, 88
-4, 88
-4, 89
-3, 89
-3, 88
-2, 88
-2, 87
-1, 87
-1, 88
-0, 88
-0, 89
-1, 89
-1, 90
-2, 90
-2, 91
-1, 91
-1, 92
-0, 92
-0, 93
-1, 93
-1, 94
-2, 94
-2, 93
-3, 93
-3, 92
-4, 92
-4, 93
-5, 93
-5, 94
-6, 94
-6, 93
-7, 93
-7, 92
-6, 92
-6, 91
-5, 91
-5, 90
-6, 90
-6, 89
-7, 89
-7, 88
-8, 88
-8, 89
-9, 89
-9, 90
-10, 90
-10, 91
-9, 91
-9, 92
-8, 92
-8, 93
-9, 93
-9, 94
-10, 94
-10, 93
-11, 93
-11, 92
-12, 92
-12, 93
-13, 93
-13, 94
-14, 94
-14, 93
-15, 93
-15, 92
-14, 92
-14, 91
-13, 91
-13, 90
-14, 90
-14, 89
-15, 89
-15, 88
-14, 88
-14, 87
-13, 87
-13, 88
-12, 88
-12, 89
-11, 89
-11, 88
-10, 88
-10, 87
-9, 87
-9, 86
-10, 86
-10, 85
-11, 85
-11, 84
-12, 84
-12, 85
-13, 85
-13, 86
-14, 86
-14, 85
-15, 85
-15, 84
-14, 84
-14, 83
-13, 83
-13, 82
-14, 82
-14, 81
-15, 81
-15, 80
-16, 80
-16, 81
-17, 81
-17, 82
-18, 82
-18, 83
-17, 83
-17, 84
-16, 84
-16, 85
-17, 85
-17, 86
-18, 86
-18, 85
-19, 85
-19, 84
-20, 84
-20, 85
-21, 85
-21, 86
-22, 86
-22, 87
-21, 87
-21, 88
-20, 88
-20, 89
-19, 89
-19, 88
-18, 88
-18, 87
-17, 87
-17, 88
-16, 88
-16, 89
-17, 89
-17, 90
-18, 90
-18, 91
-17, 91
-17, 92
-16, 92
-16, 93
-17, 93
-17, 94
-18, 94
-18, 93
-19, 93
-19, 92
-20, 92
-20, 93
-21, 93
-21, 94
-22, 94
-22, 93
-23, 93
-23, 92
-22, 92
-22, 91
-21, 91
-21, 90
-22, 90
-22, 89
-23, 89
-23, 88
-24, 88
-24, 89
-25, 89
-25, 90
-26, 90
-26, 91
-25, 91
-25, 92
-24, 92
-24, 93
-25, 93
-25, 94
-26, 94
-26, 93
-27, 93
-27, 92
-28, 92
-28, 93
-29, 93
-29, 94
-30, 94
-30, 95
-29, 95
-29, 96
-28, 96
-28, 97
-27, 97
-27, 96
-26, 96
-26, 95
-25, 95
-25, 96
-24, 96
-24, 97
-25, 97
-25, 98
-26, 98
-26, 99
-25, 99
-25, 100
-24, 100
-24, 101
-23, 101
-23, 100
-22, 100
-22, 99
-21, 99
-21, 98
-22, 98
-22, 97
-23, 97
-23, 96
-22, 96
-22, 95
-21, 95
-21, 96
-20, 96
-20, 97
-19, 97
-19, 96
-18, 96
-18, 95
-17, 95
-17, 96
-16, 96
-16, 97
-17, 97
-17, 98
-18, 98
-18, 99
-17, 99
-17, 100
-16, 100
-16, 101
-17, 101
-17, 102
-18, 102
-18, 101
-19, 101
-19, 100
-20, 100
-20, 101
-21, 101
-21, 102
-22, 102
-22, 103
-21, 103
-21, 104
-20, 104
-20, 105
-19, 105
-19, 104
-18, 104
-18, 103
-17, 103
-17, 104
-16, 104
-16, 105
-17, 105
-17, 106
-18, 106
-18, 107
-17, 107
-17, 108
-16, 108
-16, 109
-15, 109
-15, 108
-14, 108
-14, 107
-13, 107
-13, 106
-14, 106
-14, 105
-15, 105
-15, 104
-14, 104
-14, 103
-13, 103
-13, 104
-12, 104
-12, 105
-11, 105
-11, 104
-10, 104
-10, 103
-9, 103
-9, 102
-10, 102
-10, 101
-11, 101
-11, 100
-12, 100
-12, 101
-13, 101
-13, 102
-14, 102
-14, 101
-15, 101
-15, 100
-14, 100
-14, 99
-13, 99
-13, 98
-14, 98
-14, 97
-15, 97
-15, 96
-14, 96
-14, 95
-13, 95
-13, 96
-12, 96
-12, 97
-11, 97
-11, 96
-10, 96
-10, 95
-9, 95
-9, 96
-8, 96
-8, 97
-9, 97
-9, 98
-10, 98
-10, 99
-9, 99
-9, 100
-8, 100
-8, 101
-7, 101
-7, 100
-6, 100
-6, 99
-5, 99
-5, 98
-6, 98
-6, 97
-7, 97
-7, 96
-6, 96
-6, 95
-5, 95
-5, 96
-4, 96
-4, 97
-3, 97
-3, 96
-2, 96
-2, 95
-1, 95
-1, 96
-0, 96
-0, 97
-1, 97
-1, 98
-2, 98
-2, 99
-1, 99
-1, 100
-0, 100
-0, 101
-1, 101
-1, 102
-2, 102
-2, 101
-3, 101
-3, 100
-4, 100
-4, 101
-5, 101
-5, 102
-6, 102
-6, 103
-5, 103
-5, 104
-4, 104
-4, 105
-3, 105
-3, 104
-2, 104
-2, 103
-1, 103
-1, 104
-0, 104
-0, 105
-1, 105
-1, 106
-2, 106
-2, 107
-1, 107
-1, 108
-0, 108
-0, 109
-1, 109
-1, 110
-2, 110
-2, 109
-3, 109
-3, 108
-4, 108
-4, 109
-5, 109
-5, 110
-6, 110
-6, 109
-7, 109
-7, 108
-6, 108
-6, 107
-5, 107
-5, 106
-6, 106
-6, 105
-7, 105
-7, 104
-8, 104
-8, 105
-9, 105
-9, 106
-10, 106
-10, 107
-9, 107
-9, 108
-8, 108
-8, 109
-9, 109
-9, 110
-10, 110
-10, 109
-11, 109
-11, 108
-12, 108
-12, 109
-13, 109
-13, 110
-14, 110
-14, 111
-13, 111
-13, 112
-12, 112
-12, 113
-11, 113
-11, 112
-10, 112
-10, 111
-9, 111
-9, 112
-8, 112
-8, 113
-9, 113
-9, 114
-10, 114
-10, 115
-9, 115
-9, 116
-8, 116
-8, 117
-7, 117
-7, 116
-6, 116
-6, 115
-5, 115
-5, 114
-6, 114
-6, 113
-7, 113
-7, 112
-6, 112
-6, 111
-5, 111
-5, 112
-4, 112
-4, 113
-3, 113
-3, 112
-2, 112
-2, 111
-1, 111
-1, 112
-0, 112
-0, 113
-1, 113
-1, 114
-2, 114
-2, 115
-1, 115
-1, 116
-0, 116
-0, 117
-1, 117
-1, 118
-2, 118
-2, 117
-3, 117
-3, 116
-4, 116
-4, 117
-5, 117
-5, 118
-6, 118
-6, 119
-5, 119
-5, 120
-4, 120
-4, 121
-3, 121
-3, 120
-2, 120
-2, 119
-1, 119
-1, 120
-0, 120
-0, 121
-1, 121
-1, 122
-2, 122
-2, 123
-1, 123
-1, 124
-0, 124
0, 125
1, 125
1, 124
2, 124
2, 123
3, 123
3, 122
2, 122
2, 121
1, 121
1, 120
2, 120
2, 119
3, 119
3, 120
4, 120
4, 121
5, 121
5, 120
6, 120
6, 119
7, 119
7, 118
6, 118
6, 117
5, 117
5, 116
4, 116
4, 117
3, 117
3, 118
2, 118
2, 117
1, 117
1, 116
2, 116
2, 115
3, 115
3, 114
2, 114
2, 113
1, 113
1, 112
2, 112
2, 111
3, 111
3, 112
4, 112
4, 113
5, 113
5, 112
6, 112
6, 111
7, 111
7, 112
8, 112
8, 113
7, 113
7, 114
6, 114
6, 115
7, 115
7, 116
8, 116
8, 117
9, 117
9, 116
10, 116
10, 115
11, 115
11, 114
10, 114
10, 113
9, 113
9, 112
10, 112
10, 111
11, 111
11, 112
12, 112
12, 113
13, 113
13, 112
14, 112
14, 111
15, 111
15, 110
14, 110
14, 109
13, 109
13, 108
12, 108
12, 109
11, 109
11, 110
10, 110
10, 109
9, 109
9, 108
10, 108
10, 107
11, 107
11, 106
10, 106
10, 105
9, 105
9, 104
8, 104
8, 105
7, 105
7, 106
6, 106
6, 107
7, 107
7, 108
8, 108
8, 109
7, 109
7, 110
6, 110
6, 109
5, 109
5, 108
4, 108
4, 109
3, 109
3, 110
2, 110
2, 109
1, 109
1, 108
2, 108
2, 107
3, 107
3, 106
2, 106
2, 105
1, 105
1, 104
2, 104
2, 103
3, 103
3, 104
4, 104
4, 105
5, 105
5, 104
6, 104
6, 103
7, 103
7, 102
6, 102
6, 101
5, 101
5, 100
4, 100
4, 101
3, 101
3, 102
2, 102
2, 101
1, 101
1, 100
2, 100
2, 99
3, 99
3, 98
2, 98
2, 97
1, 97
1, 96
2, 96
2, 95
3, 95
3, 96
4, 96
4, 97
5, 97
5, 96
6, 96
6, 95
7, 95
7, 96
8, 96
8, 97
7, 97
7, 98
6, 98
6, 99
7, 99
7, 100
8, 100
8, 101
9, 101
9, 100
10, 100
10, 99
11, 99
11, 98
10, 98
10, 97
9, 97
9, 96
10, 96
10, 95
11, 95
11, 96
12, 96
12, 97
13, 97
13, 96
14, 96
14, 95
15, 95
15, 96
16, 96
16, 97
15, 97
15, 98
14, 98
14, 99
15, 99
15, 100
16, 100
16, 101
15, 101
15, 102
14, 102
14, 101
13, 101
13, 100
12, 100
12, 101
11, 101
11, 102
10, 102
10, 103
11, 103
11, 104
12, 104
12, 105
13, 105
13, 104
14, 104
14, 103
15, 103
15, 104
16, 104
16, 105
15, 105
15, 106
14, 106
14, 107
15, 107
15, 108
16, 108
16, 109
17, 109
17, 108
18, 108
18, 107
19, 107
19, 106
18, 106
18, 105
17, 105
17, 104
18, 104
18, 103
19, 103
19, 104
20, 104
20, 105
21, 105
21, 104
22, 104
22, 103
23, 103
23, 102
22, 102
22, 101
21, 101
21, 100
20, 100
20, 101
19, 101
19, 102
18, 102
18, 101
17, 101
17, 100
18, 100
18, 99
19, 99
19, 98
18, 98
18, 97
17, 97
17, 96
18, 96
18, 95
19, 95
19, 96
20, 96
20, 97
21, 97
21, 96
22, 96
22, 95
23, 95
23, 96
24, 96
24, 97
23, 97
23, 98
22, 98
22, 99
23, 99
23, 100
24, 100
24, 101
25, 101
25, 100
26, 100
26, 99
27, 99
27, 98
26, 98
26, 97
25, 97
25, 96
26, 96
26, 95
27, 95
27, 96
28, 96
28, 97
29, 97
29, 96
30, 96
30, 95
31, 95
31, 94
30, 94
30, 93
29, 93
29, 92
28, 92
28, 93
27, 93
27, 94
26, 94
26, 93
25, 93
25, 92
26, 92
26, 91
27, 91
27, 90
26, 90
26, 89
25, 89
25, 88
24, 88
24, 89
23, 89
23, 90
22, 90
22, 91
23, 91
23, 92
24, 92
24, 93
23, 93
23, 94
22, 94
22, 93
21, 93
21, 92
20, 92
20, 93
19, 93
19, 94
18, 94
18, 93
17, 93
17, 92
18, 92
18, 91
19, 91
19, 90
18, 90
18, 89
17, 89
17, 88
18, 88
18, 87
19, 87
19, 88
20, 88
20, 89
21, 89
21, 88
22, 88
22, 87
23, 87
23, 86
22, 86
22, 85
21, 85
21, 84
20, 84
20, 85
19, 85
19, 86
18, 86
18, 85
17, 85
17, 84
18, 84
18, 83
19, 83
19, 82
18, 82
18, 81
17, 81
17, 80
16, 80
16, 81
15, 81
15, 82
14, 82
14, 83
15, 83
15, 84
16, 84
16, 85
15, 85
15, 86
14, 86
14, 85
13, 85
13, 84
12, 84
12, 85
11, 85
11, 86
10, 86
10, 87
11, 87
11, 88
12, 88
12, 89
13, 89
13, 88
14, 88
14, 87
15, 87
15, 88
16, 88
16, 89
15, 89
15, 90
14, 90
14, 91
15, 91
15, 92
16, 92
16, 93
15, 93
15, 94
14, 94
14, 93
13, 93
13, 92
12, 92
12, 93
11, 93
11, 94
10, 94
10, 93
9, 93
9, 92
10, 92
10, 91
11, 91
11, 90
10, 90
10, 89
9, 89
9, 88
8, 88
8, 89
7, 89
7, 90
6, 90
6, 91
7, 91
7, 92
8, 92
8, 93
7, 93
7, 94
6, 94
6, 93
5, 93
5, 92
4, 92
4, 93
3, 93
3, 94
2, 94
2, 93
1, 93
1, 92
2, 92
2, 91
3, 91
3, 90
2, 90
2, 89
1, 89
1, 88
2, 88
2, 87
3, 87
3, 88
4, 88
4, 89
5, 89
5, 88
6, 88
6, 87
7, 87
7, 86
6, 86
6, 85
5, 85
5, 84
4, 84
4, 85
3, 85
3, 86
2, 86
2, 85
1, 85
1, 84
2, 84
2, 83
3, 83
3, 82
2, 82
2, 81
1, 81
1, 80
2, 80
2, 79
3, 79
3, 80
4, 80
4, 81
5, 81
5, 80
6, 80
6, 79
7, 79
7, 80
8, 80
8, 81
7, 81
7, 82
6, 82
6, 83
7, 83
7, 84
8, 84
8, 85
9, 85
9, 84
10, 84
10, 83
11, 83
11, 82
10, 82
10, 81
9, 81
9, 80
10, 80
10, 79
11, 79
11, 80
12, 80
12, 81
13, 81
13, 80
14, 80
14, 79
15, 79
15, 78
14, 78
14, 77
13, 77
13, 76
12, 76
12, 77
11, 77
11, 78
10, 78
10, 77
9, 77
9, 76
10, 76
10, 75
11, 75
11, 74
10, 74
10, 73
9, 73
9, 72
8, 72
8, 73
7, 73
7, 74
6, 74
6, 75
7, 75
7, 76
8, 76
8, 77
7, 77
7, 78
6, 78
6, 77
5, 77
5, 76
4, 76
4, 77
3, 77
3, 78
2, 78
2, 77
1, 77
1, 76
2, 76
2, 75
3, 75
3, 74
2, 74
2, 73
1, 73
1, 72
2, 72
2, 71
3, 71
3, 72
4, 72
4, 73
5, 73
5, 72
6, 72
6, 71
7, 71
7, 70
6, 70
6, 69
5, 69
5, 68
4, 68
4, 69
3, 69
3, 70
2, 70
2, 69
1, 69
1, 68
2, 68
2, 67
3, 67
3, 66
2, 66
2, 65
1, 65
1, 64
2, 64
2, 63
3, 63
3, 64
4, 64
4, 65
5, 65
5, 64
6, 64
6, 63
7, 63
7, 64
8, 64
8, 65
7, 65
7, 66
6, 66
6, 67
7, 67
7, 68
8, 68
8, 69
9, 69
9, 68
10, 68
10, 67
11, 67
11, 66
10, 66
10, 65
9, 65
9, 64
10, 64
10, 63
11, 63
11, 64
12, 64
12, 65
13, 65
13, 64
14, 64
14, 63
15, 63
15, 64
16, 64
16, 65
15, 65
15, 66
14, 66
14, 67
15, 67
15, 68
16, 68
16, 69
15, 69
15, 70
14, 70
14, 69
13, 69
13, 68
12, 68
12, 69
11, 69
11, 70
10, 70
10, 71
11, 71
11, 72
12, 72
12, 73
13, 73
13, 72
14, 72
14, 71
15, 71
15, 72
16, 72
16, 73
15, 73
15, 74
14, 74
14, 75
15, 75
15, 76
16, 76
16, 77
17, 77
17, 76
18, 76
18, 75
19, 75
19, 74
18, 74
18, 73
17, 73
17, 72
18, 72
18, 71
19, 71
19, 72
20, 72
20, 73
21, 73
21, 72
22, 72
22, 71
23, 71
23, 70
22, 70
22, 69
21, 69
21, 68
20, 68
20, 69
19, 69
19, 70
18, 70
18, 69
17, 69
17, 68
18, 68
18, 67
19, 67
19, 66
18, 66
18, 65
17, 65
17, 64
18, 64
18, 63
19, 63
19, 64
20, 64
20, 65
21, 65
21, 64
22, 64
22, 63
23, 63
23, 64
24, 64
24, 65
23, 65
23, 66
22, 66
22, 67
23, 67
23, 68
24, 68
24, 69
25, 69
25, 68
26, 68
26, 67
27, 67
27, 66
26, 66
26, 65
25, 65
25, 64
26, 64
26, 63
27, 63
27, 64
28, 64
28, 65
29, 65
29, 64
30, 64
30, 63
31, 63
31, 64
32, 64
32, 65
31, 65
31, 66
30, 66
30, 67
31, 67
31, 68
32, 68
32, 69
31, 69
31, 70
30, 70
30, 69
29, 69
29, 68
28, 68
28, 69
27, 69
27, 70
26, 70
26, 71
27, 71
27, 72
28, 72
28, 73
29, 73
29, 72
30, 72
30, 71
31, 71
31, 72
32, 72
32, 73
31, 73
31, 74
30, 74
30, 75
31, 75
31, 76
32, 76
32, 77
31, 77
31, 78
30, 78
30, 77
29, 77
29, 76
28, 76
28, 77
27, 77
27, 78
26, 78
26, 77
25, 77
25, 76
26, 76
26, 75
27, 75
27, 74
26, 74
26, 73
25, 73
25, 72
24, 72
24, 73
23, 73
23, 74
22, 74
22, 75
23, 75
23, 76
24, 76
24, 77
23, 77
23, 78
22, 78
22, 77
21, 77
21, 76
20, 76
20, 77
19, 77
19, 78
18, 78
18, 79
19, 79
19, 80
20, 80
20, 81
21, 81
21, 80
22, 80
22, 79
23, 79
23, 80
24, 80
24, 81
23, 81
23, 82
22, 82
22, 83
23, 83
23, 84
24, 84
24, 85
25, 85
25, 84
26, 84
26, 83
27, 83
27, 82
26, 82
26, 81
25, 81
25, 80
26, 80
26, 79
27, 79
27, 80
28, 80
28, 81
29, 81
29, 80
30, 80
30, 79
31, 79
31, 80
32, 80
32, 81
31, 81
31, 82
30, 82
30, 83
31, 83
31, 84
32, 84
32, 85
31, 85
31, 86
30, 86
30, 85
29, 85
29, 84
28, 84
28, 85
27, 85
27, 86
26, 86
26, 87
27, 87
27, 88
28, 88
28, 89
29, 89
29, 88
30, 88
30, 87
31, 87
31, 88
32, 88
32, 89
31, 89
31, 90
30, 90
30, 91
31, 91
31, 92
32, 92
32, 93
33, 93
33, 92
34, 92
34, 91
35, 91
35, 90
34, 90
34, 89
33, 89
33, 88
34, 88
34, 87
35, 87
35, 88
36, 88
36, 89
37, 89
37, 88
38, 88
38, 87
39, 87
39, 86
38, 86
38, 85
37, 85
37, 84
36, 84
36, 85
35, 85
35, 86
34, 86
34, 85
33, 85
33, 84
34, 84
34, 83
35, 83
35, 82
34, 82
34, 81
33, 81
33, 80
34, 80
34, 79
35, 79
35, 80
36, 80
36, 81
37, 81
37, 80
38, 80
38, 79
39, 79
39, 80
40, 80
40, 81
39, 81
39, 82
38, 82
38, 83
39, 83
39, 84
40, 84
40, 85
41, 85
41, 84
42, 84
42, 83
43, 83
43, 82
42, 82
42, 81
41, 81
41, 80
42, 80
42, 79
43, 79
43, 80
44, 80
44, 81
45, 81
45, 80
46, 80
46, 79
47, 79
47, 78
46, 78
46, 77
45, 77
45, 76
44, 76
44, 77
43, 77
43, 78
42, 78
42, 77
41, 77
41, 76
42, 76
42, 75
43, 75
43, 74
42, 74
42, 73
41, 73
41, 72
40, 72
40, 73
39, 73
39, 74
38, 74
38, 75
39, 75
39, 76
40, 76
40, 77
39, 77
39, 78
38, 78
38, 77
37, 77
37, 76
36, 76
36, 77
35, 77
35, 78
34, 78
34, 77
33, 77
33, 76
34, 76
34, 75
35, 75
35, 74
34, 74
34, 73
33, 73
33, 72
34, 72
34, 71
35, 71
35, 72
36, 72
36, 73
37, 73
37, 72
38, 72
38, 71
39, 71
39, 70
38, 70
38, 69
37, 69
37, 68
36, 68
36, 69
35, 69
35, 70
34, 70
34, 69
33, 69
33, 68
34, 68
34, 67
35, 67
35, 66
34, 66
34, 65
33, 65
33, 64
34, 64
34, 63
35, 63
35, 64
36, 64
36, 65
37, 65
37, 64
38, 64
38, 63
39, 63
39, 64
40, 64
40, 65
39, 65
39, 66
38, 66
38, 67
39, 67
39, 68
40, 68
40, 69
41, 69
41, 68
42, 68
42, 67
43, 67
43, 66
42, 66
42, 65
41, 65
41, 64
42, 64
42, 63
43, 63
43, 64
44, 64
44, 65
45, 65
45, 64
46, 64
46, 63
47, 63
47, 64
48, 64
48, 65
47, 65
47, 66
46, 66
46, 67
47, 67
47, 68
48, 68
48, 69
47, 69
47, 70
46, 70
46, 69
45, 69
45, 68
44, 68
44, 69
43, 69
43, 70
42, 70
42, 71
43, 71
43, 72
44, 72
44, 73
45, 73
45, 72
46, 72
46, 71
47, 71
47, 72
48, 72
48, 73
47, 73
47, 74
46, 74
46, 75
47, 75
47, 76
48, 76
48, 77
49, 77
49, 76
50, 76
50, 75
51, 75
51, 74
50, 74
50, 73
49, 73
49, 72
50, 72
50, 71
51, 71
51, 72
52, 72
52, 73
53, 73
53, 72
54, 72
54, 71
55, 71
55, 70
54, 70
54, 69
53, 69
53, 68
52, 68
52, 69
51, 69
51, 70
50, 70
50, 69
49, 69
49, 68
50, 68
50, 67
51, 67
51, 66
50, 66
50, 65
49, 65
49, 64
50, 64
50, 63
51, 63
51, 64
52, 64
52, 65
53, 65
53, 64
54, 64
54, 63
55, 63
55, 64
56, 64
56, 65
55, 65
55, 66
54, 66
54, 67
55, 67
55, 68
56, 68
56, 69
57, 69
57, 68
58, 68
58, 67
59, 67
59, 66
58, 66
58, 65
57, 65
57, 64
58, 64
58, 63
59, 63
59, 64
60, 64
60, 65
61, 65
61, 64
62, 64
62, 63
63, 63
63, 62
62, 62
62, 61
61, 61
61, 60
60, 60
60, 61
59, 61
59, 62
58, 62
58, 61
57, 61
57, 60
58, 60
58, 59
59, 59
59, 58
58, 58
58, 57
57, 57
57, 56
56, 56
56, 57
55, 57
55, 58
54, 58
54, 59
55, 59
55, 60
56, 60
56, 61
55, 61
55, 62
54, 62
54, 61
53, 61
53, 60
52, 60
52, 61
51, 61
51, 62
50, 62
50, 61
49, 61
49, 60
50, 60
50, 59
51, 59
51, 58
50, 58
50, 57
49, 57
49, 56
50, 56
50, 55
51, 55
51, 56
52, 56
52, 57
53, 57
53, 56
54, 56
54, 55
55, 55
55, 54
54, 54
54, 53
53, 53
53, 52
52, 52
52, 53
51, 53
51, 54
50, 54
50, 53
49, 53
49, 52
50, 52
50, 51
51, 51
51, 50
50, 50
50, 49
49, 49
49, 48
48, 48
48, 49
47, 49
47, 50
46, 50
46, 51
47, 51
47, 52
48, 52
48, 53
47, 53
47, 54
46, 54
46, 53
45, 53
45, 52
44, 52
44, 53
43, 53
43, 54
42, 54
42, 55
43, 55
43, 56
44, 56
44, 57
45, 57
45, 56
46, 56
46, 55
47, 55
47, 56
48, 56
48, 57
47, 57
47, 58
46, 58
46, 59
47, 59
47, 60
48, 60
48, 61
47, 61
47, 62
46, 62
46, 61
45, 61
45, 60
44, 60
44, 61
43, 61
43, 62
42, 62
42, 61
41, 61
41, 60
42, 60
42, 59
43, 59
43, 58
42, 58
42, 57
41, 57
41, 56
40, 56
40, 57
39, 57
39, 58
38, 58
38, 59
39, 59
39, 60
40, 60
40, 61
39, 61
39, 62
38, 62
38, 61
37, 61
37, 60
36, 60
36, 61
35, 61
35, 62
34, 62
34, 61
33, 61
33, 60
34, 60
34, 59
35, 59
35, 58
34, 58
34, 57
33, 57
33, 56
34, 56
34, 55
35, 55
35, 56
36, 56
36, 57
37, 57
37, 56
38, 56
38, 55
39, 55
39, 54
38, 54
38, 53
37, 53
37, 52
36, 52
36, 53
35, 53
35, 54
34, 54
34, 53
33, 53
33, 52
34, 52
34, 51
35, 51
35, 50
34, 50
34, 49
33, 49
33, 48
34, 48
34, 47
35, 47
35, 48
36, 48
36, 49
37, 49
37, 48
38, 48
38, 47
39, 47
39, 48
40, 48
40, 49
39, 49
39, 50
38, 50
38, 51
39, 51
39, 52
40, 52
40, 53
41, 53
41, 52
42, 52
42, 51
43, 51
43, 50
42, 50
42, 49
41, 49
41, 48
42, 48
42, 47
43, 47
43, 48
44, 48
44, 49
45, 49
45, 48
46, 48
46, 47
47, 47
47, 46
46, 46
46, 45
45, 45
45, 44
44, 44
44, 45
43, 45
43, 46
42, 46
42, 45
41, 45
41, 44
42, 44
42, 43
43, 43
43, 42
42, 42
42, 41
41, 41
41, 40
40, 40
40, 41
39, 41
39, 42
38, 42
38, 43
39, 43
39, 44
40, 44
40, 45
39, 45
39, 46
38, 46
38, 45
37, 45
37, 44
36, 44
36, 45
35, 45
35, 46
34, 46
34, 45
33, 45
33, 44
34, 44
34, 43
35, 43
35, 42
34, 42
34, 41
33, 41
33, 40
34, 40
34, 39
35, 39
35, 40
36, 40
36, 41
37, 41
37, 40
38, 40
38, 39
39, 39
39, 38
38, 38
38, 37
37, 37
37, 36
36, 36
36, 37
35, 37
35, 38
34, 38
34, 37
33, 37
33, 36
34, 36
34, 35
35, 35
35, 34
34, 34
34, 33
33, 33
33, 32
32, 32
32, 33
31, 33
31, 34
30, 34
30, 35
31, 35
31, 36
32, 36
32, 37
31, 37
31, 38
30, 38
30, 37
29, 37
29, 36
28, 36
28, 37
27, 37
27, 38
26, 38
26, 39
27, 39
27, 40
28, 40
28, 41
29, 41
29, 40
30, 40
30, 39
31, 39
31, 40
32, 40
32, 41
31, 41
31, 42
30, 42
30, 43
31, 43
31, 44
32, 44
32, 45
31, 45
31, 46
30, 46
30, 45
29, 45
29, 44
28, 44
28, 45
27, 45
27, 46
26, 46
26, 45
25, 45
25, 44
26, 44
26, 43
27, 43
27, 42
26, 42
26, 41
25, 41
25, 40
24, 40
24, 41
23, 41
23, 42
22, 42
22, 43
23, 43
23, 44
24, 44
24, 45
23, 45
23, 46
22, 46
22, 45
21, 45
21, 44
20, 44
20, 45
19, 45
19, 46
18, 46
18, 47
19, 47
19, 48
20, 48
20, 49
21, 49
21, 48
22, 48
22, 47
23, 47
23, 48
24, 48
24, 49
23, 49
23, 50
22, 50
22, 51
23, 51
23, 52
24, 52
24, 53
25, 53
25, 52
26, 52
26, 51
27, 51
27, 50
26, 50
26, 49
25, 49
25, 48
26, 48
26, 47
27, 47
27, 48
28, 48
28, 49
29, 49
29, 48
30, 48
30, 47
31, 47
31, 48
32, 48
32, 49
31, 49
31, 50
30, 50
30, 51
31, 51
31, 52
32, 52
32, 53
31, 53
31, 54
30, 54
30, 53
29, 53
29, 52
28, 52
28, 53
27, 53
27, 54
26, 54
26, 55
27, 55
27, 56
28, 56
28, 57
29, 57
29, 56
30, 56
30, 55
31, 55
31, 56
32, 56
32, 57
31, 57
31, 58
30, 58
30, 59
31, 59
31, 60
32, 60
32, 61
31, 61
31, 62
30, 62
30, 61
29, 61
29, 60
28, 60
28, 61
27, 61
27, 62
26, 62
26, 61
25, 61
25, 60
26, 60
26, 59
27, 59
27, 58
26, 58
26, 57
25, 57
25, 56
24, 56
24, 57
23, 57
23, 58
22, 58
22, 59
23, 59
23, 60
24, 60
24, 61
23, 61
23, 62
22, 62
22, 61
21, 61
21, 60
20, 60
20, 61
19, 61
19, 62
18, 62
18, 61
17, 61
17, 60
18, 60
18, 59
19, 59
19, 58
18, 58
18, 57
17, 57
17, 56
18, 56
18, 55
19, 55
19, 56
20, 56
20, 57
21, 57
21, 56
22, 56
22, 55
23, 55
23, 54
22, 54
22, 53
21, 53
21, 52
20, 52
20, 53
19, 53
19, 54
18, 54
18, 53
17, 53
17, 52
18, 52
18, 51
19, 51
19, 50
18, 50
18, 49
17, 49
17, 48
16, 48
16, 49
15, 49
15, 50
14, 50
14, 51
15, 51
15, 52
16, 52
16, 53
15, 53
15, 54
14, 54
14, 53
13, 53
13, 52
12, 52
12, 53
11, 53
11, 54
10, 54
10, 55
11, 55
11, 56
12, 56
12, 57
13, 57
13, 56
14, 56
14, 55
15, 55
15, 56
16, 56
16, 57
15, 57
15, 58
14, 58
14, 59
15, 59
15, 60
16, 60
16, 61
15, 61
15, 62
14, 62
14, 61
13, 61
13, 60
12, 60
12, 61
11, 61
11, 62
10, 62
10, 61
9, 61
9, 60
10, 60
10, 59
11, 59
11, 58
10, 58
10, 57
9, 57
9, 56
8, 56
8, 57
7, 57
7, 58
6, 58
6, 59
7, 59
7, 60
8, 60
8, 61
7, 61
7, 62
6, 62
6, 61
5, 61
5, 60
4, 60
4, 61
3, 61
3, 62
2, 62
2, 61
1, 61
1, 60
2, 60
2, 59
3, 59
3, 58
2, 58
2, 57
1, 57
1, 56
2, 56
2, 55
3, 55
3, 56
4, 56
4, 57
5, 57
5, 56
6, 56
6, 55
7, 55
7, 54
6, 54
6, 53
5, 53
5, 52
4, 52
4, 53
3, 53
3, 54
2, 54
2, 53
1, 53
1, 52
2, 52
2, 51
3, 51
3, 50
2, 50
2, 49
1, 49
1, 48
2, 48
2, 47
3, 47
3, 48
4, 48
4, 49
5, 49
5, 48
6, 48
6, 47
7, 47
7, 48
8, 48
8, 49
7, 49
7, 50
6, 50
6, 51
7, 51
7, 52
8, 52
8, 53
9, 53
9, 52
10, 52
10, 51
11, 51
11, 50
10, 50
10, 49
9, 49
9, 48
10, 48
10, 47
11, 47
11, 48
12, 48
12, 49
13, 49
13, 48
14, 48
14, 47
15, 47
15, 46
14, 46
14, 45
13, 45
13, 44
12, 44
12, 45
11, 45
11, 46
10, 46
10, 45
9, 45
9, 44
10, 44
10, 43
11, 43
11, 42
10, 42
10, 41
9, 41
9, 40
8, 40
8, 41
7, 41
7, 42
6, 42
6, 43
7, 43
7, 44
8, 44
8, 45
7, 45
7, 46
6, 46
6, 45
5, 45
5, 44
4, 44
4, 45
3, 45
3, 46
2, 46
2, 45
1, 45
1, 44
2, 44
2, 43
3, 43
3, 42
2, 42
2, 41
1, 41
1, 40
2, 40
2, 39
3, 39
3, 40
4, 40
4, 41
5, 41
5, 40
6, 40
6, 39
7, 39
7, 38
6, 38
6, 37
5, 37
5, 36
4, 36
4, 37
3, 37
3, 38
2, 38
2, 37
1, 37
1, 36
2, 36
2, 35
3, 35
3, 34
2, 34
2, 33
1, 33
1, 32
2, 32
2, 31
3, 31
3, 32
4, 32
4, 33
5, 33
5, 32
6, 32
6, 31
7, 31
7, 32
8, 32
8, 33
7, 33
7, 34
6, 34
6, 35
7, 35
7, 36
8, 36
8, 37
9, 37
9, 36
10, 36
10, 35
11, 35
11, 34
10, 34
10, 33
9, 33
9, 32
10, 32
10, 31
11, 31
11, 32
12, 32
12, 33
13, 33
13, 32
14, 32
14, 31
15, 31
15, 32
16, 32
16, 33
15, 33
15, 34
14, 34
14, 35
15, 35
15, 36
16, 36
16, 37
15, 37
15, 38
14, 38
14, 37
13, 37
13, 36
12, 36
12, 37
11, 37
11, 38
10, 38
10, 39
11, 39
11, 40
12, 40
12, 41
13, 41
13, 40
14, 40
14, 39
15, 39
15, 40
16, 40
16, 41
15, 41
15, 42
14, 42
14, 43
15, 43
15, 44
16, 44
16, 45
17, 45
17, 44
18, 44
18, 43
19, 43
19, 42
18, 42
18, 41
17, 41
17, 40
18, 40
18, 39
19, 39
19, 40
20, 40
20, 41
21, 41
21, 40
22, 40
22, 39
23, 39
23, 38
22, 38
22, 37
21, 37
21, 36
20, 36
20, 37
19, 37
19, 38
18, 38
18, 37
17, 37
17, 36
18, 36
18, 35
19, 35
19, 34
18, 34
18, 33
17, 33
17, 32
18, 32
18, 31
19, 31
19, 32
20, 32
20, 33
21, 33
21, 32
22, 32
22, 31
23, 31
23, 32
24, 32
24, 33
23, 33
23, 34
22, 34
22, 35
23, 35
23, 36
24, 36
24, 37
25, 37
25, 36
26, 36
26, 35
27, 35
27, 34
26, 34
26, 33
25, 33
25, 32
26, 32
26, 31
27, 31
27, 32
28, 32
28, 33
29, 33
29, 32
30, 32
30, 31
31, 31
31, 30
30, 30
30, 29
29, 29
29, 28
28, 28
28, 29
27, 29
27, 30
26, 30
26, 29
25, 29
25, 28
26, 28
26, 27
27, 27
27, 26
26, 26
26, 25
25, 25
25, 24
24, 24
24, 25
23, 25
23, 26
22, 26
22, 27
23, 27
23, 28
24, 28
24, 29
23, 29
23, 30
22, 30
22, 29
21, 29
21, 28
20, 28
20, 29
19, 29
19, 30
18, 30
18, 29
17, 29
17, 28
18, 28
18, 27
19, 27
19, 26
18, 26
18, 25
17, 25
17, 24
18, 24
18, 23
19, 23
19, 24
20, 24
20, 25
21, 25
21, 24
22, 24
22, 23
23, 23
23, 22
22, 22
22, 21
21, 21
21, 20
20, 20
20, 21
19, 21
19, 22
18, 22
18, 21
17, 21
17, 20
18, 20
18, 19
19, 19
19, 18
18, 18
18, 17
17, 17
17, 16
16, 16
16, 17
15, 17
15, 18
14, 18
14, 19
15, 19
15, 20
16, 20
16, 21
15, 21
15, 22
14, 22
14, 21
13, 21
13, 20
12, 20
12, 21
11, 21
11, 22
10, 22
10, 23
11, 23
11, 24
12, 24
12, 25
13, 25
13, 24
14, 24
14, 23
15, 23
15, 24
16, 24
16, 25
15, 25
15, 26
14, 26
14, 27
15, 27
15, 28
16, 28
16, 29
15, 29
15, 30
14, 30
14, 29
13, 29
13, 28
12, 28
12, 29
11, 29
11, 30
10, 30
10, 29
9, 29
9, 28
10, 28
10, 27
11, 27
11, 26
10, 26
10, 25
9, 25
9, 24
8, 24
8, 25
7, 25
7, 26
6, 26
6, 27
7, 27
7, 28
8, 28
8, 29
7, 29
7, 30
6, 30
6, 29
5, 29
5, 28
4, 28
4, 29
3, 29
3, 30
2, 30
2, 29
1, 29
1, 28
2, 28
2, 27
3, 27
3, 26
2, 26
2, 25
1, 25
1, 24
2, 24
2, 23
3, 23
3, 24
4, 24
4, 25
5, 25
5, 24
6, 24
6, 23
7, 23
7, 22
6, 22
6, 21
5, 21
5, 20
4, 20
4, 21
3, 21
3, 22
2, 22
2, 21
1, 21
1, 20
2, 20
2, 19
3, 19
3, 18
2, 18
2, 17
1, 17
1, 16
2, 16
2, 15
3, 15
3, 16
4, 16
4, 17
5, 17
5, 16
6, 16
6, 15
7, 15
7, 16
8, 16
8, 17
7, 17
7, 18
6, 18
6, 19
7, 19
7, 20
8, 20
8, 21
9, 21
9, 20
10, 20
10, 19
11, 19
11, 18
10, 18
10, 17
9, 17
9, 16
10, 16
10, 15
11, 15
11, 16
12, 16
12, 17
13, 17
13, 16
14, 16
14, 15
15, 15
15, 14
14, 14
14, 13
13, 13
13, 12
12, 12
12, 13
11, 13
11, 14
10, 14
10, 13
9, 13
9, 12
10, 12
10, 11
11, 11
11, 10
10, 10
10, 9
9, 9
9, 8
8, 8
8, 9
7, 9
7, 10
6, 10
6, 11
7, 11
7, 12
8, 12
8, 13
7, 13
7, 14
6, 14
6, 13
5, 13
5, 12
4, 12
4, 13
3, 13
3, 14
2, 14
2, 13
1, 13
1, 12
2, 12
2, 11
3, 11
3, 10
2, 10
2, 9
1, 9
1, 8
2, 8
2, 7
3, 7
3, 8
4, 8
4, 9
5, 9
5, 8
6, 8
6, 7
7, 7
7, 6
6, 6
6, 5
5, 5
5, 4
4, 4
4, 5
3, 5
3, 6
2, 6
2, 5
1, 5
1, 4
2, 4
2, 3
3, 3
3, 2
2, 2
2, 1
1, 1
1, 0
0, 0
" fill="none" stroke="black" stroke-width="0.1118033988749895"/>
</svg>