<svg xmlns="http://www.w3.org/2000/svg"
     xmlns:xlink="http://www.w3.org/1999/xlink"
     width="500" height="500" viewBox="-42 -32.04294 43.5 40.70319">
<rect x="-42" y="-32.04294" width="100%" height="100%" fill="white"/>
<polyline points="
-40.5, -23.38269
-41.5, -23.38269
-41, -24.24871
-42, -24.24871
-41.5, -25.11474
-41, -24.24871
-40.5, -25.11474
-41.5, -25.11474
-41, -25.98076
-42, -25.98076
-41.5, -26.84679
-41, -25.98076
-40.5, -26.84679
-40, -25.98076
-41, -25.98076
-40.5, -25.11474
-40, -25.98076
-39.5, -25.11474
-39, -25.98076
-40, -25.98076
-39.5, -26.84679
-40.5, -26.84679
-40, -27.71281
-39.5, -26.84679
-39, -27.71281
-40, -27.71281
-39.5, -28.57884
-40.5, -28.57884
-40, -29.44486
-39.5, -28.57884
-39, -29.44486
-38.5, -28.57884
-39.5, -28.57884
-39, -27.71281
-38.5, -28.57884
-38, -27.71281
-37.5, -28.57884
-37, -27.71281
-38, -27.71281
-37.5, -26.84679
-38.5, -26.84679
-38, -27.71281
-39, -27.71281
-38.5, -26.84679
-39.5, -26.84679
-39, -25.98076
-38.5, -26.84679
-38, -25.98076
-37.5, -26.84679
-37, -25.98076
-38, -25.98076
-37.5, -25.11474
-37, -25.98076
-36.5, -25.11474
-36, -25.98076
-37, -25.98076
-36.5, -26.84679
-37.5, -26.84679
-37, -27.71281
-36.5, -26.84679
-36, -27.71281
-37, -27.71281
-36.5, -28.57884
-37.5, -28.57884
-37, -29.44486
-36.5, -28.57884
-36, -29.44486
-35.5, -28.57884
-36.5, -28.57884
-36, -27.71281
-35.5, -28.57884
-35, -27.71281
-34.5, -28.57884
-35.5, -28.57884
-35, -29.44486
-36, -29.44486
-35.5, -30.31089
-35, -29.44486
-34.5, -30.31089
-35.5, -30.31089
-35, -31.17691
-36, -31.17691
-35.5, -32.04294
-35, -31.17691
-34.5, -32.04294
-34, -31.17691
-35, -31.17691
-34.5, -30.31089
-34, -31.17691
-33.5, -30.31089
-33, -31.17691
-32.5, -30.31089
-33.5, -30.31089
-33, -29.44486
-34, -29.44486
-33.5, -30.31089
-34.5, -30.31089
-34, -29.44486
-35, -29.44486
-34.5, -28.57884
-34, -29.44486
-33.5, -28.57884
-33, -29.44486
-32.5, -28.57884
-33.5, -28.57884
-33, -27.71281
-32.5, -28.57884
-32, -27.71281
-31.5, -28.57884
-31, -27.71281
-32, -27.71281
-31.5, -26.84679
-32.5, -26.84679
-32, -27.71281
-33, -27.71281
-32.5, -26.84679
-33.5, -26.84679
-33, -25.98076
-34, -25.98076
-33.5, -26.84679
-34.5, -26.84679
-34, -27.71281
-33.5, -26.84679
-33, -27.71281
-34, -27.71281
-33.5, -28.57884
-34.5, -28.57884
-34, -27.71281
-35, -27.71281
-34.5, -26.84679
-35.5, -26.84679
-35, -27.71281
-36, -27.71281
-35.5, -26.84679
-36.5, -26.84679
-36, -25.98076
-35.5, -26.84679
-35, -25.98076
-34.5, -26.84679
-34, -25.98076
-35, -25.98076
-34.5, -25.11474
-34, -25.98076
-33.5, -25.11474
-33, -25.98076
-32.5, -25.11474
-33.5, -25.11474
-33, -24.24871
-34, -24.24871
-33.5, -25.11474
-34.5, -25.11474
-34, -24.24871
-35, -24.24871
-34.5, -23.38269
-34, -24.24871
-33.5, -23.38269
-33, -24.24871
-32.5, -23.38269
-33.5, -23.38269
-33, -22.51666
-32.5, -23.38269
-32, -22.51666
-31.5, -23.38269
-32.5, -23.38269
-32, -24.24871
-33, -24.24871
-32.5, -25.11474
-32, -24.24871
-31.5, -25.11474
-32.5, -25.11474
-32, -25.98076
-33, -25.98076
-32.5, -26.84679
-32, -25.98076
-31.5, -26.84679
-31, -25.98076
-32, -25.98076
-31.5, -25.11474
-31, -25.98076
-30.5, -25.11474
-30, -25.98076
-31, -25.98076
-30.5, -26.84679
-31.5, -26.84679
-31, -27.71281
-30.5, -26.84679
-30, -27.71281
-31, -27.71281
-30.5, -28.57884
-31.5, -28.57884
-31, -29.44486
-30.5, -28.57884
-30, -29.44486
-29.5, -28.57884
-30.5, -28.57884
-30, -27.71281
-29.5, -28.57884
-29, -27.71281
-28.5, -28.57884
-28, -27.71281
-29, -27.71281
-28.5, -26.84679
-29.5, -26.84679
-29, -27.71281
-30, -27.71281
-29.5, -26.84679
-30.5, -26.84679
-30, -25.98076
-29.5, -26.84679
-29, -25.98076
-28.5, -26.84679
-28, -25.98076
-29, -25.98076
-28.5, -25.11474
-28, -25.98076
-27.5, -25.11474
-27, -25.98076
-28, -25.98076
-27.5, -26.84679
-28.5, -26.84679
-28, -27.71281
-27.5, -26.84679
-27, -27.71281
-28, -27.71281
-27.5, -28.57884
-28.5, -28.57884
-28, -29.44486
-27.5, -28.57884
-27, -29.44486
-26.5, -28.57884
-27.5, -28.57884
-27, -27.71281
-26.5, -28.57884
-26, -27.71281
-25.5, -28.57884
-26.5, -28.57884
-26, -29.44486
-27, -29.44486
-26.5, -30.31089
-26, -29.44486
-25.5, -30.31089
-26.5, -30.31089
-26, -31.17691
-27, -31.17691
-26.5, -32.04294
-26, -31.17691
-25.5, -32.04294
-25, -31.17691
-26, -31.17691
-25.5, -30.31089
-25, -31.17691
-24.5, -30.31089
-24, -31.17691
-23.5, -30.31089
-24.5, -30.31089
-24, -29.44486
-25, -29.44486
-24.5, -30.31089
-25.5, -30.31089
-25, -29.44486
-26, -29.44486
-25.5, -28.57884
-25, -29.44486
-24.5, -28.57884
-24, -29.44486
-23.5, -28.57884
-24.5, -28.57884
-24, -27.71281
-23.5, -28.57884
-23, -27.71281
-22.5, -28.57884
-22, -27.71281
-23, -27.71281
-22.5, -26.84679
-23.5, -26.84679
-23, -27.71281
-24, -27.71281
-23.5, -26.84679
-24.5, -26.84679
-24, -25.98076
-25, -25.98076
-24.5, -26.84679
-25.5, -26.84679
-25, -27.71281
-24.5, -26.84679
-24, -27.71281
-25, -27.71281
-24.5, -28.57884
-25.5, -28.57884
-25, -27.71281
-26, -27.71281
-25.5, -26.84679
-26.5, -26.84679
-26, -27.71281
-27, -27.71281
-26.5, -26.84679
-27.5, -26.84679
-27, -25.98076
-26.5, -26.84679
-26, -25.98076
-25.5, -26.84679
-25, -25.98076
-26, -25.98076
-25.5, -25.11474
-25, -25.98076
-24.5, -25.11474
-24, -25.98076
-23.5, -25.11474
-24.5, -25.11474
-24, -24.24871
-25, -24.24871
-24.5, -25.11474
-25.5, -25.11474
-25, -24.24871
-26, -24.24871
-25.5, -23.38269
-25, -24.24871
-24.5, -23.38269
-24, -24.24871
-23.5, -23.38269
-24.5, -23.38269
-24, -22.51666
-23.5, -23.38269
-23, -22.51666
-22.5, -23.38269
-22, -22.51666
-23, -22.51666
-22.5, -21.65064
-23.5, -21.65064
-23, -22.51666
-24, -22.51666
-23.5, -21.65064
-24.5, -21.65064
-24, -20.78461
-25, -20.78461
-24.5, -21.65064
-25.5, -21.65064
-25, -22.51666
-24.5, -21.65064
-24, -22.51666
-25, -22.51666
-24.5, -23.38269
-25.5, -23.38269
-25, -22.51666
-26, -22.51666
-25.5, -21.65064
-26.5, -21.65064
-26, -22.51666
-27, -22.51666
-26.5, -21.65064
-27.5, -21.65064
-27, -20.78461
-28, -20.78461
-27.5, -21.65064
-28.5, -21.65064
-28, -22.51666
-27.5, -21.65064
-27, -22.51666
-28, -22.51666
-27.5, -23.38269
-28.5, -23.38269
-28, -24.24871
-27.5, -23.38269
-27, -24.24871
-26.5, -23.38269
-27.5, -23.38269
-27, -22.51666
-26.5, -23.38269
-26, -22.51666
-25.5, -23.38269
-26.5, -23.38269
-26, -24.24871
-27, -24.24871
-26.5, -25.11474
-26, -24.24871
-25.5, -25.11474
-26.5, -25.11474
-26, -25.98076
-27, -25.98076
-26.5, -25.11474
-27.5, -25.11474
-27, -24.24871
-28, -24.24871
-27.5, -25.11474
-28.5, -25.11474
-28, -24.24871
-29, -24.24871
-28.5, -23.38269
-29.5, -23.38269
-29, -24.24871
-30, -24.24871
-29.5, -25.11474
-29, -24.24871
-28.5, -25.11474
-29.5, -25.11474
-29, -25.98076
-30, -25.98076
-29.5, -25.11474
-30.5, -25.11474
-30, -24.24871
-31, -24.24871
-30.5, -25.11474
-31.5, -25.11474
-31, -24.24871
-32, -24.24871
-31.5, -23.38269
-31, -24.24871
-30.5, -23.38269
-30, -24.24871
-29.5, -23.38269
-30.5, -23.38269
-30, -22.51666
-29.5, -23.38269
-29, -22.51666
-28.5, -23.38269
-28, -22.51666
-29, -22.51666
-28.5, -21.65064
-29.5, -21.65064
-29, -22.51666
-30, -22.51666
-29.5, -21.65064
-30.5, -21.65064
-30, -20.78461
-29.5, -21.65064
-29, -20.78461
-28.5, -21.65064
-28, -20.78461
-29, -20.78461
-28.5, -19.91858
-28, -20.78461
-27.5, -19.91858
-27, -20.78461
-26.5, -19.91858
-27.5, -19.91858
-27, -19.05256
-28, -19.05256
-27.5, -19.91858
-28.5, -19.91858
-28, -19.05256
-29, -19.05256
-28.5, -18.18653
-29.5, -18.18653
-29, -19.05256
-30, -19.05256
-29.5, -19.91858
-29, -19.05256
-28.5, -19.91858
-29.5, -19.91858
-29, -20.78461
-30, -20.78461
-29.5, -19.91858
-30.5, -19.91858
-30, -19.05256
-31, -19.05256
-30.5, -19.91858
-31.5, -19.91858
-31, -19.05256
-32, -19.05256
-31.5, -18.18653
-31, -19.05256
-30.5, -18.18653
-30, -19.05256
-29.5, -18.18653
-30.5, -18.18653
-30, -17.32051
-29.5, -18.18653
-29, -17.32051
-28.5, -18.18653
-28, -17.32051
-29, -17.32051
-28.5, -16.45448
-29.5, -16.45448
-29, -17.32051
-30, -17.32051
-29.5, -16.45448
-30.5, -16.45448
-30, -15.58846
-29.5, -16.45448
-29, -15.58846
-28.5, -16.45448
-28, -15.58846
-29, -15.58846
-28.5, -14.72243
-28, -15.58846
-27.5, -14.72243
-27, -15.58846
-28, -15.58846
-27.5, -16.45448
-28.5, -16.45448
-28, -17.32051
-27.5, -16.45448
-27, -17.32051
-28, -17.32051
-27.5, -18.18653
-28.5, -18.18653
-28, -19.05256
-27.5, -18.18653
-27, -19.05256
-26.5, -18.18653
-27.5, -18.18653
-27, -17.32051
-26.5, -18.18653
-26, -17.32051
-25.5, -18.18653
-26.5, -18.18653
-26, -19.05256
-27, -19.05256
-26.5, -19.91858
-26, -19.05256
-25.5, -19.91858
-26.5, -19.91858
-26, -20.78461
-27, -20.78461
-26.5, -21.65064
-26, -20.78461
-25.5, -21.65064
-25, -20.78461
-26, -20.78461
-25.5, -19.91858
-25, -20.78461
-24.5, -19.91858
-24, -20.78461
-23.5, -19.91858
-24.5, -19.91858
-24, -19.05256
-25, -19.05256
-24.5, -19.91858
-25.5, -19.91858
-25, -19.05256
-26, -19.05256
-25.5, -18.18653
-25, -19.05256
-24.5, -18.18653
-24, -19.05256
-23.5, -18.18653
-24.5, -18.18653
-24, -17.32051
-23.5, -18.18653
-23, -17.32051
-22.5, -18.18653
-23.5, -18.18653
-23, -19.05256
-24, -19.05256
-23.5, -19.91858
-23, -19.05256
-22.5, -19.91858
-23.5, -19.91858
-23, -20.78461
-24, -20.78461
-23.5, -21.65064
-23, -20.78461
-22.5, -21.65064
-22, -20.78461
-23, -20.78461
-22.5, -19.91858
-22, -20.78461
-21.5, -19.91858
-21, -20.78461
-22, -20.78461
-21.5, -21.65064
-22.5, -21.65064
-22, -22.51666
-21.5, -21.65064
-21, -22.51666
-22, -22.51666
-21.5, -23.38269
-22.5, -23.38269
-22, -24.24871
-21.5, -23.38269
-21, -24.24871
-20.5, -23.38269
-21.5, -23.38269
-21, -22.51666
-20.5, -23.38269
-20, -22.51666
-19.5, -23.38269
-19, -22.51666
-20, -22.51666
-19.5, -21.65064
-20.5, -21.65064
-20, -22.51666
-21, -22.51666
-20.5, -21.65064
-21.5, -21.65064
-21, -20.78461
-20.5, -21.65064
-20, -20.78461
-19.5, -21.65064
-19, -20.78461
-20, -20.78461
-19.5, -19.91858
-19, -20.78461
-18.5, -19.91858
-18, -20.78461
-17.5, -19.91858
-18.5, -19.91858
-18, -19.05256
-19, -19.05256
-18.5, -19.91858
-19.5, -19.91858
-19, -19.05256
-20, -19.05256
-19.5, -18.18653
-20.5, -18.18653
-20, -19.05256
-21, -19.05256
-20.5, -19.91858
-20, -19.05256
-19.5, -19.91858
-20.5, -19.91858
-20, -20.78461
-21, -20.78461
-20.5, -19.91858
-21.5, -19.91858
-21, -19.05256
-22, -19.05256
-21.5, -19.91858
-22.5, -19.91858
-22, -19.05256
-23, -19.05256
-22.5, -18.18653
-22, -19.05256
-21.5, -18.18653
-21, -19.05256
-20.5, -18.18653
-21.5, -18.18653
-21, -17.32051
-20.5, -18.18653
-20, -17.32051
-19.5, -18.18653
-19, -17.32051
-20, -17.32051
-19.5, -16.45448
-20.5, -16.45448
-20, -17.32051
-21, -17.32051
-20.5, -16.45448
-21.5, -16.45448
-21, -15.58846
-20.5, -16.45448
-20, -15.58846
-19.5, -16.45448
-19, -15.58846
-20, -15.58846
-19.5, -14.72243
-19, -15.58846
-18.5, -14.72243
-18, -15.58846
-19, -15.58846
-18.5, -16.45448
-19.5, -16.45448
-19, -17.32051
-18.5, -16.45448
-18, -17.32051
-19, -17.32051
-18.5, -18.18653
-19.5, -18.18653
-19, -19.05256
-18.5, -18.18653
-18, -19.05256
-17.5, -18.18653
-18.5, -18.18653
-18, -17.32051
-17.5, -18.18653
-17, -17.32051
-16.5, -18.18653
-17.5, -18.18653
-17, -19.05256
-18, -19.05256
-17.5, -19.91858
-17, -19.05256
-16.5, -19.91858
-17.5, -19.91858
-17, -20.78461
-18, -20.78461
-17.5, -21.65064
-17, -20.78461
-16.5, -21.65064
-16, -20.78461
-17, -20.78461
-16.5, -19.91858
-16, -20.78461
-15.5, -19.91858
-15, -20.78461
-14.5, -19.91858
-15.5, -19.91858
-15, -19.05256
-16, -19.05256
-15.5, -19.91858
-16.5, -19.91858
-16, -19.05256
-17, -19.05256
-16.5, -18.18653
-16, -19.05256
-15.5, -18.18653
-15, -19.05256
-14.5, -18.18653
-15.5, -18.18653
-15, -17.32051
-14.5, -18.18653
-14, -17.32051
-13.5, -18.18653
-14.5, -18.18653
-14, -19.05256
-15, -19.05256
-14.5, -19.91858
-14, -19.05256
-13.5, -19.91858
-14.5, -19.91858
-14, -20.78461
-15, -20.78461
-14.5, -21.65064
-14, -20.78461
-13.5, -21.65064
-13, -20.78461
-14, -20.78461
-13.5, -19.91858
-13, -20.78461
-12.5, -19.91858
-12, -20.78461
-13, -20.78461
-12.5, -21.65064
-13.5, -21.65064
-13, -22.51666
-12.5, -21.65064
-12, -22.51666
-13, -22.51666
-12.5, -23.38269
-13.5, -23.38269
-13, -24.24871
-12.5, -23.38269
-12, -24.24871
-11.5, -23.38269
-12.5, -23.38269
-12, -22.51666
-11.5, -23.38269
-11, -22.51666
-10.5, -23.38269
-10, -22.51666
-11, -22.51666
-10.5, -21.65064
-11.5, -21.65064
-11, -22.51666
-12, -22.51666
-11.5, -21.65064
-12.5, -21.65064
-12, -20.78461
-11.5, -21.65064
-11, -20.78461
-10.5, -21.65064
-10, -20.78461
-11, -20.78461
-10.5, -19.91858
-10, -20.78461
-9.5, -19.91858
-9, -20.78461
-8.5, -19.91858
-9.5, -19.91858
-9, -19.05256
-10, -19.05256
-9.5, -19.91858
-10.5, -19.91858
-10, -19.05256
-11, -19.05256
-10.5, -18.18653
-11.5, -18.18653
-11, -19.05256
-12, -19.05256
-11.5, -19.91858
-11, -19.05256
-10.5, -19.91858
-11.5, -19.91858
-11, -20.78461
-12, -20.78461
-11.5, -19.91858
-12.5, -19.91858
-12, -19.05256
-13, -19.05256
-12.5, -19.91858
-13.5, -19.91858
-13, -19.05256
-14, -19.05256
-13.5, -18.18653
-13, -19.05256
-12.5, -18.18653
-12, -19.05256
-11.5, -18.18653
-12.5, -18.18653
-12, -17.32051
-11.5, -18.18653
-11, -17.32051
-10.5, -18.18653
-10, -17.32051
-11, -17.32051
-10.5, -16.45448
-11.5, -16.45448
-11, -17.32051
-12, -17.32051
-11.5, -16.45448
-12.5, -16.45448
-12, -15.58846
-11.5, -16.45448
-11, -15.58846
-10.5, -16.45448
-10, -15.58846
-11, -15.58846
-10.5, -14.72243
-10, -15.58846
-9.5, -14.72243
-9, -15.58846
-8.5, -14.72243
-9.5, -14.72243
-9, -13.85641
-10, -13.85641
-9.5, -14.72243
-10.5, -14.72243
-10, -13.85641
-11, -13.85641
-10.5, -12.99038
-11.5, -12.99038
-11, -13.85641
-12, -13.85641
-11.5, -14.72243
-11, -13.85641
-10.5, -14.72243
-11.5, -14.72243
-11, -15.58846
-12, -15.58846
-11.5, -14.72243
-12.5, -14.72243
-12, -13.85641
-13, -13.85641
-12.5, -14.72243
-13.5, -14.72243
-13, -13.85641
-14, -13.85641
-13.5, -12.99038
-14.5, -12.99038
-14, -13.85641
-15, -13.85641
-14.5, -14.72243
-14, -13.85641
-13.5, -14.72243
-14.5, -14.72243
-14, -15.58846
-15, -15.58846
-14.5, -16.45448
-14, -15.58846
-13.5, -16.45448
-13, -15.58846
-14, -15.58846
-13.5, -14.72243
-13, -15.58846
-12.5, -14.72243
-12, -15.58846
-13, -15.58846
-12.5, -16.45448
-13.5, -16.45448
-13, -17.32051
-12.5, -16.45448
-12, -17.32051
-13, -17.32051
-12.5, -18.18653
-13.5, -18.18653
-13, -17.32051
-14, -17.32051
-13.5, -16.45448
-14.5, -16.45448
-14, -17.32051
-15, -17.32051
-14.5, -16.45448
-15.5, -16.45448
-15, -15.58846
-16, -15.58846
-15.5, -16.45448
-16.5, -16.45448
-16, -17.32051
-15.5, -16.45448
-15, -17.32051
-16, -17.32051
-15.5, -18.18653
-16.5, -18.18653
-16, -17.32051
-17, -17.32051
-16.5, -16.45448
-17.5, -16.45448
-17, -17.32051
-18, -17.32051
-17.5, -16.45448
-18.5, -16.45448
-18, -15.58846
-17.5, -16.45448
-17, -15.58846
-16.5, -16.45448
-16, -15.58846
-17, -15.58846
-16.5, -14.72243
-16, -15.58846
-15.5, -14.72243
-15, -15.58846
-14.5, -14.72243
-15.5, -14.72243
-15, -13.85641
-16, -13.85641
-15.5, -14.72243
-16.5, -14.72243
-16, -13.85641
-17, -13.85641
-16.5, -12.99038
-16, -13.85641
-15.5, -12.99038
-15, -13.85641
-14.5, -12.99038
-15.5, -12.99038
-15, -12.12436
-14.5, -12.99038
-14, -12.12436
-13.5, -12.99038
-13, -12.12436
-14, -12.12436
-13.5, -11.25833
-14.5, -11.25833
-14, -12.12436
-15, -12.12436
-14.5, -11.25833
-15.5, -11.25833
-15, -10.3923
-16, -10.3923
-15.5, -11.25833
-16.5, -11.25833
-16, -12.12436
-15.5, -11.25833
-15, -12.12436
-16, -12.12436
-15.5, -12.99038
-16.5, -12.99038
-16, -12.12436
-17, -12.12436
-16.5, -11.25833
-17.5, -11.25833
-17, -12.12436
-18, -12.12436
-17.5, -11.25833
-18.5, -11.25833
-18, -10.3923
-17.5, -11.25833
-17, -10.3923
-16.5, -11.25833
-16, -10.3923
-17, -10.3923
-16.5, -9.52628
-16, -10.3923
-15.5, -9.52628
-15, -10.3923
-14.5, -9.52628
-15.5, -9.52628
-15, -8.66025
-16, -8.66025
-15.5, -9.52628
-16.5, -9.52628
-16, -8.66025
-17, -8.66025
-16.5, -7.79423
-16, -8.66025
-15.5, -7.79423
-15, -8.66025
-14.5, -7.79423
-15.5, -7.79423
-15, -6.9282
-14.5, -7.79423
-14, -6.9282
-13.5, -7.79423
-13, -6.9282
-14, -6.9282
-13.5, -6.06218
-14.5, -6.06218
-14, -6.9282
-15, -6.9282
-14.5, -6.06218
-15.5, -6.06218
-15, -5.19615
-16, -5.19615
-15.5, -6.06218
-16.5, -6.06218
-16, -6.9282
-15.5, -6.06218
-15, -6.9282
-16, -6.9282
-15.5, -7.79423
-16.5, -7.79423
-16, -6.9282
-17, -6.9282
-16.5, -6.06218
-17.5, -6.06218
-17, -6.9282
-18, -6.9282
-17.5, -6.06218
-18.5, -6.06218
-18, -5.19615
-19, -5.19615
-18.5, -6.06218
-19.5, -6.06218
-19, -6.9282
-18.5, -6.06218
-18, -6.9282
-19, -6.9282
-18.5, -7.79423
-19.5, -7.79423
-19, -8.66025
-18.5, -7.79423
-18, -8.66025
-17.5, -7.79423
-18.5, -7.79423
-18, -6.9282
-17.5, -7.79423
-17, -6.9282
-16.5, -7.79423
-17.5, -7.79423
-17, -8.66025
-18, -8.66025
-17.5, -9.52628
-17, -8.66025
-16.5, -9.52628
-17.5, -9.52628
-17, -10.3923
-18, -10.3923
-17.5, -9.52628
-18.5, -9.52628
-18, -8.66025
-19, -8.66025
-18.5, -9.52628
-19.5, -9.52628
-19, -8.66025
-20, -8.66025
-19.5, -7.79423
-20.5, -7.79423
-20, -8.66025
-21, -8.66025
-20.5, -9.52628
-20, -8.66025
-19.5, -9.52628
-20.5, -9.52628
-20, -10.3923
-21, -10.3923
-20.5, -9.52628
-21.5, -9.52628
-21, -8.66025
-22, -8.66025
-21.5, -9.52628
-22.5, -9.52628
-22, -8.66025
-23, -8.66025
-22.5, -7.79423
-23.5, -7.79423
-23, -8.66025
-24, -8.66025
-23.5, -9.52628
-23, -8.66025
-22.5, -9.52628
-23.5, -9.52628
-23, -10.3923
-24, -10.3923
-23.5, -11.25833
-23, -10.3923
-22.5, -11.25833
-22, -10.3923
-23, -10.3923
-22.5, -9.52628
-22, -10.3923
-21.5, -9.52628
-21, -10.3923
-22, -10.3923
-21.5, -11.25833
-22.5, -11.25833
-22, -12.12436
-21.5, -11.25833
-21, -12.12436
-22, -12.12436
-21.5, -12.99038
-22.5, -12.99038
-22, -13.85641
-21.5, -12.99038
-21, -13.85641
-20.5, -12.99038
-21.5, -12.99038
-21, -12.12436
-20.5, -12.99038
-20, -12.12436
-19.5, -12.99038
-19, -12.12436
-20, -12.12436
-19.5, -11.25833
-20.5, -11.25833
-20, -12.12436
-21, -12.12436
-20.5, -11.25833
-21.5, -11.25833
-21, -10.3923
-20.5, -11.25833
-20, -10.3923
-19.5, -11.25833
-19, -10.3923
-20, -10.3923
-19.5, -9.52628
-19, -10.3923
-18.5, -9.52628
-18, -10.3923
-19, -10.3923
-18.5, -11.25833
-19.5, -11.25833
-19, -12.12436
-18.5, -11.25833
-18, -12.12436
-19, -12.12436
-18.5, -12.99038
-19.5, -12.99038
-19, -13.85641
-18.5, -12.99038
-18, -13.85641
-17.5, -12.99038
-18.5, -12.99038
-18, -12.12436
-17.5, -12.99038
-17, -12.12436
-16.5, -12.99038
-17.5, -12.99038
-17, -13.85641
-18, -13.85641
-17.5, -14.72243
-17, -13.85641
-16.5, -14.72243
-17.5, -14.72243
-17, -15.58846
-18, -15.58846
-17.5, -14.72243
-18.5, -14.72243
-18, -13.85641
-19, -13.85641
-18.5, -14.72243
-19.5, -14.72243
-19, -13.85641
-20, -13.85641
-19.5, -12.99038
-20.5, -12.99038
-20, -13.85641
-21, -13.85641
-20.5, -14.72243
-20, -13.85641
-19.5, -14.72243
-20.5, -14.72243
-20, -15.58846
-21, -15.58846
-20.5, -14.72243
-21.5, -14.72243
-21, -13.85641
-22, -13.85641
-21.5, -14.72243
-22.5, -14.72243
-22, -13.85641
-23, -13.85641
-22.5, -12.99038
-23.5, -12.99038
-23, -13.85641
-24, -13.85641
-23.5, -14.72243
-23, -13.85641
-22.5, -14.72243
-23.5, -14.72243
-23, -15.58846
-24, -15.58846
-23.5, -16.45448
-23, -15.58846
-22.5, -16.45448
-22, -15.58846
-23, -15.58846
-22.5, -14.72243
-22, -15.58846
-21.5, -14.72243
-21, -15.58846
-22, -15.58846
-21.5, -16.45448
-22.5, -16.45448
-22, -17.32051
-21.5, -16.45448
-21, -17.32051
-22, -17.32051
-21.5, -18.18653
-22.5, -18.18653
-22, -17.32051
-23, -17.32051
-22.5, -16.45448
-23.5, -16.45448
-23, -17.32051
-24, -17.32051
-23.5, -16.45448
-24.5, -16.45448
-24, -15.58846
-25, -15.58846
-24.5, -16.45448
-25.5, -16.45448
-25, -17.32051
-24.5, -16.45448
-24, -17.32051
-25, -17.32051
-24.5, -18.18653
-25.5, -18.18653
-25, -17.32051
-26, -17.32051
-25.5, -16.45448
-26.5, -16.45448
-26, -17.32051
-27, -17.32051
-26.5, -16.45448
-27.5, -16.45448
-27, -15.58846
-26.5, -16.45448
-26, -15.58846
-25.5, -16.45448
-25, -15.58846
-26, -15.58846
-25.5, -14.72243
-25, -15.58846
-24.5, -14.72243
-24, -15.58846
-23.5, -14.72243
-24.5, -14.72243
-24, -13.85641
-25, -13.85641
-24.5, -14.72243
-25.5, -14.72243
-25, -13.85641
-26, -13.85641
-25.5, -12.99038
-25, -13.85641
-24.5, -12.99038
-24, -13.85641
-23.5, -12.99038
-24.5, -12.99038
-24, -12.12436
-23.5, -12.99038
-23, -12.12436
-22.5, -12.99038
-22, -12.12436
-23, -12.12436
-22.5, -11.25833
-23.5, -11.25833
-23, -12.12436
-24, -12.12436
-23.5, -11.25833
-24.5, -11.25833
-24, -10.3923
-25, -10.3923
-24.5, -11.25833
-25.5, -11.25833
-25, -12.12436
-24.5, -11.25833
-24, -12.12436
-25, -12.12436
-24.5, -12.99038
-25.5, -12.99038
-25, -12.12436
-26, -12.12436
-25.5, -11.25833
-26.5, -11.25833
-26, -12.12436
-27, -12.12436
-26.5, -11.25833
-27.5, -11.25833
-27, -10.3923
-26.5, -11.25833
-26, -10.3923
-25.5, -11.25833
-25, -10.3923
-26, -10.3923
-25.5, -9.52628
-25, -10.3923
-24.5, -9.52628
-24, -10.3923
-23.5, -9.52628
-24.5, -9.52628
-24, -8.66025
-25, -8.66025
-24.5, -9.52628
-25.5, -9.52628
-25, -8.66025
-26, -8.66025
-25.5, -7.79423
-25, -8.66025
-24.5, -7.79423
-24, -8.66025
-23.5, -7.79423
-24.5, -7.79423
-24, -6.9282
-23.5, -7.79423
-23, -6.9282
-22.5, -7.79423
-22, -6.9282
-23, -6.9282
-22.5, -6.06218
-23.5, -6.06218
-23, -6.9282
-24, -6.9282
-23.5, -6.06218
-24.5, -6.06218
-24, -5.19615
-25, -5.19615
-24.5, -6.06218
-25.5, -6.06218
-25, -6.9282
-24.5, -6.06218
-24, -6.9282
-25, -6.9282
-24.5, -7.79423
-25.5, -7.79423
-25, -6.9282
-26, -6.9282
-25.5, -6.06218
-26.5, -6.06218
-26, -6.9282
-27, -6.9282
-26.5, -6.06218
-27.5, -6.06218
-27, -5.19615
-28, -5.19615
-27.5, -6.06218
-28.5, -6.06218
-28, -6.9282
-27.5, -6.06218
-27, -6.9282
-28, -6.9282
-27.5, -7.79423
-28.5, -7.79423
-28, -8.66025
-27.5, -7.79423
-27, -8.66025
-26.5, -7.79423
-27.5, -7.79423
-27, -6.9282
-26.5, -7.79423
-26, -6.9282
-25.5, -7.79423
-26.5, -7.79423
-26, -8.66025
-27, -8.66025
-26.5, -9.52628
-26, -8.66025
-25.5, -9.52628
-26.5, -9.52628
-26, -10.3923
-27, -10.3923
-26.5, -9.52628
-27.5, -9.52628
-27, -8.66025
-28, -8.66025
-27.5, -9.52628
-28.5, -9.52628
-28, -8.66025
-29, -8.66025
-28.5, -7.79423
-29.5, -7.79423
-29, -8.66025
-30, -8.66025
-29.5, -9.52628
-29, -8.66025
-28.5, -9.52628
-29.5, -9.52628
-29, -10.3923
-30, -10.3923
-29.5, -9.52628
-30.5, -9.52628
-30, -8.66025
-31, -8.66025
-30.5, -9.52628
-31.5, -9.52628
-31, -8.66025
-32, -8.66025
-31.5, -7.79423
-31, -8.66025
-30.5, -7.79423
-30, -8.66025
-29.5, -7.79423
-30.5, -7.79423
-30, -6.9282
-29.5, -7.79423
-29, -6.9282
-28.5, -7.79423
-28, -6.9282
-29, -6.9282
-28.5, -6.06218
-29.5, -6.06218
-29, -6.9282
-30, -6.9282
-29.5, -6.06218
-30.5, -6.06218
-30, -5.19615
-29.5, -6.06218
-29, -5.19615
-28.5, -6.06218
-28, -5.19615
-29, -5.19615
-28.5, -4.33013
-28, -5.19615
-27.5, -4.33013
-27, -5.19615
-26.5, -4.33013
-27.5, -4.33013
-27, -3.4641
-28, -3.4641
-27.5, -4.33013
-28.5, -4.33013
-28, -3.4641
-29, -3.4641
-28.5, -2.59808
-29.5, -2.59808
-29, -3.4641
-30, -3.4641
-29.5, -4.33013
-29, -3.4641
-28.5, -4.33013
-29.5, -4.33013
-29, -5.19615
-30, -5.19615
-29.5, -4.33013
-30.5, -4.33013
-30, -3.4641
-31, -3.4641
-30.5, -4.33013
-31.5, -4.33013
-31, -3.4641
-32, -3.4641
-31.5, -2.59808
-31, -3.4641
-30.5, -2.59808
-30, -3.4641
-29.5, -2.59808
-30.5, -2.59808
-30, -1.73205
-29.5, -2.59808
-29, -1.73205
-28.5, -2.59808
-28, -1.73205
-29, -1.73205
-28.5, -0.86603
-29.5, -0.86603
-29, -1.73205
-30, -1.73205
-29.5, -0.86603
-30.5, -0.86603
-30, -0
-29.5, -0.86603
-29, -0
-28.5, -0.86603
-28, -0
-29, -0
-28.5, 0.86603
-28, -0
-27.5, 0.86603
-27, -0
-28, -0
-27.5, -0.86603
-28.5, -0.86603
-28, -1.73205
-27.5, -0.86603
-27, -1.73205
-28, -1.73205
-27.5, -2.59808
-28.5, -2.59808
-28, -3.4641
-27.5, -2.59808
-27, -3.4641
-26.5, -2.59808
-27.5, -2.59808
-27, -1.73205
-26.5, -2.59808
-26, -1.73205
-25.5, -2.59808
-26.5, -2.59808
-26, -3.4641
-27, -3.4641
-26.5, -4.33013
-26, -3.4641
-25.5, -4.33013
-26.5, -4.33013
-26, -5.19615
-27, -5.19615
-26.5, -6.06218
-26, -5.19615
-25.5, -6.06218
-25, -5.19615
-26, -5.19615
-25.5, -4.33013
-25, -5.19615
-24.5, -4.33013
-24, -5.19615
-23.5, -4.33013
-24.5, -4.33013
-24, -3.4641
-25, -3.4641
-24.5, -4.33013
-25.5, -4.33013
-25, -3.4641
-26, -3.4641
-25.5, -2.59808
-25, -3.4641
-24.5, -2.59808
-24, -3.4641
-23.5, -2.59808
-24.5, -2.59808
-24, -1.73205
-23.5, -2.59808
-23, -1.73205
-22.5, -2.59808
-23.5, -2.59808
-23, -3.4641
-24, -3.4641
-23.5, -4.33013
-23, -3.4641
-22.5, -4.33013
-23.5, -4.33013
-23, -5.19615
-24, -5.19615
-23.5, -6.06218
-23, -5.19615
-22.5, -6.06218
-22, -5.19615
-23, -5.19615
-22.5, -4.33013
-22, -5.19615
-21.5, -4.33013
-21, -5.19615
-22, -5.19615
-21.5, -6.06218
-22.5, -6.06218
-22, -6.9282
-21.5, -6.06218
-21, -6.9282
-22, -6.9282
-21.5, -7.79423
-22.5, -7.79423
-22, -8.66025
-21.5, -7.79423
-21, -8.66025
-20.5, -7.79423
-21.5, -7.79423
-21, -6.9282
-20.5, -7.79423
-20, -6.9282
-19.5, -7.79423
-19, -6.9282
-20, -6.9282
-19.5, -6.06218
-20.5, -6.06218
-20, -6.9282
-21, -6.9282
-20.5, -6.06218
-21.5, -6.06218
-21, -5.19615
-20.5, -6.06218
-20, -5.19615
-19.5, -6.06218
-19, -5.19615
-20, -5.19615
-19.5, -4.33013
-19, -5.19615
-18.5, -4.33013
-18, -5.19615
-17.5, -4.33013
-18.5, -4.33013
-18, -3.4641
-19, -3.4641
-18.5, -4.33013
-19.5, -4.33013
-19, -3.4641
-20, -3.4641
-19.5, -2.59808
-20.5, -2.59808
-20, -3.4641
-21, -3.4641
-20.5, -4.33013
-20, -3.4641
-19.5, -4.33013
-20.5, -4.33013
-20, -5.19615
-21, -5.19615
-20.5, -4.33013
-21.5, -4.33013
-21, -3.4641
-22, -3.4641
-21.5, -4.33013
-22.5, -4.33013
-22, -3.4641
-23, -3.4641
-22.5, -2.59808
-22, -3.4641
-21.5, -2.59808
-21, -3.4641
-20.5, -2.59808
-21.5, -2.59808
-21, -1.73205
-20.5, -2.59808
-20, -1.73205
-19.5, -2.59808
-19, -1.73205
-20, -1.73205
-19.5, -0.86603
-20.5, -0.86603
-20, -1.73205
-21, -1.73205
-20.5, -0.86603
-21.5, -0.86603
-21, -0
-20.5, -0.86603
-20, -0
-19.5, -0.86603
-19, -0
-20, -0
-19.5, 0.86603
-19, -0
-18.5, 0.86603
-18, -0
-19, -0
-18.5, -0.86603
-19.5, -0.86603
-19, -1.73205
-18.5, -0.86603
-18, -1.73205
-19, -1.73205
-18.5, -2.59808
-19.5, -2.59808
-19, -3.4641
-18.5, -2.59808
-18, -3.4641
-17.5, -2.59808
-18.5, -2.59808
-18, -1.73205
-17.5, -2.59808
-17, -1.73205
-16.5, -2.59808
-17.5, -2.59808
-17, -3.4641
-18, -3.4641
-17.5, -4.33013
-17, -3.4641
-16.5, -4.33013
-17.5, -4.33013
-17, -5.19615
-18, -5.19615
-17.5, -6.06218
-17, -5.19615
-16.5, -6.06218
-16, -5.19615
-17, -5.19615
-16.5, -4.33013
-16, -5.19615
-15.5, -4.33013
-15, -5.19615
-14.5, -4.33013
-15.5, -4.33013
-15, -3.4641
-16, -3.4641
-15.5, -4.33013
-16.5, -4.33013
-16, -3.4641
-17, -3.4641
-16.5, -2.59808
-16, -3.4641
-15.5, -2.59808
-15, -3.4641
-14.5, -2.59808
-15.5, -2.59808
-15, -1.73205
-14.5, -2.59808
-14, -1.73205
-13.5, -2.59808
-14.5, -2.59808
-14, -3.4641
-15, -3.4641
-14.5, -4.33013
-14, -3.4641
-13.5, -4.33013
-14.5, -4.33013
-14, -5.19615
-15, -5.19615
-14.5, -6.06218
-14, -5.19615
-13.5, -6.06218
-13, -5.19615
-14, -5.19615
-13.5, -4.33013
-13, -5.19615
-12.5, -4.33013
-12, -5.19615
-13, -5.19615
-12.5, -6.06218
-13.5, -6.06218
-13, -6.9282
-12.5, -6.06218
-12, -6.9282
-13, -6.9282
-12.5, -7.79423
-13.5, -7.79423
-13, -8.66025
-12.5, -7.79423
-12, -8.66025
-11.5, -7.79423
-12.5, -7.79423
-12, -6.9282
-11.5, -7.79423
-11, -6.9282
-10.5, -7.79423
-10, -6.9282
-11, -6.9282
-10.5, -6.06218
-11.5, -6.06218
-11, -6.9282
-12, -6.9282
-11.5, -6.06218
-12.5, -6.06218
-12, -5.19615
-11.5, -6.06218
-11, -5.19615
-10.5, -6.06218
-10, -5.19615
-11, -5.19615
-10.5, -4.33013
-10, -5.19615
-9.5, -4.33013
-9, -5.19615
-8.5, -4.33013
-9.5, -4.33013
-9, -3.4641
-10, -3.4641
-9.5, -4.33013
-10.5, -4.33013
-10, -3.4641
-11, -3.4641
-10.5, -2.59808
-11.5, -2.59808
-11, -3.4641
-12, -3.4641
-11.5, -4.33013
-11, -3.4641
-10.5, -4.33013
-11.5, -4.33013
-11, -5.19615
-12, -5.19615
-11.5, -4.33013
-12.5, -4.33013
-12, -3.4641
-13, -3.4641
-12.5, -4.33013
-13.5, -4.33013
-13, -3.4641
-14, -3.4641
-13.5, -2.59808
-13, -3.4641
-12.5, -2.59808
-12, -3.4641
-11.5, -2.59808
-12.5, -2.59808
-12, -1.73205
-11.5, -2.59808
-11, -1.73205
-10.5, -2.59808
-10, -1.73205
-11, -1.73205
-10.5, -0.86603
-11.5, -0.86603
-11, -1.73205
-12, -1.73205
-11.5, -0.86603
-12.5, -0.86603
-12, -0
-11.5, -0.86603
-11, -0
-10.5, -0.86603
-10, -0
-11, -0
-10.5, 0.86603
-10, -0
-9.5, 0.86603
-9, -0
-8.5, 0.86603
-9.5, 0.86603
-9, 1.73205
-10, 1.73205
-9.5, 0.86603
-10.5, 0.86603
-10, 1.73205
-11, 1.73205
-10.5, 2.59808
-11.5, 2.59808
-11, 1.73205
-12, 1.73205
-11.5, 0.86603
-11, 1.73205
-10.5, 0.86603
-11.5, 0.86603
-11, -0
-12, -0
-11.5, 0.86603
-12.5, 0.86603
-12, 1.73205
-13, 1.73205
-12.5, 0.86603
-13.5, 0.86603
-13, 1.73205
-14, 1.73205
-13.5, 2.59808
-14.5, 2.59808
-14, 1.73205
-15, 1.73205
-14.5, 0.86603
-14, 1.73205
-13.5, 0.86603
-14.5, 0.86603
-14, -0
-15, -0
-14.5, -0.86603
-14, -0
-13.5, -0.86603
-13, -0
-14, -0
-13.5, 0.86603
-13, -0
-12.5, 0.86603
-12, -0
-13, -0
-12.5, -0.86603
-13.5, -0.86603
-13, -1.73205
-12.5, -0.86603
-12, -1.73205
-13, -1.73205
-12.5, -2.59808
-13.5, -2.59808
-13, -1.73205
-14, -1.73205
-13.5, -0.86603
-14.5, -0.86603
-14, -1.73205
-15, -1.73205
-14.5, -0.86603
-15.5, -0.86603
-15, -0
-16, -0
-15.5, -0.86603
-16.5, -0.86603
-16, -1.73205
-15.5, -0.86603
-15, -1.73205
-16, -1.73205
-15.5, -2.59808
-16.5, -2.59808
-16, -1.73205
-17, -1.73205
-16.5, -0.86603
-17.5, -0.86603
-17, -1.73205
-18, -1.73205
-17.5, -0.86603
-18.5, -0.86603
-18, -0
-17.5, -0.86603
-17, -0
-16.5, -0.86603
-16, -0
-17, -0
-16.5, 0.86603
-16, -0
-15.5, 0.86603
-15, -0
-14.5, 0.86603
-15.5, 0.86603
-15, 1.73205
-16, 1.73205
-15.5, 0.86603
-16.5, 0.86603
-16, 1.73205
-17, 1.73205
-16.5, 2.59808
-16, 1.73205
-15.5, 2.59808
-15, 1.73205
-14.5, 2.59808
-15.5, 2.59808
-15, 3.4641
-14.5, 2.59808
-14, 3.4641
-13.5, 2.59808
-13, 3.4641
-14, 3.4641
-13.5, 4.33013
-14.5, 4.33013
-14, 3.4641
-15, 3.4641
-14.5, 4.33013
-15.5, 4.33013
-15, 5.19615
-16, 5.19615
-15.5, 4.33013
-16.5, 4.33013
-16, 3.4641
-15.5, 4.33013
-15, 3.4641
-16, 3.4641
-15.5, 2.59808
-16.5, 2.59808
-16, 3.4641
-17, 3.4641
-16.5, 4.33013
-17.5, 4.33013
-17, 3.4641
-18, 3.4641
-17.5, 4.33013
-18.5, 4.33013
-18, 5.19615
-17.5, 4.33013
-17, 5.19615
-16.5, 4.33013
-16, 5.19615
-17, 5.19615
-16.5, 6.06218
-16, 5.19615
-15.5, 6.06218
-15, 5.19615
-14.5, 6.06218
-15.5, 6.06218
-15, 6.9282
-16, 6.9282
-15.5, 6.06218
-16.5, 6.06218
-16, 6.9282
-17, 6.9282
-16.5, 7.79423
-16, 6.9282
-15.5, 7.79423
-15, 6.9282
-14.5, 7.79423
-15.5, 7.79423
-15, 8.66025
-14.5, 7.79423
-14, 8.66025
-13.5, 7.79423
-14.5, 7.79423
-14, 6.9282
-15, 6.9282
-14.5, 6.06218
-14, 6.9282
-13.5, 6.06218
-14.5, 6.06218
-14, 5.19615
-15, 5.19615
-14.5, 4.33013
-14, 5.19615
-13.5, 4.33013
-13, 5.19615
-14, 5.19615
-13.5, 6.06218
-13, 5.19615
-12.5, 6.06218
-12, 5.19615
-13, 5.19615
-12.5, 4.33013
-13.5, 4.33013
-13, 3.4641
-12.5, 4.33013
-12, 3.4641
-13, 3.4641
-12.5, 2.59808
-13.5, 2.59808
-13, 1.73205
-12.5, 2.59808
-12, 1.73205
-11.5, 2.59808
-12.5, 2.59808
-12, 3.4641
-11.5, 2.59808
-11, 3.4641
-10.5, 2.59808
-10, 3.4641
-11, 3.4641
-10.5, 4.33013
-11.5, 4.33013
-11, 3.4641
-12, 3.4641
-11.5, 4.33013
-12.5, 4.33013
-12, 5.19615
-11.5, 4.33013
-11, 5.19615
-10.5, 4.33013
-10, 5.19615
-11, 5.19615
-10.5, 6.06218
-10, 5.19615
-9.5, 6.06218
-9, 5.19615
-10, 5.19615
-9.5, 4.33013
-10.5, 4.33013
-10, 3.4641
-9.5, 4.33013
-9, 3.4641
-10, 3.4641
-9.5, 2.59808
-10.5, 2.59808
-10, 1.73205
-9.5, 2.59808
-9, 1.73205
-8.5, 2.59808
-9.5, 2.59808
-9, 3.4641
-8.5, 2.59808
-8, 3.4641
-7.5, 2.59808
-8.5, 2.59808
-8, 1.73205
-9, 1.73205
-8.5, 0.86603
-8, 1.73205
-7.5, 0.86603
-8.5, 0.86603
-8, -0
-9, -0
-8.5, -0.86603
-8, -0
-7.5, -0.86603
-7, -0
-8, -0
-7.5, 0.86603
-7, -0
-6.5, 0.86603
-6, -0
-5.5, 0.86603
-6.5, 0.86603
-6, 1.73205
-7, 1.73205
-6.5, 0.86603
-7.5, 0.86603
-7, 1.73205
-8, 1.73205
-7.5, 2.59808
-7, 1.73205
-6.5, 2.59808
-6, 1.73205
-5.5, 2.59808
-6.5, 2.59808
-6, 3.4641
-5.5, 2.59808
-5, 3.4641
-4.5, 2.59808
-4, 3.4641
-5, 3.4641
-4.5, 4.33013
-5.5, 4.33013
-5, 3.4641
-6, 3.4641
-5.5, 4.33013
-6.5, 4.33013
-6, 5.19615
-7, 5.19615
-6.5, 4.33013
-7.5, 4.33013
-7, 3.4641
-6.5, 4.33013
-6, 3.4641
-7, 3.4641
-6.5, 2.59808
-7.5, 2.59808
-7, 3.4641
-8, 3.4641
-7.5, 4.33013
-8.5, 4.33013
-8, 3.4641
-9, 3.4641
-8.5, 4.33013
-9.5, 4.33013
-9, 5.19615
-8.5, 4.33013
-8, 5.19615
-7.5, 4.33013
-7, 5.19615
-8, 5.19615
-7.5, 6.06218
-7, 5.19615
-6.5, 6.06218
-6, 5.19615
-5.5, 6.06218
-6.5, 6.06218
-6, 6.9282
-7, 6.9282
-6.5, 6.06218
-7.5, 6.06218
-7, 6.9282
-8, 6.9282
-7.5, 7.79423
-7, 6.9282
-6.5, 7.79423
-6, 6.9282
-5.5, 7.79423
-6.5, 7.79423
-6, 8.66025
-5.5, 7.79423
-5, 8.66025
-4.5, 7.79423
-5.5, 7.79423
-5, 6.9282
-6, 6.9282
-5.5, 6.06218
-5, 6.9282
-4.5, 6.06218
-5.5, 6.06218
-5, 5.19615
-6, 5.19615
-5.5, 4.33013
-5, 5.19615
-4.5, 4.33013
-4, 5.19615
-5, 5.19615
-4.5, 6.06218
-4, 5.19615
-3.5, 6.06218
-3, 5.19615
-4, 5.19615
-3.5, 4.33013
-4.5, 4.33013
-4, 3.4641
-3.5, 4.33013
-3, 3.4641
-4, 3.4641
-3.5, 2.59808
-4.5, 2.59808
-4, 1.73205
-3.5, 2.59808
-3, 1.73205
-2.5, 2.59808
-3.5, 2.59808
-3, 3.4641
-2.5, 2.59808
-2, 3.4641
-1.5, 2.59808
-1, 3.4641
-2, 3.4641
-1.5, 4.33013
-2.5, 4.33013
-2, 3.4641
-3, 3.4641
-2.5, 4.33013
-3.5, 4.33013
-3, 5.19615
-2.5, 4.33013
-2, 5.19615
-1.5, 4.33013
-1, 5.19615
-2, 5.19615
-1.5, 6.06218
-1, 5.19615
-0.5, 6.06218
-0, 5.19615
-1, 5.19615
-0.5, 4.33013
-1.5, 4.33013
-1, 3.4641
-0.5, 4.33013
-0, 3.4641
-1, 3.4641
-0.5, 2.59808
-1.5, 2.59808
-1, 1.73205
-0.5, 2.59808
0, 1.73205
0.5, 2.59808
-0.5, 2.59808
0, 3.4641
0.5, 2.59808
1, 3.4641
1.5, 2.59808
0.5, 2.59808
1, 1.73205
0, 1.73205
0.5, 0.86603
1, 1.73205
1.5, 0.86603
0.5, 0.86603
1, 0
0, 0
" fill="none" stroke="black" stroke-width="0.06595452979136461"/>
</svg>