<svg xmlns="http://www.w3.org/2000/svg"
     xmlns:xlink="http://www.w3.org/1999/xlink"
     width="500" height="500" viewBox="-21 -10 42 52">
<rect x="-21" y="-10" width="100%" height="100%" fill="white"/>
<polyline points="
-0, -0
-0, 1
-1, 1
-1, -0
-2, -0
-2, -1
-1, -1
-1, -2
-2, -2
-2, -3
-1, -3
-1, -2
-0, -2
-0, -3
1, -3
1, -4
-0, -4
-0, -5
1, -5
1, -4
2, -4
2, -3
1, -3
1, -2
2, -2
2, -3
3, -3
3, -2
4, -2
4, -3
5, -3
5, -4
4, -4
4, -5
5, -5
5, -4
6, -4
6, -3
5, -3
5, -2
6, -2
6, -1
5, -1
5, -2
4, -2
4, -1
3, -1
3, -0
4, -0
4, -1
5, -1
5, -0
6, -0
6, 1
5, 1
5, 2
6, 2
6, 1
7, 1
7, 2
8, 2
8, 1
9, 1
9, -0
8, -0
8, -1
9, -1
9, -0
10, -0
10, 1
9, 1
9, 2
10, 2
10, 3
9, 3
9, 2
8, 2
8, 3
7, 3
7, 4
8, 4
8, 5
7, 5
7, 4
6, 4
6, 3
7, 3
7, 2
6, 2
6, 3
5, 3
5, 2
4, 2
4, 3
3, 3
3, 4
4, 4
4, 3
5, 3
5, 4
6, 4
6, 5
5, 5
5, 6
6, 6
6, 7
5, 7
5, 6
4, 6
4, 7
3, 7
3, 8
4, 8
4, 7
5, 7
5, 8
6, 8
6, 9
5, 9
5, 10
6, 10
6, 9
7, 9
7, 10
8, 10
8, 9
9, 9
9, 8
8, 8
8, 7
9, 7
9, 8
10, 8
10, 9
9, 9
9, 10
10, 10
10, 11
9, 11
9, 10
8, 10
8, 11
7, 11
7, 12
8, 12
8, 13
7, 13
7, 12
6, 12
6, 11
7, 11
7, 10
6, 10
6, 11
5, 11
5, 10
4, 10
4, 11
3, 11
3, 12
4, 12
4, 13
3, 13
3, 12
2, 12
2, 11
3, 11
3, 10
2, 10
2, 9
3, 9
3, 10
4, 10
4, 9
5, 9
5, 8
4, 8
4, 9
3, 9
3, 8
2, 8
2, 7
3, 7
3, 6
2, 6
2, 7
1, 7
1, 6
-0, 6
-0, 7
-1, 7
-1, 8
-0, 8
-0, 7
1, 7
1, 8
2, 8
2, 9
1, 9
1, 10
2, 10
2, 11
1, 11
1, 10
-0, 10
-0, 11
-1, 11
-1, 12
-0, 12
-0, 13
-1, 13
-1, 12
-2, 12
-2, 11
-1, 11
-1, 10
-2, 10
-2, 11
-3, 11
-3, 10
-4, 10
-4, 11
-5, 11
-5, 12
-4, 12
-4, 11
-3, 11
-3, 12
-2, 12
-2, 13
-3, 13
-3, 14
-2, 14
-2, 15
-3, 15
-3, 14
-4, 14
-4, 15
-5, 15
-5, 16
-4, 16
-4, 15
-3, 15
-3, 16
-2, 16
-2, 17
-3, 17
-3, 18
-2, 18
-2, 17
-1, 17
-1, 18
0, 18
0, 17
1, 17
1, 16
0, 16
-0, 15
1, 15
1, 16
2, 16
2, 17
1, 17
1, 18
2, 18
2, 19
1, 19
1, 18
0, 18
0, 19
-1, 19
-1, 20
0, 20
0, 21
-1, 21
-1, 20
-2, 20
-2, 19
-1, 19
-1, 18
-2, 18
-2, 19
-3, 19
-3, 18
-4, 18
-4, 19
-5, 19
-5, 20
-4, 20
-4, 21
-5, 21
-5, 20
-6, 20
-6, 19
-5, 19
-5, 18
-6, 18
-6, 17
-5, 17
-5, 18
-4, 18
-4, 17
-3, 17
-3, 16
-4, 16
-4, 17
-5, 17
-5, 16
-6, 16
-6, 15
-5, 15
-5, 14
-6, 14
-6, 15
-7, 15
-7, 14
-8, 14
-8, 15
-9, 15
-9, 16
-8, 16
-8, 17
-9, 17
-9, 16
-10, 16
-10, 15
-9, 15
-9, 14
-10, 14
-10, 13
-9, 13
-9, 14
-8, 14
-8, 13
-7, 13
-7, 12
-8, 12
-8, 11
-7, 11
-7, 12
-6, 12
-6, 13
-7, 13
-7, 14
-6, 14
-6, 13
-5, 13
-5, 14
-4, 14
-4, 13
-3, 13
-3, 12
-4, 12
-4, 13
-5, 13
-5, 12
-6, 12
-6, 11
-5, 11
-5, 10
-6, 10
-6, 9
-5, 9
-5, 10
-4, 10
-4, 9
-3, 9
-3, 8
-4, 8
-4, 9
-5, 9
-5, 8
-6, 8
-6, 7
-5, 7
-5, 6
-6, 6
-6, 7
-7, 7
-7, 6
-8, 6
-8, 7
-9, 7
-9, 8
-8, 8
-8, 7
-7, 7
-7, 8
-6, 8
-6, 9
-7, 9
-7, 10
-6, 10
-6, 11
-7, 11
-7, 10
-8, 10
-8, 11
-9, 11
-9, 12
-8, 12
-8, 13
-9, 13
-9, 12
-10, 12
-10, 11
-9, 11
-9, 10
-10, 10
-10, 11
-11, 11
-11, 10
-12, 10
-12, 11
-13, 11
-13, 12
-12, 12
-12, 13
-13, 13
-13, 12
-14, 12
-14, 11
-13, 11
-13, 10
-14, 10
-14, 9
-13, 9
-13, 10
-12, 10
-12, 9
-11, 9
-11, 8
-12, 8
-12, 9
-13, 9
-13, 8
-14, 8
-14, 7
-13, 7
-13, 6
-14, 6
-14, 7
-15, 7
-15, 6
-16, 6
-16, 7
-17, 7
-17, 8
-16, 8
-16, 7
-15, 7
-15, 8
-14, 8
-14, 9
-15, 9
-15, 10
-14, 10
-14, 11
-15, 11
-15, 10
-16, 10
-16, 11
-17, 11
-17, 12
-16, 12
-16, 13
-17, 13
-17, 12
-18, 12
-18, 11
-17, 11
-17, 10
-18, 10
-18, 11
-19, 11
-19, 10
-20, 10
-20, 11
-21, 11
-21, 12
-20, 12
-20, 11
-19, 11
-19, 12
-18, 12
-18, 13
-19, 13
-19, 14
-18, 14
-18, 15
-19, 15
-19, 14
-20, 14
-20, 15
-21, 15
-21, 16
-20, 16
-20, 15
-19, 15
-19, 16
-18, 16
-18, 17
-19, 17
-19, 18
-18, 18
-18, 17
-17, 17
-17, 18
-16, 18
-16, 17
-15, 17
-15, 16
-16, 16
-16, 17
-17, 17
-17, 16
-18, 16
-18, 15
-17, 15
-17, 14
-18, 14
-18, 13
-17, 13
-17, 14
-16, 14
-16, 13
-15, 13
-15, 12
-16, 12
-16, 11
-15, 11
-15, 12
-14, 12
-14, 13
-15, 13
-15, 14
-14, 14
-14, 13
-13, 13
-13, 14
-12, 14
-12, 13
-11, 13
-11, 12
-12, 12
-12, 11
-11, 11
-11, 12
-10, 12
-10, 13
-11, 13
-11, 14
-10, 14
-10, 15
-11, 15
-11, 14
-12, 14
-12, 15
-13, 15
-13, 16
-12, 16
-12, 15
-11, 15
-11, 16
-10, 16
-10, 17
-11, 17
-11, 18
-10, 18
-10, 17
-9, 17
-9, 18
-8, 18
-8, 17
-7, 17
-7, 16
-8, 16
-8, 15
-7, 15
-7, 16
-6, 16
-6, 17
-7, 17
-7, 18
-6, 18
-6, 19
-7, 19
-7, 18
-8, 18
-8, 19
-9, 19
-9, 20
-8, 20
-8, 21
-9, 21
-9, 20
-10, 20
-10, 19
-9, 19
-9, 18
-10, 18
-10, 19
-11, 19
-11, 18
-12, 18
-12, 19
-13, 19
-13, 20
-12, 20
-12, 19
-11, 19
-11, 20
-10, 20
-10, 21
-11, 21
-11, 22
-10, 22
-10, 23
-11, 23
-11, 22
-12, 22
-12, 23
-13, 23
-13, 24
-12, 24
-12, 23
-11, 23
-11, 24
-10, 24
-10, 25
-11, 25
-11, 26
-10, 26
-10, 25
-9, 25
-9, 26
-8, 26
-8, 25
-7, 25
-7, 24
-8, 24
-8, 23
-7, 23
-7, 24
-6, 24
-6, 25
-7, 25
-7, 26
-6, 26
-6, 27
-7, 27
-7, 26
-8, 26
-8, 27
-9, 27
-9, 28
-8, 28
-8, 29
-9, 29
-9, 28
-10, 28
-10, 27
-9, 27
-9, 26
-10, 26
-10, 27
-11, 27
-11, 26
-12, 26
-12, 27
-13, 27
-13, 28
-12, 28
-12, 29
-13, 29
-13, 28
-14, 28
-14, 27
-13, 27
-13, 26
-14, 26
-14, 25
-13, 25
-13, 26
-12, 26
-12, 25
-11, 25
-11, 24
-12, 24
-12, 25
-13, 25
-13, 24
-14, 24
-14, 23
-13, 23
-13, 22
-14, 22
-14, 23
-15, 23
-15, 22
-16, 22
-16, 23
-17, 23
-17, 24
-16, 24
-16, 23
-15, 23
-15, 24
-14, 24
-14, 25
-15, 25
-15, 26
-14, 26
-14, 27
-15, 27
-15, 26
-16, 26
-16, 27
-17, 27
-17, 28
-16, 28
-16, 29
-17, 29
-17, 28
-18, 28
-18, 27
-17, 27
-17, 26
-18, 26
-18, 27
-19, 27
-19, 26
-20, 26
-20, 27
-21, 27
-21, 28
-20, 28
-20, 27
-19, 27
-19, 28
-18, 28
-18, 29
-19, 29
-19, 30
-18, 30
-18, 31
-19, 31
-19, 30
-20, 30
-20, 31
-21, 31
-21, 32
-20, 32
-20, 31
-19, 31
-19, 32
-18, 32
-18, 33
-19, 33
-19, 34
-18, 34
-18, 33
-17, 33
-17, 34
-16, 34
-16, 33
-15, 33
-15, 32
-16, 32
-16, 33
-17, 33
-17, 32
-18, 32
-18, 31
-17, 31
-17, 30
-18, 30
-18, 29
-17, 29
-17, 30
-16, 30
-16, 29
-15, 29
-15, 28
-16, 28
-16, 27
-15, 27
-15, 28
-14, 28
-14, 29
-15, 29
-15, 30
-14, 30
-14, 29
-13, 29
-13, 30
-12, 30
-12, 29
-11, 29
-11, 28
-12, 28
-12, 27
-11, 27
-11, 28
-10, 28
-10, 29
-11, 29
-11, 30
-10, 30
-10, 31
-11, 31
-11, 30
-12, 30
-12, 31
-13, 31
-13, 32
-12, 32
-12, 31
-11, 31
-11, 32
-10, 32
-10, 33
-11, 33
-11, 34
-10, 34
-10, 33
-9, 33
-9, 34
-8, 34
-8, 33
-7, 33
-7, 32
-8, 32
-8, 31
-7, 31
-7, 32
-6, 32
-6, 33
-7, 33
-7, 34
-6, 34
-6, 35
-7, 35
-7, 34
-8, 34
-8, 35
-9, 35
-9, 36
-8, 36
-8, 37
-9, 37
-9, 36
-10, 36
-10, 35
-9, 35
-9, 34
-10, 34
-10, 35
-11, 35
-11, 34
-12, 34
-12, 35
-13, 35
-13, 36
-12, 36
-12, 35
-11, 35
-11, 36
-10, 36
-10, 37
-11, 37
-11, 38
-10, 38
-10, 39
-11, 39
-11, 38
-12, 38
-12, 39
-13, 39
-13, 40
-12, 40
-12, 39
-11, 39
-11, 40
-10, 40
-10, 41
-11, 41
-11, 42
-10, 42
-10, 41
-9, 41
-9, 42
-8, 42
-8, 41
-7, 41
-7, 40
-8, 40
-8, 41
-9, 41
-9, 40
-10, 40
-10, 39
-9, 39
-9, 38
-10, 38
-10, 37
-9, 37
-9, 38
-8, 38
-8, 37
-7, 37
-7, 36
-8, 36
-8, 35
-7, 35
-7, 36
-6, 36
-6, 37
-7, 37
-7, 38
-6, 38
-6, 37
-5, 37
-5, 38
-4, 38
-4, 37
-3, 37
-3, 36
-4, 36
-4, 35
-3, 35
-3, 36
-2, 36
-2, 37
-3, 37
-3, 38
-2, 38
-2, 39
-3, 39
-3, 38
-4, 38
-4, 39
-5, 39
-5, 40
-4, 40
-4, 39
-3, 39
-3, 40
-2, 40
-2, 41
-3, 41
-3, 42
-2, 42
-2, 41
-1, 41
-1, 42
0, 42
0, 41
1, 41
1, 40
0, 40
0, 41
-1, 41
-1, 40
-2, 40
-2, 39
-1, 39
-1, 38
-2, 38
-2, 37
-1, 37
-1, 38
0, 38
0, 37
1, 37
1, 36
0, 36
0, 35
1, 35
1, 36
2, 36
2, 37
1, 37
1, 38
2, 38
2, 37
3, 37
3, 38
4, 38
4, 37
5, 37
5, 36
4, 36
4, 37
3, 37
3, 36
2, 36
2, 35
3, 35
3, 34
2, 34
2, 33
3, 33
3, 34
4, 34
4, 33
5, 33
5, 32
4, 32
4, 33
3, 33
3, 32
2, 32
2, 31
3, 31
3, 30
2, 30
2, 31
1, 31
1, 30
0, 30
0, 31
-1, 31
-1, 32
0, 32
0, 31
1, 31
1, 32
2, 32
2, 33
1, 33
1, 34
2, 34
2, 35
1, 35
1, 34
0, 34
0, 35
-1, 35
-1, 36
0, 36
0, 37
-1, 37
-1, 36
-2, 36
-2, 35
-1, 35
-1, 34
-2, 34
-2, 35
-3, 35
-3, 34
-4, 34
-4, 35
-5, 35
-5, 36
-4, 36
-4, 37
-5, 37
-5, 36
-6, 36
-6, 35
-5, 35
-5, 34
-6, 34
-6, 33
-5, 33
-5, 34
-4, 34
-4, 33
-3, 33
-3, 32
-4, 32
-4, 33
-5, 33
-5, 32
-6, 32
-6, 31
-5, 31
-5, 30
-6, 30
-6, 31
-7, 31
-7, 30
-8, 30
-8, 31
-9, 31
-9, 32
-8, 32
-8, 33
-9, 33
-9, 32
-10, 32
-10, 31
-9, 31
-9, 30
-10, 30
-10, 29
-9, 29
-9, 30
-8, 30
-8, 29
-7, 29
-7, 28
-8, 28
-8, 27
-7, 27
-7, 28
-6, 28
-6, 29
-7, 29
-7, 30
-6, 30
-6, 29
-5, 29
-5, 30
-4, 30
-4, 29
-3, 29
-3, 28
-4, 28
-4, 29
-5, 29
-5, 28
-6, 28
-6, 27
-5, 27
-5, 26
-6, 26
-6, 25
-5, 25
-5, 26
-4, 26
-4, 25
-3, 25
-3, 24
-4, 24
-4, 25
-5, 25
-5, 24
-6, 24
-6, 23
-5, 23
-5, 22
-6, 22
-6, 23
-7, 23
-7, 22
-8, 22
-8, 23
-9, 23
-9, 24
-8, 24
-8, 25
-9, 25
-9, 24
-10, 24
-10, 23
-9, 23
-9, 22
-10, 22
-10, 21
-9, 21
-9, 22
-8, 22
-8, 21
-7, 21
-7, 20
-8, 20
-8, 19
-7, 19
-7, 20
-6, 20
-6, 21
-7, 21
-7, 22
-6, 22
-6, 21
-5, 21
-5, 22
-4, 22
-4, 21
-3, 21
-3, 20
-4, 20
-4, 19
-3, 19
-3, 20
-2, 20
-2, 21
-3, 21
-3, 22
-2, 22
-2, 23
-3, 23
-3, 22
-4, 22
-4, 23
-5, 23
-5, 24
-4, 24
-4, 23
-3, 23
-3, 24
-2, 24
-2, 25
-3, 25
-3, 26
-2, 26
-2, 25
-1, 25
-1, 26
0, 26
0, 25
1, 25
1, 24
0, 24
0, 25
-1, 25
-1, 24
-2, 24
-2, 23
-1, 23
-1, 22
-2, 22
-2, 21
-1, 21
-1, 22
0, 22
0, 21
1, 21
1, 20
0, 20
0, 19
1, 19
1, 20
2, 20
2, 21
1, 21
1, 22
2, 22
2, 21
3, 21
3, 22
4, 22
4, 21
5, 21
5, 20
4, 20
4, 21
3, 21
3, 20
2, 20
2, 19
3, 19
3, 18
2, 18
2, 17
3, 17
3, 18
4, 18
4, 17
5, 17
5, 16
4, 16
4, 17
3, 17
3, 16
2, 16
2, 15
3, 15
3, 14
2, 14
2, 15
1, 15
1, 14
0, 14
0, 15
-1, 15
-1, 16
0, 16
0, 17
-1, 17
-1, 16
-2, 16
-2, 15
-1, 15
-1, 14
-2, 14
-2, 13
-1, 13
-1, 14
0, 14
0, 13
1, 13
1, 12
0, 12
0, 11
1, 11
1, 12
2, 12
2, 13
1, 13
1, 14
2, 14
2, 13
3, 13
3, 14
4, 14
4, 13
5, 13
5, 12
4, 12
4, 11
5, 11
5, 12
6, 12
6, 13
5, 13
5, 14
6, 14
6, 15
5, 15
5, 14
4, 14
4, 15
3, 15
3, 16
4, 16
4, 15
5, 15
5, 16
6, 16
6, 17
5, 17
5, 18
6, 18
6, 17
7, 17
7, 18
8, 18
8, 17
9, 17
9, 16
8, 16
8, 15
9, 15
9, 16
10, 16
10, 17
9, 17
9, 18
10, 18
10, 19
9, 19
9, 18
8, 18
8, 19
7, 19
7, 20
8, 20
8, 21
7, 21
7, 20
6, 20
6, 19
7, 19
7, 18
6, 18
6, 19
5, 19
5, 18
4, 18
4, 19
3, 19
3, 20
4, 20
4, 19
5, 19
5, 20
6, 20
6, 21
5, 21
5, 22
6, 22
6, 23
5, 23
5, 22
4, 22
4, 23
3, 23
3, 24
4, 24
4, 23
5, 23
5, 24
6, 24
6, 25
5, 25
5, 26
6, 26
6, 25
7, 25
7, 26
8, 26
8, 25
9, 25
9, 24
8, 24
8, 25
7, 25
7, 24
6, 24
6, 23
7, 23
7, 22
6, 22
6, 21
7, 21
7, 22
8, 22
8, 21
9, 21
9, 20
8, 20
8, 19
9, 19
9, 20
10, 20
10, 21
9, 21
9, 22
10, 22
10, 21
11, 21
11, 22
12, 22
12, 21
13, 21
13, 20
12, 20
12, 19
13, 19
13, 20
14, 20
14, 21
13, 21
13, 22
14, 22
14, 23
13, 23
13, 22
12, 22
12, 23
11, 23
11, 24
12, 24
12, 23
13, 23
13, 24
14, 24
14, 25
13, 25
13, 26
14, 26
14, 25
15, 25
15, 26
16, 26
16, 25
17, 25
17, 24
16, 24
16, 25
15, 25
15, 24
14, 24
14, 23
15, 23
15, 22
14, 22
14, 21
15, 21
15, 22
16, 22
16, 21
17, 21
17, 20
16, 20
16, 19
17, 19
17, 20
18, 20
18, 21
17, 21
17, 22
18, 22
18, 21
19, 21
19, 22
20, 22
20, 21
21, 21
21, 20
20, 20
20, 21
19, 21
19, 20
18, 20
18, 19
19, 19
19, 18
18, 18
18, 17
19, 17
19, 18
20, 18
20, 17
21, 17
21, 16
20, 16
20, 17
19, 17
19, 16
18, 16
18, 15
19, 15
19, 14
18, 14
18, 15
17, 15
17, 14
16, 14
16, 15
15, 15
15, 16
16, 16
16, 15
17, 15
17, 16
18, 16
18, 17
17, 17
17, 18
18, 18
18, 19
17, 19
17, 18
16, 18
16, 19
15, 19
15, 20
16, 20
16, 21
15, 21
15, 20
14, 20
14, 19
15, 19
15, 18
14, 18
14, 19
13, 19
13, 18
12, 18
12, 19
11, 19
11, 20
12, 20
12, 21
11, 21
11, 20
10, 20
10, 19
11, 19
11, 18
10, 18
10, 17
11, 17
11, 18
12, 18
12, 17
13, 17
13, 16
12, 16
12, 17
11, 17
11, 16
10, 16
10, 15
11, 15
11, 14
10, 14
10, 15
9, 15
9, 14
8, 14
8, 15
7, 15
7, 16
8, 16
8, 17
7, 17
7, 16
6, 16
6, 15
7, 15
7, 14
6, 14
6, 13
7, 13
7, 14
8, 14
8, 13
9, 13
9, 12
8, 12
8, 11
9, 11
9, 12
10, 12
10, 13
9, 13
9, 14
10, 14
10, 13
11, 13
11, 14
12, 14
12, 13
13, 13
13, 12
12, 12
12, 13
11, 13
11, 12
10, 12
10, 11
11, 11
11, 10
10, 10
10, 9
11, 9
11, 10
12, 10
12, 9
13, 9
13, 8
12, 8
12, 9
11, 9
11, 8
10, 8
10, 7
11, 7
11, 6
10, 6
10, 7
9, 7
9, 6
8, 6
8, 7
7, 7
7, 8
8, 8
8, 9
7, 9
7, 8
6, 8
6, 7
7, 7
7, 6
6, 6
6, 5
7, 5
7, 6
8, 6
8, 5
9, 5
9, 4
8, 4
8, 3
9, 3
9, 4
10, 4
10, 5
9, 5
9, 6
10, 6
10, 5
11, 5
11, 6
12, 6
12, 5
13, 5
13, 4
12, 4
12, 3
13, 3
13, 4
14, 4
14, 5
13, 5
13, 6
14, 6
14, 7
13, 7
13, 6
12, 6
12, 7
11, 7
11, 8
12, 8
12, 7
13, 7
13, 8
14, 8
14, 9
13, 9
13, 10
14, 10
14, 9
15, 9
15, 10
16, 10
16, 9
17, 9
17, 8
16, 8
16, 9
15, 9
15, 8
14, 8
14, 7
15, 7
15, 6
14, 6
14, 5
15, 5
15, 6
16, 6
16, 5
17, 5
17, 4
16, 4
16, 3
17, 3
17, 4
18, 4
18, 5
17, 5
17, 6
18, 6
18, 5
19, 5
19, 6
20, 6
20, 5
21, 5
21, 4
20, 4
20, 5
19, 5
19, 4
18, 4
18, 3
19, 3
19, 2
18, 2
18, 1
19, 1
19, 2
20, 2
20, 1
21, 1
21, -0
20, -0
20, 1
19, 1
19, -0
18, -0
18, -1
19, -1
19, -2
18, -2
18, -1
17, -1
17, -2
16, -2
16, -1
15, -1
15, -0
16, -0
16, -1
17, -1
17, -0
18, -0
18, 1
17, 1
17, 2
18, 2
18, 3
17, 3
17, 2
16, 2
16, 3
15, 3
15, 4
16, 4
16, 5
15, 5
15, 4
14, 4
14, 3
15, 3
15, 2
14, 2
14, 3
13, 3
13, 2
12, 2
12, 3
11, 3
11, 4
12, 4
12, 5
11, 5
11, 4
10, 4
10, 3
11, 3
11, 2
10, 2
10, 1
11, 1
11, 2
12, 2
12, 1
13, 1
13, -0
12, 0
12, 1
11, 1
11, 0
10, 0
10, -1
11, -1
11, -2
10, -2
10, -1
9, -1
9, -2
8, -2
8, -1
7, -1
7, 0
8, 0
8, 1
7, 1
7, 0
6, 0
6, -1
7, -1
7, -2
6, -2
6, -3
7, -3
7, -2
8, -2
8, -3
9, -3
9, -4
8, -4
8, -5
9, -5
9, -4
10, -4
10, -3
9, -3
9, -2
10, -2
10, -3
11, -3
11, -2
12, -2
12, -3
13, -3
13, -4
12, -4
12, -3
11, -3
11, -4
10, -4
10, -5
11, -5
11, -6
10, -6
10, -7
11, -7
11, -6
12, -6
12, -7
13, -7
13, -8
12, -8
12, -7
11, -7
11, -8
10, -8
10, -9
11, -9
11, -10
10, -10
10, -9
9, -9
9, -10
8, -10
8, -9
7, -9
7, -8
8, -8
8, -9
9, -9
9, -8
10, -8
10, -7
9, -7
9, -6
10, -6
10, -5
9, -5
9, -6
8, -6
8, -5
7, -5
7, -4
8, -4
8, -3
7, -3
7, -4
6, -4
6, -5
7, -5
7, -6
6, -6
6, -5
5, -5
5, -6
4, -6
4, -5
3, -5
3, -4
4, -4
4, -3
3, -3
3, -4
2, -4
2, -5
3, -5
3, -6
2, -6
2, -7
3, -7
3, -6
4, -6
4, -7
5, -7
5, -8
4, -8
4, -7
3, -7
3, -8
2, -8
2, -9
3, -9
3, -10
2, -10
2, -9
1, -9
1, -10
0, -10
0, -9
-1, -9
-1, -8
0, -8
0, -9
1, -9
1, -8
2, -8
2, -7
1, -7
1, -6
2, -6
2, -5
1, -5
1, -6
0, -6
0, -5
-1, -5
-1, -4
0, -4
0, -3
-1, -3
-1, -4
-2, -4
-2, -5
-1, -5
-1, -6
-2, -6
-2, -5
-3, -5
-3, -6
-4, -6
-4, -5
-5, -5
-5, -4
-4, -4
-4, -5
-3, -5
-3, -4
-2, -4
-2, -3
-3, -3
-3, -2
-2, -2
-2, -1
-3, -1
-3, -2
-4, -2
-4, -1
-5, -1
-5, 0
-4, 0
-4, -1
-3, -1
-3, -0
-2, -0
-2, 1
-3, 1
-3, 2
-2, 2
-2, 1
-1, 1
-1, 2
0, 2
0, 1
1, 1
1, 0
0, 0
" fill="none" stroke="black" stroke-width="0.07211102550927978"/>
</svg>